<svg xmlns="http://www.w3.org/2000/svg" width="209.022" height="164.57" viewBox="0 0 209.022 164.57">
  <g id="ATS" transform="translate(-87.602 -33.619)">
    <g id="freepik--Shadow--inject-94" transform="translate(156.08 188.699)">
      <ellipse id="Ellipse_5" data-name="Ellipse 5" cx="70.272" cy="4.745" rx="70.272" ry="4.745" transform="translate(0)" fill="#ebebeb"/>
    </g>
    <g id="freepik--Device--inject-94" transform="translate(87.602 64.045)">
      <rect id="Rectangle_402" data-name="Rectangle 402" width="148.159" height="99.108" transform="translate(19.296)" fill="#dbdbdb"/>
      <rect id="Rectangle_403" data-name="Rectangle 403" width="146.007" height="96.69" transform="translate(20.373 1.211)" fill="#263238"/>
      <rect id="Rectangle_404" data-name="Rectangle 404" width="186.752" height="6.801" transform="translate(0 106.538)" fill="#c7c7c7"/>
      <path id="Tracé_611" data-name="Tracé 611" d="M132.95,374.24l19.3-7.43H300.406l19.3,7.43Z" transform="translate(-132.95 -267.702)" fill="#dbdbdb"/>
      <path id="Tracé_612" data-name="Tracé 612" d="M187.44,371.605l12.453-4.8H319.7l12.453,4.8Z" transform="translate(-166.419 -267.702)" fill="#263238"/>
      <rect id="Rectangle_405" data-name="Rectangle 405" width="129.723" height="82.065" transform="translate(28.516 8.522)" fill="#fff"/>
      <rect id="Rectangle_406" data-name="Rectangle 406" width="129.723" height="3.159" transform="translate(28.516 8.522)" fill="#455a64"/>
      <path id="Tracé_613" data-name="Tracé 613" d="M210.913,134.852a.772.772,0,1,1-.772-.772A.772.772,0,0,1,210.913,134.852Z" transform="translate(-179.889 -124.752)" fill="#407bff"/>
      <path id="Tracé_614" data-name="Tracé 614" d="M219.2,134.852a.772.772,0,1,1-.772-.772A.772.772,0,0,1,219.2,134.852Z" transform="translate(-184.981 -124.752)" fill="#ebebeb"/>
      <path id="Tracé_615" data-name="Tracé 615" d="M227.543,134.852a.772.772,0,1,1-.772-.772A.772.772,0,0,1,227.543,134.852Z" transform="translate(-190.104 -124.752)" fill="#fff"/>
      <rect id="Rectangle_407" data-name="Rectangle 407" width="23.636" height="18.135" transform="translate(114.184 65.211) rotate(180)" fill="#ebebeb"/>
      <path id="Tracé_616" data-name="Tracé 616" d="M373.693,239.469a2.149,2.149,0,1,0,1.686-1.686,2.149,2.149,0,0,0-1.686,1.686Z" transform="translate(-280.796 -188.424)" fill="#fff"/>
      <path id="Tracé_617" data-name="Tracé 617" d="M387.88,253.28h15.836l-7.92-9.76Z" transform="translate(-289.535 -191.973)" fill="#c7c7c7"/>
      <path id="Tracé_618" data-name="Tracé 618" d="M367.66,258.717h14.046l-7.021-6.357Z" transform="translate(-277.116 -197.403)" fill="#dbdbdb"/>
      <rect id="Rectangle_408" data-name="Rectangle 408" width="23.636" height="3.908" transform="translate(90.544 61.307)" fill="#dbdbdb"/>
      <rect id="Rectangle_409" data-name="Rectangle 409" width="17.753" height="1.493" transform="translate(34.92 47.08)" fill="#dbdbdb"/>
      <rect id="Rectangle_410" data-name="Rectangle 410" width="51.377" height="1.493" transform="translate(34.92 50.544)" fill="#dbdbdb"/>
      <rect id="Rectangle_411" data-name="Rectangle 411" width="51.377" height="1.493" transform="translate(34.92 53.831)" fill="#dbdbdb"/>
      <rect id="Rectangle_412" data-name="Rectangle 412" width="51.377" height="1.493" transform="translate(34.92 57.117)" fill="#dbdbdb"/>
      <rect id="Rectangle_413" data-name="Rectangle 413" width="51.377" height="1.493" transform="translate(34.92 60.404)" fill="#dbdbdb"/>
      <rect id="Rectangle_414" data-name="Rectangle 414" width="51.377" height="1.493" transform="translate(34.92 63.687)" fill="#dbdbdb"/>
      <rect id="Rectangle_415" data-name="Rectangle 415" width="17.753" height="3.997" transform="translate(77.706 17.757)" fill="#dbdbdb"/>
      <rect id="Rectangle_416" data-name="Rectangle 416" width="36.475" height="1.493" transform="translate(77.706 24.508)" fill="#dbdbdb"/>
      <rect id="Rectangle_417" data-name="Rectangle 417" width="36.475" height="1.493" transform="translate(77.706 27.795)" fill="#dbdbdb"/>
      <rect id="Rectangle_418" data-name="Rectangle 418" width="36.475" height="1.493" transform="translate(77.706 31.082)" fill="#dbdbdb"/>
      <rect id="Rectangle_419" data-name="Rectangle 419" width="36.475" height="1.493" transform="translate(77.706 34.368)" fill="#dbdbdb"/>
      <rect id="Rectangle_420" data-name="Rectangle 420" width="36.475" height="1.493" transform="translate(77.706 38.739)" fill="#dbdbdb"/>
      <rect id="Rectangle_421" data-name="Rectangle 421" width="36.475" height="1.493" transform="translate(77.706 42.026)" fill="#dbdbdb"/>
      <rect id="Rectangle_422" data-name="Rectangle 422" width="32.467" height="4.066" transform="translate(119.361 17.757)" fill="#407bff"/>
      <rect id="Rectangle_423" data-name="Rectangle 423" width="32.293" height="63.78" transform="translate(119.45 21.858)" fill="#fff"/>
      <path id="Tracé_619" data-name="Tracé 619" d="M474.83,230.278H442.36V166.29h32.47Zm-32.293-.208h32.112V166.5H442.537Z" transform="translate(-322.999 -144.536)" fill="#dbdbdb"/>
      <path id="Tracé_620" data-name="Tracé 620" d="M442.54,230.317l-.17-.077,32.293-63.78.166.077Z" transform="translate(-323.005 -144.641)" fill="#dbdbdb"/>
      <path id="Tracé_621" data-name="Tracé 621" d="M474.663,230.317l-32.293-63.78.17-.077,32.289,63.78Z" transform="translate(-323.005 -144.641)" fill="#dbdbdb"/>
      <rect id="Rectangle_424" data-name="Rectangle 424" width="38.693" height="25.619" transform="translate(34.989 17.826)" fill="#fff"/>
      <path id="Tracé_622" data-name="Tracé 622" d="M223.49,181.71V155.96h38.82v25.75H223.49Zm.123-25.623v25.492h38.577V156.091Z" transform="translate(-188.562 -138.191)" fill="#dbdbdb"/>
      <path id="Tracé_623" data-name="Tracé 623" d="M223.81,156.29c3.252,2.064,6.489,4.159,9.718,6.257l9.664,6.334,9.625,6.4,4.8,3.225,4.772,3.26-4.872-3.109-4.845-3.144L243,169.182l-9.621-6.408C230.179,160.63,226.969,158.493,223.81,156.29Z" transform="translate(-188.759 -138.394)" fill="#dbdbdb"/>
      <path id="Tracé_624" data-name="Tracé 624" d="M262.379,156.29c-3.175,2.187-6.369,4.34-9.567,6.485l-9.621,6.408-9.664,6.334-4.849,3.144-4.868,3.109,4.772-3.26,4.791-3.225,9.621-6.4,9.667-6.334C255.9,160.449,259.124,158.354,262.379,156.29Z" transform="translate(-188.759 -138.394)" fill="#dbdbdb"/>
      <rect id="Rectangle_425" data-name="Rectangle 425" width="18.016" height="78.948" transform="translate(35.051 85.691) rotate(-90)" fill="#fff"/>
      <path id="Tracé_625" data-name="Tracé 625" d="M302.68,285.2v18.131H223.47V285.2Zm-.262,18.016V285.3h-78.7v17.915Z" transform="translate(-188.55 -217.574)" fill="#dbdbdb"/>
      <path id="Tracé_626" data-name="Tracé 626" d="M302.728,303.225l-.1.093L223.68,285.3l.1-.093Z" transform="translate(-188.679 -217.58)" fill="#dbdbdb"/>
      <path id="Tracé_627" data-name="Tracé 627" d="M302.728,285.3l-78.952,18.016-.1-.093,78.952-18.016Z" transform="translate(-188.679 -217.58)" fill="#dbdbdb"/>
    </g>
    <g id="freepik--Crane--inject-94" transform="translate(90.012 39.823)">
      <rect id="Rectangle_426" data-name="Rectangle 426" width="12.013" height="1.169" transform="matrix(0.686, -0.728, 0.728, 0.686, 24.656, 35.083)" fill="#263238"/>
      <rect id="Rectangle_427" data-name="Rectangle 427" width="8.441" height="1.169" transform="translate(25.083 35.267)" fill="#455a64"/>
      <rect id="Rectangle_428" data-name="Rectangle 428" width="8.441" height="1.169" transform="translate(25.083 26.159)" fill="#455a64"/>
      <rect id="Rectangle_429" data-name="Rectangle 429" width="1.169" height="12.013" transform="matrix(0.728, -0.686, 0.686, 0.728, 24.657, 27.141)" fill="#455a64"/>
      <rect id="Rectangle_430" data-name="Rectangle 430" width="12.013" height="1.169" transform="matrix(0.686, -0.728, 0.728, 0.686, 24.655, 44.19)" fill="#263238"/>
      <rect id="Rectangle_431" data-name="Rectangle 431" width="8.441" height="1.169" transform="translate(25.083 44.375)" fill="#455a64"/>
      <rect id="Rectangle_432" data-name="Rectangle 432" width="8.441" height="1.169" transform="translate(25.083 35.267)" fill="#455a64"/>
      <rect id="Rectangle_433" data-name="Rectangle 433" width="1.169" height="12.013" transform="matrix(0.728, -0.686, 0.686, 0.728, 24.655, 36.249)" fill="#455a64"/>
      <rect id="Rectangle_434" data-name="Rectangle 434" width="12.013" height="1.169" transform="matrix(0.686, -0.728, 0.728, 0.686, 24.654, 53.297)" fill="#263238"/>
      <rect id="Rectangle_435" data-name="Rectangle 435" width="8.441" height="1.169" transform="translate(25.083 53.483)" fill="#455a64"/>
      <rect id="Rectangle_436" data-name="Rectangle 436" width="8.441" height="1.169" transform="translate(25.083 44.375)" fill="#455a64"/>
      <rect id="Rectangle_437" data-name="Rectangle 437" width="1.169" height="12.013" transform="matrix(0.728, -0.686, 0.686, 0.728, 24.657, 45.357)" fill="#455a64"/>
      <rect id="Rectangle_438" data-name="Rectangle 438" width="12.013" height="1.169" transform="matrix(0.686, -0.728, 0.728, 0.686, 24.656, 62.405)" fill="#263238"/>
      <rect id="Rectangle_439" data-name="Rectangle 439" width="8.441" height="1.169" transform="translate(25.083 62.591)" fill="#455a64"/>
      <rect id="Rectangle_440" data-name="Rectangle 440" width="8.441" height="1.169" transform="translate(25.083 53.483)" fill="#455a64"/>
      <rect id="Rectangle_441" data-name="Rectangle 441" width="1.169" height="12.013" transform="matrix(0.728, -0.686, 0.686, 0.728, 24.659, 54.465)" fill="#455a64"/>
      <rect id="Rectangle_442" data-name="Rectangle 442" width="12.013" height="1.169" transform="matrix(0.686, -0.728, 0.728, 0.686, 24.655, 71.516)" fill="#263238"/>
      <rect id="Rectangle_443" data-name="Rectangle 443" width="8.441" height="1.169" transform="translate(25.083 71.699)" fill="#455a64"/>
      <rect id="Rectangle_444" data-name="Rectangle 444" width="8.441" height="1.169" transform="translate(25.083 62.591)" fill="#455a64"/>
      <rect id="Rectangle_445" data-name="Rectangle 445" width="1.169" height="12.013" transform="matrix(0.728, -0.686, 0.686, 0.728, 24.658, 63.57)" fill="#455a64"/>
      <rect id="Rectangle_446" data-name="Rectangle 446" width="12.013" height="1.169" transform="matrix(0.686, -0.728, 0.728, 0.686, 24.658, 80.623)" fill="#263238"/>
      <rect id="Rectangle_447" data-name="Rectangle 447" width="8.441" height="1.169" transform="translate(25.083 80.804)" fill="#455a64"/>
      <rect id="Rectangle_448" data-name="Rectangle 448" width="8.441" height="1.169" transform="translate(25.083 71.699)" fill="#455a64"/>
      <rect id="Rectangle_449" data-name="Rectangle 449" width="1.169" height="12.013" transform="matrix(0.728, -0.686, 0.686, 0.728, 24.657, 72.678)" fill="#455a64"/>
      <rect id="Rectangle_450" data-name="Rectangle 450" width="12.013" height="1.169" transform="matrix(0.686, -0.728, 0.728, 0.686, 24.654, 89.728)" fill="#263238"/>
      <rect id="Rectangle_451" data-name="Rectangle 451" width="8.441" height="1.169" transform="translate(25.083 89.912)" fill="#455a64"/>
      <rect id="Rectangle_452" data-name="Rectangle 452" width="8.441" height="1.169" transform="translate(25.083 80.804)" fill="#455a64"/>
      <rect id="Rectangle_453" data-name="Rectangle 453" width="1.169" height="12.013" transform="matrix(0.728, -0.686, 0.686, 0.728, 24.659, 81.782)" fill="#455a64"/>
      <rect id="Rectangle_454" data-name="Rectangle 454" width="12.013" height="1.169" transform="matrix(0.686, -0.728, 0.728, 0.686, 24.657, 98.831)" fill="#263238"/>
      <rect id="Rectangle_455" data-name="Rectangle 455" width="8.441" height="1.169" transform="translate(25.083 99.02)" fill="#455a64"/>
      <rect id="Rectangle_456" data-name="Rectangle 456" width="8.441" height="1.169" transform="translate(25.083 89.912)" fill="#455a64"/>
      <rect id="Rectangle_457" data-name="Rectangle 457" width="1.169" height="12.013" transform="matrix(0.728, -0.686, 0.686, 0.728, 24.661, 90.89)" fill="#455a64"/>
      <rect id="Rectangle_458" data-name="Rectangle 458" width="12.013" height="1.169" transform="matrix(0.686, -0.728, 0.728, 0.686, 24.659, 107.935)" fill="#263238"/>
      <rect id="Rectangle_459" data-name="Rectangle 459" width="8.441" height="1.169" transform="translate(25.083 108.128)" fill="#455a64"/>
      <rect id="Rectangle_460" data-name="Rectangle 460" width="8.441" height="1.169" transform="translate(25.083 99.02)" fill="#455a64"/>
      <rect id="Rectangle_461" data-name="Rectangle 461" width="1.169" height="12.013" transform="matrix(0.728, -0.686, 0.686, 0.728, 24.659, 99.998)" fill="#455a64"/>
      <rect id="Rectangle_462" data-name="Rectangle 462" width="12.013" height="1.169" transform="translate(24.659 117.053) rotate(-46.7)" fill="#263238"/>
      <rect id="Rectangle_463" data-name="Rectangle 463" width="8.441" height="1.169" transform="translate(25.083 117.236)" fill="#455a64"/>
      <rect id="Rectangle_464" data-name="Rectangle 464" width="8.441" height="1.169" transform="translate(25.083 108.128)" fill="#455a64"/>
      <rect id="Rectangle_465" data-name="Rectangle 465" width="1.169" height="12.013" transform="matrix(0.728, -0.686, 0.686, 0.728, 24.661, 109.11)" fill="#455a64"/>
      <rect id="Rectangle_466" data-name="Rectangle 466" width="12.013" height="1.169" transform="translate(24.656 126.158) rotate(-46.7)" fill="#263238"/>
      <rect id="Rectangle_467" data-name="Rectangle 467" width="8.441" height="1.169" transform="translate(25.083 126.344)" fill="#455a64"/>
      <rect id="Rectangle_468" data-name="Rectangle 468" width="8.441" height="1.169" transform="translate(25.083 117.236)" fill="#455a64"/>
      <rect id="Rectangle_469" data-name="Rectangle 469" width="1.169" height="12.013" transform="matrix(0.728, -0.686, 0.686, 0.728, 24.66, 118.212)" fill="#455a64"/>
      <rect id="Rectangle_470" data-name="Rectangle 470" width="5.304" height="12.175" transform="translate(35.213 126.22) rotate(90)" fill="#455a64"/>
      <rect id="Rectangle_471" data-name="Rectangle 471" width="99.915" height="3.051" transform="translate(26.086 26.638) rotate(90)" fill="#455a64"/>
      <rect id="Rectangle_472" data-name="Rectangle 472" width="99.915" height="3.051" transform="translate(35.213 26.637) rotate(90)" fill="#455a64"/>
      <path id="Tracé_628" data-name="Tracé 628" d="M180.023,75.2l-9.12-8.988L93.927,51.864,70.533,66.277l-.613-1L93.7,50.63l77.768,14.493,9.378,9.235Z" transform="translate(-64.612 -49.272)" fill="#455a64"/>
      <path id="Tracé_629" data-name="Tracé 629" d="M123.926,67.057l-9.374-13.031-8.973,13.012-1.929-1.331L114.509,49.96l11.319,15.728Z" transform="translate(-85.33 -48.861)" fill="#263238"/>
      <rect id="Rectangle_473" data-name="Rectangle 473" width="1.169" height="12.013" transform="matrix(0.686, -0.728, 0.728, 0.686, 96.907, 18.832)" fill="#263238"/>
      <rect id="Rectangle_474" data-name="Rectangle 474" width="1.169" height="8.441" transform="translate(105.825 18.197)" fill="#455a64"/>
      <rect id="Rectangle_475" data-name="Rectangle 475" width="1.169" height="8.441" transform="translate(96.717 18.197)" fill="#455a64"/>
      <rect id="Rectangle_476" data-name="Rectangle 476" width="12.013" height="1.169" transform="matrix(0.728, -0.686, 0.686, 0.728, 96.904, 26.219)" fill="#455a64"/>
      <rect id="Rectangle_477" data-name="Rectangle 477" width="1.169" height="12.013" transform="matrix(0.686, -0.728, 0.728, 0.686, 87.797, 18.832)" fill="#263238"/>
      <rect id="Rectangle_478" data-name="Rectangle 478" width="1.169" height="8.441" transform="translate(96.717 18.197)" fill="#455a64"/>
      <rect id="Rectangle_479" data-name="Rectangle 479" width="1.169" height="8.441" transform="translate(87.609 18.197)" fill="#455a64"/>
      <rect id="Rectangle_480" data-name="Rectangle 480" width="12.013" height="1.169" transform="matrix(0.728, -0.686, 0.686, 0.728, 87.788, 26.203)" fill="#455a64"/>
      <rect id="Rectangle_481" data-name="Rectangle 481" width="1.169" height="12.013" transform="matrix(0.686, -0.728, 0.728, 0.686, 78.686, 18.831)" fill="#263238"/>
      <rect id="Rectangle_482" data-name="Rectangle 482" width="1.169" height="8.441" transform="translate(87.609 18.197)" fill="#455a64"/>
      <rect id="Rectangle_483" data-name="Rectangle 483" width="1.169" height="8.441" transform="translate(78.501 18.197)" fill="#455a64"/>
      <rect id="Rectangle_484" data-name="Rectangle 484" width="12.013" height="1.169" transform="matrix(0.728, -0.686, 0.686, 0.728, 78.681, 26.202)" fill="#455a64"/>
      <rect id="Rectangle_485" data-name="Rectangle 485" width="1.169" height="12.013" transform="matrix(0.686, -0.728, 0.728, 0.686, 69.58, 18.831)" fill="#263238"/>
      <rect id="Rectangle_486" data-name="Rectangle 486" width="1.169" height="8.441" transform="translate(78.501 18.197)" fill="#455a64"/>
      <rect id="Rectangle_487" data-name="Rectangle 487" width="1.169" height="8.441" transform="translate(69.393 18.197)" fill="#455a64"/>
      <rect id="Rectangle_488" data-name="Rectangle 488" width="12.013" height="1.169" transform="matrix(0.728, -0.686, 0.686, 0.728, 69.574, 26.205)" fill="#455a64"/>
      <rect id="Rectangle_489" data-name="Rectangle 489" width="1.169" height="12.013" transform="matrix(0.686, -0.728, 0.728, 0.686, 60.473, 18.829)" fill="#263238"/>
      <rect id="Rectangle_490" data-name="Rectangle 490" width="1.169" height="8.441" transform="translate(69.393 18.197)" fill="#455a64"/>
      <rect id="Rectangle_491" data-name="Rectangle 491" width="1.169" height="8.441" transform="translate(60.288 18.197)" fill="#455a64"/>
      <rect id="Rectangle_492" data-name="Rectangle 492" width="12.013" height="1.169" transform="matrix(0.728, -0.686, 0.686, 0.728, 60.467, 26.209)" fill="#455a64"/>
      <rect id="Rectangle_493" data-name="Rectangle 493" width="1.169" height="12.013" transform="matrix(0.686, -0.728, 0.728, 0.686, 51.367, 18.828)" fill="#263238"/>
      <rect id="Rectangle_494" data-name="Rectangle 494" width="1.169" height="8.441" transform="translate(60.288 18.197)" fill="#455a64"/>
      <rect id="Rectangle_495" data-name="Rectangle 495" width="1.169" height="8.441" transform="translate(51.18 18.197)" fill="#455a64"/>
      <rect id="Rectangle_496" data-name="Rectangle 496" width="12.013" height="1.169" transform="matrix(0.728, -0.686, 0.686, 0.728, 51.36, 26.208)" fill="#455a64"/>
      <rect id="Rectangle_497" data-name="Rectangle 497" width="1.169" height="12.013" transform="matrix(0.686, -0.728, 0.728, 0.686, 42.256, 18.828)" fill="#263238"/>
      <rect id="Rectangle_498" data-name="Rectangle 498" width="1.169" height="8.441" transform="translate(51.18 18.197)" fill="#455a64"/>
      <rect id="Rectangle_499" data-name="Rectangle 499" width="1.169" height="8.441" transform="translate(42.072 18.197)" fill="#455a64"/>
      <rect id="Rectangle_500" data-name="Rectangle 500" width="12.013" height="1.169" transform="matrix(0.728, -0.686, 0.686, 0.728, 42.256, 26.208)" fill="#455a64"/>
      <rect id="Rectangle_501" data-name="Rectangle 501" width="1.169" height="12.013" transform="matrix(0.686, -0.728, 0.728, 0.686, 33.15, 18.828)" fill="#263238"/>
      <rect id="Rectangle_502" data-name="Rectangle 502" width="1.169" height="8.441" transform="translate(42.072 18.197)" fill="#455a64"/>
      <rect id="Rectangle_503" data-name="Rectangle 503" width="1.169" height="8.441" transform="translate(32.964 18.197)" fill="#455a64"/>
      <rect id="Rectangle_504" data-name="Rectangle 504" width="12.013" height="1.169" transform="matrix(0.728, -0.686, 0.686, 0.728, 33.15, 26.208)" fill="#455a64"/>
      <rect id="Rectangle_505" data-name="Rectangle 505" width="1.169" height="12.013" transform="matrix(0.686, -0.728, 0.728, 0.686, 24.04, 18.828)" fill="#263238"/>
      <rect id="Rectangle_506" data-name="Rectangle 506" width="1.169" height="8.441" transform="translate(32.964 18.197)" fill="#455a64"/>
      <rect id="Rectangle_507" data-name="Rectangle 507" width="1.169" height="8.441" transform="translate(23.856 18.197)" fill="#455a64"/>
      <rect id="Rectangle_508" data-name="Rectangle 508" width="12.013" height="1.169" transform="matrix(0.728, -0.686, 0.686, 0.728, 24.039, 26.207)" fill="#455a64"/>
      <rect id="Rectangle_509" data-name="Rectangle 509" width="1.169" height="12.013" transform="matrix(0.686, -0.728, 0.728, 0.686, 14.934, 18.828)" fill="#263238"/>
      <rect id="Rectangle_510" data-name="Rectangle 510" width="1.169" height="8.441" transform="translate(23.856 18.197)" fill="#455a64"/>
      <rect id="Rectangle_511" data-name="Rectangle 511" width="1.169" height="8.441" transform="translate(14.748 18.197)" fill="#455a64"/>
      <rect id="Rectangle_512" data-name="Rectangle 512" width="12.013" height="1.169" transform="matrix(0.728, -0.686, 0.686, 0.728, 14.932, 26.206)" fill="#455a64"/>
      <rect id="Rectangle_513" data-name="Rectangle 513" width="1.174" height="12.067" transform="translate(6.034 18.894) rotate(-46.614)" fill="#263238"/>
      <rect id="Rectangle_514" data-name="Rectangle 514" width="1.169" height="8.441" transform="translate(14.748 18.197)" fill="#455a64"/>
      <rect id="Rectangle_515" data-name="Rectangle 515" width="1.169" height="8.441" transform="translate(5.64 18.197)" fill="#455a64"/>
      <rect id="Rectangle_516" data-name="Rectangle 516" width="12.013" height="1.169" transform="matrix(0.728, -0.686, 0.686, 0.728, 5.825, 26.209)" fill="#455a64"/>
      <rect id="Rectangle_517" data-name="Rectangle 517" width="5.297" height="12.175" transform="translate(0 15.986)" fill="#263238"/>
      <rect id="Rectangle_518" data-name="Rectangle 518" width="5.304" height="12.175" transform="translate(5.297 15.986)" fill="#455a64"/>
      <rect id="Rectangle_519" data-name="Rectangle 519" width="10.169" height="6.072" transform="translate(7.434 28.161)" fill="#455a64"/>
      <rect id="Rectangle_520" data-name="Rectangle 520" width="110.936" height="3.051" transform="translate(5.297 25.11)" fill="#455a64"/>
      <path id="Tracé_630" data-name="Tracé 630" d="M174.5,91.6H69.89V88.55H171.514Z" transform="translate(-64.593 -72.564)" fill="#455a64"/>
      <rect id="Rectangle_521" data-name="Rectangle 521" width="1.169" height="8.441" transform="translate(107.819 18.197)" fill="#455a64"/>
      <path id="Tracé_631" data-name="Tracé 631" d="M227.92,198.931l7.33-1.173,7.33-1.134,14.675-2.21.039,0,.039.008,24.419,6.334,12.206,3.2,12.19,3.24-12.241-3.051-12.229-3.1-24.442-6.253.077,0-14.69,2.118-7.345,1.03Z" transform="translate(-161.66 -137.586)" fill="#263238"/>
      <rect id="Rectangle_522" data-name="Rectangle 522" width="1.169" height="17.283" transform="translate(89.97 29.407)" fill="#263238"/>
      <rect id="Rectangle_523" data-name="Rectangle 523" width="1.169" height="17.283" transform="translate(99.872 29.793)" fill="#263238"/>
      <rect id="Rectangle_524" data-name="Rectangle 524" width="15.435" height="2.488" transform="translate(87.871 28.161)" fill="#455a64"/>
      <path id="Tracé_632" data-name="Tracé 632" d="M301.5,175.67l-.131,2.6-.386-.447a4.158,4.158,0,0,1,1.18.509,2.782,2.782,0,0,1,.926.91,2.315,2.315,0,0,1-.062,2.469,2.407,2.407,0,0,1-2.087,1.08,2.538,2.538,0,0,1-1.929-1.157,2.423,2.423,0,0,0,1.929.926,2.079,2.079,0,0,0,1.7-1.088,1.755,1.755,0,0,0-.116-1.856,2.7,2.7,0,0,0-1.7-.9l-.355-.062-.019-.386-.127-2.6Z" transform="translate(-205.325 -126.075)" fill="#263238"/>
      <path id="Tracé_633" data-name="Tracé 633" d="M299.375,161.87v4.236l-7.719,1.832-7.715-1.832V161.87Z" transform="translate(-196.069 -117.599)" fill="#455a64"/>
      <path id="Tracé_634" data-name="Tracé 634" d="M290.258,166.885a.895.895,0,1,1-.263-.634A.9.9,0,0,1,290.258,166.885Z" transform="translate(-198.845 -120.129)" fill="#263238"/>
      <path id="Tracé_635" data-name="Tracé 635" d="M316.56,166.885a.895.895,0,1,1-.895-.895A.895.895,0,0,1,316.56,166.885Z" transform="translate(-215.006 -120.13)" fill="#263238"/>
      <rect id="Rectangle_525" data-name="Rectangle 525" width="79.168" height="17.958" transform="translate(142.575 87.458) rotate(-173.86)" fill="#407bff"/>
      <path id="Tracé_636" data-name="Tracé 636" d="M333.24,241.426l36.093,3.885-17-11.65Z" transform="translate(-226.351 -161.694)" fill="#407bff"/>
      <path id="Tracé_637" data-name="Tracé 637" d="M333.24,241.426l36.093,3.885-17-11.65Z" transform="translate(-226.351 -161.694)" opacity="0.2"/>
      <path id="Tracé_638" data-name="Tracé 638" d="M287.17,241.538l32.007,3.445-15.323-8.043Z" transform="translate(-198.053 -163.709)" fill="#407bff"/>
      <path id="Tracé_639" data-name="Tracé 639" d="M287.17,241.538l32.007,3.445-15.323-8.043Z" transform="translate(-198.053 -163.709)" opacity="0.1"/>
      <rect id="Rectangle_526" data-name="Rectangle 526" width="79.168" height="3.869" transform="translate(64.263 75.154) rotate(6.14)" fill="#407bff"/>
      <rect id="Rectangle_527" data-name="Rectangle 527" width="79.168" height="3.869" transform="translate(64.263 75.154) rotate(6.14)" opacity="0.1"/>
      <path id="Tracé_640" data-name="Tracé 640" d="M244.068,219.328a2.438,2.438,0,1,1-.52-1.8A2.442,2.442,0,0,1,244.068,219.328Z" transform="translate(-168.588 -151.223)" fill="#fff" opacity="0.6"/>
      <path id="Tracé_641" data-name="Tracé 641" d="M130.71,49.085a1.975,1.975,0,1,1-1.975-1.975,1.975,1.975,0,0,1,1.975,1.975Z" transform="translate(-99.525 -47.11)" fill="#a6a6a6"/>
      <path id="Tracé_642" data-name="Tracé 642" d="M131.3,50.762a.926.926,0,1,1-.922-.922A.926.926,0,0,1,131.3,50.762Z" transform="translate(-101.177 -48.787)" fill="#455a64"/>
      <rect id="Rectangle_528" data-name="Rectangle 528" width="17.043" height="4.027" transform="translate(20.604 131.525)" fill="#263238"/>
      <rect id="Rectangle_529" data-name="Rectangle 529" width="24.435" height="7.901" transform="translate(16.908 135.552)" fill="#455a64"/>
      <path id="Tracé_643" data-name="Tracé 643" d="M128.309,106.2H110.07V86H122a4.159,4.159,0,0,1,4.124,3.611Z" transform="translate(-89.273 -70.997)" fill="#407bff"/>
      <path id="Tracé_644" data-name="Tracé 644" d="M129.339,103.754h-8.549a.8.8,0,0,1-.274-.042.964.964,0,0,1-.687-.922V92h6.08a2.889,2.889,0,0,1,.61.058,3.294,3.294,0,0,1,1.277.509,3.232,3.232,0,0,1,.71.644,3.379,3.379,0,0,1,.772,1.732l1.026,7.715a.972.972,0,0,1-.964,1.1Z" transform="translate(-95.268 -74.682)" fill="#263238"/>
      <g id="Groupe_557" data-name="Groupe 557" transform="translate(24.562 17.317)" opacity="0.4">
        <path id="Tracé_645" data-name="Tracé 645" d="M129.514,106.357a.941.941,0,0,1-.282.675l-4.949,4.953h-2.4a.8.8,0,0,1-.274-.042l6.269-6.265a.961.961,0,0,1,1.636.679Z" transform="translate(-120.923 -100.231)" fill="#fff"/>
        <path id="Tracé_646" data-name="Tracé 646" d="M128.506,94.124,119.83,102.8v-1.35L127.8,93.48a3.233,3.233,0,0,1,.71.644Z" transform="translate(-119.83 -92.909)" fill="#fff"/>
        <path id="Tracé_647" data-name="Tracé 647" d="M127.367,92.062l-4.926,4.926a.721.721,0,0,1-1.231-.509.71.71,0,0,1,.212-.5L125.4,92h1.362A2.889,2.889,0,0,1,127.367,92.062Z" transform="translate(-120.678 -92)" fill="#fff"/>
      </g>
    </g>
    <g id="freepik--Fence--inject-94" transform="translate(105.835 141.832)">
      <path id="Tracé_648" data-name="Tracé 648" d="M90.306,356.33l-.366,2.623-.4,2.82-3.626,25.7H79.99l3.626-25.7.4-2.82.366-2.623Z" transform="translate(-75.314 -339.051)" fill="#407bff"/>
      <path id="Tracé_649" data-name="Tracé 649" d="M97.692,356.33c-.312,2.6-.648,5.2-.988,7.8l-1.045,7.793-1.1,7.777L94,383.592l-.59,3.881.482-3.9.517-3.9,1.045-7.789,1.1-7.781C96.913,361.507,97.291,358.9,97.692,356.33Z" transform="translate(-83.557 -339.051)" opacity="0.1"/>
      <path id="Tracé_650" data-name="Tracé 650" d="M95.713,363.13l-.4,2.82H89.39l.4-2.82Z" transform="translate(-81.088 -343.228)" opacity="0.1"/>
      <path id="Tracé_651" data-name="Tracé 651" d="M182.56,356.33l.366,2.623.4,2.82,3.622,25.7h5.925l-3.622-25.7-.4-2.82-.366-2.623Z" transform="translate(-138.316 -339.051)" fill="#407bff"/>
      <path id="Tracé_652" data-name="Tracé 652" d="M184.83,356.33c.312,2.6.648,5.2.988,7.8l1.045,7.793,1.1,7.777.563,3.892.59,3.881-.482-3.9-.505-3.9-1.045-7.789-1.1-7.781C185.609,361.507,185.231,358.9,184.83,356.33Z" transform="translate(-139.71 -339.051)" opacity="0.1"/>
      <path id="Tracé_653" data-name="Tracé 653" d="M183.51,363.13h5.925l.4,2.82h-5.925Z" transform="translate(-138.899 -343.228)" opacity="0.1"/>
      <path id="Tracé_654" data-name="Tracé 654" d="M98.689,335.388h-4.7l.586-4.378h3.53Z" transform="translate(-83.914 -323.499)" fill="#407bff"/>
      <path id="Tracé_655" data-name="Tracé 655" d="M98.689,335.388h-4.7l.586-4.378h3.53Z" transform="translate(-83.914 -323.499)" opacity="0.1"/>
      <path id="Tracé_656" data-name="Tracé 656" d="M97.487,315.919a4.379,4.379,0,1,1-4.379-4.379A4.379,4.379,0,0,1,97.487,315.919Z" transform="translate(-80.683 -311.54)" fill="#407bff"/>
      <path id="Tracé_657" data-name="Tracé 657" d="M98.108,317.6a3.329,3.329,0,1,1-3.329-3.325A3.329,3.329,0,0,1,98.108,317.6Z" transform="translate(-82.354 -313.217)" fill="#fff"/>
      <path id="Tracé_658" data-name="Tracé 658" d="M98.181,318.156a2.882,2.882,0,0,0-1.084-2.041,2.955,2.955,0,0,0-2.241-.586,2.8,2.8,0,0,0-1.929,1.25,2.928,2.928,0,0,0-.351,2.4,2.743,2.743,0,0,0,1.3,1.647,2.882,2.882,0,0,0,2.037.312,2.99,2.99,0,0,0,1.709-1.045,3.175,3.175,0,0,0,.7-1.856c0-.031,0-.058-.027-.058s-.031.023-.031.058a3.144,3.144,0,0,1-.154.8,3.086,3.086,0,0,1-.914,1.319,3.473,3.473,0,0,1-.691.448,2.778,2.778,0,0,1-2.272.054,2.727,2.727,0,0,1-1.543-1.69,2.816,2.816,0,0,1,.293-2.315,2.7,2.7,0,0,1,1.875-1.234,2.889,2.889,0,0,1,2.754,1.1,2.994,2.994,0,0,1,.386.691,3.53,3.53,0,0,1,.174.772h0A.023.023,0,0,0,98.181,318.156Z" transform="translate(-82.974 -313.971)" fill="#407bff"/>
      <path id="Tracé_659" data-name="Tracé 659" d="M98.4,318.777a2.5,2.5,0,0,0-.941-1.744,2.558,2.558,0,0,0-1.929-.505,2.407,2.407,0,0,0-1.663,1.061,2.538,2.538,0,0,0-.324,2.079,2.38,2.38,0,0,0,1.126,1.439,2.546,2.546,0,0,0,1.778.266,2.593,2.593,0,0,0,1.478-.918,2.778,2.778,0,0,0,.61-1.609c0-.027,0-.05-.027-.05s-.031.019-.031.05a2.658,2.658,0,0,1-1.52,2.218,2.388,2.388,0,0,1-1.964.058,2.357,2.357,0,0,1-1.331-1.47,2.434,2.434,0,0,1,.266-2.006,2.315,2.315,0,0,1,1.616-1.042,2.5,2.5,0,0,1,2.349.934,2.665,2.665,0,0,1,.324.59,3.105,3.105,0,0,1,.158.66h0Z" transform="translate(-83.58 -314.587)" fill="#407bff"/>
      <path id="Tracé_660" data-name="Tracé 660" d="M98.65,319.4a2.083,2.083,0,0,0-.8-1.443,2.149,2.149,0,0,0-1.586-.428,2.018,2.018,0,0,0-1.4.868,2.153,2.153,0,0,0-.3,1.759,1.983,1.983,0,0,0,.957,1.231,2.114,2.114,0,0,0,1.516.22,2.2,2.2,0,0,0,1.25-.772,2.4,2.4,0,0,0,.513-1.362c0-.023,0-.042-.027-.042s-.031,0-.031.042a2.276,2.276,0,0,1-1.281,1.867,2.006,2.006,0,0,1-1.659.058,1.956,1.956,0,0,1-1.115-1.258,2.033,2.033,0,0,1,.243-1.686,1.929,1.929,0,0,1,1.354-.849,2.315,2.315,0,0,1,1.072.127,2,2,0,0,1,.872.64,2.157,2.157,0,0,1,.274.486,2.6,2.6,0,0,1,.143.548h0S98.654,319.411,98.65,319.4Z" transform="translate(-84.222 -315.21)" fill="#407bff"/>
      <path id="Tracé_661" data-name="Tracé 661" d="M98.859,320a1.7,1.7,0,0,0-.656-1.157,1.79,1.79,0,0,0-1.258-.351,1.635,1.635,0,0,0-1.157.683,1.763,1.763,0,0,0-.27,1.439,1.617,1.617,0,0,0,.772,1.022,1.725,1.725,0,0,0,1.254.17,1.805,1.805,0,0,0,1.022-.66,1.994,1.994,0,0,0,.417-1.111c0-.019,0-.035-.027-.035a.035.035,0,0,0-.031.035,1.875,1.875,0,0,1-1.042,1.512,1.6,1.6,0,0,1-1.35.066,1.578,1.578,0,0,1-.887-1,1.643,1.643,0,0,1,.216-1.366,1.52,1.52,0,0,1,1.1-.652,1.986,1.986,0,0,1,.845.108,1.593,1.593,0,0,1,.694.5,1.79,1.79,0,0,1,.228.386,2.637,2.637,0,0,1,.123.44h0S98.862,320.008,98.859,320Z" transform="translate(-84.82 -315.807)" fill="#407bff"/>
      <path id="Tracé_662" data-name="Tracé 662" d="M187.549,335.388h-4.7l.586-4.378h3.53Z" transform="translate(-138.494 -323.499)" fill="#407bff"/>
      <path id="Tracé_663" data-name="Tracé 663" d="M187.549,335.388h-4.7l.586-4.378h3.53Z" transform="translate(-138.494 -323.499)" opacity="0.1"/>
      <path id="Tracé_664" data-name="Tracé 664" d="M186.347,315.919a4.379,4.379,0,1,1-4.378-4.379A4.379,4.379,0,0,1,186.347,315.919Z" transform="translate(-135.263 -311.54)" fill="#407bff"/>
      <path id="Tracé_665" data-name="Tracé 665" d="M186.968,317.6a3.329,3.329,0,1,1-3.329-3.325,3.329,3.329,0,0,1,3.329,3.325Z" transform="translate(-136.934 -313.217)" fill="#fff"/>
      <path id="Tracé_666" data-name="Tracé 666" d="M187.041,318.156a2.882,2.882,0,0,0-1.084-2.041,2.955,2.955,0,0,0-2.241-.586,2.8,2.8,0,0,0-1.929,1.25,2.928,2.928,0,0,0-.351,2.4,2.743,2.743,0,0,0,1.3,1.647,2.882,2.882,0,0,0,2.037.312,2.99,2.99,0,0,0,1.709-1.045,3.148,3.148,0,0,0,.7-1.856c0-.031,0-.058-.027-.058s-.031.023-.031.058a2.986,2.986,0,0,1-.154.8,3.086,3.086,0,0,1-.914,1.319,3.473,3.473,0,0,1-.691.448,2.778,2.778,0,0,1-2.272.054,2.727,2.727,0,0,1-1.543-1.69,2.816,2.816,0,0,1,.293-2.315,2.7,2.7,0,0,1,1.875-1.234,2.889,2.889,0,0,1,2.754,1.1,2.993,2.993,0,0,1,.386.691,3.531,3.531,0,0,1,.174.772h0A.043.043,0,0,0,187.041,318.156Z" transform="translate(-137.555 -313.971)" fill="#407bff"/>
      <path id="Tracé_667" data-name="Tracé 667" d="M187.257,318.777a2.5,2.5,0,0,0-.941-1.744,2.558,2.558,0,0,0-1.929-.505,2.407,2.407,0,0,0-1.663,1.061,2.538,2.538,0,0,0-.324,2.079,2.38,2.38,0,0,0,1.126,1.439,2.546,2.546,0,0,0,1.778.266,2.593,2.593,0,0,0,1.477-.918,2.778,2.778,0,0,0,.61-1.609c0-.027,0-.05-.027-.05s-.031.019-.031.05a2.658,2.658,0,0,1-1.52,2.218,2.388,2.388,0,0,1-1.964.058,2.357,2.357,0,0,1-1.335-1.47,2.434,2.434,0,0,1,.266-2.006A2.315,2.315,0,0,1,184.4,316.6a2.5,2.5,0,0,1,2.349.934,2.665,2.665,0,0,1,.324.59,3.105,3.105,0,0,1,.158.66h0S187.261,318.784,187.257,318.777Z" transform="translate(-138.16 -314.587)" fill="#407bff"/>
      <path id="Tracé_668" data-name="Tracé 668" d="M187.51,319.4a2.083,2.083,0,0,0-.8-1.443,2.149,2.149,0,0,0-1.586-.428,2.018,2.018,0,0,0-1.4.868,2.153,2.153,0,0,0-.3,1.759,1.983,1.983,0,0,0,.957,1.231,2.114,2.114,0,0,0,1.516.22,2.2,2.2,0,0,0,1.25-.772,2.369,2.369,0,0,0,.513-1.362c0-.023,0-.042-.027-.042s-.031,0-.031.042a2.276,2.276,0,0,1-1.281,1.867,2.006,2.006,0,0,1-1.659.058,1.956,1.956,0,0,1-1.123-1.242,2.033,2.033,0,0,1,.243-1.686,1.929,1.929,0,0,1,1.354-.849,2.315,2.315,0,0,1,1.072.127,1.952,1.952,0,0,1,1.157,1.126,2.6,2.6,0,0,1,.143.548h0A.044.044,0,0,0,187.51,319.4Z" transform="translate(-138.803 -315.21)" fill="#407bff"/>
      <path id="Tracé_669" data-name="Tracé 669" d="M187.72,320a1.7,1.7,0,0,0-.656-1.157,1.786,1.786,0,0,0-1.258-.351,1.635,1.635,0,0,0-1.157.683,1.775,1.775,0,0,0-.27,1.439,1.616,1.616,0,0,0,.772,1.022,1.724,1.724,0,0,0,1.254.17,1.805,1.805,0,0,0,1.022-.66,1.994,1.994,0,0,0,.417-1.111c0-.019,0-.035-.027-.035a.035.035,0,0,0-.031.035,1.875,1.875,0,0,1-1.042,1.512,1.6,1.6,0,0,1-1.35.066,1.578,1.578,0,0,1-.914-1.022,1.643,1.643,0,0,1,.216-1.366,1.52,1.52,0,0,1,1.1-.652,1.986,1.986,0,0,1,.845.108,1.593,1.593,0,0,1,.694.5,1.79,1.79,0,0,1,.228.386,2.636,2.636,0,0,1,.123.44h0S187.724,320.007,187.72,320Z" transform="translate(-139.402 -315.806)" fill="#407bff"/>
      <rect id="Rectangle_530" data-name="Rectangle 530" width="59.038" height="11.292" transform="translate(0.096 9.656)" fill="#fff"/>
      <path id="Tracé_670" data-name="Tracé 670" d="M127.105,347.8H67.87V336.32h59.235Zm-59.023-.193h58.83v-11.1H68.063Z" transform="translate(-67.87 -326.761)" fill="#263238"/>
      <path id="Tracé_671" data-name="Tracé 671" d="M80.619,336.57l-4.286,11.3H68.71l4.282-11.3Z" transform="translate(-68.386 -326.914)" fill="#407bff"/>
      <path id="Tracé_672" data-name="Tracé 672" d="M121.123,336.57l-4.282,11.3H109.21l4.286-11.3Z" transform="translate(-93.262 -326.914)" fill="#407bff"/>
      <path id="Tracé_673" data-name="Tracé 673" d="M161.639,336.57l-4.286,11.3H149.73l4.286-11.3Z" transform="translate(-118.151 -326.914)" fill="#407bff"/>
      <path id="Tracé_674" data-name="Tracé 674" d="M202.153,336.57l-4.286,11.3H190.24l4.282-11.3Z" transform="translate(-143.033 -326.914)" fill="#407bff"/>
      <rect id="Rectangle_531" data-name="Rectangle 531" width="56.651" height="7.148" transform="translate(1.292 34.75)" fill="#fff"/>
      <path id="Tracé_675" data-name="Tracé 675" d="M127.832,408.73H71V401.4h56.832Zm-56.65-.193h56.458v-6.944H71.181Z" transform="translate(-69.793 -366.735)" fill="#263238"/>
      <path id="Tracé_676" data-name="Tracé 676" d="M83.207,401.62l-4.112,7.148H71.78l4.112-7.148Z" transform="translate(-70.272 -366.87)" fill="#407bff"/>
      <path id="Tracé_677" data-name="Tracé 677" d="M122.08,401.62l-4.112,7.148H110.65l4.112-7.148Z" transform="translate(-94.147 -366.87)" fill="#407bff"/>
      <path id="Tracé_678" data-name="Tracé 678" d="M160.947,401.62l-4.108,7.148H149.52l4.112-7.148Z" transform="translate(-118.022 -366.87)" fill="#407bff"/>
      <path id="Tracé_679" data-name="Tracé 679" d="M199.82,401.62l-4.112,7.148H188.39l4.112-7.148Z" transform="translate(-141.897 -366.87)" fill="#407bff"/>
      <circle id="Ellipse_6" data-name="Ellipse 6" cx="9.189" cy="9.189" r="9.189" transform="matrix(0.232, -0.973, 0.973, 0.232, 18.544, 22.106)" fill="#fff"/>
      <path id="Tracé_680" data-name="Tracé 680" d="M129.856,345.7a9.286,9.286,0,1,1,9.286-9.282A9.286,9.286,0,0,1,129.856,345.7Zm0-18.374a9.093,9.093,0,1,0,9.093,9.093A9.093,9.093,0,0,0,129.856,327.327Z" transform="translate(-100.24 -321.116)" fill="#263238"/>
      <circle id="Ellipse_7" data-name="Ellipse 7" cx="7.789" cy="7.789" r="7.789" transform="translate(20.238 21.075) rotate(-76.6)" fill="#407bff"/>
      <rect id="Rectangle_532" data-name="Rectangle 532" width="9.768" height="1.809" transform="translate(24.732 14.397)" fill="#fff"/>
    </g>
    <g id="freepik--Character--inject-94" transform="translate(198.2 33.619)">
      <path id="Tracé_693" data-name="Tracé 693" d="M561.454,419.651c1.037.321,30.323-.306,31.422-1.037.42-.275.575-4.552.622-9.716v-3.437c0-1.389,0-2.789-.026-4.147-.078-6.118-.264-11.5-.264-11.5l-19.068.353.223,11.5.078,4.147.166,3.432s-11.11,5.262-12.23,6.19S560.423,419.335,561.454,419.651Z" transform="translate(-534.999 -259.714)" fill="#d3766a"/>
      <path id="Tracé_694" data-name="Tracé 694" d="M561.454,430.337c1.037.321,30.323-.306,31.422-1.037.42-.275.575-4.552.622-9.716v-3.437c0-1.389,0-2.789-.026-4.147l-19.109.353.078,4.147.166,3.432s-11.11,5.262-12.23,6.19S560.423,430.021,561.454,430.337Z" transform="translate(-534.999 -270.4)" fill="#fff"/>
      <path id="Tracé_695" data-name="Tracé 695" d="M561.28,434.207c.669.207,13.147,0,22.23-.337,2.074-.083,4.023-.176,5.573-.275a18.248,18.248,0,0,0,3.795-.43c.518-.342.643-6.61.633-13.225l-19.182.358.161,3.453s-11.167,5.283-12.3,6.221S560.248,433.881,561.28,434.207Z" transform="translate(-534.912 -274.223)" fill="#407bff"/>
      <path id="Tracé_696" data-name="Tracé 696" d="M562.41,444.657c4.935-.228,24.885-.679,29.758-.518h0c-4.889.332-24.812.622-29.753.581C562.312,444.735,562.307,444.662,562.41,444.657Z" transform="translate(-535.649 -285.86)" fill="#263238"/>
      <path id="Tracé_697" data-name="Tracé 697" d="M585.764,425.036a6.877,6.877,0,0,1,5.832,1.2c.062.052,0,.135-.078.114a27.6,27.6,0,0,0-5.739-1.068.124.124,0,0,1-.016-.244Z" transform="translate(-546.886 -276.593)" fill="#263238"/>
      <path id="Tracé_698" data-name="Tracé 698" d="M583.094,426.726a6.878,6.878,0,0,1,5.832,1.2c.062.052,0,.135-.078.114a27.268,27.268,0,0,0-5.739-1.068.124.124,0,0,1-.016-.244Z" transform="translate(-545.601 -277.407)" fill="#263238"/>
      <path id="Tracé_699" data-name="Tracé 699" d="M580.424,428.416a6.9,6.9,0,0,1,5.832,1.192c.057.057,0,.135-.078.119a27.321,27.321,0,0,0-5.739-1.068.124.124,0,0,1-.016-.244Z" transform="translate(-544.315 -278.22)" fill="#263238"/>
      <path id="Tracé_700" data-name="Tracé 700" d="M577.754,430.105a6.88,6.88,0,0,1,5.832,1.192c.057.052,0,.135-.078.119a27.323,27.323,0,0,0-5.739-1.068.124.124,0,0,1-.016-.244Z" transform="translate(-543.029 -279.033)" fill="#263238"/>
      <path id="Tracé_701" data-name="Tracé 701" d="M579.4,418.852a17.306,17.306,0,0,0,4.811,2c.166.057.3-.1.3-.249a.049.049,0,0,0,.042-.073,10.306,10.306,0,0,0-3.111-4.386c-.824-.664-2.26-1.109-3-.041S578.6,418.235,579.4,418.852Zm-.518-1.555c-.389-2.126,1.923-1.037,2.514-.518a10.445,10.445,0,0,1,1.037,1.089c.69.793,1.255,1.669,1.861,2.525-.778-.327-1.555-.581-2.364-.876-.938-.373-2.846-1.052-3.059-2.219Z" transform="translate(-543.274 -272.068)" fill="#263238"/>
      <path id="Tracé_702" data-name="Tracé 702" d="M596.463,418.365c-.518-1.2-1.986-1.073-2.934-.6a10.37,10.37,0,0,0-3.956,3.629.052.052,0,0,0,.031.078c-.031.145.062.332.238.311a17.321,17.321,0,0,0,5.127-.923C595.9,420.434,596.934,419.5,596.463,418.365Zm-4.106,2.592c-.835.119-1.669.2-2.5.347a30.58,30.58,0,0,1,2.354-2.074,11.406,11.406,0,0,1,1.265-.845c.684-.373,3.173-.928,2.338,1.068-.456,1.094-2.468,1.348-3.432,1.488Z" transform="translate(-548.761 -273.012)" fill="#263238"/>
      <path id="Tracé_703" data-name="Tracé 703" d="M590.63,436.372c2.468-.067,4.961-.145,7.258-.233,2.074-.083,4.023-.176,5.573-.275a17.727,17.727,0,0,0,3.795-.435c.446-.3.607-5.138.627-10.778C603.523,427.553,594.969,433.4,590.63,436.372Z" transform="translate(-549.274 -276.492)" opacity="0.2"/>
      <path id="Tracé_704" data-name="Tracé 704" d="M583.557,337.65h21.774s-1.192-48.987-.959-50.127c.56-2.727,12.961-45.913,12.961-45.913l-17.186.3-5.869.1s.518,7.2.3,7.958c-2.872,10.478-8.476,28.369-9.622,35C582.94,296.476,583.557,337.65,583.557,337.65Z" transform="translate(-545.826 -188.346)" fill="#263238"/>
      <path id="Tracé_705" data-name="Tracé 705" d="M584.957,419.609c3.391-.088,15.418-.446,19.944-.1.031,0,.031.057,0,.062-1.555.254-16.549.181-19.944.135a.047.047,0,1,1,0-.093Z" transform="translate(-546.52 -273.944)" fill="#37474f"/>
      <path id="Tracé_706" data-name="Tracé 706" d="M620.281,289.016c.648-2.649,5.5-19.146,6.978-24.366s2.872-10.441,4.147-15.7c.161-.669.327-1.332.518-2,0-.057.1-.031.088.026-.487,2.649-1.135,5.272-1.757,7.9s-1.291,5.231-1.986,7.834q-2.11,7.849-4.6,15.584c-.829,2.566-2.2,7.844-2.929,10.441s.461,45.259.389,45.954a.156.156,0,0,1-.311,0C620.717,329.667,619.638,291.634,620.281,289.016Z" transform="translate(-563.456 -190.902)" fill="#37474f"/>
      <path id="Tracé_707" data-name="Tracé 707" d="M615.56,241.945s4.2,45.84,4.251,45.622c.518-2.634,12.178-43.248,12.909-45.788l.031-.119Z" transform="translate(-561.28 -188.37)" fill="#37474f"/>
      <path id="Tracé_708" data-name="Tracé 708" d="M604.987,424.491c1.037.321,30.323-.306,31.427-1.037.415-.275.575-4.547.617-9.716V410.3c0-1.384,0-2.789-.031-4.147-.078-6.118-.259-11.5-.259-11.5L617.667,395l.223,11.5.083,4.148.161,3.437s-11.1,5.257-12.225,6.185S603.96,424.175,604.987,424.491Z" transform="translate(-555.963 -262.045)" fill="#d3766a"/>
      <path id="Tracé_709" data-name="Tracé 709" d="M604.987,435.177c1.037.321,30.323-.306,31.427-1.037.415-.275.575-4.547.617-9.716v-3.437c0-1.384,0-2.789-.031-4.148l-19.11.352.083,4.148.161,3.437s-11.1,5.257-12.225,6.185S603.96,434.861,604.987,435.177Z" transform="translate(-555.963 -272.731)" fill="#fff"/>
      <path id="Tracé_710" data-name="Tracé 710" d="M604.813,439.047c.674.207,13.153,0,22.23-.337,2.1-.083,4.023-.176,5.573-.27a18.6,18.6,0,0,0,3.8-.436c.518-.342.638-6.61.633-13.225l-19.182.358.166,3.453s-11.167,5.288-12.3,6.221S603.781,438.721,604.813,439.047Z" transform="translate(-555.877 -276.554)" fill="#407bff"/>
      <path id="Tracé_711" data-name="Tracé 711" d="M605.935,449.488c4.936-.228,24.885-.674,29.753-.518.041,0,.041.026,0,.031-4.884.332-24.812.617-29.753.575C605.842,449.577,605.842,449.488,605.935,449.488Z" transform="translate(-556.611 -288.188)" fill="#263238"/>
      <path id="Tracé_712" data-name="Tracé 712" d="M629.279,429.836a6.881,6.881,0,0,1,5.832,1.2c.057.052,0,.135-.083.119a26.957,26.957,0,0,0-5.739-1.068.125.125,0,1,1-.01-.249Z" transform="translate(-567.829 -278.904)" fill="#263238"/>
      <path id="Tracé_713" data-name="Tracé 713" d="M626.609,431.566a6.881,6.881,0,0,1,5.832,1.2c.057.052,0,.135-.083.114a27.256,27.256,0,0,0-5.739-1.063.125.125,0,0,1-.01-.249Z" transform="translate(-566.543 -279.737)" fill="#263238"/>
      <path id="Tracé_714" data-name="Tracé 714" d="M623.962,433.256a6.881,6.881,0,0,1,5.832,1.2c.057.052,0,.135-.083.114a27.6,27.6,0,0,0-5.739-1.068.124.124,0,0,1-.01-.244Z" transform="translate(-565.281 -280.551)" fill="#263238"/>
      <path id="Tracé_715" data-name="Tracé 715" d="M621.292,434.946a6.9,6.9,0,0,1,5.832,1.192c.057.057,0,.14-.083.119a27.267,27.267,0,0,0-5.739-1.068.124.124,0,0,1-.01-.244Z" transform="translate(-563.995 -281.365)" fill="#263238"/>
      <path id="Tracé_716" data-name="Tracé 716" d="M622.929,423.68a17.389,17.389,0,0,0,4.816,2c.166.057.3-.1.3-.249a.052.052,0,0,0,.047-.073,10.369,10.369,0,0,0-3.111-4.386c-.824-.664-2.255-1.1-3-.036S622.115,423.074,622.929,423.68Zm-.518-1.555c-.389-2.126,1.924-1.037,2.509-.518a11.662,11.662,0,0,1,1.037,1.089,30.374,30.374,0,0,1,1.856,2.525c-.778-.327-1.555-.581-2.364-.871-.923-.373-2.831-1.052-3.043-2.224Z" transform="translate(-564.237 -274.392)" fill="#263238"/>
      <path id="Tracé_717" data-name="Tracé 717" d="M639.991,423.207c-.518-1.2-1.991-1.073-2.939-.6a10.368,10.368,0,0,0-3.951,3.629.052.052,0,0,0,0,.083c0,.145.062.327.239.306a17.321,17.321,0,0,0,5.127-.923C639.421,425.276,640.457,424.347,639.991,423.207Zm-4.111,2.592c-.835.119-1.664.2-2.494.347a30.753,30.753,0,0,1,2.354-2.074,11.119,11.119,0,0,1,1.26-.84c.69-.378,3.178-.928,2.343,1.063-.461,1.094-2.468,1.348-3.463,1.488Z" transform="translate(-569.717 -275.344)" fill="#263238"/>
      <path id="Tracé_718" data-name="Tracé 718" d="M621.218,339.816l21.116-.389s-5.931-76.158-5.184-80.2c1.208-6.6.182-14.143-3-17.72l-20.577.378s-.306,5.781,1.877,9.207c0,0,1.954,1.182,2.9,1.706Z" transform="translate(-560.317 -188.298)" fill="#263238"/>
      <path id="Tracé_719" data-name="Tracé 719" d="M629.423,423.436c3.2-.14,2.281-.145,5.485-.254,1.555-.052,11.867-.389,13.339-.176.031,0,.031.057,0,.062-1.457.28-11.763.436-13.329.456-3.209.047-2.286,0-5.49,0a.047.047,0,0,1-.005-.088Z" transform="translate(-567.942 -275.666)" fill="#37474f"/>
      <path id="Tracé_720" data-name="Tracé 720" d="M614.532,258.222a39.6,39.6,0,0,1,5.848,3.318.069.069,0,0,1-.067.119c-1.975-1.037-4-2.074-5.915-3.209a.135.135,0,0,1,.135-.228Z" transform="translate(-560.698 -196.342)" fill="#37474f"/>
      <path id="Tracé_721" data-name="Tracé 721" d="M619.371,257.424a9.02,9.02,0,0,1,.306,1.213,2.618,2.618,0,0,1,.078.98c0,.062-.1.057-.13,0a3.229,3.229,0,0,1-.337-.98c-.1-.373-.218-.747-.311-1.125a.2.2,0,0,1,.394-.088Z" transform="translate(-562.924 -195.891)" fill="#37474f"/>
      <path id="Tracé_722" data-name="Tracé 722" d="M618.03,251.744c-.062-.342-.124-.684-.192-1.037s-.166-.71-.207-1.068c0-.052-.1-.036-.088,0,.062.342.073.7.109,1.037s.073.695.114,1.037c.078.648.2,1.3.337,1.934a2.25,2.25,0,0,1-.949-.373,1.8,1.8,0,0,1-.518-.98c-.109-.394-.2-.788-.311-1.177A7.258,7.258,0,0,1,616,249.8c0-.057-.1-.036-.088,0a14.023,14.023,0,0,0,.575,2.758,1.534,1.534,0,0,0,.518.907,2.9,2.9,0,0,0,1.156.321c.047.026.114,0,.109-.057A13.776,13.776,0,0,0,618.03,251.744Z" transform="translate(-561.448 -192.196)" fill="#37474f"/>
      <path id="Tracé_723" data-name="Tracé 723" d="M652.368,262.636c.119-1.514.337-3.017.477-4.531a28.123,28.123,0,0,0-.716-9.047c0-.057.073-.078.083-.026a33.614,33.614,0,0,1,.954,7.937c-.078,2.67-.518,5.309-.518,7.984s.27,5.407.518,8.1.451,5.428.679,8.139c.9,10.887,1.752,21.811,2.618,32.718.244,3.043.472,6.092.705,9.135s.6,10.742.767,13.847c0,.27-.384.254-.415,0-.565-5.464-1.037-15.506-1.467-20.986s-.866-10.851-1.3-16.279-.855-10.851-1.28-16.274c-.213-2.711-.415-5.428-.622-8.139s-.456-5.407-.518-8.113A40.058,40.058,0,0,1,652.368,262.636Z" transform="translate(-578.891 -191.906)" fill="#37474f"/>
      <path id="Tracé_724" data-name="Tracé 724" d="M638.014,248.975a.042.042,0,0,1,.078,0,3.521,3.521,0,0,1,.218,1.1,7.663,7.663,0,0,0,.3,1.187,4.843,4.843,0,0,0,1.275,2.074,10.087,10.087,0,0,0,4.739,1.98c.062,0,.042.1,0,.1a7.557,7.557,0,0,1-2.919-.4,6.087,6.087,0,0,1-2.276-1.218,4.193,4.193,0,0,1-1.255-2.183,7.613,7.613,0,0,1-.166-1.327v-.643A1.616,1.616,0,0,1,638.014,248.975Z" transform="translate(-572.074 -191.88)" fill="#37474f"/>
      <path id="Tracé_725" data-name="Tracé 725" d="M591.407,173.427c-8.6,6.382-22.6,6.957-24.159,6.221-3.3-1.519-8.1-15.781-9.264-20.981-.332-1.5,10.55-1.13,11.639.1,1,1.125,3.391,10.98,4.391,11.126a126.768,126.768,0,0,0,15-.415C596.228,168.736,593.952,171.54,591.407,173.427Z" transform="translate(-533.549 -147.931)" fill="#d3766a"/>
      <path id="Tracé_726" data-name="Tracé 726" d="M602,179.442l1.291,10.073s7.657-3,10.991-6.071,1.431-4.2-1.9-4.376S602,179.442,602,179.442Z" transform="translate(-554.75 -158.212)" fill="#ebebeb"/>
      <path id="Tracé_727" data-name="Tracé 727" d="M605.19,180.369c0-.067.036-.093.047-.026a68.954,68.954,0,0,1,1.089,8.45h-.036C605.937,187.436,605.3,181.1,605.19,180.369Z" transform="translate(-556.286 -158.823)" fill="#263238"/>
      <path id="Tracé_728" data-name="Tracé 728" d="M632.595,217.925c-.073.083-30.536.731-30.816.425-.4-.435,4.516-30.987,9.332-37.654,1.2-1.664,5.526-2.81,7.326-1.125,5.226,4.878,6.325,8.995,7.693,12.349a99.3,99.3,0,0,1,3.344,11.089C631.319,210.184,632.838,217.634,632.595,217.925Z" transform="translate(-554.632 -158.071)" fill="#ebebeb"/>
      <path id="Tracé_729" data-name="Tracé 729" d="M627.839,180.48s-4.484,10.234-5.221,12.847c-1.011,3.577-2.489,27.156-2.489,27.156l21.774-1.275s-4.147-23.573-8.891-31.941C629.291,180.682,627.839,180.48,627.839,180.48Z" transform="translate(-563.481 -158.908)" fill="#407bff"/>
      <path id="Tracé_730" data-name="Tracé 730" d="M611.453,181.43s-2.53,9.332-3.028,10.742-4.92,28.784-4.92,28.784l-2.685-1s3.022-18.954,5.7-28.607S611.453,181.43,611.453,181.43Z" transform="translate(-554.182 -159.365)" fill="#407bff"/>
      <path id="Tracé_731" data-name="Tracé 731" d="M621.32,237.683l19.5-.041c-.166-.731-.337-1.5-.518-2.291l-18.8.036C621.429,236.164,621.377,236.931,621.32,237.683Z" transform="translate(-564.054 -185.331)" fill="#ebebeb"/>
      <path id="Tracé_732" data-name="Tracé 732" d="M603.54,237.751h2.789c.119-.747.249-1.514.379-2.292h-2.753C603.81,236.258,603.669,237.015,603.54,237.751Z" transform="translate(-555.491 -185.384)" fill="#ebebeb"/>
      <path id="Tracé_733" data-name="Tracé 733" d="M620.76,245.448l20.654-.041c-.145-.695-.306-1.462-.482-2.286l-20.006.041C620.884,243.97,620.812,244.738,620.76,245.448Z" transform="translate(-563.784 -189.073)" fill="#ebebeb"/>
      <path id="Tracé_734" data-name="Tracé 734" d="M602.18,245.521h2.836c.114-.721.238-1.488.368-2.291h-2.81C602.434,244.054,602.3,244.822,602.18,245.521Z" transform="translate(-554.836 -189.126)" fill="#ebebeb"/>
      <path id="Tracé_735" data-name="Tracé 735" d="M619.178,189.6c1.161,8.544-.472,20.432-2.416,21.816-5.547,3.945-15.092,6.045-19.151,6.517-2.364.275-3.344-11.406-1.255-11.763a122.56,122.56,0,0,0,12.308-2.727c1.12-.5,3.287-8.295,5.329-13.951C616.213,183.345,618.618,185.46,619.178,189.6Z" transform="translate(-551.481 -161.395)" fill="#d3766a"/>
      <path id="Tracé_736" data-name="Tracé 736" d="M592.953,217.634a22.4,22.4,0,0,1-4.811-4.376c-1.555-2.074-3.676-5.309-4.821-4.505-2.343,1.654,2.908,9.747,2.908,9.747s2.888,3.2,5.361,1.763A2.841,2.841,0,0,0,592.953,217.634Z" transform="translate(-545.464 -172.463)" fill="#d3766a"/>
      <path id="Tracé_737" data-name="Tracé 737" d="M570.9,223.845a1.815,1.815,0,0,0,.658,1.965,2.691,2.691,0,0,0-.928,1.581c-.155,1.1,1.5,1.82,1.5,1.82a3.3,3.3,0,0,0-.715,1.82c-.042,1.068,1.524,2.032,1.524,2.032a2.919,2.919,0,0,0,.384,2c1.037,1.555,3.888,1.483,5.7,1.457s6.942-1.809,7.953-2.074l-.093-11.639s-8.181-2.188-10.312-1.851C574.793,221.242,571.336,222.518,570.9,223.845Z" transform="translate(-539.638 -178.383)" fill="#d3766a"/>
      <path id="Tracé_738" data-name="Tracé 738" d="M572.559,228.863a23.786,23.786,0,0,1,5.744-1.224.034.034,0,1,1,0,.067c-1.939.264-3.805.907-5.7,1.249a.052.052,0,0,1-.041-.093Z" transform="translate(-540.561 -181.618)" fill="#263238"/>
      <path id="Tracé_739" data-name="Tracé 739" d="M573.57,236.2a5.262,5.262,0,0,1,1.332-.218c.482-.047.959-.088,1.436-.114.959-.062,1.923-.1,2.883-.114.042,0,.052.067,0,.067-.959.062-1.913.14-2.867.244-.472.052-.949.1-1.426.166a6.589,6.589,0,0,1-1.353.1.073.073,0,0,1-.005-.135Z" transform="translate(-541.038 -185.524)" fill="#263238"/>
      <path id="Tracé_740" data-name="Tracé 740" d="M575.17,243.993a3.54,3.54,0,0,1,1.213-.135l1.312-.067c.876-.047,1.752-.093,2.623-.171.041,0,.052.067,0,.067-.886.083-1.773.181-2.66.254l-1.306.1a3.411,3.411,0,0,1-1.192,0S575.154,244,575.17,243.993Z" transform="translate(-541.824 -189.314)" fill="#263238"/>
      <path id="Tracé_741" data-name="Tracé 741" d="M625.24,197.181l9.85,2.592s.088-8.222-1.514-12.442-3.359-2.9-4.764.124S625.24,197.181,625.24,197.181Z" transform="translate(-565.941 -160.916)" fill="#ebebeb"/>
      <path id="Tracé_742" data-name="Tracé 742" d="M626.949,206.051c-.067,0-.078-.062,0-.052a69.338,69.338,0,0,1,8.243,2.157v.036C633.777,208.01,627.66,206.222,626.949,206.051Z" transform="translate(-566.738 -171.196)" fill="#263238"/>
      <path id="Tracé_743" data-name="Tracé 743" d="M652.37,149.24a11.841,11.841,0,0,1,10.369,6.947l-9.695-.332-2.074,5.21,1.685,5.34,9.7.347a11.851,11.851,0,1,1-10-17.5Z" transform="translate(-573.091 -143.864)" fill="#455a64"/>
      <path id="Tracé_744" data-name="Tracé 744" d="M521.229,168.228a11.841,11.841,0,0,1-10.369-6.947l9.695.347,2.074-5.184-1.685-5.345-9.7-.347a11.851,11.851,0,1,1,9.99,17.5Z" transform="translate(-510.86 -141.606)" fill="#455a64"/>
      <rect id="Rectangle_533" data-name="Rectangle 533" width="10.555" height="57.634" transform="matrix(0.036, -0.999, 0.999, 0.036, 17.167, 20.283)" fill="#455a64"/>
      <rect id="Rectangle_534" data-name="Rectangle 534" width="4.35" height="23.734" transform="matrix(0.036, -0.999, 0.999, 0.036, 34.264, 17.803)" fill="#37474f"/>
      <path id="Tracé_745" data-name="Tracé 745" d="M622.233,178.926c1.26.249,4.256-1.737,5.584-3.588.088-.124.057-1.586.1-3.359.031-1.073.088-2.271.223-3.359l-7.03.824a17.739,17.739,0,0,1,.15,4.262,2.729,2.729,0,0,1-.1.441v.073C620.9,175.038,620.258,178.543,622.233,178.926Z" transform="translate(-563.826 -153.197)" fill="#d3766a"/>
      <path id="Tracé_746" data-name="Tracé 746" d="M621.411,174.195a.223.223,0,0,1,0,.073,4.447,4.447,0,0,0,.7.124c3.966.394,5.547-4.355,5.905-5.672l-6.636.772a17.631,17.631,0,0,1,.156,4.262A3.447,3.447,0,0,1,621.411,174.195Z" transform="translate(-564.083 -153.245)" fill="#263238"/>
      <path id="Tracé_747" data-name="Tracé 747" d="M626.514,147.176c.741,2.442-.55,9.482-2.286,11.053-2.514,2.276-6.631,2.494-8.565-.518-1.877-2.934-.031-12.085,1.908-13.51C620.428,142.069,625.415,143.573,626.514,147.176Z" transform="translate(-560.953 -140.965)" fill="#d3766a"/>
      <path id="Tracé_748" data-name="Tracé 748" d="M625.856,159.22s.031.031,0,.047c-.124.467-.182,1.037.212,1.275h0C625.576,160.381,625.659,159.624,625.856,159.22Z" transform="translate(-566.164 -148.67)" fill="#263238"/>
      <path id="Tracé_749" data-name="Tracé 749" d="M626.409,158.446c.767.114.487,1.643-.223,1.555S625.766,158.353,626.409,158.446Z" transform="translate(-566.198 -148.295)" fill="#263238"/>
      <path id="Tracé_750" data-name="Tracé 750" d="M619.586,158.1s-.041,0-.041.031c-.073.477-.239,1.037-.695,1.094C619.389,159.272,619.6,158.567,619.586,158.1Z" transform="translate(-562.864 -148.13)" fill="#263238"/>
      <path id="Tracé_751" data-name="Tracé 751" d="M618.91,156.984c-.752-.2-1.094,1.322-.394,1.5S619.542,157.144,618.91,156.984Z" transform="translate(-562.52 -147.584)" fill="#263238"/>
      <path id="Tracé_752" data-name="Tracé 752" d="M627.4,156.185a5.837,5.837,0,0,1-.555-.316,1.138,1.138,0,0,1-.518-.43.327.327,0,0,1,.124-.384.819.819,0,0,1,.824.067,1.2,1.2,0,0,1,.586.632.352.352,0,0,1-.461.43Z" transform="translate(-566.457 -146.625)" fill="#263238"/>
      <path id="Tracé_753" data-name="Tracé 753" d="M618.493,154.792a5.276,5.276,0,0,0,.638-.047,1.037,1.037,0,0,0,.643-.171.326.326,0,0,0,.052-.4.814.814,0,0,0-.773-.3,1.177,1.177,0,0,0-.8.316.353.353,0,0,0,.244.6Z" transform="translate(-562.528 -146.092)" fill="#263238"/>
      <path id="Tracé_754" data-name="Tracé 754" d="M623.605,167.835a.725.725,0,0,1-.451.207,1.239,1.239,0,0,1-.487-.213h0a.663.663,0,0,0,.56.368.519.519,0,0,0,.446-.353C623.662,167.84,623.626,167.825,623.605,167.835Z" transform="translate(-564.696 -152.816)" fill="#263238"/>
      <path id="Tracé_755" data-name="Tracé 755" d="M621.47,159.809a1.643,1.643,0,0,1-1.208.518,2.073,2.073,0,0,1-.586-.078l-.109-.031-.1-.036a.124.124,0,0,1-.073-.124h0a.149.149,0,0,1,0-.047h0v-.041c.057-.363.2-.912.2-.912-.15.041-.887.223-.84.031a24.6,24.6,0,0,1,1.524-4.775.047.047,0,0,1,.083.031c-.311,1.514-.881,2.965-1.218,4.484a2.82,2.82,0,0,1,.8-.088c.052,0-.28,1.037-.3,1.223h0a2.281,2.281,0,0,0,1.768-.213C621.47,159.737,621.522,159.773,621.47,159.809Z" transform="translate(-562.814 -146.299)" fill="#263238"/>
      <path id="Tracé_756" data-name="Tracé 756" d="M621.05,165.211a1.945,1.945,0,0,0,.658.736.871.871,0,0,0,.518.124c.394,0,.472-.373.456-.684a2.343,2.343,0,0,0-.088-.487A2.545,2.545,0,0,1,621.05,165.211Z" transform="translate(-563.924 -151.405)" fill="#263238"/>
      <path id="Tracé_757" data-name="Tracé 757" d="M622.32,166.391a.871.871,0,0,0,.518.124c.394,0,.472-.373.456-.684a.907.907,0,0,0-.975.56Z" transform="translate(-564.535 -151.849)" fill="#ff9bbc"/>
      <path id="Tracé_758" data-name="Tracé 758" d="M617.81,145.981c.1-.2.389-.695.664-.679s.518.617,1.167.85c.892.342,2.592-.518,3.826-.062s1.877,1.732,1.918,4,1.649,4.246,2.286,2.815a1.176,1.176,0,0,1,.119-.28,13.791,13.791,0,0,0,.135-5.449c-1.1-3.6-6.092-5.091-8.943-2.986a4.444,4.444,0,0,0-1.172,1.789Z" transform="translate(-562.363 -140.968)" fill="#263238"/>
      <path id="Tracé_759" data-name="Tracé 759" d="M634,160.292s1.638-2.245,2.66-1.654-.244,3.868-1.467,4.293a1.229,1.229,0,0,1-1.638-.695Z" transform="translate(-569.943 -148.342)" fill="#d3766a"/>
      <path id="Tracé_760" data-name="Tracé 760" d="M636.918,160.53v.031a3.111,3.111,0,0,0-1.654,1.918.679.679,0,0,1,1.037-.166v.047a.762.762,0,0,0-.84.244,3.887,3.887,0,0,0-.415.669c-.041.078-.181.031-.15-.052h0C634.875,162.111,635.751,160.613,636.918,160.53Z" transform="translate(-570.589 -149.301)" fill="#263238"/>
      <path id="Tracé_761" data-name="Tracé 761" d="M615.84,145.478s2.074-6.776,8.145-4.956,4.075,8.622,4.075,8.622Z" transform="translate(-561.415 -139.516)" fill="#407bff"/>
      <rect id="Rectangle_535" data-name="Rectangle 535" width="13.707" height="1.006" transform="translate(54.102 5.357) rotate(16.7)" fill="#407bff"/>
      <path id="Tracé_762" data-name="Tracé 762" d="M625.172,146.154l-2.732-.819,2.639-6.465,2.732.819Z" transform="translate(-564.593 -138.87)" fill="#407bff"/>
      <path id="Tracé_763" data-name="Tracé 763" d="M625.172,146.154l-2.732-.819,2.639-6.465,2.732.819Z" transform="translate(-564.593 -138.87)" opacity="0.1"/>
      <path id="Tracé_764" data-name="Tracé 764" d="M555.681,161.928c1.322.892,1.618-1.182,1.618-1.182s.3,3.111,2.022,3.479,1.929-2.146,1.949-2.323c0,.161.363,2.991,2.136,3.209s1.675-2.354,1.664-2.52c.067.15.954,2.1,2.338,1.965,2.375-.249.311-6.05,1.12-7.808l3.515-.8a4.807,4.807,0,0,1-2.349-1.384,6.564,6.564,0,0,0-2.359-1.856,1.752,1.752,0,0,0-2.006.6s-.451-1.638-1.84-1.851c-.715-.109-1.524.938-1.524.938a2.074,2.074,0,0,0-1.659-1.395,2.019,2.019,0,0,0-1.654.975,2.566,2.566,0,0,0-2.022-.824C554.514,151.6,552.84,160.01,555.681,161.928Z" transform="translate(-531.719 -144.706)" fill="#d3766a"/>
      <path id="Tracé_765" data-name="Tracé 765" d="M582.888,155.852l2.665-.487.28-.124c3.111-1.514,4.106-5.838,1.654-5.444-1.866.3-3.152,3.24-5.107,3.271h0Z" transform="translate(-545.301 -144.12)" fill="#d3766a"/>
      <path id="Tracé_766" data-name="Tracé 766" d="M561.215,153.14h-.042a14.894,14.894,0,0,0-1.208,8.741c0,.093.176.109.176,0A30.58,30.58,0,0,1,561.215,153.14Z" transform="translate(-534.412 -145.742)" fill="#263238"/>
      <path id="Tracé_767" data-name="Tracé 767" d="M567.96,153.573c0-.031-.047-.047-.062,0a14,14,0,0,0-.726,9.648c.036.114.182.176.15.047A25.589,25.589,0,0,1,567.96,153.573Z" transform="translate(-537.719 -145.936)" fill="#263238"/>
      <path id="Tracé_768" data-name="Tracé 768" d="M574.489,165.011a19.167,19.167,0,0,1,.047-9.384c0-.041-.047-.052-.067,0a12.7,12.7,0,0,0-1.037,5.117,8.589,8.589,0,0,0,.938,4.319C574.406,165.094,574.51,165.078,574.489,165.011Z" transform="translate(-540.988 -146.923)" fill="#263238"/>
    </g>
  </g>
</svg>
