<svg xmlns="http://www.w3.org/2000/svg" width="368.692" height="244.715" viewBox="0 0 368.692 244.715">
  <g id="ATS" transform="translate(-56.16 -34.77)">
    <g id="freepik--background-complete--inject-94" transform="translate(56.912 34.77)">
      <path id="Path_1" data-name="Path 1" d="M589.84,54.973l3.409-5.492-1.7-1.042a1.545,1.545,0,0,1-.712-1.447,7.682,7.682,0,0,0,.029-.966,1.551,1.551,0,0,1,.8-1.395L593.4,43.7,590.39,38l-1.736.955a1.539,1.539,0,0,1-1.6-.1c-.266-.185-.544-.353-.822-.509a1.528,1.528,0,0,1-.81-1.395l.064-1.979-6.464-.2-.058,1.985a1.545,1.545,0,0,1-.9,1.337c-.139.064-.284.139-.422.214s-.278.15-.417.237a1.551,1.551,0,0,1-1.6,0l-1.7-1.053-3.426,5.515,1.684,1.047a1.539,1.539,0,0,1,.712,1.447,8.886,8.886,0,0,0-.035.961,1.539,1.539,0,0,1-.8,1.395l-1.736.938,3.056,5.695,1.736-.932a1.528,1.528,0,0,1,1.6.1,9.256,9.256,0,0,0,.822.509,1.539,1.539,0,0,1,.81,1.395l-.064,1.979,6.458.2.064-1.985a1.54,1.54,0,0,1,.9-1.331c.145-.069.289-.139.428-.22l.417-.231a1.545,1.545,0,0,1,1.615,0Zm-5.469-4.08a5.289,5.289,0,1,1,2.57-3.132,5.289,5.289,0,0,1-2.57,3.132Z" transform="translate(-273.521 -34.77)" fill="#ebebeb"/>
      <path id="Path_2" data-name="Path 2" d="M115.284,328.455l-2.274-3.929-1.2.694a1.071,1.071,0,0,1-1.157-.041,5.875,5.875,0,0,0-.579-.336,1.076,1.076,0,0,1-.579-.961V322.5h-4.531v1.383a1.076,1.076,0,0,1-.579.961,5.863,5.863,0,0,0-.579.336,1.071,1.071,0,0,1-1.157.04l-1.2-.694-2.263,3.924,1.2.694a1.071,1.071,0,0,1,.527,1v.666a1.065,1.065,0,0,1-.527,1l-1.2.7,2.263,3.924,1.2-.694a1.071,1.071,0,0,1,1.157.041c.185.122.382.231.579.336a1.071,1.071,0,0,1,.579.955v1.389H109.5V337.06a1.071,1.071,0,0,1,.579-.955c.2-.1.394-.214.579-.336a1.071,1.071,0,0,1,1.128-.041l1.2.694,2.263-3.924-1.2-.694a1.076,1.076,0,0,1-.521-1c0-.11,0-.226,0-.336v-.336a1.071,1.071,0,0,1,.527-1Zm-4.329,2.026a1.534,1.534,0,1,0-.012,0Z" transform="translate(-75.04 -155.987)" fill="#ebebeb"/>
      <path id="Path_3" data-name="Path 3" d="M82.343,233.09a17.633,17.633,0,1,0,17.633,17.633A17.633,17.633,0,0,0,82.343,233.09Zm0,25.863a8.235,8.235,0,1,1,8.235-8.229,8.235,8.235,0,0,1-8.235,8.229Z" transform="translate(-60.514 -118.32)" fill="#ebebeb"/>
      <path id="Path_4" data-name="Path 4" d="M96.1,230.858H89.32l.376-4.8h6.03Z" transform="translate(-70.882 -115.358)" fill="#ebebeb"/>
      <path id="Path_5" data-name="Path 5" d="M72.963,236.021l-4.792,4.792-3.131-3.657,4.265-4.265Z" transform="translate(-60.653 -118.235)" fill="#ebebeb"/>
      <path id="Path_6" data-name="Path 6" d="M62.263,256.86v6.783l-4.8-.376v-6.03Z" transform="translate(-57.46 -128.334)" fill="#ebebeb"/>
      <path id="Path_7" data-name="Path 7" d="M67.425,279.16l4.8,4.8-3.657,3.131L64.3,282.823Z" transform="translate(-60.342 -137.728)" fill="#ebebeb"/>
      <path id="Path_8" data-name="Path 8" d="M88.27,292.14h6.777l-.37,4.8h-6.03Z" transform="translate(-70.44 -143.197)" fill="#ebebeb"/>
      <path id="Path_9" data-name="Path 9" d="M110.57,284.7l4.8-4.792,3.125,3.657-4.265,4.265Z" transform="translate(-79.835 -138.044)" fill="#ebebeb"/>
      <path id="Path_10" data-name="Path 10" d="M123.55,264.693V257.91l4.8.376v6.036Z" transform="translate(-85.303 -128.776)" fill="#ebebeb"/>
      <path id="Path_11" data-name="Path 11" d="M116.112,241.563l-4.792-4.8,3.657-3.125,4.265,4.259Z" transform="translate(-80.15 -118.551)" fill="#ebebeb"/>
      <path id="Path_12" data-name="Path 12" d="M643.029,82.83a17.639,17.639,0,1,0,17.639,17.639A17.639,17.639,0,0,0,643.029,82.83Zm0,25.868a8.229,8.229,0,1,1,5.826-2.406,8.235,8.235,0,0,1-5.826,2.406Z" transform="translate(-296.721 -55.017)" fill="#ebebeb"/>
      <path id="Path_13" data-name="Path 13" d="M656.793,80.6H650.01l.376-4.8h6.036Z" transform="translate(-307.094 -52.055)" fill="#ebebeb"/>
      <path id="Path_14" data-name="Path 14" d="M633.663,85.771l-4.8,4.792-3.125-3.657,4.265-4.265Z" transform="translate(-296.869 -54.937)" fill="#ebebeb"/>
      <path id="Path_15" data-name="Path 15" d="M622.958,106.61v6.783l-4.8-.376v-6.03Z" transform="translate(-293.676 -65.035)" fill="#ebebeb"/>
      <path id="Path_16" data-name="Path 16" d="M628.121,128.91l4.792,4.8-3.657,3.125-4.265-4.259Z" transform="translate(-296.553 -74.43)" fill="#ebebeb"/>
      <path id="Path_17" data-name="Path 17" d="M648.96,141.89h6.783l-.376,4.8h-6.03Z" transform="translate(-306.651 -79.898)" fill="#ebebeb"/>
      <path id="Path_18" data-name="Path 18" d="M671.26,134.452l4.8-4.792,3.131,3.657-4.265,4.265Z" transform="translate(-316.046 -74.746)" fill="#ebebeb"/>
      <path id="Path_19" data-name="Path 19" d="M684.24,114.443V107.66l4.8.376v6.03Z" transform="translate(-321.514 -65.478)" fill="#ebebeb"/>
      <path id="Path_20" data-name="Path 20" d="M676.808,91.308l-4.8-4.8,3.657-3.131,4.265,4.265Z" transform="translate(-316.362 -55.249)" fill="#ebebeb"/>
      <path id="Path_21" data-name="Path 21" d="M564.053,292.18l-.573,3.5-.608,3.756-5.59,34.254H548.15l5.585-34.254.613-3.756.567-3.5Z" transform="translate(-264.181 -143.213)" fill="#ebebeb"/>
      <path id="Path_22" data-name="Path 22" d="M568.537,292.18c-.48,3.472-1,6.945-1.522,10.417l-1.609,10.382-1.7,10.347-.868,5.208-.9,5.174.741-5.208.781-5.208,1.609-10.382,1.69-10.371C567.334,299.084,567.918,295.629,568.537,292.18Z" transform="translate(-269.991 -143.213)" fill="#c7c7c7"/>
      <path id="Path_23" data-name="Path 23" d="M567.546,298.22l-.608,3.756H557.8l.613-3.756Z" transform="translate(-268.247 -145.758)" fill="#c7c7c7"/>
      <path id="Path_24" data-name="Path 24" d="M653.56,292.18l.567,3.5.613,3.756,5.585,34.254h9.138l-5.585-34.254-.613-3.756-.567-3.5Z" transform="translate(-308.589 -143.213)" fill="#ebebeb"/>
      <path id="Path_25" data-name="Path 25" d="M655.9,292.18c.48,3.472,1,6.945,1.522,10.417l1.609,10.382,1.69,10.347.868,5.179.909,5.174-.741-5.208-.781-5.208-1.609-10.353-1.672-10.376C657.115,299.084,656.537,295.629,655.9,292.18Z" transform="translate(-309.575 -143.213)" fill="#c7c7c7"/>
      <path id="Path_26" data-name="Path 26" d="M654.54,298.22h9.138l.613,3.756h-9.138Z" transform="translate(-309.002 -145.758)" fill="#c7c7c7"/>
      <path id="Path_27" data-name="Path 27" d="M569.776,270.614H562.53l.9-6.754h5.446Z" transform="translate(-270.239 -131.283)" fill="#c7c7c7"/>
      <path id="Path_28" data-name="Path 28" d="M570.627,250.608a6.754,6.754,0,1,1-6.754-6.748A6.753,6.753,0,0,1,570.627,250.608Z" transform="translate(-267.96 -122.857)" fill="#dbdbdb"/>
      <path id="Path_29" data-name="Path 29" d="M570.186,251.787a5.133,5.133,0,1,1-5.133-5.127A5.133,5.133,0,0,1,570.186,251.787Z" transform="translate(-269.14 -124.036)" fill="#fff"/>
      <path id="Path_30" data-name="Path 30" d="M569.776,252.012a4.439,4.439,0,0,0-1.678-3.148,4.525,4.525,0,0,0-3.472-.9,4.329,4.329,0,0,0-2.969,1.927,4.543,4.543,0,0,0-.544,3.7,4.271,4.271,0,0,0,2.008,2.535,4.456,4.456,0,0,0,3.137.48A4.63,4.63,0,0,0,568.9,255a4.862,4.862,0,0,0,1.082-2.859c0-.052,0-.093-.04-.093s-.046.035-.046.087a4.52,4.52,0,0,1-.243,1.238,4.79,4.79,0,0,1-.579,1.111,5.077,5.077,0,0,1-.839.926,5.505,5.505,0,0,1-1.065.689,4.294,4.294,0,0,1-3.472.081,4.213,4.213,0,0,1-2.379-2.6,4.34,4.34,0,0,1,.451-3.594,4.138,4.138,0,0,1,2.894-1.9,4.306,4.306,0,0,1,4.821,2.772,5.174,5.174,0,0,1,.272,1.192h0Z" transform="translate(-269.568 -124.562)" fill="#ebebeb"/>
      <path id="Path_31" data-name="Path 31" d="M569.627,252.445a3.854,3.854,0,0,0-1.458-2.691,3.947,3.947,0,0,0-2.946-.781,3.738,3.738,0,0,0-2.569,1.638,3.941,3.941,0,0,0-.5,3.206,3.64,3.64,0,0,0,1.736,2.216,3.854,3.854,0,0,0,2.737.411,4.051,4.051,0,0,0,2.28-1.412,4.259,4.259,0,0,0,.943-2.483c0-.041,0-.075-.046-.075s-.046.029-.046.075a4.1,4.1,0,0,1-2.315,3.42,3.692,3.692,0,0,1-3.032.087,3.588,3.588,0,0,1-2.049-2.263,3.721,3.721,0,0,1,.411-3.1,3.542,3.542,0,0,1,2.488-1.6,3.721,3.721,0,0,1,4.12,2.35,4.59,4.59,0,0,1,.243,1.018h0A.041.041,0,0,0,569.627,252.445Z" transform="translate(-270.021 -124.995)" fill="#ebebeb"/>
      <path id="Path_32" data-name="Path 32" d="M569.461,252.878a3.252,3.252,0,0,0-1.233-2.228,3.339,3.339,0,0,0-2.448-.66,3.108,3.108,0,0,0-2.164,1.343,3.316,3.316,0,0,0-.457,2.708,3.061,3.061,0,0,0,1.476,1.9,3.281,3.281,0,0,0,2.315.341,3.437,3.437,0,0,0,1.927-1.215,3.7,3.7,0,0,0,.793-2.1c0-.035,0-.064-.041-.064s-.046,0-.052.064a3.472,3.472,0,0,1-1.973,2.894,3.085,3.085,0,0,1-2.558.093,3.027,3.027,0,0,1-1.736-1.916,3.154,3.154,0,0,1,.37-2.6,2.946,2.946,0,0,1,2.089-1.3,3.53,3.53,0,0,1,1.655.2,3.1,3.1,0,0,1,1.383.99,3.473,3.473,0,0,1,.422.747,4.018,4.018,0,0,1,.214.845h0a.035.035,0,0,0,.017-.029Z" transform="translate(-270.457 -125.428)" fill="#ebebeb"/>
      <path id="Path_33" data-name="Path 33" d="M569.3,253.313a2.662,2.662,0,0,0-1.013-1.765,2.766,2.766,0,0,0-1.939-.538,2.535,2.535,0,0,0-1.771,1.053,2.732,2.732,0,0,0-.411,2.216,2.483,2.483,0,0,0,1.21,1.58,2.679,2.679,0,0,0,1.939.26,2.847,2.847,0,0,0,1.574-1.013,3.091,3.091,0,0,0,.642-1.736.046.046,0,0,0-.04-.052.058.058,0,0,0-.052.052,2.894,2.894,0,0,1-1.6,2.315,2.494,2.494,0,0,1-2.083.1,2.413,2.413,0,0,1-1.406-1.574,2.535,2.535,0,0,1,.33-2.1,2.35,2.35,0,0,1,1.69-1.013,3.056,3.056,0,0,1,1.3.168,2.529,2.529,0,0,1,1.076.764,2.855,2.855,0,0,1,.341.579,3.111,3.111,0,0,1,.191.671h0S569.3,253.342,569.3,253.313Z" transform="translate(-270.893 -125.863)" fill="#ebebeb"/>
      <path id="Path_34" data-name="Path 34" d="M661.105,270.614H653.86l.9-6.754h5.446Z" transform="translate(-308.715 -131.283)" fill="#c7c7c7"/>
      <path id="Path_35" data-name="Path 35" d="M661.957,250.608a6.754,6.754,0,1,1-6.754-6.748,6.754,6.754,0,0,1,6.754,6.748Z" transform="translate(-306.436 -122.857)" fill="#dbdbdb"/>
      <path id="Path_36" data-name="Path 36" d="M661.526,251.787a5.133,5.133,0,1,1-5.133-5.127A5.133,5.133,0,0,1,661.526,251.787Z" transform="translate(-307.62 -124.036)" fill="#fff"/>
      <path id="Path_37" data-name="Path 37" d="M661.1,252.012a4.409,4.409,0,0,0-1.672-3.148,4.526,4.526,0,0,0-3.472-.9,4.329,4.329,0,0,0-2.969,1.927,4.543,4.543,0,0,0-.544,3.7,4.271,4.271,0,0,0,2.008,2.535,4.456,4.456,0,0,0,3.137.48A4.63,4.63,0,0,0,660.226,255a4.862,4.862,0,0,0,1.082-2.859c0-.052,0-.093-.041-.093s-.046.035-.046.087a4.52,4.52,0,0,1-.243,1.238,5.028,5.028,0,0,1-.579,1.111,5.082,5.082,0,0,1-.839.926,5.5,5.5,0,0,1-1.065.689,4.294,4.294,0,0,1-3.5.081,4.213,4.213,0,0,1-2.378-2.6,4.341,4.341,0,0,1,.451-3.594,4.126,4.126,0,0,1,2.894-1.9,4.306,4.306,0,0,1,4.832,2.772,5.174,5.174,0,0,1,.272,1.192h0a.035.035,0,0,0,.035-.035Z" transform="translate(-308.044 -124.562)" fill="#ebebeb"/>
      <path id="Path_38" data-name="Path 38" d="M660.957,252.445a3.855,3.855,0,0,0-1.458-2.691,3.947,3.947,0,0,0-2.946-.781,3.738,3.738,0,0,0-2.569,1.638,3.941,3.941,0,0,0-.5,3.206,3.64,3.64,0,0,0,1.736,2.216,3.855,3.855,0,0,0,2.737.411,4.051,4.051,0,0,0,2.28-1.412,4.213,4.213,0,0,0,.938-2.483c0-.041,0-.075-.041-.075s-.046.029-.046.075a4.1,4.1,0,0,1-2.315,3.42,3.692,3.692,0,0,1-3.032.087,3.588,3.588,0,0,1-2.049-2.263,3.739,3.739,0,0,1,.405-3.1,3.565,3.565,0,0,1,2.488-1.6,3.721,3.721,0,0,1,4.126,2.35,4.593,4.593,0,0,1,.243,1.018h0A.041.041,0,0,0,660.957,252.445Z" transform="translate(-308.498 -124.995)" fill="#ebebeb"/>
      <path id="Path_39" data-name="Path 39" d="M660.791,252.875a3.252,3.252,0,0,0-1.233-2.228,3.339,3.339,0,0,0-2.448-.665,3.108,3.108,0,0,0-2.164,1.343,3.316,3.316,0,0,0-.457,2.708,3.062,3.062,0,0,0,1.476,1.9,3.281,3.281,0,0,0,2.315.341,3.437,3.437,0,0,0,1.927-1.215,3.7,3.7,0,0,0,.793-2.1c0-.035,0-.064-.041-.064s-.046,0-.052.064a3.507,3.507,0,0,1-1.973,2.894,3.085,3.085,0,0,1-2.558.093,3.015,3.015,0,0,1-1.736-1.916,3.154,3.154,0,0,1,.37-2.6,2.946,2.946,0,0,1,2.089-1.3,3.53,3.53,0,0,1,1.655.2,3.125,3.125,0,0,1,1.348.99,3.475,3.475,0,0,1,.422.747,4.018,4.018,0,0,1,.214.845h0a.035.035,0,0,0,.052-.023Z" transform="translate(-308.934 -125.425)" fill="#ebebeb"/>
      <path id="Path_40" data-name="Path 40" d="M660.625,253.313a2.662,2.662,0,0,0-1.013-1.765,2.766,2.766,0,0,0-1.939-.538,2.535,2.535,0,0,0-1.771,1.053,2.732,2.732,0,0,0-.411,2.216,2.483,2.483,0,0,0,1.21,1.58,2.674,2.674,0,0,0,1.939.26,2.847,2.847,0,0,0,1.574-1.013,3.131,3.131,0,0,0,.642-1.736.046.046,0,0,0-.041-.052.058.058,0,0,0-.052.052,2.894,2.894,0,0,1-1.6,2.315,2.494,2.494,0,0,1-2.083.1,2.413,2.413,0,0,1-1.406-1.574,2.535,2.535,0,0,1,.33-2.1,2.35,2.35,0,0,1,1.69-1.013,3.056,3.056,0,0,1,1.3.168,2.477,2.477,0,0,1,1.071.764,2.631,2.631,0,0,1,.347.579,3.107,3.107,0,0,1,.191.671h0S660.625,253.342,660.625,253.313Z" transform="translate(-309.369 -125.863)" fill="#ebebeb"/>
      <rect id="Rectangle_1" data-name="Rectangle 1" width="91.032" height="17.413" transform="translate(276.908 135.888)" fill="#dbdbdb"/>
      <path id="Path_41" data-name="Path 41" d="M554.9,269.58l-6.6,17.413H536.54l6.609-17.413Z" transform="translate(-259.29 -133.692)" fill="#ebebeb"/>
      <path id="Path_42" data-name="Path 42" d="M596.543,269.58l-6.6,17.413H578.18l6.6-17.413Z" transform="translate(-276.832 -133.692)" fill="#ebebeb"/>
      <path id="Path_43" data-name="Path 43" d="M638.183,269.58l-6.609,17.413H619.82l6.609-17.413Z" transform="translate(-294.375 -133.692)" fill="#ebebeb"/>
      <path id="Path_44" data-name="Path 44" d="M679.818,269.58l-6.609,17.413H661.45l6.609-17.413Z" transform="translate(-311.913 -133.692)" fill="#ebebeb"/>
      <rect id="Rectangle_2" data-name="Rectangle 2" width="87.345" height="11.019" transform="translate(278.749 169.395)" fill="#dbdbdb"/>
      <path id="Path_45" data-name="Path 45" d="M557.326,327.48,550.989,338.5H539.71l6.337-11.019Z" transform="translate(-260.626 -158.085)" fill="#ebebeb"/>
      <path id="Path_46" data-name="Path 46" d="M597.272,327.48,590.935,338.5H579.65l6.343-11.019Z" transform="translate(-277.452 -158.085)" fill="#ebebeb"/>
      <path id="Path_47" data-name="Path 47" d="M637.226,327.48,630.889,338.5H619.61l6.337-11.019Z" transform="translate(-294.286 -158.085)" fill="#ebebeb"/>
      <path id="Path_48" data-name="Path 48" d="M677.178,327.48,670.835,338.5H659.55l6.343-11.019Z" transform="translate(-311.113 -158.085)" fill="#ebebeb"/>
    </g>
    <g id="freepik--Shadow--inject-94" transform="translate(203.327 265.248)">
      <ellipse id="Ellipse_1" data-name="Ellipse 1" cx="105.418" cy="7.118" rx="105.418" ry="7.118" transform="translate(0 0)" fill="#ebebeb"/>
    </g>
    <g id="freepik--Floor--inject-94" transform="translate(56.507 224.947)">
      <path id="Path_49" data-name="Path 49" d="M56.76,363.674l46.042-.139,46.042-.052,92.085-.093,92.085.093,46.042.052,46.042.139-46.042.145-46.042.052-92.085.093-92.085-.093-46.042-.052Z" transform="translate(-56.76 -363.39)" fill="#263238"/>
    </g>
    <g id="freepik--Device--inject-94" transform="translate(100.599 78.249)">
      <rect id="Rectangle_3" data-name="Rectangle 3" width="222.261" height="148.677" transform="translate(28.947)" fill="#dbdbdb"/>
      <rect id="Rectangle_4" data-name="Rectangle 4" width="219.031" height="145.049" transform="translate(30.562 1.817)" fill="#263238"/>
      <rect id="Rectangle_5" data-name="Rectangle 5" width="280.155" height="10.203" transform="translate(0 159.823)" fill="#c7c7c7"/>
      <path id="Path_50" data-name="Path 50" d="M132.95,377.956,161.9,366.81H384.158l28.947,11.146Z" transform="translate(-132.95 -218.133)" fill="#dbdbdb"/>
      <path id="Path_51" data-name="Path 51" d="M187.44,374l18.681-7.193H385.846L404.527,374Z" transform="translate(-155.906 -218.133)" fill="#263238"/>
      <rect id="Rectangle_6" data-name="Rectangle 6" width="194.604" height="123.11" transform="translate(42.778 12.784)" fill="#fff"/>
      <rect id="Rectangle_7" data-name="Rectangle 7" width="194.604" height="4.74" transform="translate(42.778 12.784)" fill="#455a64"/>
      <path id="Path_52" data-name="Path 52" d="M211.685,135.237a1.157,1.157,0,1,1-1.157-1.157A1.157,1.157,0,0,1,211.685,135.237Z" transform="translate(-165.145 -120.087)" fill="#407bff"/>
      <path id="Path_53" data-name="Path 53" d="M219.975,135.237a1.157,1.157,0,1,1-1.157-1.157A1.157,1.157,0,0,1,219.975,135.237Z" transform="translate(-168.637 -120.087)" fill="#ebebeb"/>
      <path id="Path_54" data-name="Path 54" d="M228.315,135.237a1.157,1.157,0,1,1-1.157-1.157A1.157,1.157,0,0,1,228.315,135.237Z" transform="translate(-172.151 -120.087)" fill="#fff"/>
      <rect id="Rectangle_8" data-name="Rectangle 8" width="35.458" height="27.205" transform="translate(171.293 97.826) rotate(180)" fill="#ebebeb"/>
      <path id="Path_55" data-name="Path 55" d="M373.714,240.333a3.223,3.223,0,1,0,2.529-2.529,3.223,3.223,0,0,0-2.529,2.529Z" transform="translate(-234.354 -163.758)" fill="#fff"/>
      <path id="Path_56" data-name="Path 56" d="M387.88,258.161h23.756L399.755,243.52Z" transform="translate(-240.349 -166.192)" fill="#c7c7c7"/>
      <path id="Path_57" data-name="Path 57" d="M367.66,261.9h21.071L378.2,252.36Z" transform="translate(-231.83 -169.917)" fill="#dbdbdb"/>
      <rect id="Rectangle_9" data-name="Rectangle 9" width="35.458" height="5.862" transform="translate(135.83 91.969)" fill="#dbdbdb"/>
      <rect id="Rectangle_10" data-name="Rectangle 10" width="26.632" height="2.24" transform="translate(52.385 70.626)" fill="#dbdbdb"/>
      <rect id="Rectangle_11" data-name="Rectangle 11" width="77.073" height="2.24" transform="translate(52.385 75.823)" fill="#dbdbdb"/>
      <rect id="Rectangle_12" data-name="Rectangle 12" width="77.073" height="2.24" transform="translate(52.385 80.754)" fill="#dbdbdb"/>
      <rect id="Rectangle_13" data-name="Rectangle 13" width="77.073" height="2.24" transform="translate(52.385 85.684)" fill="#dbdbdb"/>
      <rect id="Rectangle_14" data-name="Rectangle 14" width="77.073" height="2.24" transform="translate(52.385 90.615)" fill="#dbdbdb"/>
      <rect id="Rectangle_15" data-name="Rectangle 15" width="77.073" height="2.24" transform="translate(52.385 95.54)" fill="#dbdbdb"/>
      <rect id="Rectangle_16" data-name="Rectangle 16" width="26.632" height="5.995" transform="translate(116.57 26.638)" fill="#dbdbdb"/>
      <rect id="Rectangle_17" data-name="Rectangle 17" width="54.717" height="2.24" transform="translate(116.57 36.766)" fill="#dbdbdb"/>
      <rect id="Rectangle_18" data-name="Rectangle 18" width="54.717" height="2.24" transform="translate(116.57 41.696)" fill="#dbdbdb"/>
      <rect id="Rectangle_19" data-name="Rectangle 19" width="54.717" height="2.24" transform="translate(116.57 46.627)" fill="#dbdbdb"/>
      <rect id="Rectangle_20" data-name="Rectangle 20" width="54.717" height="2.24" transform="translate(116.57 51.558)" fill="#dbdbdb"/>
      <rect id="Rectangle_21" data-name="Rectangle 21" width="54.717" height="2.24" transform="translate(116.57 58.114)" fill="#dbdbdb"/>
      <rect id="Rectangle_22" data-name="Rectangle 22" width="54.717" height="2.24" transform="translate(116.57 63.045)" fill="#dbdbdb"/>
      <rect id="Rectangle_23" data-name="Rectangle 23" width="48.705" height="6.1" transform="translate(179.06 26.638)" fill="#407bff"/>
      <rect id="Rectangle_24" data-name="Rectangle 24" width="48.444" height="95.679" transform="translate(179.193 32.79)" fill="#fff"/>
      <path id="Path_58" data-name="Path 58" d="M491.07,262.281H442.36V166.29h48.71Zm-48.444-.313H490.8V166.6H442.626Z" transform="translate(-263.3 -133.656)" fill="#dbdbdb"/>
      <path id="Path_59" data-name="Path 59" d="M442.625,262.254l-.255-.116,48.444-95.679.249.116Z" transform="translate(-263.305 -133.728)" fill="#dbdbdb"/>
      <path id="Path_60" data-name="Path 60" d="M490.814,262.254,442.37,166.576l.255-.116,48.438,95.679Z" transform="translate(-263.305 -133.728)" fill="#dbdbdb"/>
      <rect id="Rectangle_25" data-name="Rectangle 25" width="58.045" height="38.432" transform="translate(52.489 26.742)" fill="#fff"/>
      <path id="Path_61" data-name="Path 61" d="M223.49,194.589V155.96h58.236v38.629H223.49Zm.185-38.438v38.241h57.871V156.157Z" transform="translate(-171.093 -129.304)" fill="#dbdbdb"/>
      <path id="Path_62" data-name="Path 62" d="M223.81,156.29c4.879,3.1,9.734,6.239,14.578,9.387l14.5,9.5,14.439,9.607,7.193,4.838,7.159,4.89-7.309-4.664-7.269-4.717-14.5-9.5-14.433-9.612C233.365,162.8,228.55,159.594,223.81,156.29Z" transform="translate(-171.228 -129.444)" fill="#dbdbdb"/>
      <path id="Path_63" data-name="Path 63" d="M281.67,156.29c-4.763,3.281-9.555,6.511-14.352,9.728l-14.433,9.612-14.5,9.5-7.274,4.717-7.3,4.664,7.159-4.89,7.188-4.838,14.433-9.607,14.5-9.5C271.953,162.529,276.785,159.386,281.67,156.29Z" transform="translate(-171.228 -129.444)" fill="#dbdbdb"/>
      <rect id="Rectangle_26" data-name="Rectangle 26" width="27.026" height="118.434" transform="translate(52.582 128.55) rotate(-90)" fill="#fff"/>
      <path id="Path_64" data-name="Path 64" d="M342.3,285.2v27.2H223.47V285.2Zm-.394,27.026V285.35H223.846v26.875Z" transform="translate(-171.085 -183.752)" fill="#dbdbdb"/>
      <path id="Path_65" data-name="Path 65" d="M342.264,312.236l-.145.139L223.68,285.349l.145-.139Z" transform="translate(-171.173 -183.756)" fill="#dbdbdb"/>
      <path id="Path_66" data-name="Path 66" d="M342.264,285.349,223.825,312.375l-.145-.139L342.119,285.21Z" transform="translate(-171.173 -183.756)" fill="#dbdbdb"/>
    </g>
    <g id="freepik--Crane--inject-94" transform="translate(56.16 41.911)">
      <rect id="Rectangle_27" data-name="Rectangle 27" width="18.021" height="1.754" transform="matrix(0.686, -0.728, 0.728, 0.686, 36.988, 52.629)" fill="#263238"/>
      <rect id="Rectangle_28" data-name="Rectangle 28" width="12.662" height="1.754" transform="translate(37.628 52.906)" fill="#455a64"/>
      <rect id="Rectangle_29" data-name="Rectangle 29" width="12.662" height="1.754" transform="translate(37.628 39.243)" fill="#455a64"/>
      <rect id="Rectangle_30" data-name="Rectangle 30" width="1.754" height="18.021" transform="matrix(0.728, -0.686, 0.686, 0.728, 36.989, 40.716)" fill="#455a64"/>
      <rect id="Rectangle_31" data-name="Rectangle 31" width="18.021" height="1.754" transform="matrix(0.686, -0.728, 0.728, 0.686, 36.986, 66.292)" fill="#263238"/>
      <rect id="Rectangle_32" data-name="Rectangle 32" width="12.662" height="1.754" transform="translate(37.628 66.569)" fill="#455a64"/>
      <rect id="Rectangle_33" data-name="Rectangle 33" width="12.662" height="1.754" transform="translate(37.628 52.906)" fill="#455a64"/>
      <rect id="Rectangle_34" data-name="Rectangle 34" width="1.754" height="18.021" transform="matrix(0.728, -0.686, 0.686, 0.728, 36.986, 54.379)" fill="#455a64"/>
      <rect id="Rectangle_35" data-name="Rectangle 35" width="18.021" height="1.754" transform="matrix(0.686, -0.728, 0.728, 0.686, 36.984, 79.954)" fill="#263238"/>
      <rect id="Rectangle_36" data-name="Rectangle 36" width="12.662" height="1.754" transform="translate(37.628 80.233)" fill="#455a64"/>
      <rect id="Rectangle_37" data-name="Rectangle 37" width="12.662" height="1.754" transform="translate(37.628 66.569)" fill="#455a64"/>
      <rect id="Rectangle_38" data-name="Rectangle 38" width="1.754" height="18.021" transform="matrix(0.728, -0.686, 0.686, 0.728, 36.989, 68.042)" fill="#455a64"/>
      <rect id="Rectangle_39" data-name="Rectangle 39" width="18.021" height="1.754" transform="matrix(0.686, -0.728, 0.728, 0.686, 36.988, 93.616)" fill="#263238"/>
      <rect id="Rectangle_40" data-name="Rectangle 40" width="12.662" height="1.754" transform="translate(37.628 93.896)" fill="#455a64"/>
      <rect id="Rectangle_41" data-name="Rectangle 41" width="12.662" height="1.754" transform="translate(37.628 80.233)" fill="#455a64"/>
      <rect id="Rectangle_42" data-name="Rectangle 42" width="1.754" height="18.021" transform="matrix(0.728, -0.686, 0.686, 0.728, 36.992, 81.706)" fill="#455a64"/>
      <rect id="Rectangle_43" data-name="Rectangle 43" width="18.021" height="1.754" transform="matrix(0.686, -0.728, 0.728, 0.686, 36.987, 107.284)" fill="#263238"/>
      <rect id="Rectangle_44" data-name="Rectangle 44" width="12.662" height="1.754" transform="translate(37.628 107.56)" fill="#455a64"/>
      <rect id="Rectangle_45" data-name="Rectangle 45" width="12.662" height="1.754" transform="translate(37.628 93.896)" fill="#455a64"/>
      <rect id="Rectangle_46" data-name="Rectangle 46" width="1.754" height="18.021" transform="matrix(0.728, -0.686, 0.686, 0.728, 36.991, 95.365)" fill="#455a64"/>
      <rect id="Rectangle_47" data-name="Rectangle 47" width="18.021" height="1.754" transform="matrix(0.686, -0.728, 0.728, 0.686, 36.991, 120.947)" fill="#263238"/>
      <rect id="Rectangle_48" data-name="Rectangle 48" width="12.662" height="1.754" transform="translate(37.628 121.217)" fill="#455a64"/>
      <rect id="Rectangle_49" data-name="Rectangle 49" width="12.662" height="1.754" transform="translate(37.628 107.56)" fill="#455a64"/>
      <rect id="Rectangle_50" data-name="Rectangle 50" width="1.754" height="18.021" transform="matrix(0.728, -0.686, 0.686, 0.728, 36.988, 109.028)" fill="#455a64"/>
      <rect id="Rectangle_51" data-name="Rectangle 51" width="18.021" height="1.754" transform="matrix(0.686, -0.728, 0.728, 0.686, 36.985, 134.605)" fill="#263238"/>
      <rect id="Rectangle_52" data-name="Rectangle 52" width="12.662" height="1.754" transform="translate(37.628 134.881)" fill="#455a64"/>
      <rect id="Rectangle_53" data-name="Rectangle 53" width="12.662" height="1.754" transform="translate(37.628 121.217)" fill="#455a64"/>
      <rect id="Rectangle_54" data-name="Rectangle 54" width="1.754" height="18.021" transform="matrix(0.728, -0.686, 0.686, 0.728, 36.992, 122.686)" fill="#455a64"/>
      <rect id="Rectangle_55" data-name="Rectangle 55" width="18.021" height="1.754" transform="matrix(0.686, -0.728, 0.728, 0.686, 36.989, 148.262)" fill="#263238"/>
      <rect id="Rectangle_56" data-name="Rectangle 56" width="12.662" height="1.754" transform="translate(37.628 148.544)" fill="#455a64"/>
      <rect id="Rectangle_57" data-name="Rectangle 57" width="12.662" height="1.754" transform="translate(37.628 134.881)" fill="#455a64"/>
      <rect id="Rectangle_58" data-name="Rectangle 58" width="1.754" height="18.021" transform="matrix(0.728, -0.686, 0.686, 0.728, 36.995, 136.349)" fill="#455a64"/>
      <rect id="Rectangle_59" data-name="Rectangle 59" width="18.021" height="1.754" transform="matrix(0.686, -0.728, 0.728, 0.686, 36.993, 161.918)" fill="#263238"/>
      <rect id="Rectangle_60" data-name="Rectangle 60" width="12.662" height="1.754" transform="translate(37.628 162.208)" fill="#455a64"/>
      <rect id="Rectangle_61" data-name="Rectangle 61" width="12.662" height="1.754" transform="translate(37.628 148.544)" fill="#455a64"/>
      <rect id="Rectangle_62" data-name="Rectangle 62" width="1.754" height="18.021" transform="matrix(0.728, -0.686, 0.686, 0.728, 36.992, 150.012)" fill="#455a64"/>
      <rect id="Rectangle_63" data-name="Rectangle 63" width="18.021" height="1.754" transform="translate(36.992 175.596) rotate(-46.7)" fill="#263238"/>
      <rect id="Rectangle_64" data-name="Rectangle 64" width="12.662" height="1.754" transform="translate(37.628 175.871)" fill="#455a64"/>
      <rect id="Rectangle_65" data-name="Rectangle 65" width="12.662" height="1.754" transform="translate(37.628 162.208)" fill="#455a64"/>
      <rect id="Rectangle_66" data-name="Rectangle 66" width="1.754" height="18.021" transform="matrix(0.728, -0.686, 0.686, 0.728, 36.995, 163.681)" fill="#455a64"/>
      <rect id="Rectangle_67" data-name="Rectangle 67" width="18.021" height="1.754" transform="translate(36.988 189.255) rotate(-46.7)" fill="#263238"/>
      <rect id="Rectangle_68" data-name="Rectangle 68" width="12.662" height="1.754" transform="translate(37.628 189.534)" fill="#455a64"/>
      <rect id="Rectangle_69" data-name="Rectangle 69" width="12.662" height="1.754" transform="translate(37.628 175.871)" fill="#455a64"/>
      <rect id="Rectangle_70" data-name="Rectangle 70" width="1.754" height="18.021" transform="matrix(0.728, -0.686, 0.686, 0.728, 36.994, 177.335)" fill="#455a64"/>
      <rect id="Rectangle_71" data-name="Rectangle 71" width="7.957" height="18.264" transform="translate(52.825 189.349) rotate(90)" fill="#455a64"/>
      <rect id="Rectangle_72" data-name="Rectangle 72" width="149.887" height="4.578" transform="translate(39.133 39.96) rotate(90)" fill="#455a64"/>
      <rect id="Rectangle_73" data-name="Rectangle 73" width="149.887" height="4.578" transform="translate(52.825 39.96) rotate(90)" fill="#455a64"/>
      <path id="Path_67" data-name="Path 67" d="M235.091,87.482,221.41,74,105.933,52.482,70.84,74.1l-.92-1.5L105.592,50.63,222.255,72.372l14.069,13.854Z" transform="translate(-61.957 -48.593)" fill="#455a64"/>
      <path id="Path_68" data-name="Path 68" d="M134.067,75.609,120,56.06,106.544,75.58l-2.894-2L119.941,49.96,136.92,73.554Z" transform="translate(-76.167 -48.311)" fill="#263238"/>
      <rect id="Rectangle_74" data-name="Rectangle 74" width="1.754" height="18.021" transform="matrix(0.686, -0.728, 0.728, 0.686, 145.374, 28.25)" fill="#263238"/>
      <rect id="Rectangle_75" data-name="Rectangle 75" width="1.754" height="12.662" transform="translate(158.753 27.298)" fill="#455a64"/>
      <rect id="Rectangle_76" data-name="Rectangle 76" width="1.754" height="12.662" transform="translate(145.089 27.298)" fill="#455a64"/>
      <rect id="Rectangle_77" data-name="Rectangle 77" width="18.021" height="1.754" transform="matrix(0.728, -0.686, 0.686, 0.728, 145.37, 39.332)" fill="#455a64"/>
      <rect id="Rectangle_78" data-name="Rectangle 78" width="1.754" height="18.021" transform="matrix(0.686, -0.728, 0.728, 0.686, 131.708, 28.25)" fill="#263238"/>
      <rect id="Rectangle_79" data-name="Rectangle 79" width="1.754" height="12.662" transform="translate(145.089 27.298)" fill="#455a64"/>
      <rect id="Rectangle_80" data-name="Rectangle 80" width="1.754" height="12.662" transform="translate(131.426 27.298)" fill="#455a64"/>
      <rect id="Rectangle_81" data-name="Rectangle 81" width="18.021" height="1.754" transform="matrix(0.728, -0.686, 0.686, 0.728, 131.695, 39.308)" fill="#455a64"/>
      <rect id="Rectangle_82" data-name="Rectangle 82" width="1.754" height="18.021" transform="matrix(0.686, -0.728, 0.728, 0.686, 118.041, 28.25)" fill="#263238"/>
      <rect id="Rectangle_83" data-name="Rectangle 83" width="1.754" height="12.662" transform="translate(131.426 27.298)" fill="#455a64"/>
      <rect id="Rectangle_84" data-name="Rectangle 84" width="1.754" height="12.662" transform="translate(117.762 27.298)" fill="#455a64"/>
      <rect id="Rectangle_85" data-name="Rectangle 85" width="18.021" height="1.754" transform="matrix(0.728, -0.686, 0.686, 0.728, 118.033, 39.307)" fill="#455a64"/>
      <rect id="Rectangle_86" data-name="Rectangle 86" width="1.754" height="18.021" transform="matrix(0.686, -0.728, 0.728, 0.686, 104.38, 28.25)" fill="#263238"/>
      <rect id="Rectangle_87" data-name="Rectangle 87" width="1.754" height="12.662" transform="translate(117.762 27.298)" fill="#455a64"/>
      <rect id="Rectangle_88" data-name="Rectangle 88" width="1.754" height="12.662" transform="translate(104.099 27.298)" fill="#455a64"/>
      <rect id="Rectangle_89" data-name="Rectangle 89" width="18.021" height="1.754" transform="matrix(0.728, -0.686, 0.686, 0.728, 104.372, 39.312)" fill="#455a64"/>
      <rect id="Rectangle_90" data-name="Rectangle 90" width="1.754" height="18.021" transform="matrix(0.686, -0.728, 0.728, 0.686, 90.718, 28.246)" fill="#263238"/>
      <rect id="Rectangle_91" data-name="Rectangle 91" width="1.754" height="12.662" transform="translate(104.099 27.298)" fill="#455a64"/>
      <rect id="Rectangle_92" data-name="Rectangle 92" width="1.754" height="12.662" transform="translate(90.441 27.298)" fill="#455a64"/>
      <rect id="Rectangle_93" data-name="Rectangle 93" width="18.021" height="1.754" transform="matrix(0.728, -0.686, 0.686, 0.728, 90.71, 39.317)" fill="#455a64"/>
      <rect id="Rectangle_94" data-name="Rectangle 94" width="1.754" height="18.021" transform="matrix(0.686, -0.728, 0.728, 0.686, 77.057, 28.245)" fill="#263238"/>
      <rect id="Rectangle_95" data-name="Rectangle 95" width="1.754" height="12.662" transform="translate(90.441 27.298)" fill="#455a64"/>
      <rect id="Rectangle_96" data-name="Rectangle 96" width="1.754" height="12.662" transform="translate(76.778 27.298)" fill="#455a64"/>
      <rect id="Rectangle_97" data-name="Rectangle 97" width="18.021" height="1.754" transform="matrix(0.728, -0.686, 0.686, 0.728, 77.048, 39.316)" fill="#455a64"/>
      <rect id="Rectangle_98" data-name="Rectangle 98" width="1.754" height="18.021" transform="matrix(0.686, -0.728, 0.728, 0.686, 63.391, 28.245)" fill="#263238"/>
      <rect id="Rectangle_99" data-name="Rectangle 99" width="1.754" height="12.662" transform="translate(76.778 27.298)" fill="#455a64"/>
      <rect id="Rectangle_100" data-name="Rectangle 100" width="1.754" height="12.662" transform="translate(63.114 27.298)" fill="#455a64"/>
      <rect id="Rectangle_101" data-name="Rectangle 101" width="18.021" height="1.754" transform="matrix(0.728, -0.686, 0.686, 0.728, 63.391, 39.316)" fill="#455a64"/>
      <rect id="Rectangle_102" data-name="Rectangle 102" width="1.754" height="18.021" transform="matrix(0.686, -0.728, 0.728, 0.686, 49.73, 28.245)" fill="#263238"/>
      <rect id="Rectangle_103" data-name="Rectangle 103" width="1.754" height="12.662" transform="translate(63.114 27.298)" fill="#455a64"/>
      <rect id="Rectangle_104" data-name="Rectangle 104" width="1.754" height="12.662" transform="translate(49.451 27.298)" fill="#455a64"/>
      <rect id="Rectangle_105" data-name="Rectangle 105" width="18.021" height="1.754" transform="matrix(0.728, -0.686, 0.686, 0.728, 49.729, 39.315)" fill="#455a64"/>
      <rect id="Rectangle_106" data-name="Rectangle 106" width="1.754" height="18.021" transform="matrix(0.686, -0.728, 0.728, 0.686, 36.064, 28.245)" fill="#263238"/>
      <rect id="Rectangle_107" data-name="Rectangle 107" width="1.754" height="12.662" transform="translate(49.451 27.298)" fill="#455a64"/>
      <rect id="Rectangle_108" data-name="Rectangle 108" width="1.754" height="12.662" transform="translate(35.788 27.298)" fill="#455a64"/>
      <rect id="Rectangle_109" data-name="Rectangle 109" width="18.021" height="1.754" transform="matrix(0.728, -0.686, 0.686, 0.728, 36.062, 39.314)" fill="#455a64"/>
      <rect id="Rectangle_110" data-name="Rectangle 110" width="1.754" height="18.021" transform="matrix(0.686, -0.728, 0.728, 0.686, 22.403, 28.245)" fill="#263238"/>
      <rect id="Rectangle_111" data-name="Rectangle 111" width="1.754" height="12.662" transform="translate(35.788 27.298)" fill="#455a64"/>
      <rect id="Rectangle_112" data-name="Rectangle 112" width="1.754" height="12.662" transform="translate(22.124 27.298)" fill="#455a64"/>
      <rect id="Rectangle_113" data-name="Rectangle 113" width="18.021" height="1.754" transform="matrix(0.728, -0.686, 0.686, 0.728, 22.4, 39.313)" fill="#455a64"/>
      <rect id="Rectangle_114" data-name="Rectangle 114" width="1.761" height="18.102" transform="translate(9.051 28.344) rotate(-46.614)" fill="#263238"/>
      <rect id="Rectangle_115" data-name="Rectangle 115" width="1.754" height="12.662" transform="translate(22.124 27.298)" fill="#455a64"/>
      <rect id="Rectangle_116" data-name="Rectangle 116" width="1.754" height="12.662" transform="translate(8.461 27.298)" fill="#455a64"/>
      <rect id="Rectangle_117" data-name="Rectangle 117" width="18.021" height="1.754" transform="matrix(0.728, -0.686, 0.686, 0.728, 8.738, 39.318)" fill="#455a64"/>
      <rect id="Rectangle_118" data-name="Rectangle 118" width="7.946" height="18.264" transform="translate(0 23.982)" fill="#263238"/>
      <rect id="Rectangle_119" data-name="Rectangle 119" width="7.957" height="18.264" transform="translate(7.946 23.982)" fill="#455a64"/>
      <rect id="Rectangle_120" data-name="Rectangle 120" width="15.255" height="9.109" transform="translate(11.152 42.246)" fill="#455a64"/>
      <rect id="Rectangle_121" data-name="Rectangle 121" width="166.421" height="4.578" transform="translate(7.946 37.668)" fill="#455a64"/>
      <path id="Path_69" data-name="Path 69" d="M226.814,93.128H69.89V88.55H222.34Z" transform="translate(-61.944 -64.568)" fill="#455a64"/>
      <rect id="Rectangle_122" data-name="Rectangle 122" width="1.754" height="12.662" transform="translate(161.745 27.298)" fill="#455a64"/>
      <path id="Path_70" data-name="Path 70" d="M227.92,201.193l11-1.759,11-1.7,22.014-3.316.058-.006.058.012,36.633,9.5,18.31,4.8,18.287,4.861-18.363-4.578-18.345-4.647L271.9,194.977l.116.006-22.037,3.177-11.019,1.545Z" transform="translate(-128.52 -109.166)" fill="#263238"/>
      <rect id="Rectangle_123" data-name="Rectangle 123" width="1.754" height="25.926" transform="translate(134.967 44.115)" fill="#263238"/>
      <rect id="Rectangle_124" data-name="Rectangle 124" width="1.754" height="25.926" transform="translate(149.823 44.694)" fill="#263238"/>
      <rect id="Rectangle_125" data-name="Rectangle 125" width="23.154" height="3.733" transform="translate(131.819 42.246)" fill="#455a64"/>
      <path id="Path_71" data-name="Path 71" d="M302.743,175.67l-.2,3.895-.579-.671a6.239,6.239,0,0,1,1.771.764,4.172,4.172,0,0,1,1.389,1.366,3.472,3.472,0,0,1-.093,3.7,3.611,3.611,0,0,1-3.131,1.62,3.808,3.808,0,0,1-2.894-1.736A3.634,3.634,0,0,0,301.9,186a3.119,3.119,0,0,0,2.552-1.632,2.633,2.633,0,0,0-.174-2.784,4.051,4.051,0,0,0-2.552-1.348l-.532-.093-.029-.579-.191-3.895Z" transform="translate(-158.469 -101.271)" fill="#263238"/>
      <path id="Path_72" data-name="Path 72" d="M307.094,161.87v6.354l-11.58,2.749-11.574-2.749V161.87Z" transform="translate(-152.121 -95.457)" fill="#455a64"/>
      <path id="Path_73" data-name="Path 73" d="M291.157,167.333a1.343,1.343,0,1,1-.4-.951A1.348,1.348,0,0,1,291.157,167.333Z" transform="translate(-154.025 -97.193)" fill="#263238"/>
      <path id="Path_74" data-name="Path 74" d="M317.455,167.333a1.343,1.343,0,1,1-1.343-1.343A1.343,1.343,0,0,1,317.455,167.333Z" transform="translate(-165.109 -97.193)" fill="#263238"/>
      <rect id="Rectangle_126" data-name="Rectangle 126" width="118.764" height="26.939" transform="translate(213.883 131.199) rotate(-173.86)" fill="#407bff"/>
      <path id="Path_75" data-name="Path 75" d="M333.24,245.309l54.144,5.828-25.51-17.477Z" transform="translate(-172.89 -125.701)" fill="#407bff"/>
      <path id="Path_76" data-name="Path 76" d="M333.24,245.309l54.144,5.828-25.51-17.477Z" transform="translate(-172.89 -125.701)" opacity="0.2"/>
      <path id="Path_77" data-name="Path 77" d="M287.17,243.838l48.016,5.168L312.2,236.94Z" transform="translate(-153.481 -127.083)" fill="#407bff"/>
      <path id="Path_78" data-name="Path 78" d="M287.17,243.838l48.016,5.168L312.2,236.94Z" transform="translate(-153.481 -127.083)" opacity="0.1"/>
      <rect id="Rectangle_127" data-name="Rectangle 127" width="118.764" height="5.804" transform="translate(96.403 112.742) rotate(6.14)" fill="#407bff"/>
      <rect id="Rectangle_128" data-name="Rectangle 128" width="118.764" height="5.804" transform="translate(96.403 112.742) rotate(6.14)" opacity="0.1"/>
      <path id="Path_79" data-name="Path 79" d="M246.5,220.685a3.657,3.657,0,1,1-.78-2.7,3.663,3.663,0,0,1,.78,2.7Z" transform="translate(-133.272 -118.519)" fill="#fff" opacity="0.6"/>
      <path id="Path_80" data-name="Path 80" d="M132.686,50.073a2.963,2.963,0,1,1-2.963-2.963,2.963,2.963,0,0,1,2.963,2.963Z" transform="translate(-85.903 -47.11)" fill="#a6a6a6"/>
      <path id="Path_81" data-name="Path 81" d="M132.228,51.223a1.389,1.389,0,1,1-1.383-1.383A1.389,1.389,0,0,1,132.228,51.223Z" transform="translate(-87.036 -48.26)" fill="#455a64"/>
      <rect id="Rectangle_129" data-name="Rectangle 129" width="25.568" height="6.042" transform="translate(30.909 197.306)" fill="#263238"/>
      <rect id="Rectangle_130" data-name="Rectangle 130" width="36.656" height="11.852" transform="translate(25.365 203.348)" fill="#455a64"/>
      <path id="Path_82" data-name="Path 82" d="M137.432,116.307H110.07V86h17.9a6.239,6.239,0,0,1,6.186,5.417Z" transform="translate(-78.872 -63.494)" fill="#407bff"/>
      <path id="Path_83" data-name="Path 83" d="M134.1,109.633H121.271a1.2,1.2,0,0,1-.411-.064,1.447,1.447,0,0,1-1.03-1.383V92h9.121a4.335,4.335,0,0,1,.914.087,4.942,4.942,0,0,1,1.916.764,4.85,4.85,0,0,1,1.065.966,5.069,5.069,0,0,1,1.157,2.6l1.539,11.574a1.458,1.458,0,0,1-1.447,1.644Z" transform="translate(-82.983 -66.021)" fill="#263238"/>
      <g id="Group_1" data-name="Group 1" transform="translate(36.847 25.978)" opacity="0.4">
        <path id="Path_84" data-name="Path 84" d="M133.468,106.836a1.412,1.412,0,0,1-.422,1.013l-7.425,7.431h-3.6a1.2,1.2,0,0,1-.411-.064l9.4-9.4a1.441,1.441,0,0,1,2.454,1.019Z" transform="translate(-120.58 -97.646)" fill="#fff"/>
        <path id="Path_85" data-name="Path 85" d="M132.845,94.446,119.83,107.456V105.43l11.95-11.95a4.85,4.85,0,0,1,1.065.966Z" transform="translate(-119.83 -92.623)" fill="#fff"/>
        <path id="Path_86" data-name="Path 86" d="M130.446,92.093l-7.39,7.39a1.082,1.082,0,0,1-1.846-.764,1.065,1.065,0,0,1,.318-.752L127.489,92h2.043a4.335,4.335,0,0,1,.914.093Z" transform="translate(-120.411 -92)" fill="#fff"/>
      </g>
    </g>
    <g id="freepik--Cones--inject-94" transform="translate(223.721 241.355)">
      <path id="Path_120" data-name="Path 120" d="M477.88,424.831l2.928-20.151.851.382,1.354.613,5.88,2.662,5.26,2.373,3.472,1.568,5.272,2.384,2.894,1.3a2.784,2.784,0,0,1-.747,5.168l-1.221.168h0l-1.921.26-5.723.775-3.773.515-5.729.781-2.4.33Z" transform="translate(-401.386 -397.194)" fill="#407bff"/>
      <path id="Path_121" data-name="Path 121" d="M482.1,405.65a12.9,12.9,0,0,1-1.076,2.176c-1.788,2.789-3.079,8.5-2.107,15.047a8.363,8.363,0,0,0,.434,2.078l1.227-.081s5.712-12.535,24.387-9.051l-1.736-.8-5.266-2.373-3.472-1.568-5.266-2.384Z" transform="translate(-401.682 -397.602)" opacity="0.1"/>
      <path id="Path_122" data-name="Path 122" d="M509.49,427.868l1.458-10.058,5.272,2.384-1.007,6.9Z" transform="translate(-414.703 -402.725)" fill="#ebebeb"/>
      <path id="Path_123" data-name="Path 123" d="M493.07,426.291l2.222-15.3,5.272,2.384L498.8,425.51Z" transform="translate(-407.785 -399.852)" fill="#ebebeb"/>
      <path id="Path_124" data-name="Path 124" d="M374.718,418.883H355.1l.243-.868.4-1.377,1.736-5.972,1.539-5.353,1.013-3.524,1.539-5.353.845-2.934a2.674,2.674,0,0,1,5.023,0l.33,1.157h0l.515,1.788,1.539,5.353,1.013,3.524,1.539,5.353.642,2.24Z" transform="translate(-349.66 -391.744)" fill="#407bff"/>
      <path id="Path_125" data-name="Path 125" d="M371.482,440.02H345.7l4.109-10.18h25.782l-4.109,10.18Z" transform="translate(-345.7 -407.793)" fill="#407bff"/>
      <path id="Path_126" data-name="Path 126" d="M373.422,405.207H363.63l1.539-5.347h6.713Z" transform="translate(-353.254 -395.163)" fill="#ebebeb"/>
      <path id="Path_127" data-name="Path 127" d="M374.116,420.543h-14.9l1.539-5.353h11.817Z" transform="translate(-351.396 -401.621)" fill="#ebebeb"/>
      <path id="Path_128" data-name="Path 128" d="M354.66,436.28a20.5,20.5,0,0,0,4.977,1.51,26.86,26.86,0,0,0,5.145.394c.862-.058,1.736-.064,2.581-.2.428-.058.862-.087,1.285-.162s.851-.162,1.279-.231c.214-.041.428-.075.642-.122l.631-.156,1.267-.307c.839-.226,1.667-.509,2.523-.729-.793.376-1.591.752-2.407,1.076l-1.256.428-.625.208c-.214.064-.428.11-.642.168l-1.3.307c-.428.1-.874.145-1.308.22a25.476,25.476,0,0,1-2.656.243,21.072,21.072,0,0,1-5.284-.579,14.432,14.432,0,0,1-4.855-2.072Z" transform="translate(-349.475 -410.506)" fill="#263238"/>
      <path id="Path_129" data-name="Path 129" d="M355.83,419.966a12.6,12.6,0,0,1,2.222.723c2.894,1.319,8.524,1.736,14.665-.081a8.1,8.1,0,0,0,1.916-.7l-.249-1.157s-12.732-3.7-12-21.991l-.515,1.788-1.539,5.353-1.013,3.524-1.539,5.353Z" transform="translate(-349.968 -393.857)" opacity="0.1"/>
      <path id="Path_130" data-name="Path 130" d="M468.66,420.154l3.848-26.493,9.85,5.747L478.5,425.894l-9.844-5.741Z" transform="translate(-397.501 -392.551)" fill="#407bff"/>
      <path id="Path_131" data-name="Path 131" d="M481.176,415.835c-.55,4.9-2.315,8.715-3.958,8.53s-2.517-4.3-1.968-9.2,2.315-8.71,3.964-8.524S481.726,410.945,481.176,415.835Z" transform="translate(-400.209 -398.019)" fill="#263238"/>
    </g>
    <g id="freepik--Character--inject-94" transform="translate(319.301 95.014)">
      <path id="Path_132" data-name="Path 132" d="M561.509,423.121c1.157.359,33.849-.341,35.076-1.157.469-.307.642-5.081.694-10.845v-3.837c0-1.551,0-3.113-.029-4.63-.087-6.829-.3-12.842-.3-12.842l-21.285.394.249,12.842.087,4.63.185,3.831s-12.4,5.874-13.652,6.91S560.357,422.768,561.509,423.121Z" transform="translate(-531.977 -244.588)" fill="#d3766a"/>
      <path id="Path_133" data-name="Path 133" d="M561.509,432.469c1.157.359,33.849-.341,35.076-1.157.469-.307.642-5.081.694-10.845V416.63c0-1.551,0-3.113-.029-4.63l-21.331.394.087,4.63.185,3.831s-12.4,5.874-13.652,6.91S560.357,432.116,561.509,432.469Z" transform="translate(-531.977 -253.936)" fill="#fff"/>
      <path id="Path_134" data-name="Path 134" d="M561.335,435.866c.747.231,14.676,0,24.815-.376,2.315-.093,4.491-.2,6.221-.307a20.363,20.363,0,0,0,4.236-.48c.579-.382.718-7.379.706-14.763l-21.412.4.179,3.854s-12.465,5.9-13.727,6.945S560.184,435.5,561.335,435.866Z" transform="translate(-531.902 -257.281)" fill="#407bff"/>
      <path id="Path_135" data-name="Path 135" d="M562.419,444.721c5.509-.255,27.778-.758,33.218-.579h0c-5.457.37-27.7.695-33.212.648C562.309,444.808,562.3,444.727,562.419,444.721Z" transform="translate(-532.546 -267.461)" fill="#263238"/>
      <path id="Path_136" data-name="Path 136" d="M585.775,425.057a7.677,7.677,0,0,1,6.51,1.337c.069.058,0,.15-.087.127a30.81,30.81,0,0,0-6.406-1.192.139.139,0,0,1-.017-.272Z" transform="translate(-542.377 -259.354)" fill="#263238"/>
      <path id="Path_137" data-name="Path 137" d="M583.1,426.747a7.677,7.677,0,0,1,6.51,1.337c.069.058,0,.15-.087.127a30.435,30.435,0,0,0-6.406-1.192.139.139,0,0,1-.017-.272Z" transform="translate(-541.252 -260.066)" fill="#263238"/>
      <path id="Path_138" data-name="Path 138" d="M580.435,428.437a7.7,7.7,0,0,1,6.51,1.331c.064.064,0,.15-.087.133a30.5,30.5,0,0,0-6.406-1.192.139.139,0,0,1-.017-.272Z" transform="translate(-540.127 -260.778)" fill="#263238"/>
      <path id="Path_139" data-name="Path 139" d="M577.765,430.126a7.679,7.679,0,0,1,6.511,1.331c.064.058,0,.15-.087.133a30.505,30.505,0,0,0-6.406-1.192.139.139,0,0,1-.017-.272Z" transform="translate(-539.003 -261.489)" fill="#263238"/>
      <path id="Path_140" data-name="Path 140" d="M579.542,419.246c1.557,1.157,3.565,1.609,5.37,2.234.185.064.33-.116.336-.278a.055.055,0,0,0,.046-.081,11.5,11.5,0,0,0-3.472-4.9c-.92-.741-2.523-1.238-3.345-.046S578.651,418.558,579.542,419.246Zm-.579-1.736c-.434-2.373,2.147-1.157,2.807-.579a11.654,11.654,0,0,1,1.157,1.215c.77.885,1.4,1.863,2.078,2.818-.868-.365-1.736-.648-2.639-.978-1.047-.417-3.177-1.175-3.414-2.477Z" transform="translate(-539.217 -255.395)" fill="#263238"/>
      <path id="Path_141" data-name="Path 141" d="M597.265,418.475c-.579-1.343-2.216-1.2-3.276-.671a11.574,11.574,0,0,0-4.416,4.051.058.058,0,0,0,.035.087c-.035.162.069.37.266.347,1.9-.226,3.953-.231,5.724-1.03C596.634,420.784,597.791,419.742,597.265,418.475Zm-4.583,2.894c-.932.133-1.863.22-2.789.388a34.13,34.13,0,0,1,2.627-2.315,12.729,12.729,0,0,1,1.412-.943c.764-.417,3.542-1.036,2.61,1.192-.509,1.221-2.755,1.5-3.831,1.661Z" transform="translate(-544.017 -256.221)" fill="#263238"/>
      <path id="Path_142" data-name="Path 142" d="M590.63,437.735c2.755-.075,5.538-.162,8.1-.26,2.315-.093,4.491-.2,6.221-.307a19.787,19.787,0,0,0,4.236-.486c.5-.33.677-5.735.7-12.031C605.023,427.891,595.474,434.413,590.63,437.735Z" transform="translate(-544.466 -259.265)" opacity="0.2"/>
      <path id="Path_143" data-name="Path 143" d="M583.568,348.817h24.306s-1.331-54.683-1.071-55.956c.625-3.044,14.468-51.251,14.468-51.251l-19.184.33-6.551.11s.579,8.033.336,8.883c-3.206,11.7-9.462,31.667-10.741,39.069C582.879,302.855,583.568,348.817,583.568,348.817Z" transform="translate(-541.449 -182.153)" fill="#263238"/>
      <path id="Path_144" data-name="Path 144" d="M584.962,419.638c3.785-.1,17.211-.5,22.263-.116.035,0,.035.064,0,.069-1.736.284-18.473.2-22.263.15a.052.052,0,1,1,0-.1Z" transform="translate(-542.056 -257.037)" fill="#37474f"/>
      <path id="Path_145" data-name="Path 145" d="M620.3,293.911c.723-2.957,6.134-21.372,7.79-27.2s3.206-11.655,4.63-17.529c.179-.747.365-1.487.579-2.228,0-.064.11-.035.1.029-.544,2.957-1.267,5.886-1.962,8.814s-1.441,5.839-2.216,8.744q-2.355,8.762-5.133,17.4c-.926,2.865-2.454,8.756-3.27,11.655s.515,50.522.434,51.3a.174.174,0,0,1-.347,0C620.791,339.288,619.587,296.833,620.3,293.911Z" transform="translate(-556.872 -184.389)" fill="#37474f"/>
      <path id="Path_146" data-name="Path 146" d="M615.56,241.978s4.693,51.17,4.745,50.927c.579-2.94,13.594-48.276,14.41-51.112l.035-.133Z" transform="translate(-554.969 -182.174)" fill="#37474f"/>
      <path id="Path_147" data-name="Path 147" d="M605.041,427.961c1.157.359,33.849-.341,35.082-1.157.463-.307.642-5.075.689-10.845v-3.837c0-1.545,0-3.113-.035-4.63-.087-6.829-.289-12.842-.289-12.842l-21.291.394.249,12.842.093,4.63.179,3.837s-12.4,5.868-13.646,6.9S603.9,427.608,605.041,427.961Z" transform="translate(-550.318 -246.627)" fill="#d3766a"/>
      <path id="Path_148" data-name="Path 148" d="M605.041,437.309c1.157.359,33.849-.341,35.082-1.157.463-.307.642-5.075.689-10.845V421.47c0-1.545,0-3.113-.035-4.63l-21.331.393.093,4.63.179,3.837s-12.4,5.868-13.646,6.9S603.9,436.956,605.041,437.309Z" transform="translate(-550.318 -255.975)" fill="#fff"/>
      <path id="Path_149" data-name="Path 149" d="M604.867,440.706c.752.232,14.682,0,24.815-.376,2.35-.093,4.491-.2,6.221-.3a20.763,20.763,0,0,0,4.242-.486c.579-.382.712-7.379.706-14.763l-21.412.4.185,3.854s-12.466,5.9-13.727,6.945S603.716,440.342,604.867,440.706Z" transform="translate(-550.242 -259.32)" fill="#407bff"/>
      <path id="Path_150" data-name="Path 150" d="M605.943,449.553c5.509-.255,27.778-.752,33.212-.579.046,0,.046.029,0,.035-5.451.37-27.7.689-33.212.642C605.839,449.651,605.839,449.553,605.943,449.553Z" transform="translate(-550.884 -269.497)" fill="#263238"/>
      <path id="Path_151" data-name="Path 151" d="M629.293,429.857a7.682,7.682,0,0,1,6.511,1.337c.064.058,0,.15-.093.133a30.094,30.094,0,0,0-6.406-1.192.139.139,0,1,1-.012-.278Z" transform="translate(-560.698 -261.376)" fill="#263238"/>
      <path id="Path_152" data-name="Path 152" d="M626.623,431.587a7.682,7.682,0,0,1,6.511,1.337c.064.058,0,.15-.093.127a30.422,30.422,0,0,0-6.406-1.186.139.139,0,0,1-.012-.278Z" transform="translate(-559.573 -262.105)" fill="#263238"/>
      <path id="Path_153" data-name="Path 153" d="M623.973,433.277a7.682,7.682,0,0,1,6.51,1.337c.064.058,0,.15-.093.127a30.809,30.809,0,0,0-6.406-1.192.139.139,0,0,1-.012-.272Z" transform="translate(-558.469 -262.817)" fill="#263238"/>
      <path id="Path_154" data-name="Path 154" d="M621.3,434.967a7.7,7.7,0,0,1,6.511,1.331c.064.064,0,.156-.093.133a30.435,30.435,0,0,0-6.406-1.192.139.139,0,0,1-.012-.272Z" transform="translate(-557.344 -263.529)" fill="#263238"/>
      <path id="Path_155" data-name="Path 155" d="M623.072,424.075c1.563,1.157,3.571,1.6,5.376,2.228.185.064.33-.116.33-.278a.058.058,0,0,0,.052-.081,11.575,11.575,0,0,0-3.472-4.9c-.92-.741-2.517-1.233-3.345-.041S622.163,423.4,623.072,424.075Zm-.579-1.736c-.434-2.373,2.147-1.157,2.8-.579a13.009,13.009,0,0,1,1.157,1.215,33.887,33.887,0,0,1,2.072,2.818c-.868-.365-1.736-.648-2.639-.972-1.03-.417-3.16-1.175-3.4-2.483Z" transform="translate(-557.555 -257.428)" fill="#263238"/>
      <path id="Path_156" data-name="Path 156" d="M640.794,423.316c-.579-1.337-2.222-1.2-3.281-.671a11.574,11.574,0,0,0-4.41,4.051.058.058,0,0,0,0,.093c0,.162.069.365.266.341,1.9-.226,3.953-.231,5.724-1.03C640.158,425.625,641.315,424.589,640.794,423.316Zm-4.589,2.894c-.932.133-1.858.22-2.784.388a34.3,34.3,0,0,1,2.627-2.315,12.363,12.363,0,0,1,1.406-.937c.77-.422,3.548-1.036,2.616,1.186-.515,1.221-2.755,1.5-3.866,1.661Z" transform="translate(-562.35 -258.261)" fill="#263238"/>
      <path id="Path_157" data-name="Path 157" d="M622.108,351.246l23.571-.434s-6.62-85.013-5.787-89.521c1.348-7.373.2-15.787-3.345-19.78l-22.969.422s-.341,6.453,2.095,10.278c0,0,2.182,1.319,3.235,1.9Z" transform="translate(-554.127 -182.111)" fill="#263238"/>
      <path id="Path_158" data-name="Path 158" d="M629.427,423.494c3.576-.156,2.546-.162,6.123-.284,1.736-.058,13.247-.434,14.89-.2.035,0,.035.064,0,.069-1.626.313-13.131.486-14.879.509-3.582.052-2.552,0-6.129,0a.052.052,0,0,1-.006-.1Z" transform="translate(-560.797 -258.543)" fill="#37474f"/>
      <path id="Path_159" data-name="Path 159" d="M614.553,258.223a44.2,44.2,0,0,1,6.528,3.7.076.076,0,1,1-.075.133c-2.2-1.157-4.462-2.315-6.6-3.582a.15.15,0,0,1,.15-.255Z" transform="translate(-554.46 -189.148)" fill="#37474f"/>
      <path id="Path_160" data-name="Path 160" d="M619.418,257.441a10.069,10.069,0,0,1,.341,1.354,2.922,2.922,0,0,1,.087,1.094c0,.069-.11.064-.145,0a3.605,3.605,0,0,1-.376-1.094c-.116-.417-.243-.833-.347-1.256a.226.226,0,0,1,.44-.1Z" transform="translate(-556.407 -188.753)" fill="#37474f"/>
      <path id="Path_161" data-name="Path 161" d="M618.276,251.993c-.069-.382-.139-.764-.214-1.157s-.185-.793-.232-1.192c0-.058-.11-.041-.1,0,.069.382.081.781.122,1.157s.081.775.127,1.157c.087.723.22,1.447.376,2.159a2.512,2.512,0,0,1-1.059-.417,2.014,2.014,0,0,1-.579-1.094c-.122-.44-.22-.88-.347-1.314a8.094,8.094,0,0,1-.365-1.464c0-.064-.11-.041-.1,0a15.676,15.676,0,0,0,.642,3.079,1.712,1.712,0,0,0,.579,1.013,3.235,3.235,0,0,0,1.291.359c.052.029.127,0,.122-.064A15.382,15.382,0,0,0,618.276,251.993Z" transform="translate(-555.116 -185.522)" fill="#37474f"/>
      <path id="Path_162" data-name="Path 162" d="M652.4,264.221c.133-1.69.376-3.368.532-5.058a31.393,31.393,0,0,0-.8-10.1c0-.064.081-.087.093-.029a37.522,37.522,0,0,1,1.065,8.86c-.087,2.98-.579,5.926-.579,8.912s.3,6.036.579,9.045.5,6.059.758,9.086c1.007,12.153,1.956,24.346,2.922,36.523.272,3.4.527,6.8.787,10.2s.666,11.991.856,15.457c0,.3-.428.284-.463,0-.631-6.1-1.157-17.309-1.638-23.426s-.966-12.112-1.453-18.172-.955-12.112-1.429-18.166c-.237-3.027-.463-6.059-.694-9.086s-.509-6.036-.579-9.057A44.713,44.713,0,0,1,652.4,264.221Z" transform="translate(-570.375 -185.267)" fill="#37474f"/>
      <path id="Path_163" data-name="Path 163" d="M638.019,248.978a.046.046,0,0,1,.087,0,3.923,3.923,0,0,1,.243,1.233,8.543,8.543,0,0,0,.336,1.325,5.406,5.406,0,0,0,1.424,2.315,11.26,11.26,0,0,0,5.289,2.211c.069,0,.046.11,0,.116a8.438,8.438,0,0,1-3.258-.446,6.794,6.794,0,0,1-2.541-1.36,4.681,4.681,0,0,1-1.4-2.436,8.5,8.5,0,0,1-.185-1.482v-.718A1.806,1.806,0,0,1,638.019,248.978Z" transform="translate(-564.412 -185.244)" fill="#37474f"/>
      <path id="Path_164" data-name="Path 164" d="M595.294,175.258c-9.6,7.124-25.226,7.766-26.968,6.945-3.686-1.7-9.045-17.616-10.342-23.421-.37-1.678,11.777-1.262,12.992.116,1.111,1.256,3.785,12.257,4.9,12.419a141.508,141.508,0,0,0,16.742-.463C600.676,170.02,598.135,173.151,595.294,175.258Z" transform="translate(-530.709 -146.797)" fill="#d3766a"/>
      <path id="Path_165" data-name="Path 165" d="M602,179.49l1.441,11.244s8.548-3.345,12.269-6.777,1.6-4.693-2.118-4.884S602,179.49,602,179.49Z" transform="translate(-549.256 -155.791)" fill="#ebebeb"/>
      <path id="Path_166" data-name="Path 166" d="M605.19,180.377c0-.075.041-.1.052-.029a76.981,76.981,0,0,1,1.215,9.433h-.041C606.023,188.265,605.317,181.187,605.19,180.377Z" transform="translate(-550.6 -156.326)" fill="#263238"/>
      <path id="Path_167" data-name="Path 167" d="M636.18,222.48c-.081.093-34.086.816-34.4.475-.446-.486,5.041-34.59,10.417-42.032,1.343-1.858,6.169-3.137,8.177-1.256,5.833,5.446,7.06,10.041,8.588,13.785a110.847,110.847,0,0,1,3.733,12.379C634.757,213.84,636.452,222.156,636.18,222.48Z" transform="translate(-549.153 -155.668)" fill="#ebebeb"/>
      <path id="Path_168" data-name="Path 168" d="M628.735,180.48s-5.006,11.424-5.828,14.341c-1.129,3.993-2.778,30.313-2.778,30.313l24.306-1.424s-4.63-26.314-9.925-35.655C630.356,180.706,628.735,180.48,628.735,180.48Z" transform="translate(-556.894 -156.4)" fill="#407bff"/>
      <path id="Path_169" data-name="Path 169" d="M612.689,181.43s-2.824,10.417-3.38,11.991-5.492,32.13-5.492,32.13l-3-1.117s3.374-21.158,6.366-31.933S612.689,181.43,612.689,181.43Z" transform="translate(-548.759 -156.8)" fill="#407bff"/>
      <path id="Path_170" data-name="Path 170" d="M621.32,237.954l21.771-.046c-.185-.816-.376-1.672-.579-2.558l-20.99.041C621.442,236.259,621.384,237.115,621.32,237.954Z" transform="translate(-557.395 -179.516)" fill="#ebebeb"/>
      <path id="Path_171" data-name="Path 171" d="M603.54,238.018h3.113c.133-.833.278-1.69.422-2.558H604C603.841,236.351,603.685,237.2,603.54,238.018Z" transform="translate(-549.905 -179.562)" fill="#ebebeb"/>
      <path id="Path_172" data-name="Path 172" d="M620.76,245.718l23.056-.046c-.162-.775-.341-1.632-.538-2.552l-22.333.046C620.9,244.069,620.818,244.926,620.76,245.718Z" transform="translate(-557.159 -182.789)" fill="#ebebeb"/>
      <path id="Path_173" data-name="Path 173" d="M602.18,245.788h3.166c.127-.8.266-1.661.411-2.558H602.62C602.464,244.15,602.313,245.007,602.18,245.788Z" transform="translate(-549.332 -182.836)" fill="#ebebeb"/>
      <path id="Path_174" data-name="Path 174" d="M621.965,190.057c1.3,9.537-.527,22.807-2.7,24.352-6.192,4.4-16.846,6.748-21.378,7.274-2.639.307-3.733-12.732-1.4-13.131,3.681-.613,12.489-2.483,13.739-3.044s3.669-9.259,5.949-15.573C618.655,183.078,621.34,185.439,621.965,190.057Z" transform="translate(-546.396 -158.575)" fill="#d3766a"/>
      <path id="Path_175" data-name="Path 175" d="M594.143,218.681a25,25,0,0,1-5.37-4.884c-1.736-2.315-4.1-5.926-5.382-5.029-2.616,1.846,3.247,10.88,3.247,10.88s3.223,3.571,5.984,1.968A3.171,3.171,0,0,0,594.143,218.681Z" transform="translate(-541.133 -168.258)" fill="#d3766a"/>
      <path id="Path_176" data-name="Path 176" d="M570.933,224.185a2.026,2.026,0,0,0,.735,2.193,3,3,0,0,0-1.036,1.765c-.174,1.227,1.678,2.031,1.678,2.031a3.681,3.681,0,0,0-.8,2.031c-.046,1.192,1.7,2.269,1.7,2.269a3.259,3.259,0,0,0,.428,2.234c1.157,1.736,4.34,1.655,6.366,1.626s7.749-2.02,8.877-2.315l-.1-12.992s-9.132-2.442-11.511-2.066C575.279,221.28,571.419,222.7,570.933,224.185Z" transform="translate(-536.036 -173.437)" fill="#d3766a"/>
      <path id="Path_177" data-name="Path 177" d="M572.561,229.006a26.555,26.555,0,0,1,6.412-1.366.038.038,0,1,1,0,.075c-2.164.3-4.248,1.013-6.366,1.395a.058.058,0,0,1-.046-.1Z" transform="translate(-536.843 -176.268)" fill="#263238"/>
      <path id="Path_178" data-name="Path 178" d="M573.575,236.248a5.874,5.874,0,0,1,1.487-.243c.538-.052,1.071-.1,1.6-.127,1.071-.069,2.147-.116,3.218-.127.046,0,.058.075,0,.075-1.071.069-2.135.156-3.2.272-.527.058-1.059.116-1.591.185a7.353,7.353,0,0,1-1.51.116.081.081,0,0,1-.006-.15Z" transform="translate(-537.261 -179.684)" fill="#263238"/>
      <path id="Path_179" data-name="Path 179" d="M575.171,244.037a3.953,3.953,0,0,1,1.354-.15l1.464-.075c.978-.052,1.956-.1,2.928-.191.046,0,.058.075,0,.075-.99.093-1.979.2-2.969.284l-1.458.116a3.807,3.807,0,0,1-1.331,0S575.154,244.042,575.171,244.037Z" transform="translate(-537.948 -183)" fill="#263238"/>
      <path id="Path_180" data-name="Path 180" d="M625.24,198.637l11,2.894s.1-9.178-1.69-13.889-3.75-3.235-5.318.139S625.24,198.637,625.24,198.637Z" transform="translate(-559.047 -158.156)" fill="#ebebeb"/>
      <path id="Path_181" data-name="Path 181" d="M626.956,206.057c-.075,0-.087-.069,0-.058a77.4,77.4,0,0,1,9.2,2.407v.04C634.577,208.244,627.749,206.248,626.956,206.057Z" transform="translate(-559.744 -167.15)" fill="#263238"/>
      <path id="Path_182" data-name="Path 182" d="M653.8,149.24a13.218,13.218,0,0,1,11.574,7.755l-10.822-.37-2.315,5.816,1.881,5.961,10.828.388a13.229,13.229,0,1,1-11.158-19.532Z" transform="translate(-565.301 -143.239)" fill="#455a64"/>
      <path id="Path_183" data-name="Path 183" d="M522.434,170.98a13.218,13.218,0,0,1-11.574-7.755l10.822.388L524,157.826l-1.881-5.967-10.828-.388A13.229,13.229,0,1,1,522.44,171Z" transform="translate(-510.86 -141.264)" fill="#455a64"/>
      <rect id="Rectangle_134" data-name="Rectangle 134" width="11.783" height="64.336" transform="matrix(0.036, -0.999, 0.999, 0.036, 19.162, 22.641)" fill="#455a64"/>
      <rect id="Rectangle_135" data-name="Rectangle 135" width="4.855" height="26.493" transform="matrix(0.036, -0.999, 0.999, 0.036, 38.248, 19.873)" fill="#37474f"/>
      <path id="Path_184" data-name="Path 184" d="M622.394,180.125c1.406.278,4.751-1.939,6.233-4,.1-.139.064-1.771.11-3.75.035-1.2.1-2.535.249-3.75l-7.847.92a19.8,19.8,0,0,1,.168,4.757,3.049,3.049,0,0,1-.116.492v.081C620.9,175.784,620.189,179.7,622.394,180.125Z" transform="translate(-557.196 -151.403)" fill="#d3766a"/>
      <path id="Path_185" data-name="Path 185" d="M621.415,174.831a.252.252,0,0,1,0,.081,4.963,4.963,0,0,0,.781.139c4.427.44,6.192-4.861,6.592-6.331l-7.408.862a19.674,19.674,0,0,1,.174,4.757A3.839,3.839,0,0,1,621.415,174.831Z" transform="translate(-557.421 -151.445)" fill="#263238"/>
      <path id="Path_186" data-name="Path 186" d="M627.867,147.636c.828,2.726-.613,10.585-2.552,12.338-2.807,2.541-7.4,2.784-9.56-.579-2.095-3.276-.035-13.49,2.13-15.081C621.073,141.935,626.64,143.614,627.867,147.636Z" transform="translate(-554.683 -140.703)" fill="#d3766a"/>
      <path id="Path_187" data-name="Path 187" d="M625.874,159.22s.035.035,0,.052c-.139.521-.2,1.157.237,1.424h0C625.562,160.516,625.654,159.671,625.874,159.22Z" transform="translate(-559.241 -147.443)" fill="#263238"/>
      <path id="Path_188" data-name="Path 188" d="M626.483,158.447c.857.127.544,1.835-.249,1.736S625.765,158.343,626.483,158.447Z" transform="translate(-559.271 -147.116)" fill="#263238"/>
      <path id="Path_189" data-name="Path 189" d="M619.672,158.1s-.046,0-.046.035c-.081.532-.266,1.157-.776,1.221C619.452,159.408,619.683,158.621,619.672,158.1Z" transform="translate(-556.355 -146.971)" fill="#263238"/>
      <path id="Path_190" data-name="Path 190" d="M619,156.986c-.839-.22-1.221,1.476-.44,1.678S619.706,157.165,619,156.986Z" transform="translate(-556.054 -146.494)" fill="#263238"/>
      <path id="Path_191" data-name="Path 191" d="M627.532,156.326a6.558,6.558,0,0,1-.619-.353,1.27,1.27,0,0,1-.579-.48.365.365,0,0,1,.139-.428.914.914,0,0,1,.92.075,1.343,1.343,0,0,1,.654.706.394.394,0,0,1-.515.48Z" transform="translate(-559.498 -145.655)" fill="#263238"/>
      <path id="Path_192" data-name="Path 192" d="M618.532,154.9a5.891,5.891,0,0,0,.712-.052,1.157,1.157,0,0,0,.718-.191.365.365,0,0,0,.058-.446.909.909,0,0,0-.862-.33,1.314,1.314,0,0,0-.9.353.394.394,0,0,0,.272.666Z" transform="translate(-556.06 -145.188)" fill="#263238"/>
      <path id="Path_193" data-name="Path 193" d="M623.716,167.836a.81.81,0,0,1-.5.231,1.384,1.384,0,0,1-.544-.237s-.035,0,0,0a.741.741,0,0,0,.625.411.579.579,0,0,0,.5-.394C623.78,167.842,623.739,167.824,623.716,167.836Z" transform="translate(-557.957 -151.07)" fill="#263238"/>
      <path id="Path_194" data-name="Path 194" d="M621.786,160.45a1.835,1.835,0,0,1-1.348.579,2.315,2.315,0,0,1-.654-.087l-.122-.035-.116-.041a.139.139,0,0,1-.081-.139h0a.166.166,0,0,1,0-.052h0v-.046c.064-.405.22-1.019.22-1.019-.168.046-.99.249-.938.035a27.47,27.47,0,0,1,1.7-5.33.052.052,0,0,1,.093.035c-.347,1.69-.984,3.31-1.36,5.006a3.148,3.148,0,0,1,.9-.1c.058,0-.312,1.157-.33,1.366h0a2.546,2.546,0,0,0,1.973-.237C621.786,160.369,621.844,160.41,621.786,160.45Z" transform="translate(-556.311 -145.369)" fill="#263238"/>
      <path id="Path_195" data-name="Path 195" d="M621.05,165.247a2.171,2.171,0,0,0,.735.822.972.972,0,0,0,.579.139c.44,0,.527-.417.509-.764a2.614,2.614,0,0,0-.1-.544,2.841,2.841,0,0,1-1.724.347Z" transform="translate(-557.282 -149.836)" fill="#263238"/>
      <path id="Path_196" data-name="Path 196" d="M622.32,166.457a.972.972,0,0,0,.579.139c.44,0,.527-.417.509-.764a1.013,1.013,0,0,0-1.088.625Z" transform="translate(-557.817 -150.224)" fill="#ff9bbc"/>
      <path id="Path_197" data-name="Path 197" d="M617.81,146.3c.116-.226.434-.775.741-.758s.579.689,1.3.949c1,.382,2.894-.579,4.271-.069s2.095,1.933,2.141,4.468,1.84,4.74,2.552,3.142a1.312,1.312,0,0,1,.133-.312,15.392,15.392,0,0,0,.151-6.082c-1.227-4.022-6.8-5.683-9.983-3.333a4.959,4.959,0,0,0-1.308,2Z" transform="translate(-555.917 -140.706)" fill="#263238"/>
      <path id="Path_198" data-name="Path 198" d="M634.048,160.5s1.829-2.506,2.969-1.846-.272,4.317-1.638,4.792a1.372,1.372,0,0,1-1.829-.775Z" transform="translate(-562.548 -147.156)" fill="#d3766a"/>
      <path id="Path_199" data-name="Path 199" d="M637.153,160.53v.035a3.472,3.472,0,0,0-1.846,2.141.758.758,0,0,1,1.157-.185v.052a.851.851,0,0,0-.937.272,4.332,4.332,0,0,0-.463.747c-.046.087-.2.035-.168-.058h0C634.873,162.3,635.851,160.623,637.153,160.53Z" transform="translate(-563.113 -147.995)" fill="#263238"/>
      <path id="Path_200" data-name="Path 200" d="M615.84,146.09s2.315-7.564,9.092-5.532,4.549,9.624,4.549,9.624Z" transform="translate(-555.087 -139.435)" fill="#407bff"/>
      <rect id="Rectangle_136" data-name="Rectangle 136" width="15.301" height="1.123" transform="translate(60.392 5.98) rotate(16.7)" fill="#407bff"/>
      <path id="Path_201" data-name="Path 201" d="M625.49,147l-3.05-.914,2.946-7.217,3.05.914Z" transform="translate(-557.867 -138.87)" fill="#407bff"/>
      <path id="Path_202" data-name="Path 202" d="M625.49,147l-3.05-.914,2.946-7.217,3.05.914Z" transform="translate(-557.867 -138.87)" opacity="0.1"/>
      <path id="Path_203" data-name="Path 203" d="M555.856,163.2c1.476,1,1.806-1.319,1.806-1.319s.33,3.472,2.257,3.883,2.153-2.4,2.176-2.593c0,.179.405,3.339,2.384,3.582s1.869-2.627,1.858-2.813c.075.168,1.065,2.35,2.61,2.193,2.651-.278.347-6.754,1.25-8.715l3.924-.9a5.364,5.364,0,0,1-2.622-1.545,7.328,7.328,0,0,0-2.633-2.072,1.956,1.956,0,0,0-2.24.666s-.5-1.829-2.054-2.066c-.8-.122-1.7,1.047-1.7,1.047A2.315,2.315,0,0,0,561.018,151a2.255,2.255,0,0,0-1.846,1.088,2.864,2.864,0,0,0-2.257-.92C554.554,151.667,552.685,161.059,555.856,163.2Z" transform="translate(-529.108 -143.976)" fill="#d3766a"/>
      <path id="Path_204" data-name="Path 204" d="M582.947,156.559l2.975-.544.313-.139c3.472-1.69,4.583-6.516,1.846-6.076-2.083.336-3.519,3.617-5.7,3.652h0Z" transform="translate(-540.99 -143.463)" fill="#d3766a"/>
      <path id="Path_205" data-name="Path 205" d="M561.383,153.14h-.046a16.626,16.626,0,0,0-1.348,9.757c0,.1.2.122.2,0a34.144,34.144,0,0,1,1.2-9.757Z" transform="translate(-531.464 -144.882)" fill="#263238"/>
      <path id="Path_206" data-name="Path 206" d="M568.114,153.576c0-.035-.052-.052-.069,0a15.625,15.625,0,0,0-.81,10.77c.041.127.2.2.168.052C566.846,161.91,567.251,156.551,568.114,153.576Z" transform="translate(-534.357 -145.052)" fill="#263238"/>
      <path id="Path_207" data-name="Path 207" d="M574.613,166.106a21.4,21.4,0,0,1,.052-10.475c0-.046-.052-.058-.075,0a14.179,14.179,0,0,0-1.157,5.712,9.589,9.589,0,0,0,1.047,4.821C574.521,166.2,574.636,166.181,574.613,166.106Z" transform="translate(-537.217 -145.915)" fill="#263238"/>
    </g>
  </g>
</svg>
