<svg id="freepik--Fence--inject-94" xmlns="http://www.w3.org/2000/svg" width="59.235" height="48.422" viewBox="0 0 59.235 48.422">
  <path id="Path_648" data-name="Path 648" d="M90.306,356.33l-.366,2.623-.4,2.82-3.626,25.7H79.99l3.626-25.7.4-2.82.366-2.623Z" transform="translate(-75.314 -339.051)" fill="#407bff"/>
  <path id="Path_649" data-name="Path 649" d="M97.692,356.33c-.312,2.6-.648,5.2-.988,7.8l-1.045,7.793-1.1,7.777L94,383.592l-.59,3.881.482-3.9.517-3.9,1.045-7.789,1.1-7.781C96.913,361.507,97.291,358.9,97.692,356.33Z" transform="translate(-83.557 -339.051)" opacity="0.1"/>
  <path id="Path_650" data-name="Path 650" d="M95.713,363.13l-.4,2.82H89.39l.4-2.82Z" transform="translate(-81.088 -343.228)" opacity="0.1"/>
  <path id="Path_651" data-name="Path 651" d="M182.56,356.33l.366,2.623.4,2.82,3.622,25.7h5.925l-3.622-25.7-.4-2.82-.366-2.623Z" transform="translate(-138.316 -339.051)" fill="#407bff"/>
  <path id="Path_652" data-name="Path 652" d="M184.83,356.33c.312,2.6.648,5.2.988,7.8l1.045,7.793,1.1,7.777.563,3.892.59,3.881-.482-3.9-.505-3.9-1.045-7.789-1.1-7.781C185.609,361.507,185.231,358.9,184.83,356.33Z" transform="translate(-139.71 -339.051)" opacity="0.1"/>
  <path id="Path_653" data-name="Path 653" d="M183.51,363.13h5.925l.4,2.82h-5.925Z" transform="translate(-138.899 -343.228)" opacity="0.1"/>
  <path id="Path_654" data-name="Path 654" d="M98.689,335.388h-4.7l.586-4.378h3.53Z" transform="translate(-83.914 -323.499)" fill="#407bff"/>
  <path id="Path_655" data-name="Path 655" d="M98.689,335.388h-4.7l.586-4.378h3.53Z" transform="translate(-83.914 -323.499)" opacity="0.1"/>
  <path id="Path_656" data-name="Path 656" d="M97.487,315.919a4.379,4.379,0,1,1-4.379-4.379A4.379,4.379,0,0,1,97.487,315.919Z" transform="translate(-80.683 -311.54)" fill="#407bff"/>
  <path id="Path_657" data-name="Path 657" d="M98.108,317.6a3.329,3.329,0,1,1-3.329-3.325A3.329,3.329,0,0,1,98.108,317.6Z" transform="translate(-82.354 -313.217)" fill="#fff"/>
  <path id="Path_658" data-name="Path 658" d="M98.181,318.156a2.882,2.882,0,0,0-1.084-2.041,2.955,2.955,0,0,0-2.241-.586,2.8,2.8,0,0,0-1.929,1.25,2.928,2.928,0,0,0-.351,2.4,2.743,2.743,0,0,0,1.3,1.647,2.882,2.882,0,0,0,2.037.312,2.99,2.99,0,0,0,1.709-1.045,3.175,3.175,0,0,0,.7-1.856c0-.031,0-.058-.027-.058s-.031.023-.031.058a3.144,3.144,0,0,1-.154.8,3.086,3.086,0,0,1-.914,1.319,3.473,3.473,0,0,1-.691.448,2.778,2.778,0,0,1-2.272.054,2.727,2.727,0,0,1-1.543-1.69,2.816,2.816,0,0,1,.293-2.315,2.7,2.7,0,0,1,1.875-1.234,2.889,2.889,0,0,1,2.754,1.1,2.994,2.994,0,0,1,.386.691,3.53,3.53,0,0,1,.174.772h0A.023.023,0,0,0,98.181,318.156Z" transform="translate(-82.974 -313.971)" fill="#407bff"/>
  <path id="Path_659" data-name="Path 659" d="M98.4,318.777a2.5,2.5,0,0,0-.941-1.744,2.558,2.558,0,0,0-1.929-.505,2.407,2.407,0,0,0-1.663,1.061,2.538,2.538,0,0,0-.324,2.079,2.38,2.38,0,0,0,1.126,1.439,2.546,2.546,0,0,0,1.778.266,2.593,2.593,0,0,0,1.478-.918,2.778,2.778,0,0,0,.61-1.609c0-.027,0-.05-.027-.05s-.031.019-.031.05a2.658,2.658,0,0,1-1.52,2.218,2.388,2.388,0,0,1-1.964.058,2.357,2.357,0,0,1-1.331-1.47,2.434,2.434,0,0,1,.266-2.006,2.315,2.315,0,0,1,1.616-1.042,2.5,2.5,0,0,1,2.349.934,2.665,2.665,0,0,1,.324.59,3.105,3.105,0,0,1,.158.66h0Z" transform="translate(-83.58 -314.587)" fill="#407bff"/>
  <path id="Path_660" data-name="Path 660" d="M98.65,319.4a2.083,2.083,0,0,0-.8-1.443,2.149,2.149,0,0,0-1.586-.428,2.018,2.018,0,0,0-1.4.868,2.153,2.153,0,0,0-.3,1.759,1.983,1.983,0,0,0,.957,1.231,2.114,2.114,0,0,0,1.516.22,2.2,2.2,0,0,0,1.25-.772,2.4,2.4,0,0,0,.513-1.362c0-.023,0-.042-.027-.042s-.031,0-.031.042a2.276,2.276,0,0,1-1.281,1.867,2.006,2.006,0,0,1-1.659.058,1.956,1.956,0,0,1-1.115-1.258,2.033,2.033,0,0,1,.243-1.686,1.929,1.929,0,0,1,1.354-.849,2.315,2.315,0,0,1,1.072.127,2,2,0,0,1,.872.64,2.157,2.157,0,0,1,.274.486,2.6,2.6,0,0,1,.143.548h0S98.654,319.411,98.65,319.4Z" transform="translate(-84.222 -315.21)" fill="#407bff"/>
  <path id="Path_661" data-name="Path 661" d="M98.859,320a1.7,1.7,0,0,0-.656-1.157,1.79,1.79,0,0,0-1.258-.351,1.635,1.635,0,0,0-1.157.683,1.763,1.763,0,0,0-.27,1.439,1.617,1.617,0,0,0,.772,1.022,1.725,1.725,0,0,0,1.254.17,1.805,1.805,0,0,0,1.022-.66,1.994,1.994,0,0,0,.417-1.111c0-.019,0-.035-.027-.035a.035.035,0,0,0-.031.035,1.875,1.875,0,0,1-1.042,1.512,1.6,1.6,0,0,1-1.35.066,1.578,1.578,0,0,1-.887-1,1.643,1.643,0,0,1,.216-1.366,1.52,1.52,0,0,1,1.1-.652,1.986,1.986,0,0,1,.845.108,1.593,1.593,0,0,1,.694.5,1.79,1.79,0,0,1,.228.386,2.637,2.637,0,0,1,.123.44h0S98.862,320.008,98.859,320Z" transform="translate(-84.82 -315.807)" fill="#407bff"/>
  <path id="Path_662" data-name="Path 662" d="M187.549,335.388h-4.7l.586-4.378h3.53Z" transform="translate(-138.494 -323.499)" fill="#407bff"/>
  <path id="Path_663" data-name="Path 663" d="M187.549,335.388h-4.7l.586-4.378h3.53Z" transform="translate(-138.494 -323.499)" opacity="0.1"/>
  <path id="Path_664" data-name="Path 664" d="M186.347,315.919a4.379,4.379,0,1,1-4.378-4.379A4.379,4.379,0,0,1,186.347,315.919Z" transform="translate(-135.263 -311.54)" fill="#407bff"/>
  <path id="Path_665" data-name="Path 665" d="M186.968,317.6a3.329,3.329,0,1,1-3.329-3.325,3.329,3.329,0,0,1,3.329,3.325Z" transform="translate(-136.934 -313.217)" fill="#fff"/>
  <path id="Path_666" data-name="Path 666" d="M187.041,318.156a2.882,2.882,0,0,0-1.084-2.041,2.955,2.955,0,0,0-2.241-.586,2.8,2.8,0,0,0-1.929,1.25,2.928,2.928,0,0,0-.351,2.4,2.743,2.743,0,0,0,1.3,1.647,2.882,2.882,0,0,0,2.037.312,2.99,2.99,0,0,0,1.709-1.045,3.148,3.148,0,0,0,.7-1.856c0-.031,0-.058-.027-.058s-.031.023-.031.058a2.986,2.986,0,0,1-.154.8,3.086,3.086,0,0,1-.914,1.319,3.473,3.473,0,0,1-.691.448,2.778,2.778,0,0,1-2.272.054,2.727,2.727,0,0,1-1.543-1.69,2.816,2.816,0,0,1,.293-2.315,2.7,2.7,0,0,1,1.875-1.234,2.889,2.889,0,0,1,2.754,1.1,2.993,2.993,0,0,1,.386.691,3.531,3.531,0,0,1,.174.772h0A.043.043,0,0,0,187.041,318.156Z" transform="translate(-137.555 -313.971)" fill="#407bff"/>
  <path id="Path_667" data-name="Path 667" d="M187.257,318.777a2.5,2.5,0,0,0-.941-1.744,2.558,2.558,0,0,0-1.929-.505,2.407,2.407,0,0,0-1.663,1.061,2.538,2.538,0,0,0-.324,2.079,2.38,2.38,0,0,0,1.126,1.439,2.546,2.546,0,0,0,1.778.266,2.593,2.593,0,0,0,1.477-.918,2.778,2.778,0,0,0,.61-1.609c0-.027,0-.05-.027-.05s-.031.019-.031.05a2.658,2.658,0,0,1-1.52,2.218,2.388,2.388,0,0,1-1.964.058,2.357,2.357,0,0,1-1.335-1.47,2.434,2.434,0,0,1,.266-2.006A2.315,2.315,0,0,1,184.4,316.6a2.5,2.5,0,0,1,2.349.934,2.665,2.665,0,0,1,.324.59,3.105,3.105,0,0,1,.158.66h0S187.261,318.784,187.257,318.777Z" transform="translate(-138.16 -314.587)" fill="#407bff"/>
  <path id="Path_668" data-name="Path 668" d="M187.51,319.4a2.083,2.083,0,0,0-.8-1.443,2.149,2.149,0,0,0-1.586-.428,2.018,2.018,0,0,0-1.4.868,2.153,2.153,0,0,0-.3,1.759,1.983,1.983,0,0,0,.957,1.231,2.114,2.114,0,0,0,1.516.22,2.2,2.2,0,0,0,1.25-.772,2.369,2.369,0,0,0,.513-1.362c0-.023,0-.042-.027-.042s-.031,0-.031.042a2.276,2.276,0,0,1-1.281,1.867,2.006,2.006,0,0,1-1.659.058,1.956,1.956,0,0,1-1.123-1.242,2.033,2.033,0,0,1,.243-1.686,1.929,1.929,0,0,1,1.354-.849,2.315,2.315,0,0,1,1.072.127,1.952,1.952,0,0,1,1.157,1.126,2.6,2.6,0,0,1,.143.548h0A.044.044,0,0,0,187.51,319.4Z" transform="translate(-138.803 -315.21)" fill="#407bff"/>
  <path id="Path_669" data-name="Path 669" d="M187.72,320a1.7,1.7,0,0,0-.656-1.157,1.786,1.786,0,0,0-1.258-.351,1.635,1.635,0,0,0-1.157.683,1.775,1.775,0,0,0-.27,1.439,1.616,1.616,0,0,0,.772,1.022,1.724,1.724,0,0,0,1.254.17,1.805,1.805,0,0,0,1.022-.66,1.994,1.994,0,0,0,.417-1.111c0-.019,0-.035-.027-.035a.035.035,0,0,0-.031.035,1.875,1.875,0,0,1-1.042,1.512,1.6,1.6,0,0,1-1.35.066,1.578,1.578,0,0,1-.914-1.022,1.643,1.643,0,0,1,.216-1.366,1.52,1.52,0,0,1,1.1-.652,1.986,1.986,0,0,1,.845.108,1.593,1.593,0,0,1,.694.5,1.79,1.79,0,0,1,.228.386,2.636,2.636,0,0,1,.123.44h0S187.724,320.007,187.72,320Z" transform="translate(-139.402 -315.806)" fill="#407bff"/>
  <rect id="Rectangle_530" data-name="Rectangle 530" width="59.038" height="11.292" transform="translate(0.096 9.656)" fill="#fff"/>
  <path id="Path_670" data-name="Path 670" d="M127.105,347.8H67.87V336.32h59.235Zm-59.023-.193h58.83v-11.1H68.063Z" transform="translate(-67.87 -326.761)" fill="#263238"/>
  <path id="Path_671" data-name="Path 671" d="M80.619,336.57l-4.286,11.3H68.71l4.282-11.3Z" transform="translate(-68.386 -326.914)" fill="#407bff"/>
  <path id="Path_672" data-name="Path 672" d="M121.123,336.57l-4.282,11.3H109.21l4.286-11.3Z" transform="translate(-93.262 -326.914)" fill="#407bff"/>
  <path id="Path_673" data-name="Path 673" d="M161.639,336.57l-4.286,11.3H149.73l4.286-11.3Z" transform="translate(-118.151 -326.914)" fill="#407bff"/>
  <path id="Path_674" data-name="Path 674" d="M202.153,336.57l-4.286,11.3H190.24l4.282-11.3Z" transform="translate(-143.033 -326.914)" fill="#407bff"/>
  <rect id="Rectangle_531" data-name="Rectangle 531" width="56.651" height="7.148" transform="translate(1.292 34.75)" fill="#fff"/>
  <path id="Path_675" data-name="Path 675" d="M127.832,408.73H71V401.4h56.832Zm-56.65-.193h56.458v-6.944H71.181Z" transform="translate(-69.793 -366.735)" fill="#263238"/>
  <path id="Path_676" data-name="Path 676" d="M83.207,401.62l-4.112,7.148H71.78l4.112-7.148Z" transform="translate(-70.272 -366.87)" fill="#407bff"/>
  <path id="Path_677" data-name="Path 677" d="M122.08,401.62l-4.112,7.148H110.65l4.112-7.148Z" transform="translate(-94.147 -366.87)" fill="#407bff"/>
  <path id="Path_678" data-name="Path 678" d="M160.947,401.62l-4.108,7.148H149.52l4.112-7.148Z" transform="translate(-118.022 -366.87)" fill="#407bff"/>
  <path id="Path_679" data-name="Path 679" d="M199.82,401.62l-4.112,7.148H188.39l4.112-7.148Z" transform="translate(-141.897 -366.87)" fill="#407bff"/>
  <circle id="Ellipse_6" data-name="Ellipse 6" cx="9.189" cy="9.189" r="9.189" transform="matrix(0.232, -0.973, 0.973, 0.232, 18.544, 22.106)" fill="#fff"/>
  <path id="Path_680" data-name="Path 680" d="M129.856,345.7a9.286,9.286,0,1,1,9.286-9.282A9.286,9.286,0,0,1,129.856,345.7Zm0-18.374a9.093,9.093,0,1,0,9.093,9.093A9.093,9.093,0,0,0,129.856,327.327Z" transform="translate(-100.24 -321.116)" fill="#263238"/>
  <circle id="Ellipse_7" data-name="Ellipse 7" cx="7.789" cy="7.789" r="7.789" transform="translate(20.238 21.075) rotate(-76.6)" fill="#407bff"/>
  <rect id="Rectangle_532" data-name="Rectangle 532" width="9.768" height="1.809" transform="translate(24.732 14.397)" fill="#fff"/>
</svg>
