<svg xmlns="http://www.w3.org/2000/svg" xmlns:xlink="http://www.w3.org/1999/xlink" viewBox="0 0 376.88 248.25"><defs><style>.cls-1{fill:#24a9e2;}.cls-2{fill:url(#linear-gradient);}</style><linearGradient id="linear-gradient" y1="89.34" x2="353" y2="89.34" gradientUnits="userSpaceOnUse"><stop offset="0" stop-color="#24a9e2"/><stop offset="1" stop-color="#d1f1e6"/></linearGradient></defs><title>Asset 5</title><g id="Layer_2" data-name="Layer 2"><g id="Layer_1-2" data-name="Layer 1"><path class="cls-1" d="M199.13,177.59c0-14.28,11.09-25.09,25.76-25.09,9.68,0,17.76,4.7,22.09,11.93l-10.63,6.39a13.26,13.26,0,1,0,0,13.54L247,190.75c-4.33,7.24-12.41,11.94-22.09,11.94C210.22,202.69,199.13,191.88,199.13,177.59Z"/><path class="cls-1" d="M271,164.81v19.93c0,4,2.25,6.11,6.58,6.11a14.61,14.61,0,0,0,6.3-1.6v11.37a18,18,0,0,1-8.93,2.07c-11,0-16.17-6.39-16.17-16v-21.9h-7.61V153.62h7.61V141.5H271v12.12h12.88v11.19Z"/><path class="cls-1" d="M288.53,177.59c0-14.28,11.09-25.09,25.75-25.09S340,163.31,340,177.59s-11.1,25.1-25.76,25.1S288.53,191.88,288.53,177.59Zm38.91,0a13.16,13.16,0,1,0-13.16,13.26A12.87,12.87,0,0,0,327.44,177.59Z"/><path class="cls-1" d="M376.88,152.87v12.6h-2.06c-8.75,0-13.82,5.17-13.82,13.34v22.75H348.78V153.62H361v6.21a17.15,17.15,0,0,1,13.82-7Z"/><path class="cls-1" d="M112.56,187.55c-1.72,4.82-2.87,9.54-5,13.76-9.86,19.55-26,29.9-47.78,30.84-12.47.53-25,.14-37.48.08-7.18,0-10.46-3.28-10.52-10.32,0-6.64,0-13.28,0-20.29H29.68v11.54c.7.59.95,1,1.19,1,11.63-.21,23.45.8,34.83-1,18-2.83,30.47-20,28.83-37.06a36.13,36.13,0,0,0-36-32.83c-9.32-.07-18.64,0-28.57,0v12.8H11.81c0-7.67-.27-15.14.1-22.58.24-4.73,3.48-7.92,8.15-7.92,15.64,0,31.41-.72,46.89,1,22.72,2.55,40.32,20.52,45,43a8,8,0,0,0,3.91,4.84c11.6,5.63,17.92,14.5,17.92,27.58,0,6.16-.06,12.33,0,18.49.13,8.72,6.06,14.89,14.15,14.87s13.76-6.27,13.91-15.08c0-1.17-.11-2.34,0-3.5.89-7.71,0-13.39-8.61-17.63-10.33-5.11-13.6-18.37-9.71-29.25a26.48,26.48,0,0,1,27.38-17.46c11.52.87,21.82,10,23.7,21,2.06,12.1-3.57,23.63-14.65,28.33-4.14,1.76-5.48,3.84-5.1,8.08a98.21,98.21,0,0,1,0,12.49,26.72,26.72,0,0,1-27,25.92,27.24,27.24,0,0,1-27.11-26c-.26-7,0-14-.13-21C120.55,195.24,118.07,190.49,112.56,187.55Zm56.25-22.28a13.11,13.11,0,1,0-.7,26.21,13.11,13.11,0,1,0,.7-26.21Z"/><path class="cls-1" d="M74.82,75H26.56c2.2,7.81,8.8,12.82,17.84,12.82,7.58,0,13.81-3.54,17.11-7.69l10.63,9.28c-6.48,7.7-16.5,12.47-28.23,12.47C24.12,101.85,9.34,87.67,9.34,69c0-18.45,14.29-32.38,33.11-32.38S75.19,50.53,75.19,69.35A42.54,42.54,0,0,1,74.82,75ZM26.44,63.36H58.21c-2-7.82-8.19-12.83-15.89-12.83S28.4,55.66,26.44,63.36Z"/><path class="cls-1" d="M81.55,92.31l7.7-10.5a27,27,0,0,0,18.2,7c6.35,0,11-2.08,11-5.86,0-4.16-5.38-5.62-12.22-7.21-9.9-2.2-22.73-5.25-22.73-19.43,0-13.19,11.61-19.67,25.42-19.67a38.39,38.39,0,0,1,24.19,8.19l-7.7,10.63a26.16,26.16,0,0,0-16.13-5.75c-5.37,0-9.77,1.71-9.77,5.38,0,4.15,5.25,5.5,12.22,7,9.89,2.2,22.72,5.26,22.72,19.43,0,13.2-11.73,20.41-26.63,20.41A39.5,39.5,0,0,1,81.55,92.31Z"/><path class="cls-1" d="M143,19a10,10,0,0,1,20,0,10,10,0,0,1-20,0Zm2.07,19.06H161v62.31H145.08Z"/><polygon class="cls-2" points="353 111.61 353 116.61 221.41 116.61 220.02 111.61 214.4 91.38 210.35 111.61 209.35 116.61 196.93 178.69 191.98 116.61 191.58 111.61 186.29 45.22 176.81 111.61 176.17 116.11 0 116.11 0 111.11 171.83 111.11 187.71 0 196.61 111.61 197 116.61 199.07 142.53 204.25 116.61 205.25 111.61 213.6 69.84 225.2 111.61 353 111.61"/></g></g></svg>