<svg xmlns="http://www.w3.org/2000/svg" width="69.881" height="69.88" viewBox="0 0 69.881 69.88">
  <g id="Group_619" data-name="Group 619" transform="translate(-733.656 -494.043)">
    <path id="Path_244" data-name="Path 244" d="M6101.063,8445h13.755a28.128,28.128,0,0,1,28.063,28.063v13.754a28.128,28.128,0,0,1-28.063,28.063h-13.755A28.127,28.127,0,0,1,6073,8486.816v-13.754A28.127,28.127,0,0,1,6101.063,8445Z" transform="translate(-5339.344 -7950.957)" fill="#0d81e0" fill-rule="evenodd"/>
    <path id="Path_245" data-name="Path 245" d="M6103.517,8445h5.979a30.59,30.59,0,0,1,30.517,30.516v5.945a30.62,30.62,0,0,1-30.517,30.551h-5.979A30.62,30.62,0,0,1,6073,8481.461v-5.945A30.59,30.59,0,0,1,6103.517,8445Z" transform="translate(-5339.344 -7949.957)" fill="#0e8cf1" fill-rule="evenodd"/>
    <path id="Path_254" data-name="Path 254" d="M6832.735,8988.014v5.148H6828v5.357h4.735V9013h5.979v-14.48h4.32s.38-2.662.587-5.392h-4.873v-4.872a1.481,1.481,0,0,1,1.382-1.245h3.8V8982H6839.3C6832.6,8982,6832.735,8987.219,6832.735,8988.014Z" transform="translate(-6068.25 -8468.957)" fill="#fefefe" fill-rule="evenodd"/>
  </g>
</svg>
