<svg xmlns="http://www.w3.org/2000/svg" width="69.88" height="69.915" viewBox="0 0 69.88 69.915">
  <g id="Group_616" data-name="Group 616" transform="translate(-417.855 -494.043)">
    <path id="Path_13" data-name="Path 13" d="M3062.063,2827h13.755a28.157,28.157,0,0,1,28.063,28.1v13.755a28.127,28.127,0,0,1-28.063,28.063h-13.755A28.127,28.127,0,0,1,3034,2868.852V2855.1A28.157,28.157,0,0,1,3062.063,2827Z" transform="translate(-2616.145 -2332.957)" fill="#08779c" fill-rule="evenodd"/>
    <path id="Path_14" data-name="Path 14" d="M3064.516,2827h5.945a30.65,30.65,0,0,1,30.551,30.551v5.944a30.65,30.65,0,0,1-30.551,30.551h-5.945A30.62,30.62,0,0,1,3034,2863.5v-5.944A30.62,30.62,0,0,1,3064.516,2827Z" transform="translate(-2616.145 -2331.957)" fill="#0084b1" fill-rule="evenodd"/>
    <path id="Path_23" data-name="Path 23" d="M3678.076,3390a3.083,3.083,0,0,1,3.076,3.076,3.076,3.076,0,1,1-3.076-3.076Z" transform="translate(-3234.992 -2864.957)" fill="#fefefe" fill-rule="evenodd"/>
    <path id="Path_24" data-name="Path 24" d="M3691.458,3652.038h-3.594a.849.849,0,0,1-.864-.83v-15.345a.855.855,0,0,1,.864-.864h3.594a.848.848,0,0,1,.829.864v15.345A.841.841,0,0,1,3691.458,3652.038Z" transform="translate(-3246.577 -3114.957)" fill="#fefefe" fill-rule="evenodd"/>
    <path id="Path_25" data-name="Path 25" d="M3953.52,3628.806a5.8,5.8,0,0,0-5.841-5.806h-.9a5.143,5.143,0,0,0-4.251,2.212,1.936,1.936,0,0,0-.276.449h-.069v-1.9a.346.346,0,0,0-.346-.346h-4.493a.372.372,0,0,0-.346.346v16.347a.372.372,0,0,0,.346.345h4.6a.346.346,0,0,0,.345-.345v-9.435a2.981,2.981,0,0,1,5.081-2.143,3.069,3.069,0,0,1,.864,2.108v9.47a.347.347,0,0,0,.346.345h4.6a.346.346,0,0,0,.346-.345v-11.3Z" transform="translate(-3487.937 -3102.957)" fill="#fefefe" fill-rule="evenodd"/>
  </g>
</svg>
