<svg id="freepik--Backpack--inject-1--inject-59" xmlns="http://www.w3.org/2000/svg" width="43.954" height="66.134" viewBox="0 0 43.954 66.134">
  <path id="Path_109" data-name="Path 109" d="M104.165,244.289c-1.794-.453-11.372-5.9-12.346-6.567s-2.9-2.036-2.9-4.4c0-2.092.217-21.818,1.93-31.346a22.122,22.122,0,0,1,9.838-14.525c5.959-3.693,11.949-6.369,17-4.271s9.652,5.953,11.638,10.608,3.346,13.979,3.488,17.585,0,15.971,0,17.07-.2,2.526-6.114,6.207-14.084,8.069-16.61,9.205a9.646,9.646,0,0,1-5.922.434Z" transform="translate(-88.92 -178.442)" fill="#37474f"/>
  <path id="Path_110" data-name="Path 110" d="M109.574,187.57c-.546.31-2.123-.466-2.359-.857a9.079,9.079,0,0,1,.881-5.642c1.179-1.868,8.535-5.313,10.354-5.059a5.071,5.071,0,0,1,3.383,2.16c.223.478.472,3.625,0,4.271s-2.154-.348-2.3-.621.552-2.576-.621-3.054c-1.08-.434-6.207,1.744-8.293,3.495-.906.763-.863,2.657-.819,3.594S109.847,187.408,109.574,187.57Z" transform="translate(-95.807 -175.998)" fill="#455a64"/>
  <path id="Path_111" data-name="Path 111" d="M108.3,216.534c1.055-10.248,2.955-16.232,12.979-20.695s13.916-.664,15.338,2.756c1.862,4.792,3.147,13.606,3.284,17.088.143,3.606,0,15.971,0,17.07s-.2,2.526-6.114,6.207-14.084,8.069-16.61,9.205a9.646,9.646,0,0,1-5.922.453,7.885,7.885,0,0,1-1.155-.453C106.98,244.156,107.334,225.895,108.3,216.534Z" transform="translate(-96.012 -182.754)" fill="#455a64"/>
  <path id="Path_112" data-name="Path 112" d="M128.013,189.2c-2.619-1.533-6.915-2.545-13.221.267-11.272,5.022-14.134,11.309-15.27,22.346-.2,2.024-.509,4.432-.621,7.02l-.931-.565c.13-2.793.4-5.183.621-7.343,1.241-11.117,4.575-17.262,15.344-22.06,5.965-2.657,9.882-2.309,12.476-1a19.535,19.535,0,0,1,1.6,1.335Z" transform="translate(-92.353 -180.123)" fill="#263238"/>
  <path id="Path_113" data-name="Path 113" d="M128.643,189.7c-2.613-1.533-6.915-2.545-13.215.267-11.278,5.022-14.14,11.309-15.276,22.346-.2,2.024-.509,4.432-.621,7.02l-.931-.565c.13-2.793.4-5.183.621-7.343,1.241-11.117,4.575-17.268,15.344-22.06,5.965-2.657,9.987-2.216,12.582-.912a17.29,17.29,0,0,1,1.5,1.248Z" transform="translate(-92.591 -180.328)" fill="#455a64"/>
  <path id="Path_114" data-name="Path 114" d="M136.235,205.542l-3.408-1.949a.732.732,0,0,0-.993.273l-3.495,6.077a.732.732,0,0,0,.261,1l3.364,1.961a.732.732,0,0,0,1-.261l3.538-6.114a.714.714,0,0,0-.267-.987Z" transform="translate(-103.833 -186.429)" fill="#263238"/>
  <path id="Path_115" data-name="Path 115" d="M132.941,212.582l3.358-5.791a.36.36,0,0,0-.137-.5l-3.1-1.763a.366.366,0,0,0-.5.137l-3.321,5.766a.366.366,0,0,0,.137.5l3.048,1.781a.366.366,0,0,0,.515-.13Z" transform="translate(-104.195 -186.803)" fill="#455a64"/>
  <path id="Path_116" data-name="Path 116" d="M136.193,210.95h0a.677.677,0,0,0,.323-.509v-2.775c0-.18-.143-.236-.323-.137h0a.677.677,0,0,0-.323.509v2.775C135.87,210.994,136.013,211.05,136.193,210.95Z" transform="translate(-106.727 -187.939)" fill="#37474f"/>
  <path id="Path_117" data-name="Path 117" d="M133.293,212.629h0a.7.7,0,0,0,.323-.515v-2.768c0-.18-.149-.242-.323-.137h0a.664.664,0,0,0-.323.509v2.775C132.989,212.666,133.113,212.728,133.293,212.629Z" transform="translate(-105.627 -188.575)" fill="#37474f"/>
  <path id="Path_118" data-name="Path 118" d="M115.694,244.38s1.688,1.39,2.9,6.629,1.949,11.837.621,12.632-3.246-.869-3.724-1.44C114.515,261.028,114.757,248.576,115.694,244.38Z" transform="translate(-98.761 -201.934)" fill="#263238"/>
  <path id="Path_119" data-name="Path 119" d="M116.2,237.131s1.688,1.39,2.9,6.629,1.949,11.837.621,12.632l20.484-12.079c1.341-.795,1.67-7.728.459-12.967-.8-3.445-2.272-5.084-3.178-5.8a1.316,1.316,0,0,0-1.471-.093L116.2,237.131" transform="translate(-99.267 -194.685)" fill="#37474f"/>
  <path id="Path_120" data-name="Path 120" d="M137.072,226.915c.981.484,2.644,1.819,3.4,5.363a2.663,2.663,0,0,1-.838,2.694c-.683.484-15.344,8.82-17.287,9.981-1.676,1-2.545-.329-2.911-1.161h0c-.621-1.477-1.155-2.626-1.614-3.507a7.349,7.349,0,0,0-1.608-2.576l19.534-10.738a1.415,1.415,0,0,1,1.328-.056Z" transform="translate(-99.271 -195.258)" fill="#263238"/>
  <path id="Path_121" data-name="Path 121" d="M99.428,239.669a18,18,0,0,1,.552,3.259c0,.223-.3.341-.391.341a3.954,3.954,0,0,1-1.9-.968,18.764,18.764,0,0,1,.509-2.781Z" transform="translate(-92.246 -200.091)" fill="#263238"/>
  <path id="Path_122" data-name="Path 122" d="M100.061,237.626a1.186,1.186,0,1,0-1.186,1.186A1.186,1.186,0,0,0,100.061,237.626Z" transform="translate(-92.246 -198.923)" fill="#263238"/>
  <path id="Path_123" data-name="Path 123" d="M125.4,180.347c1.3-.124,2.52,0,2.83,1.3a4.221,4.221,0,0,1,0,2.644,3.1,3.1,0,0,1-1.75-.832c-.149-.279.552-2.576-.621-3.054a1.155,1.155,0,0,0-.447-.056Z" transform="translate(-102.756 -177.634)" fill="#263238"/>
  <path id="Path_124" data-name="Path 124" d="M136.144,225.33a1.415,1.415,0,0,1,1.335-.056c.981.484,2.644,1.819,3.4,5.363a2.669,2.669,0,0,1-.838,2.694c-.683.484-15.338,8.82-17.281,9.981-1.676,1-2.551-.329-2.917-1.161h0c-2.03-4.246-3.637-5.071-3.637-5.071Z" transform="translate(-99.267 -194.634)" fill="#37474f"/>
</svg>
