<svg xmlns="http://www.w3.org/2000/svg" width="139.706" height="195.821" viewBox="0 0 139.706 195.821">
  <g id="Group_628" data-name="Group 628" transform="translate(-579.706)">
    <g id="freepik--Shadows--inject-1--inject-59" transform="translate(586.537 128.309)">
      <path id="Path_95" data-name="Path 95" d="M197.554,363.888c14.065,6.7,36.864,6.7,50.9,0s14.065-17.566,0-24.27-36.858-6.7-50.9,0S183.464,357.19,197.554,363.888Z" transform="translate(-187.005 -309.124)" fill="#ebebeb"/>
      <path id="Path_96" data-name="Path 96" d="M329.054,331.735l-50.278,29.019a2.973,2.973,0,0,1-2.688,0l-62.848-36.3a.819.819,0,0,1,0-1.552l50.278-29.019a2.973,2.973,0,0,1,2.688,0l62.866,36.3a.819.819,0,0,1-.019,1.552Z" transform="translate(-196.745 -293.563)" fill="#ebebeb"/>
    </g>
    <g id="freepik--Character--inject-1--inject-59" transform="translate(579.706)">
      <path id="Path_208" data-name="Path 208" d="M383.911,343.439l-1.241-.7.881-.4s.689.186.708.217a3.542,3.542,0,0,1-.05.478Z" transform="translate(-254.386 -183.754)" fill="#e0e0e0"/>
      <path id="Path_209" data-name="Path 209" d="M383.911,343.439l-1.241-.7.881-.4s.689.186.708.217a3.542,3.542,0,0,1-.05.478Z" transform="translate(-254.386 -183.754)" fill="#407bff"/>
      <path id="Path_210" data-name="Path 210" d="M383.911,343.439l-1.241-.7.881-.4s.689.186.708.217a3.542,3.542,0,0,1-.05.478Z" transform="translate(-254.386 -183.754)" fill="#fff" opacity="0.1"/>
      <path id="Path_211" data-name="Path 211" d="M274.712,346.05a3.929,3.929,0,0,0,3.551,0l39.813-22.967-59.589-34.413-1.39-.8-39.813,22.967a1.083,1.083,0,0,0,0,2.048Z" transform="translate(-191.381 -163.094)" fill="#407bff"/>
      <path id="Path_212" data-name="Path 212" d="M274.712,346.05a3.929,3.929,0,0,0,3.551,0l39.813-22.967-59.589-34.413-1.39-.8-39.813,22.967a1.083,1.083,0,0,0,0,2.048Z" transform="translate(-191.381 -163.094)" fill="#fff" opacity="0.8"/>
      <path id="Path_213" data-name="Path 213" d="M331.359,311.64l13.885,7.989,8.988-5.189,10.434,6.046V328c0,.912-1.024,2.21-1.4,2a10.307,10.307,0,0,0-2,.708,15,15,0,0,0-2.886,2.135l-31.9-18.417Z" transform="translate(-233.074 -172.11)" fill="#e0e0e0"/>
      <path id="Path_214" data-name="Path 214" d="M331.359,311.64l13.885,7.989,8.988-5.189,10.434,6.046V328c0,.912-1.024,2.21-1.4,2a10.307,10.307,0,0,0-2,.708,15,15,0,0,0-2.886,2.135l-31.9-18.417Z" transform="translate(-233.074 -172.11)" fill="#407bff"/>
      <path id="Path_215" data-name="Path 215" d="M331.359,311.64l13.885,7.989,8.988-5.189,10.434,6.046V328c0,.912-1.024,2.21-1.4,2a10.307,10.307,0,0,0-2,.708,15,15,0,0,0-2.886,2.135l-31.9-18.417Z" transform="translate(-233.074 -172.11)" fill="#fff" opacity="0.1"/>
      <path id="Path_216" data-name="Path 216" d="M314.919,364.469l2.4-1.39,36.045-20.806a2.3,2.3,0,0,1,.49-1.291,5.214,5.214,0,0,1,1.577-1.39,3.619,3.619,0,0,1,1.7-.528,1.813,1.813,0,0,1,1.117.366,6.127,6.127,0,0,0,.664-2.979h1.366c0,1.862-.621,3.774-1.384,4.208l-.689.4c-.391.223-.7.236-.7,0V340.7c0-.41-.621-.391-1.39.056s-1.384,1.13-1.384,1.539v.372c0,.211-.534.683-1.179,1.055l-34.859,20.13-3.774,2.173h0a3.724,3.724,0,0,1-1.769.416V364.86A3.545,3.545,0,0,0,314.919,364.469Z" transform="translate(-228.019 -181.52)" fill="#407bff"/>
      <path id="Path_217" data-name="Path 217" d="M314.919,364.469l2.4-1.39,36.045-20.806a2.3,2.3,0,0,1,.49-1.291,5.214,5.214,0,0,1,1.577-1.39,3.619,3.619,0,0,1,1.7-.528,1.813,1.813,0,0,1,1.117.366,6.127,6.127,0,0,0,.664-2.979h1.366c0,1.862-.621,3.774-1.384,4.208l-.689.4c-.391.223-.7.236-.7,0V340.7c0-.41-.621-.391-1.39.056s-1.384,1.13-1.384,1.539v.372c0,.211-.534.683-1.179,1.055l-34.859,20.13-3.774,2.173h0a3.724,3.724,0,0,1-1.769.416V364.86A3.545,3.545,0,0,0,314.919,364.469Z" transform="translate(-228.019 -181.52)" fill="#fff" opacity="0.6"/>
      <path id="Path_218" data-name="Path 218" d="M216.53,326.47v1.608a1.241,1.241,0,0,0,.708,1.006h0l53.673,30.986,3.768,2.173h0a3.725,3.725,0,0,0,1.769.416v-1.577a3.544,3.544,0,0,1-1.775-.428l-2.4-1.384h0l-55.039-31.787A1.241,1.241,0,0,1,216.53,326.47Z" transform="translate(-191.372 -177.735)" fill="#407bff"/>
      <path id="Path_219" data-name="Path 219" d="M216.53,326.47v1.608a1.241,1.241,0,0,0,.708,1.006h0l53.673,30.986,3.768,2.173h0a3.725,3.725,0,0,0,1.769.416v-1.577a3.544,3.544,0,0,1-1.775-.428l-2.4-1.384h0l-55.039-31.787A1.241,1.241,0,0,1,216.53,326.47Z" transform="translate(-191.372 -177.735)" fill="#fff" opacity="0.1"/>
      <path id="Path_220" data-name="Path 220" d="M313.11,351.472v9.211a2.334,2.334,0,0,0,1.179-.279l4.345-2.52,33.264-19.2V329.07Z" transform="translate(-228.003 -178.721)" fill="#fff"/>
      <path id="Path_221" data-name="Path 221" d="M219.32,312.86v7.082a2.613,2.613,0,0,0,1.179,2.048l51.52,29.732,4.345,2.52a2.352,2.352,0,0,0,1.179.279V346.3Z" transform="translate(-192.43 -172.573)" fill="#f0f0f0"/>
      <path id="Path_222" data-name="Path 222" d="M375.64,336.933a2.334,2.334,0,0,1,.5-1.291,5.277,5.277,0,0,1,1.577-1.384,3.532,3.532,0,0,1,1.695-.534,1.862,1.862,0,0,1,1.124.366V324.5l-4.885,2.824Z" transform="translate(-251.72 -176.987)" fill="#455a64"/>
      <path id="Path_223" data-name="Path 223" d="M377.6,336.337a4.966,4.966,0,0,0-1.453,1.3,2.334,2.334,0,0,0-.5,1.291V329.77h1.949Z" transform="translate(-251.72 -178.986)" fill="#f5f5f5"/>
      <path id="Path_224" data-name="Path 224" d="M284.09,269.57l59.589,34.413v.8c0,.441.621.621,1.384.161s1.39-.993,1.39-1.757l.074-.757L285.8,267.373l-.242-.143a.82.82,0,0,0-.105.366v.372C285.468,268.428,284.853,269.142,284.09,269.57Z" transform="translate(-216.997 -155.266)" fill="#407bff"/>
      <path id="Path_225" data-name="Path 225" d="M284.09,269.57l59.589,34.413v.8c0,.441.621.621,1.384.161s1.39-.993,1.39-1.757l.074-.757L285.8,267.373l-.242-.143a.82.82,0,0,0-.105.366v.372C285.468,268.428,284.853,269.142,284.09,269.57Z" transform="translate(-216.997 -155.266)" fill="#fff" opacity="0.6"/>
      <path id="Path_226" data-name="Path 226" d="M278.3,328.134l38.931-22.482c.49-.255.943-.466,1.136-.366l-.254-.143L258.528,270.73l-.7-.4a2.278,2.278,0,0,0-1.862.279l-38.627,22.309a1.083,1.083,0,0,0,0,2.048l57.441,33.171a3.929,3.929,0,0,0,3.519,0Z" transform="translate(-191.404 -156.408)" fill="#407bff"/>
      <path id="Path_227" data-name="Path 227" d="M278.3,328.134l38.931-22.482c.49-.255.943-.466,1.136-.366l-.254-.143L258.528,270.73l-.7-.4a2.278,2.278,0,0,0-1.862.279l-38.627,22.309a1.083,1.083,0,0,0,0,2.048l57.441,33.171a3.929,3.929,0,0,0,3.519,0Z" transform="translate(-191.404 -156.408)" fill="#fff" opacity="0.8"/>
      <path id="Path_228" data-name="Path 228" d="M286.48,266.578l.242.143L347.447,301.8a.49.49,0,0,1,.13-.168l.2-.118.441-.248.54-.317a.552.552,0,0,1,.689.062.312.312,0,0,1,.068.062.982.982,0,0,1,.18.255,1.741,1.741,0,0,1,.161.341,3.229,3.229,0,0,1,.118.391c.037.155.062.3.093.466a2.02,2.02,0,0,1,.031.279v-.95a3.637,3.637,0,0,0-1.775-2.725l-57.447-33.171a3.563,3.563,0,0,0-3.159-.23l-.726.422h0l-.31.174h0A.621.621,0,0,0,286.48,266.578Z" transform="translate(-217.903 -154.596)" fill="#407bff"/>
      <path id="Path_229" data-name="Path 229" d="M286.48,266.578l.242.143L347.447,301.8a.49.49,0,0,1,.13-.168l.2-.118.441-.248.54-.317a.552.552,0,0,1,.689.062.312.312,0,0,1,.068.062.982.982,0,0,1,.18.255,1.741,1.741,0,0,1,.161.341,3.229,3.229,0,0,1,.118.391c.037.155.062.3.093.466a2.02,2.02,0,0,1,.031.279v-.95a3.637,3.637,0,0,0-1.775-2.725l-57.447-33.171a3.563,3.563,0,0,0-3.159-.23l-.726.422h0l-.31.174h0A.621.621,0,0,0,286.48,266.578Z" transform="translate(-217.903 -154.596)" fill="#fff" opacity="0.8"/>
      <path id="Path_230" data-name="Path 230" d="M314.938,347.932h0l2.408-1.4,27.69-15.977,8.839-5.1c.621-.372,1.142-.5,1.173-.31h0v.4c0,.447.621.447,1.384,0a1.862,1.862,0,0,0,1.092-1.39v-.435a.621.621,0,0,1,.2-.521l.2-.118.441-.248.54-.317a.552.552,0,0,1,.689.062.31.31,0,0,1,.068.062.77.77,0,0,1,.118.161.3.3,0,0,1,.062.093,1.738,1.738,0,0,1,.161.341,3.219,3.219,0,0,1,.118.391c.037.155.062.3.093.466a2.02,2.02,0,0,1,.031.279v6.741h-1.366V324.7l-.037-.341a.056.056,0,0,0,0-.031,3.913,3.913,0,0,1-2.061,2.564,3.4,3.4,0,0,1-1.664.521,1.862,1.862,0,0,1-1.241-.453l-.124.068-.236.143-34.859,20.13-3.73,2.2h0a3.681,3.681,0,0,1-1.738.4v-1.577A3.662,3.662,0,0,0,314.938,347.932Z" transform="translate(-228.038 -176.199)" fill="#407bff"/>
      <path id="Path_231" data-name="Path 231" d="M314.938,347.932h0l2.408-1.4,27.69-15.977,8.839-5.1c.621-.372,1.142-.5,1.173-.31h0v.4c0,.447.621.447,1.384,0a1.862,1.862,0,0,0,1.092-1.39v-.435a.621.621,0,0,1,.2-.521l.2-.118.441-.248.54-.317a.552.552,0,0,1,.689.062.31.31,0,0,1,.068.062.77.77,0,0,1,.118.161.3.3,0,0,1,.062.093,1.738,1.738,0,0,1,.161.341,3.219,3.219,0,0,1,.118.391c.037.155.062.3.093.466a2.02,2.02,0,0,1,.031.279v6.741h-1.366V324.7l-.037-.341a.056.056,0,0,0,0-.031,3.913,3.913,0,0,1-2.061,2.564,3.4,3.4,0,0,1-1.664.521,1.862,1.862,0,0,1-1.241-.453l-.124.068-.236.143-34.859,20.13-3.73,2.2h0a3.681,3.681,0,0,1-1.738.4v-1.577A3.662,3.662,0,0,0,314.938,347.932Z" transform="translate(-228.038 -176.199)" fill="#fff" opacity="0.6"/>
      <path id="Path_232" data-name="Path 232" d="M216.53,308.39v1.62a1.241,1.241,0,0,0,.708,1.012h0l53.673,30.986,3.768,2.179h0a3.724,3.724,0,0,0,1.769.416v-1.577a3.612,3.612,0,0,1-1.775-.422l-2.4-1.384h0l-55.039-31.787A1.241,1.241,0,0,1,216.53,308.39Z" transform="translate(-191.372 -170.877)" fill="#407bff"/>
      <path id="Path_233" data-name="Path 233" d="M216.53,308.39v1.62a1.241,1.241,0,0,0,.708,1.012h0l53.673,30.986,3.768,2.179h0a3.724,3.724,0,0,0,1.769.416v-1.577a3.612,3.612,0,0,1-1.775-.422l-2.4-1.384h0l-55.039-31.787A1.241,1.241,0,0,1,216.53,308.39Z" transform="translate(-191.372 -170.877)" fill="#fff" opacity="0.1"/>
      <path id="Path_234" data-name="Path 234" d="M258.7,268.8a2.278,2.278,0,0,1,1.862-.279l.7.4c.763-.447,1.378-1.161,1.378-1.6v-.372a.819.819,0,0,1,.106-.366.62.62,0,0,1,.217-.248h0l.31-.174h0l.726-.422a3.563,3.563,0,0,1,3.159.23L324.6,299.139l.062.037-40.539,23.407a2.6,2.6,0,0,1-2.365,0l-57.82-33.711Z" transform="translate(-194.183 -154.6)" fill="#263238"/>
      <path id="Path_235" data-name="Path 235" d="M325.193,351.377l-1.533-.881a2.483,2.483,0,0,1,1.285-.093C325.355,350.614,325.193,351.377,325.193,351.377Z" transform="translate(-232.005 -186.795)" fill="#407bff"/>
      <path id="Path_236" data-name="Path 236" d="M325.193,351.377l-1.533-.881a2.483,2.483,0,0,1,1.285-.093C325.355,350.614,325.193,351.377,325.193,351.377Z" transform="translate(-232.005 -186.795)" opacity="0.7"/>
      <path id="Path_237" data-name="Path 237" d="M324.439,345.433a1.862,1.862,0,0,0-2.737,0c-1.5,1.372-1.57,2.731-2.191,2.713s-.621-10.956-.621-10.956l5.9,5.469Z" transform="translate(-230.196 -181.801)" fill="#407bff"/>
      <path id="Path_238" data-name="Path 238" d="M324.439,345.433a1.862,1.862,0,0,0-2.737,0c-1.5,1.372-1.57,2.731-2.191,2.713s-.621-10.956-.621-10.956l5.9,5.469Z" transform="translate(-230.196 -181.801)" opacity="0.7"/>
      <path id="Path_239" data-name="Path 239" d="M228.349,271.715l-.1-.056.943-.546,40.645-23.463,59.223,38.323c.975.565,1.148,1.384.385,1.819l-1.384.8L290.073,310.56l-.273-.2Z" transform="translate(-195.817 -147.84)" fill="#407bff"/>
      <path id="Path_240" data-name="Path 240" d="M228.349,271.715l-.1-.056.943-.546,40.645-23.463,59.223,38.323c.975.565,1.148,1.384.385,1.819l-1.384.8L290.073,310.56l-.273-.2Z" transform="translate(-195.817 -147.84)" opacity="0.5"/>
      <path id="Path_241" data-name="Path 241" d="M319.581,328.471l2.942-.621v11.794c-1.775.757-2.9,1.465-3.1,2.948Z" transform="translate(-230.397 -178.258)" fill="#455a64"/>
      <path id="Path_242" data-name="Path 242" d="M325.487,325.477l37.634-21.725a2.613,2.613,0,0,0,1.186-2.048V290.09l-38,22.129a3.482,3.482,0,0,1-1.8,2.16c-1.347.515-.317,1.043-.317,1.043v9.931C325.35,325.185,325.487,325.477,325.487,325.477Z" transform="translate(-232.063 -163.936)" fill="#f0f0f0"/>
      <path id="Path_243" data-name="Path 243" d="M283.508,305.14c.391-.223.7-.236.7,0v.366c0,.41.621.391,1.39-.056s1.39-1.13,1.39-1.539v-.372c0-.211.528-.683,1.173-1.055L226.935,267.4l-.95.546a.888.888,0,0,0-.236.509v.372c0,.41-.621,1.1-1.384,1.539s-1.39.466-1.39.056v-.372c0-.211-.31-.192-.7.031Z" transform="translate(-193.553 -155.33)" fill="#407bff"/>
      <path id="Path_244" data-name="Path 244" d="M283.508,305.14c.391-.223.7-.236.7,0v.366c0,.41.621.391,1.39-.056s1.39-1.13,1.39-1.539v-.372c0-.211.528-.683,1.173-1.055L226.935,267.4l-.95.546a.888.888,0,0,0-.236.509v.372c0,.41-.621,1.1-1.384,1.539s-1.39.466-1.39.056v-.372c0-.211-.31-.192-.7.031Z" transform="translate(-193.553 -155.33)" opacity="0.6"/>
      <path id="Path_245" data-name="Path 245" d="M228.349,253.625l-.1-.056.943-.546,40.645-23.463,59.223,34.2c.975.565,1.148,1.378.385,1.819l-1.384.795-38,22.886Z" transform="translate(-195.817 -140.978)" fill="#407bff"/>
      <path id="Path_246" data-name="Path 246" d="M228.349,253.625l-.1-.056.943-.546,40.645-23.463,59.223,34.2c.975.565,1.148,1.378.385,1.819l-1.384.795-38,22.886Z" transform="translate(-195.817 -140.978)" opacity="0.5"/>
      <path id="Path_247" data-name="Path 247" d="M222.212,271.06,283.427,306.4l-2.142,1.676L220.3,272.872a2.334,2.334,0,0,1,.813-1.136Z" transform="translate(-192.802 -156.719)" fill="#407bff"/>
      <path id="Path_248" data-name="Path 248" d="M222.212,271.06,283.427,306.4l-2.142,1.676L220.3,272.872a2.334,2.334,0,0,1,.813-1.136Z" transform="translate(-192.802 -156.719)" opacity="0.5"/>
      <path id="Path_249" data-name="Path 249" d="M220.163,289.747a.672.672,0,0,1-.106-.081.167.167,0,0,1-.068-.062.651.651,0,0,1-.124-.168.224.224,0,0,1-.062-.087,1.432,1.432,0,0,1-.155-.341,2.692,2.692,0,0,1-.124-.4c-.037-.149-.062-.3-.087-.459a1.439,1.439,0,0,1-.037-.279V277a8.249,8.249,0,0,1,.571-3.1l60.986,35.207.254,15.841-60.979-35.22Z" transform="translate(-192.461 -157.796)" fill="#407bff"/>
      <path id="Path_250" data-name="Path 250" d="M220.163,289.747a.672.672,0,0,1-.106-.081.167.167,0,0,1-.068-.062.651.651,0,0,1-.124-.168.224.224,0,0,1-.062-.087,1.432,1.432,0,0,1-.155-.341,2.692,2.692,0,0,1-.124-.4c-.037-.149-.062-.3-.087-.459a1.439,1.439,0,0,1-.037-.279V277a8.249,8.249,0,0,1,.571-3.1l60.986,35.207.254,15.841-60.979-35.22Z" transform="translate(-192.461 -157.796)" opacity="0.7"/>
      <path id="Path_251" data-name="Path 251" d="M280.928,309.132h0s-48.031-22.476-52.4-24.537c-2.886-1.359-4.3,1.5-3.619,4.451a14.332,14.332,0,0,0,3.147,5.245h0l-7.852-4.537h0a.674.674,0,0,1-.105-.081.168.168,0,0,1-.068-.062.652.652,0,0,1-.124-.168.223.223,0,0,1-.062-.087,1.433,1.433,0,0,1-.155-.341,2.7,2.7,0,0,1-.124-.4c-.037-.149-.062-.3-.087-.459a1.441,1.441,0,0,1-.037-.279V277a8.249,8.249,0,0,1,.571-3.1Z" transform="translate(-192.476 -157.796)" fill="#263238" opacity="0.79"/>
      <path id="Path_252" data-name="Path 252" d="M317.59,316.969h1.366a6.207,6.207,0,0,1,.658-2.979,1.862,1.862,0,0,0,1.124.366,3.532,3.532,0,0,0,1.695-.534,5.189,5.189,0,0,0,1.577-1.384.891.891,0,0,0,.087-.124,2.241,2.241,0,0,0,.4-1.167l36.045-20.806,1.241-.714,1.564-.9a.819.819,0,0,0,.478-.7v-1.6a.838.838,0,0,1-.478.72h0l-4.14,2.384-34.853,20.13c-.652.372-1.179.844-1.179,1.055v.372a1.124,1.124,0,0,1-.323.621,3.887,3.887,0,0,1-1.068.894c-.77.447-1.39.466-1.39.056V312.3c0-.217-.3-.2-.7,0l-.689.4C318.211,313.2,317.59,315.089,317.59,316.969Z" transform="translate(-229.703 -162.548)" fill="#407bff"/>
      <path id="Path_253" data-name="Path 253" d="M318.99,326.353v10.534l.031.341a.056.056,0,0,0,0,.031,3.913,3.913,0,0,1,2.061-2.564,3.408,3.408,0,0,1,1.67-.521,1.862,1.862,0,0,1,1.241.453l.118-.068.242-.143,34.853-20.13,2-1.155.571-.335,1.688-.975a.8.8,0,0,0,.372-.652v1.6a.782.782,0,0,1-.348.621h0c-.2.118-.41.23-.621.36l-.391.23-.67.385c-.149.093-.286.174-.416.242s-.2.124-.292.168l-.515.3L332.9,331.052l-8.839,5.1c-.621.372-1.136.5-1.173.31a.364.364,0,0,1,0-.068v-.354c0-.447-.621-.447-1.384,0a1.862,1.862,0,0,0-1.092,1.39v.435a.621.621,0,0,1-.2.521l-.2.118-.435.248-.54.317a.552.552,0,0,1-.689-.062.168.168,0,0,1-.068-.062.621.621,0,0,1-.124-.161h0a.443.443,0,0,1-.062-.087,1.434,1.434,0,0,1-.155-.341,2.4,2.4,0,0,1-.124-.391c-.037-.155-.062-.3-.087-.466a1.381,1.381,0,0,1-.037-.279V326.353Z" transform="translate(-229.737 -171.932)" fill="#407bff"/>
      <g id="Group_538" data-name="Group 538" transform="translate(87.887 123.882)" opacity="0.6">
        <path id="Path_254" data-name="Path 254" d="M317.59,316.969h1.366a6.207,6.207,0,0,1,.658-2.979,1.862,1.862,0,0,0,1.124.366,3.532,3.532,0,0,0,1.695-.534,5.189,5.189,0,0,0,1.577-1.384.891.891,0,0,0,.087-.124,2.241,2.241,0,0,0,.4-1.167l36.045-20.806,1.241-.714,1.564-.9a.819.819,0,0,0,.478-.7v-1.6a.838.838,0,0,1-.478.72h0l-4.14,2.384-34.853,20.13c-.652.372-1.179.844-1.179,1.055v.372a1.124,1.124,0,0,1-.323.621,3.887,3.887,0,0,1-1.068.894c-.77.447-1.39.466-1.39.056V312.3c0-.217-.3-.2-.7,0l-.689.4C318.211,313.2,317.59,315.089,317.59,316.969Z" transform="translate(-317.59 -286.43)"/>
        <path id="Path_255" data-name="Path 255" d="M318.99,326.353v10.534l.031.341a.056.056,0,0,0,0,.031,3.913,3.913,0,0,1,2.061-2.564,3.408,3.408,0,0,1,1.67-.521,1.862,1.862,0,0,1,1.241.453l.118-.068.242-.143,34.853-20.13,2-1.155.571-.335,1.688-.975a.8.8,0,0,0,.372-.652v1.6a.782.782,0,0,1-.348.621h0c-.2.118-.41.23-.621.36l-.391.23-.67.385c-.149.093-.286.174-.416.242s-.2.124-.292.168l-.515.3L332.9,331.052l-8.839,5.1c-.621.372-1.136.5-1.173.31a.364.364,0,0,1,0-.068v-.354c0-.447-.621-.447-1.384,0a1.862,1.862,0,0,0-1.092,1.39v.435a.621.621,0,0,1-.2.521l-.2.118-.435.248-.54.317a.552.552,0,0,1-.689-.062.168.168,0,0,1-.068-.062.621.621,0,0,1-.124-.161h0a.443.443,0,0,1-.062-.087,1.434,1.434,0,0,1-.155-.341,2.4,2.4,0,0,1-.124-.391c-.037-.155-.062-.3-.087-.466a1.381,1.381,0,0,1-.037-.279V326.353Z" transform="translate(-317.624 -295.813)"/>
      </g>
      <path id="Path_256" data-name="Path 256" d="M220.25,257.852l57.963,33.469,43.81-25.294a.72.72,0,0,0,0-1.366L264.669,231.54l-38.484,22.234h0l-.95.552a.881.881,0,0,0-.23.5v.372c0,.41-.621,1.1-1.384,1.539a.576.576,0,0,1-.124.062l-1.279-.739-.621.348-.087.043h0l-.447.261A2.346,2.346,0,0,0,220.25,257.852Z" transform="translate(-192.783 -141.729)" fill="#263238"/>
      <path id="Path_257" data-name="Path 257" d="M377.934,286.7l-1.744-.931,1.589-.379A1.186,1.186,0,0,1,377.934,286.7Z" transform="translate(-251.929 -162.154)" fill="#e0e0e0"/>
      <path id="Path_258" data-name="Path 258" d="M377.934,286.7l-1.744-.931,1.589-.379A1.186,1.186,0,0,1,377.934,286.7Z" transform="translate(-251.929 -162.154)" fill="#e0e0e0" opacity="0.5"/>
      <path id="Path_259" data-name="Path 259" d="M268.988,287.455a3.917,3.917,0,0,0,3.544,0l39.813-22.967-59.589-37.671-1.4-.807-39.807,26.219a1.083,1.083,0,0,0,0,2.048Z" transform="translate(-189.208 -139.632)" fill="#407bff"/>
      <path id="Path_260" data-name="Path 260" d="M325.644,249.77l30.08,20.384L339.529,257.74l8.988-5.189L358.97,258.6V269.4c0,.919-1.024,2.216-1.4,2a10.3,10.3,0,0,0-2,.708,15,15,0,0,0-2.886,2.135l-31.9-21.682Z" transform="translate(-230.916 -148.644)" fill="#407bff"/>
      <path id="Path_261" data-name="Path 261" d="M325.644,249.77l30.08,20.384L339.529,257.74l8.988-5.189L358.97,258.6V269.4c0,.919-1.024,2.216-1.4,2a10.3,10.3,0,0,0-2,.708,15,15,0,0,0-2.886,2.135l-31.9-21.682Z" transform="translate(-230.916 -148.644)" opacity="0.2"/>
      <path id="Path_262" data-name="Path 262" d="M307.38,289.594v12.464a2.427,2.427,0,0,0,1.186-.279l4.345-2.52,33.27-19.205V267.18Z" transform="translate(-225.83 -155.247)" fill="#fff"/>
      <path id="Path_263" data-name="Path 263" d="M213.59,251v10.347a2.626,2.626,0,0,0,1.179,2.048l51.52,29.732,4.345,2.52a2.421,2.421,0,0,0,1.179.279v-11.5Z" transform="translate(-190.257 -149.11)" fill="#f0f0f0"/>
      <path id="Path_264" data-name="Path 264" d="M369.92,278.328a2.321,2.321,0,0,1,.5-1.291,5.108,5.108,0,0,1,1.577-1.384,3.557,3.557,0,0,1,1.7-.534,1.769,1.769,0,0,1,1.117.261V262.63l-4.885,2.824Z" transform="translate(-249.55 -153.521)" fill="#455a64"/>
      <path id="Path_265" data-name="Path 265" d="M371.869,277.734a5.183,5.183,0,0,0-1.452,1.31,2.321,2.321,0,0,0-.5,1.291V267.92h1.943Z" transform="translate(-249.55 -155.528)" fill="#f5f5f5"/>
      <path id="Path_266" data-name="Path 266" d="M278.37,207.73l59.589,34.419v.795c0,.447.621.621,1.384.168s1.4-1,1.4-1.763l.074-.757-60.725-35.058-.248-.143a.813.813,0,0,0-.1.372v.366C279.748,206.569,279.133,207.283,278.37,207.73Z" transform="translate(-214.827 -131.811)" fill="#407bff"/>
      <path id="Path_267" data-name="Path 267" d="M278.37,207.73l59.589,34.419v.795c0,.447.621.621,1.384.168s1.4-1,1.4-1.763l.074-.757-60.725-35.058-.248-.143a.813.813,0,0,0-.1.372v.366C279.748,206.569,279.133,207.283,278.37,207.73Z" transform="translate(-214.827 -131.811)" opacity="0.2"/>
      <path id="Path_268" data-name="Path 268" d="M272.533,266.265l38.956-22.476c.5-.261.95-.472,1.136-.372l-.255-.137-59.589-34.419-.7-.4a2.222,2.222,0,0,0-1.862.279l-38.665,22.3a1.083,1.083,0,0,0,0,2.048L269,266.265A3.917,3.917,0,0,0,272.533,266.265Z" transform="translate(-189.208 -132.942)" fill="#407bff"/>
      <path id="Path_269" data-name="Path 269" d="M280.75,204.7l.248.143L341.735,239.9a.49.49,0,0,1,.13-.168l.2-.112.435-.254.54-.317a.559.559,0,0,1,.689.062.323.323,0,0,1,.068.062,1.346,1.346,0,0,1,.186.255,1.722,1.722,0,0,1,.155.341,3.719,3.719,0,0,1,.124.4c.031.149.062.3.087.459a2.115,2.115,0,0,1,.037.286v-.95a3.625,3.625,0,0,0-1.775-2.731L285.169,204.06a3.557,3.557,0,0,0-3.159-.223l-.726.422h0l-.3.18h0A.62.62,0,0,0,280.75,204.7Z" transform="translate(-215.73 -131.12)" fill="#407bff"/>
      <path id="Path_270" data-name="Path 270" d="M309.159,307.875l2.4-1.39,36.045-20.813a2.34,2.34,0,0,1,.5-1.291A5.2,5.2,0,0,1,349.68,283a3.594,3.594,0,0,1,1.695-.528,1.794,1.794,0,0,1,1.123.366,6.251,6.251,0,0,0,.658-2.986h1.366c0,1.862-.621,3.774-1.384,4.215l-.689.4c-.391.223-.7.236-.7,0V284.1c0-.41-.621-.391-1.4.05s-1.384,1.136-1.384,1.546v.366c0,.211-.528.683-1.179,1.061l-34.859,20.13-3.774,2.179h0a3.724,3.724,0,0,1-1.769.416v-1.577A3.594,3.594,0,0,0,309.159,307.875Z" transform="translate(-225.834 -160.053)" fill="#407bff"/>
      <path id="Path_271" data-name="Path 271" d="M309.159,307.875l2.4-1.39,36.045-20.813a2.34,2.34,0,0,1,.5-1.291A5.2,5.2,0,0,1,349.68,283a3.594,3.594,0,0,1,1.695-.528,1.794,1.794,0,0,1,1.123.366,6.251,6.251,0,0,0,.658-2.986h1.366c0,1.862-.621,3.774-1.384,4.215l-.689.4c-.391.223-.7.236-.7,0V284.1c0-.41-.621-.391-1.4.05s-1.384,1.136-1.384,1.546v.366c0,.211-.528.683-1.179,1.061l-34.859,20.13-3.774,2.179h0a3.724,3.724,0,0,1-1.769.416v-1.577A3.594,3.594,0,0,0,309.159,307.875Z" transform="translate(-225.834 -160.053)" opacity="0.4"/>
      <path id="Path_272" data-name="Path 272" d="M309.15,286.063h0l2.4-1.39,27.69-15.977,8.876-5.115c.621-.366,1.142-.5,1.179-.3v.4c0,.441.621.441,1.384,0a1.862,1.862,0,0,0,1.092-1.4v-.435a.621.621,0,0,1,.2-.521l.2-.112.435-.255.54-.317a.559.559,0,0,1,.689.062.323.323,0,0,1,.068.062.839.839,0,0,1,.124.168.529.529,0,0,1,.062.087,1.727,1.727,0,0,1,.155.341,3.726,3.726,0,0,1,.124.4c.031.149.062.3.087.459a2.11,2.11,0,0,1,.037.286V272.5h-1.366v-9.615l-.031-.341a3.9,3.9,0,0,1-2.067,2.564,3.358,3.358,0,0,1-1.664.521,1.862,1.862,0,0,1-1.241-.453l-.118.068-.242.143-34.859,20.13-3.774,2.179h0a3.687,3.687,0,0,1-1.744.4v-1.577a3.662,3.662,0,0,0,1.75-.459Z" transform="translate(-225.838 -152.734)" fill="#407bff"/>
      <path id="Path_273" data-name="Path 273" d="M309.15,286.063h0l2.4-1.39,27.69-15.977,8.876-5.115c.621-.366,1.142-.5,1.179-.3v.4c0,.441.621.441,1.384,0a1.862,1.862,0,0,0,1.092-1.4v-.435a.621.621,0,0,1,.2-.521l.2-.112.435-.255.54-.317a.559.559,0,0,1,.689.062.323.323,0,0,1,.068.062.839.839,0,0,1,.124.168.529.529,0,0,1,.062.087,1.727,1.727,0,0,1,.155.341,3.726,3.726,0,0,1,.124.4c.031.149.062.3.087.459a2.11,2.11,0,0,1,.037.286V272.5h-1.366v-9.615l-.031-.341a3.9,3.9,0,0,1-2.067,2.564,3.358,3.358,0,0,1-1.664.521,1.862,1.862,0,0,1-1.241-.453l-.118.068-.242.143-34.859,20.13-3.774,2.179h0a3.687,3.687,0,0,1-1.744.4v-1.577a3.662,3.662,0,0,0,1.75-.459Z" transform="translate(-225.838 -152.734)" opacity="0.4"/>
      <path id="Path_274" data-name="Path 274" d="M210.81,246.52v1.6a1.241,1.241,0,0,0,.7,1.012h0l53.68,30.986,3.768,2.179h0a3.724,3.724,0,0,0,1.763.416v-1.577a3.588,3.588,0,0,1-1.769-.422l-2.4-1.384h0l-55.008-31.768A1.2,1.2,0,0,1,210.81,246.52Z" transform="translate(-189.203 -147.411)" fill="#407bff"/>
      <path id="Path_275" data-name="Path 275" d="M210.81,246.52v1.6a1.241,1.241,0,0,0,.7,1.012h0l53.68,30.986,3.768,2.179h0a3.724,3.724,0,0,0,1.763.416v-1.577a3.588,3.588,0,0,1-1.769-.422l-2.4-1.384h0l-55.008-31.768A1.2,1.2,0,0,1,210.81,246.52Z" transform="translate(-189.203 -147.411)" opacity="0.2"/>
      <path id="Path_276" data-name="Path 276" d="M210.81,269.86v1.6a1.242,1.242,0,0,0,.7,1.012h0l53.7,30.992,3.768,2.179h0a3.724,3.724,0,0,0,1.763.416v-1.577a3.587,3.587,0,0,1-1.769-.422l-2.4-1.384h0L211.549,270.9a1.2,1.2,0,0,1-.739-1.043Z" transform="translate(-189.203 -156.263)" fill="#407bff"/>
      <path id="Path_277" data-name="Path 277" d="M210.81,269.86v1.6a1.242,1.242,0,0,0,.7,1.012h0l53.7,30.992,3.768,2.179h0a3.724,3.724,0,0,0,1.763.416v-1.577a3.587,3.587,0,0,1-1.769-.422l-2.4-1.384h0L211.549,270.9a1.2,1.2,0,0,1-.739-1.043Z" transform="translate(-189.203 -156.263)" opacity="0.2"/>
      <path id="Path_278" data-name="Path 278" d="M247.268,179.13l-5.7,10.155,8.305,4.42,6.046-9Z" transform="translate(-200.87 -121.851)" fill="#ffa8a7"/>
      <path id="Path_279" data-name="Path 279" d="M270.546,142.126c-3.166-.54-7.958-.683-11.074,4.662s-9.832,18.535-9.832,18.535,3.923,5.077,9.6,6l9.28-14.723Z" transform="translate(-203.93 -107.721)" fill="#407bff"/>
      <rect id="Rectangle_386" data-name="Rectangle 386" width="7.089" height="12.135" transform="translate(52.047 158.772)" fill="#ffa8a7"/>
      <path id="Path_280" data-name="Path 280" d="M233.662,330.033l-7.089.242-.354-12.843,7.082-.242Z" transform="translate(-195.048 -174.215)" fill="#ffa8a7"/>
      <path id="Path_281" data-name="Path 281" d="M253,355.924v-1.012c-.677.292-2.253,6.306-5.065,8.87-2.235,2.042-5.282,4.395-6.058,6.667-.807,2.365,4.246,3.675,6.331,3.3,2.427-.428,6.635-2.135,7.691-3.724s1.552-3.917,2.408-5.077,2.837-2.483,3.3-3.8a8.654,8.654,0,0,0-.4-3.724c-.329-1.241-.689-2.632-1.117-2.514v.77a5.6,5.6,0,0,1-3.544,1.2C255.508,356.923,252.994,356.718,253,355.924Z" transform="translate(-200.953 -188.517)" fill="#263238"/>
      <path id="Path_282" data-name="Path 282" d="M216.373,334.508c-.366,0-.664.534-1.477,1.409a15.419,15.419,0,0,1-4.171,3c-2.657,1.335-7.8,3.377-10.149,4.438-1.459.658-1.39,2.421.118,3.426s5.146,1.726,9.522.745c2.377-.534,5.481-2.731,7.449-2.613s5.636.093,7.082-.906.869-3.1.459-4.966c-.447-2-1.086-5.059-1.75-4.922v.621c-.85,1.291-5.189,1.819-7.064.869Z" transform="translate(-184.921 -180.633)" fill="#263238"/>
      <path id="Path_283" data-name="Path 283" d="M278.606,218.914c1.552,10.956-.54,13.035-10.949,23.55-5.586,5.642-14.618,13.917-14.618,13.917s.13,3.5.2,11.347c.068,6.909-2.818,29.391-2.818,29.391s-4.705,1.98-7.933-.074c0,0-1.459-16.728-2.247-25.449-1.068-11.794-1.626-17.74-1.024-20.279.534-2.241,11.129-15.623,13.575-19.373l-22.52,13.085a76.856,76.856,0,0,1,.658,10c-.248,9.379-1.4,28.112-1.4,28.112s-5.152,2.3-7.709.317c0,0-6.487-40.967-6.487-44.332,0-5.108,22.184-20.36,26.387-23.91,2.4-2.024,5.065-4.215,5.065-4.215Z" transform="translate(-190.917 -133.939)" fill="#455a64"/>
      <path id="Path_284" data-name="Path 284" d="M261.92,240.263a16.281,16.281,0,0,1-5.146-7.343,36.947,36.947,0,0,0,.8,5.586c.621,2.433-18.175,14.835-18.175,14.835Z" transform="translate(-200.046 -142.253)" fill="#37474f"/>
      <circle id="Ellipse_4" data-name="Ellipse 4" cx="10.062" cy="10.062" r="10.062" transform="matrix(0.228, -0.974, 0.974, 0.228, 52.5, 20.017)" fill="#263238"/>
      <path id="Path_285" data-name="Path 285" d="M295.353,148.375s2.483,2.036,2.483,8.467v13.885l-.354,23.351c-4.966,5.406-27.312,3.358-32.842-8.436,0,0,.043-24.649.043-30.173s3.1-12.694,11.545-13.19l10.937,2.545Z" transform="translate(-209.62 -107.875)" fill="#263238"/>
      <path id="Path_286" data-name="Path 286" d="M305.459,118.54s-1.632,7.66-2.284,8.92a3.445,3.445,0,0,1-2,1.614l.112-5.388Z" transform="translate(-223.475 -98.87)" fill="#263238"/>
      <path id="Path_287" data-name="Path 287" d="M304.139,100.846a3.768,3.768,0,0,1,3.1,1.1c1.341,1.372.59,5.667-1.08,9.876l-3.073.354Z" transform="translate(-224.203 -92.15)" fill="#263238"/>
      <path id="Path_288" data-name="Path 288" d="M288.267,109.281c.621.366,1.5-.813,2.253-1.608A2.68,2.68,0,0,1,295,108.4c1.235,2.588-1.092,6.164-3.042,6.778-3.364,1.055-3.873-1.1-3.873-1.1l-.255,12.135c-2.9,3.24-12.812,2.483-10.943-.323v-3.724a21.136,21.136,0,0,1-4.531.236c-2.483-.385-4.035-2.334-4.786-5.015-1.2-4.3-1.664-7.771-.621-16.232,1.124-9.274,11.905-9.367,17.728-5.7S288.267,109.281,288.267,109.281Z" transform="translate(-210.274 -89.257)" fill="#ffa8a7"/>
      <path id="Path_289" data-name="Path 289" d="M285.424,118.335H284.9a3.433,3.433,0,1,1,0-6.865h.528a3.433,3.433,0,0,1,0,6.865Zm-.521-6.288a2.855,2.855,0,1,0,0,5.711h.528a2.855,2.855,0,1,0,0-5.711Z" transform="translate(-216.003 -96.189)" fill="#263238"/>
      <path id="Path_290" data-name="Path 290" d="M268.58,118.335h-.528a3.433,3.433,0,0,1,0-6.865h.528a3.433,3.433,0,1,1,0,6.865Zm-.528-6.288a2.855,2.855,0,0,0,0,5.711h.528a2.855,2.855,0,1,0,0-5.711Z" transform="translate(-209.612 -96.189)" fill="#263238"/>
      <path id="Path_291" data-name="Path 291" d="M279.175,115a2.272,2.272,0,0,0-1.812-.925,1.862,1.862,0,0,0-1.583.621l-.459-.348a2.371,2.371,0,0,1,2.073-.826,2.818,2.818,0,0,1,2.278,1.2Z" transform="translate(-213.67 -96.961)" fill="#263238"/>
      <rect id="Rectangle_387" data-name="Rectangle 387" width="7.3" height="0.577" transform="translate(72.537 18.012)" fill="#263238"/>
      <path id="Path_292" data-name="Path 292" d="M287.628,107.912c.31,0,1.484-1.949,2.253-2.644,1.061-.968-.31-9.72-.31-9.72a4.135,4.135,0,0,0-1.024-4.426c-1.452-1.6-3.886-1.781-8.038-2.433-2.179-.341-5.481-.956-7.66-1.359-2.595-.484-4.748-.993-6.58.621A4.606,4.606,0,0,0,265,93.107,4.711,4.711,0,0,0,267.6,95.5s1.13,1.006,5.071,1.484a58.175,58.175,0,0,0,10.918-.2c1.142-.155,1.384.95,2,3.979C286.138,103.393,286.6,107.893,287.628,107.912Z" transform="translate(-209.635 -86.852)" fill="#263238"/>
      <path id="Path_293" data-name="Path 293" d="M304.629,100.059l3.724-2a2.055,2.055,0,0,0-2.818-.931A2.235,2.235,0,0,0,304.629,100.059Z" transform="translate(-224.699 -90.657)" fill="#263238"/>
      <path id="Path_294" data-name="Path 294" d="M283.316,136.99s5.524-1.111,7.449-2.135a6.368,6.368,0,0,0,2.669-2.644,8.69,8.69,0,0,1-1.515,3.1c-1.415,1.806-8.609,3.135-8.609,3.135Z" transform="translate(-216.701 -104.055)" fill="#f28f8f"/>
      <path id="Path_295" data-name="Path 295" d="M285.46,116.185a1.111,1.111,0,1,0,1.1-1.155A1.13,1.13,0,0,0,285.46,116.185Z" transform="translate(-217.516 -97.539)" fill="#263238"/>
      <path id="Path_296" data-name="Path 296" d="M288.32,109.068l2.371,1.3a1.428,1.428,0,0,0-.552-1.862,1.322,1.322,0,0,0-1.819.559Z" transform="translate(-218.601 -95.003)" fill="#263238"/>
      <path id="Path_297" data-name="Path 297" d="M282.586,129.2l-2.526.95a1.322,1.322,0,0,0,1.713.838A1.415,1.415,0,0,0,282.586,129.2Z" transform="translate(-215.468 -102.914)" fill="#f28f8f"/>
      <path id="Path_298" data-name="Path 298" d="M268.942,109.715l2.16-1.657a1.3,1.3,0,0,0-1.862-.292,1.428,1.428,0,0,0-.3,1.949Z" transform="translate(-211.154 -94.683)" fill="#263238"/>
      <path id="Path_299" data-name="Path 299" d="M270.63,115.675a1.111,1.111,0,1,0,1.1-1.155,1.13,1.13,0,0,0-1.1,1.155Z" transform="translate(-211.891 -97.346)" fill="#263238"/>
      <path id="Path_300" data-name="Path 300" d="M276.941,114.95l-.124,6.71-3.966-.875Z" transform="translate(-212.733 -97.509)" fill="#f28f8f"/>
      <path id="Path_301" data-name="Path 301" d="M236.452,199.844v.621a1.806,1.806,0,0,1-.906,1.564l-17.237,9.931a1.806,1.806,0,0,1-1.806,0L184.876,193.7a1.806,1.806,0,0,1-.906-1.564V191.7L217.4,211Z" transform="translate(-179.023 -126.619)" fill="#407bff"/>
      <path id="Path_302" data-name="Path 302" d="M236.452,199.844v.621a1.806,1.806,0,0,1-.906,1.564l-17.237,9.931a1.806,1.806,0,0,1-1.806,0L184.876,193.7a1.806,1.806,0,0,1-.906-1.564V191.7L217.4,211Z" transform="translate(-179.023 -126.619)" opacity="0.6"/>
      <path id="Path_303" data-name="Path 303" d="M184,185.007l18.752-10.825a1.08,1.08,0,0,1,1.08,0l32.526,18.783a.242.242,0,0,1,0,.416l-18.926,10.925Z" transform="translate(-179.034 -119.919)" fill="#407bff"/>
      <path id="Path_304" data-name="Path 304" d="M184,185.007l18.752-10.825a1.08,1.08,0,0,1,1.08,0l32.526,18.783a.242.242,0,0,1,0,.416l-18.926,10.925Z" transform="translate(-179.034 -119.919)" opacity="0.5"/>
      <path id="Path_305" data-name="Path 305" d="M220.007,206.244l10.111-5.835-29.571-17.07-10.167,5.8Z" transform="translate(-181.454 -123.448)" fill="#263238"/>
      <path id="Path_306" data-name="Path 306" d="M237.48,190.925l-.186.106-4.96,2.861-8.814-5.09-.18-.106,5.14-2.967Z" transform="translate(-193.955 -124.354)" fill="#263238"/>
      <path id="Path_307" data-name="Path 307" d="M237.4,191.16l-4.96,2.862-8.814-5.09,4.96-2.861Z" transform="translate(-194.065 -124.483)" fill="#263238"/>
      <path id="Path_308" data-name="Path 308" d="M217.4,211.008v1.2a1.8,1.8,0,0,1-.9-.242l-31.626-18.255a1.806,1.806,0,0,1-.906-1.564v-.441Z" transform="translate(-179.023 -126.623)" opacity="0.7"/>
      <path id="Path_309" data-name="Path 309" d="M213.864,197.416a2.123,2.123,0,0,1-1.862-.143L180.519,179.1a2.135,2.135,0,0,1-1.043-1.5l-3.445-20.558A2.194,2.194,0,0,1,176,156.7a2.154,2.154,0,0,1,.621-1.527l32.718,18.895a1.6,1.6,0,0,1,.8,1.111Z" transform="translate(-176 -112.764)" fill="#407bff"/>
      <path id="Path_310" data-name="Path 310" d="M213.864,197.416a2.123,2.123,0,0,1-1.862-.143L180.519,179.1a2.135,2.135,0,0,1-1.043-1.5l-3.445-20.558A2.194,2.194,0,0,1,176,156.7a2.154,2.154,0,0,1,.621-1.527l32.718,18.895a1.6,1.6,0,0,1,.8,1.111Z" transform="translate(-176 -112.764)" opacity="0.5"/>
      <path id="Path_311" data-name="Path 311" d="M214.781,196.948l-.211.124a2.167,2.167,0,0,1-.3.143l-3.724-22.24a1.6,1.6,0,0,0-.77-1.111L177.06,154.969a2.1,2.1,0,0,1,.435-.329l32.786,18.926a1.6,1.6,0,0,1,.77,1.111Z" transform="translate(-176.402 -112.563)" fill="#e0e0e0"/>
      <path id="Path_312" data-name="Path 312" d="M205.056,189.885a6.947,6.947,0,0,0-3.172-4.078c-1.521-.875-2.57-.478-2.334.9a6.983,6.983,0,0,0,3.172,4.084C204.242,191.672,205.291,191.263,205.056,189.885Z" transform="translate(-184.919 -124.207)" fill="#407bff"/>
      <path id="Path_313" data-name="Path 313" d="M211.014,207.511a11.093,11.093,0,0,0-.515-2.619c-.484-1.521-1.924-7.38-5.214-8.262a2.334,2.334,0,0,0-1.2-.037,2.455,2.455,0,0,0-1.508,2.048,14.319,14.319,0,0,0,0,3.786,7.412,7.412,0,0,0-1.757-1.471,3.594,3.594,0,0,0-2.017-.72.621.621,0,0,0-.528.248.611.611,0,0,0,.186.683c.329.4.732.732,1.061,1.13a11.6,11.6,0,0,1,.714,1.08c.416.67.881,1.3,1.347,1.943a13.594,13.594,0,0,0,3.315,3.426,12.5,12.5,0,0,0,4.966,1.98,15.132,15.132,0,0,0,6.251-.267Z" transform="translate(-184.429 -128.451)" fill="#ffa8a7"/>
      <path id="Path_314" data-name="Path 314" d="M289.416,152.281c-2.216-1.142-5.456,3.383-4.426,8.113s6.108,21.359,6.108,21.359-22.936,2.048-24.885,2.29c-1.359.161-2.88-.528-4.14-.943-1.713-.571-3.445-.968-5.133-1.589a2.179,2.179,0,0,0-.937-.2.739.739,0,0,0-.689.577.981.981,0,0,0,.143.552,7.244,7.244,0,0,0,2.365,2.756,10.55,10.55,0,0,1,1.39.981c.267.267.857,1.006.621,1.409l-9.112,5.245s2.1,1.825,9.7-.3a49.736,49.736,0,0,0,7.989-2.837s27.026,1.123,31.911-.354c1.726-.528,2.346-1.75,1.179-7.312-1.335-6.443-5.164-18.193-6.033-21.3C293.556,154.006,293.1,154.162,289.416,152.281Z" transform="translate(-204.34 -111.6)" fill="#ffa8a7"/>
      <path id="Path_315" data-name="Path 315" d="M308.606,150.84s3.662,1.03,5.239,3.1,7.66,22.129,7.66,22.129a14.276,14.276,0,0,1-11.583,3.1s-4.891-13.873-5.413-17.579C303.584,155.855,306.39,151.337,308.606,150.84Z" transform="translate(-224.673 -111.121)" fill="#407bff"/>
      <path id="Path_316" data-name="Path 316" d="M279.347,171.286c-.3-1.552.67-2.39,2.166-1.862a5.475,5.475,0,0,1,3.228,3.724C285.039,174.718,279.639,172.825,279.347,171.286Z" transform="translate(-215.177 -118.11)" fill="#407bff"/>
      <path id="Path_317" data-name="Path 317" d="M286.839,177.23l-4.4-2.8c.223,1.192-1.384,1.024-2.83.521s-3.215-1.521-3.445-2.713l-3.836-.05c-.354,0-.36.459,0,.838.95,1.061,3.159,2.942,7.8,4.562s6.424,1.117,7.095.621C287.441,178.025,287.242,177.485,286.839,177.23Z" transform="translate(-212.433 -119.219)" fill="#407bff"/>
    </g>
  </g>
</svg>
