<svg xmlns="http://www.w3.org/2000/svg" width="188.591" height="182.312" viewBox="0 0 188.591 182.312">
  <g id="Group_627" data-name="Group 627" transform="translate(-19.77 -32)">
    <g id="freepik--background-complete--inject-4" transform="translate(19.77 137.435)">
      <path id="Path_318" data-name="Path 318" d="M387.241,388.189a12.489,12.489,0,0,0-5.351-1.837,3.571,3.571,0,0,0-2.528.462.528.528,0,0,0-.262.462.556.556,0,0,0,.25.315,7.646,7.646,0,0,0,7.891.6" transform="translate(-232.107 -346.807)" fill="#e0e0e0"/>
      <path id="Path_319" data-name="Path 319" d="M390.44,378.426a26.263,26.263,0,0,1-3.453-3.039,8.7,8.7,0,0,1-2.164-4,1.636,1.636,0,0,1,.168-1.342,13.48,13.48,0,0,1,5.449,8.386" transform="translate(-235.446 -337.191)" fill="#e0e0e0"/>
      <path id="Path_320" data-name="Path 320" d="M398.673,378.9a12.5,12.5,0,0,1,.061-4.533,6.136,6.136,0,0,1,2.418-3.743,5.36,5.36,0,0,1-.065,3.555,17.267,17.267,0,0,1-2.385,5.044" transform="translate(-243.569 -337.534)" fill="#e0e0e0"/>
      <path id="Path_321" data-name="Path 321" d="M395.758,402.68a7.875,7.875,0,0,0-4.3,2.176A8.149,8.149,0,0,0,389,409.07a5.77,5.77,0,0,0,3.96-2.5c.986-1.276,1.673-2.667,2.761-3.853" transform="translate(-237.958 -356.479)" fill="#e0e0e0"/>
      <path id="Path_322" data-name="Path 322" d="M405.939,390.116a10.575,10.575,0,0,1,1.227-10.006,12.709,12.709,0,0,1-1.227,10.006" transform="translate(-247.534 -343.142)" fill="#e0e0e0"/>
      <path id="Path_323" data-name="Path 323" d="M404.949,414.978a7.633,7.633,0,0,0-7.31,4.209c-.09.18-.172.409-.049.573a.556.556,0,0,0,.483.143,6.357,6.357,0,0,0,3.772-1.947,35.936,35.936,0,0,1,3.138-2.982" transform="translate(-242.997 -363.737)" fill="#e0e0e0"/>
      <path id="Path_324" data-name="Path 324" d="M414.512,399.753a13.6,13.6,0,0,1-.139-7.609,3.638,3.638,0,0,1,1.636-2.454.25.25,0,0,1,.409.135,4.589,4.589,0,0,1,.385,2.184,13.492,13.492,0,0,1-.344,2.209,11.618,11.618,0,0,1-1.178,3.968,8.87,8.87,0,0,0-.47.871c-.139.295-.139.409-.27.634" transform="translate(-252.67 -348.766)" fill="#e0e0e0"/>
      <path id="Path_325" data-name="Path 325" d="M438.092,405.71a9.823,9.823,0,0,1,1.718-8.067c.127-.16.286-.331.491-.315.307.029.389.442.372.753a14.559,14.559,0,0,1-2.581,7.629" transform="translate(-266.812 -353.316)" fill="#e0e0e0"/>
      <path id="Path_326" data-name="Path 326" d="M440.55,415.214a11.724,11.724,0,0,0,9.63-1.959,7.814,7.814,0,0,0-5.212-.638,7.493,7.493,0,0,0-4.418,2.6" transform="translate(-268.42 -362.239)" fill="#e0e0e0"/>
      <path id="Path_327" data-name="Path 327" d="M442.3,407.612a11.123,11.123,0,0,1,8.734-5.052,5.385,5.385,0,0,1-2.863,3.158,15.8,15.8,0,0,1-4.193,1.227,2.965,2.965,0,0,0-1.685.667" transform="translate(-269.448 -356.408)" fill="#e0e0e0"/>
      <path id="Path_328" data-name="Path 328" d="M437.1,379.186a25.3,25.3,0,0,0,1.117-5.118A8.521,8.521,0,0,0,437.2,369a11.141,11.141,0,0,0-.147,10.354" transform="translate(-265.639 -336.577)" fill="#e0e0e0"/>
      <path id="Path_329" data-name="Path 329" d="M452.83,376.948a13.709,13.709,0,0,1,10.092-6.868,11.242,11.242,0,0,1-10.092,6.868" transform="translate(-275.677 -337.215)" fill="#e0e0e0"/>
      <path id="Path_330" data-name="Path 330" d="M449.78,387.737c2.949.45,5.461,2.332,8.218,3.473a3.682,3.682,0,0,0,1.857.356,1.456,1.456,0,0,0,.912-2.573,4.067,4.067,0,0,0-1.35-.818,15.024,15.024,0,0,0-9.384-.524" transform="translate(-273.874 -347.3)" fill="#e0e0e0"/>
      <path id="Path_331" data-name="Path 331" d="M445.61,393.439a3.462,3.462,0,0,1,1.428.986,15.374,15.374,0,0,0,6.23,3.2c.237.061.548.082.667-.131s-.029-.409-.16-.585a8.612,8.612,0,0,0-3.763-2.553,9.594,9.594,0,0,0-4.4-1.043" transform="translate(-271.41 -350.932)" fill="#e0e0e0"/>
      <path id="Path_332" data-name="Path 332" d="M440.91,362.68a11.79,11.79,0,0,0,9.04,3.076.626.626,0,0,0,.409-.147c.229-.25-.045-.63-.311-.818a10.42,10.42,0,0,0-9.139-2.09" transform="translate(-268.633 -332.666)" fill="#e0e0e0"/>
      <path id="Path_333" data-name="Path 333" d="M446.49,357.528a12.6,12.6,0,0,1,11.278-1.861,8.971,8.971,0,0,1-5.375,2.36,17.106,17.106,0,0,1-5.9-.5" transform="translate(-271.93 -328.349)" fill="#e0e0e0"/>
      <path id="Path_334" data-name="Path 334" d="M442.074,335.472c-.262-2.655-.094-4.749-.278-7.412,0-.213-.057-.47-.258-.548-.278-.106-.507.233-.6.52a8.492,8.492,0,0,0,1.133,7.363" transform="translate(-268.422 -312.048)" fill="#e0e0e0"/>
      <path id="Path_335" data-name="Path 335" d="M443.77,335.707a15.61,15.61,0,0,0,4.4-4.271,5.821,5.821,0,0,0,1.4-4.066,4.2,4.2,0,0,0-3.17,1.575,8.877,8.877,0,0,0-1.636,3.248c-.352,1.17-.6,2.369-1.01,3.514" transform="translate(-270.311 -311.977)" fill="#e0e0e0"/>
      <path id="Path_336" data-name="Path 336" d="M454.277,335.222a35.425,35.425,0,0,0,10.812-6.377,5.516,5.516,0,0,0-4.062.315,12.8,12.8,0,0,0-6.807,6.034" transform="translate(-276.498 -312.69)" fill="#e0e0e0"/>
      <path id="Path_337" data-name="Path 337" d="M446.77,346.782a22.036,22.036,0,0,0,6.005.029,25.328,25.328,0,0,0,5.6-1.861.679.679,0,0,0,.385-.29.442.442,0,0,0-.139-.479,1.175,1.175,0,0,0-.479-.225,10.371,10.371,0,0,0-6.058.364,28.228,28.228,0,0,0-5.318,2.454" transform="translate(-272.096 -321.599)" fill="#e0e0e0"/>
      <path id="Path_338" data-name="Path 338" d="M417.456,350.631a10.615,10.615,0,0,1-.094-8.791,6.778,6.778,0,0,1,.777,4.373c-.151,1.509-.609,3.056-.642,4.557" transform="translate(-254.182 -320.527)" fill="#e0e0e0"/>
      <path id="Path_339" data-name="Path 339" d="M392.44,356.619a12.272,12.272,0,0,0-9.11,3.882,8.517,8.517,0,0,0,4.987-.924,25.275,25.275,0,0,0,4.279-2.864" transform="translate(-234.607 -329.26)" fill="#e0e0e0"/>
      <path id="Path_340" data-name="Path 340" d="M384.274,353.4a12.689,12.689,0,0,0-4.864.151,5.854,5.854,0,0,0-3.71,3.142,8.775,8.775,0,0,0,4.561-.859,26.09,26.09,0,0,0,4.013-2.434" transform="translate(-230.098 -327.264)" fill="#e0e0e0"/>
      <path id="Path_341" data-name="Path 341" d="M395.812,350.082a15.31,15.31,0,0,0-4.778-2.385,5.2,5.2,0,0,0-4.974,1.207,9.4,9.4,0,0,0,4.758.925,17.153,17.153,0,0,1,5.183.524" transform="translate(-236.22 -323.889)" fill="#e0e0e0"/>
      <path id="Path_342" data-name="Path 342" d="M405.724,338.89a11.1,11.1,0,0,1-2.5-10.46,15.929,15.929,0,0,1,2.5,10.46" transform="translate(-246.124 -312.603)" fill="#e0e0e0"/>
      <path id="Path_343" data-name="Path 343" d="M427.12,324.641c.483-1.121.818-2.3,1.256-3.44a9.927,9.927,0,0,1,1.788-3.174,4.729,4.729,0,0,1,3.17-1.636,12.759,12.759,0,0,1-6.136,8.271" transform="translate(-260.484 -305.488)" fill="#e0e0e0"/>
      <path id="Path_344" data-name="Path 344" d="M414.439,333.676a16.318,16.318,0,0,0-2.806-3.412,4.7,4.7,0,0,0-3.813-1,8.889,8.889,0,0,0,6.619,4.414" transform="translate(-249.079 -313.038)" fill="#e0e0e0"/>
      <path id="Path_345" data-name="Path 345" d="M422.652,324.867a18.979,18.979,0,0,1-1.264-4.091,6.39,6.39,0,0,1,.642-4.156,9.442,9.442,0,0,1,.7,8.276" transform="translate(-257.034 -305.624)" fill="#e0e0e0"/>
      <path id="Path_346" data-name="Path 346" d="M427.15,308.509a8.966,8.966,0,0,1,5.809-5.457,2.135,2.135,0,0,1,1.019-.155.88.88,0,0,1,.749.626c.094.45-.274.851-.622,1.15a19.766,19.766,0,0,1-6.954,3.837" transform="translate(-260.501 -297.509)" fill="#e0e0e0"/>
      <path id="Path_347" data-name="Path 347" d="M427.161,298.588a18.888,18.888,0,0,1,.761-5.028,6.36,6.36,0,0,1,3.162-3.821,7.542,7.542,0,0,1-1.4,4.909,23.239,23.239,0,0,0-2.561,4.5" transform="translate(-260.484 -289.74)" fill="#e0e0e0"/>
      <path id="Path_348" data-name="Path 348" d="M420,300.895c-.659-1.914-.724-4.353-1.874-6.026-.818-1.166-2.09-1.964-2.782-3.2a4.864,4.864,0,0,0,.164,3.633,10.435,10.435,0,0,0,2.123,3.043c.851.908,1.579,1.591,2.369,2.549" transform="translate(-253.361 -290.88)" fill="#e0e0e0"/>
      <path id="Path_349" data-name="Path 349" d="M427.008,369.746c-.049,0-.094-12.8-.1-28.578s.033-28.578.086-28.578.094,12.792.1,28.578S427.061,369.746,427.008,369.746Z" transform="translate(-260.359 -303.243)" fill="#e0e0e0"/>
      <path id="Path_350" data-name="Path 350" d="M438.306,358.61a2.665,2.665,0,0,1-.483.18l-1.325.45c-1.117.38-2.647.929-4.312,1.612A16.458,16.458,0,0,0,428.1,362.9a2.941,2.941,0,0,0-.818,1.084c-.127.3-.151.487-.168.483s0-.049,0-.135a2.126,2.126,0,0,1,.094-.372,2.929,2.929,0,0,1,.818-1.158,7.069,7.069,0,0,1,1.775-1.1c.708-.331,1.493-.675,2.332-1.019,1.669-.683,3.211-1.227,4.34-1.567.564-.176,1.027-.307,1.346-.389a2.661,2.661,0,0,1,.491-.11Z" transform="translate(-260.473 -330.437)" fill="#e0e0e0"/>
      <path id="Path_351" data-name="Path 351" d="M443.246,336.6a1.849,1.849,0,0,1-.135.147l-.409.384-1.53,1.391-5.105,4.545c-1.988,1.771-3.71,3.465-4.909,4.741-.6.638-1.068,1.166-1.387,1.534l-.372.409c-.086.1-.131.143-.139.139a.926.926,0,0,1,.11-.164c.078-.1.192-.254.344-.446.307-.38.761-.925,1.35-1.575a64.129,64.129,0,0,1,4.876-4.79c2-1.767,3.817-3.359,5.138-4.5l1.575-1.346c.172-.147.315-.266.434-.36A.818.818,0,0,1,443.246,336.6Z" transform="translate(-261.748 -317.431)" fill="#e0e0e0"/>
      <path id="Path_352" data-name="Path 352" d="M440.633,350.422c-.053-.02.364-.982.777-2.2s.6-2.225.667-2.225a7.47,7.47,0,0,1-.491,2.291,13.739,13.739,0,0,1-.622,1.538A2.4,2.4,0,0,1,440.633,350.422Z" transform="translate(-268.466 -322.986)" fill="#e0e0e0"/>
      <path id="Path_353" data-name="Path 353" d="M416.443,362.265a2.652,2.652,0,0,1-.307-.356l-.785-1.01c-.663-.855-1.575-2.045-2.6-3.322s-1.964-2.454-2.647-3.273l-.818-1a2.339,2.339,0,0,1-.278-.376,2.454,2.454,0,0,1,.331.331c.2.221.5.548.851.957.708.818,1.665,1.959,2.688,3.252s1.923,2.483,2.557,3.358c.319.438.573.794.74,1.043a2.284,2.284,0,0,1,.266.393Z" transform="translate(-249.782 -327.081)" fill="#e0e0e0"/>
      <path id="Path_354" data-name="Path 354" d="M419.355,362.454a4.443,4.443,0,0,1-1.027-1.923,5.436,5.436,0,0,1-.233-1.939h.082c-.037.147-.065.225-.078.225a1.183,1.183,0,0,1,0-.237h.082a8.722,8.722,0,0,0,.327,1.886A13.908,13.908,0,0,0,419.355,362.454Z" transform="translate(-255.145 -330.419)" fill="#e0e0e0"/>
      <path id="Path_355" data-name="Path 355" d="M405.461,357.179a3.192,3.192,0,0,0-.716-.409,4.868,4.868,0,0,0-1.992-.16,12.753,12.753,0,0,0-2,.323,6.467,6.467,0,0,1-.818.2,2.8,2.8,0,0,1,.79-.323,9.192,9.192,0,0,1,2.045-.385,4.357,4.357,0,0,1,2.045.221A1.293,1.293,0,0,1,405.461,357.179Z" transform="translate(-244.417 -329.125)" fill="#e0e0e0"/>
      <path id="Path_356" data-name="Path 356" d="M400.371,354.3c0,.029-.409-.168-1.1-.409a11.045,11.045,0,0,0-5.539-.409c-.708.127-1.137.258-1.145.229a.939.939,0,0,1,.29-.123,6.043,6.043,0,0,1,.818-.233,9.752,9.752,0,0,1,5.608.409,7.531,7.531,0,0,1,.785.356C400.281,354.211,400.379,354.268,400.371,354.3Z" transform="translate(-240.079 -327.191)" fill="#e0e0e0"/>
      <path id="Path_357" data-name="Path 357" d="M425.04,337.9a22.325,22.325,0,0,1-.818-2.782,22.911,22.911,0,0,1-.622-2.827,22.33,22.33,0,0,1,.818,2.782,22.906,22.906,0,0,1,.622,2.827Z" transform="translate(-258.404 -314.884)" fill="#e0e0e0"/>
      <path id="Path_358" data-name="Path 358" d="M424.073,341.645a12.8,12.8,0,0,0-.888-1.665,7.565,7.565,0,0,0-1.3-1.35,1.268,1.268,0,0,1,.5.262,3.981,3.981,0,0,1,.953.982A3.681,3.681,0,0,1,424.073,341.645Z" transform="translate(-257.387 -318.63)" fill="#e0e0e0"/>
      <path id="Path_359" data-name="Path 359" d="M410.22,408.658s-.057-.311-.2-.851a12.276,12.276,0,0,0-.855-2.217,30.73,30.73,0,0,0-4.537-6.394c-1.014-1.154-2-2.246-2.831-3.293a23.419,23.419,0,0,1-2.025-2.917,13.521,13.521,0,0,1-1.019-2.168c-.094-.266-.164-.475-.2-.618a.917.917,0,0,1-.053-.221s.11.295.319.818a15.925,15.925,0,0,0,1.068,2.127,24.335,24.335,0,0,0,2.045,2.864c.839,1.035,1.824,2.119,2.839,3.273a29.1,29.1,0,0,1,4.5,6.455,11.29,11.29,0,0,1,.818,2.254c.057.278.1.495.115.642A.962.962,0,0,1,410.22,408.658Z" transform="translate(-243.572 -348.974)" fill="#e0e0e0"/>
      <path id="Path_360" data-name="Path 360" d="M437.278,407.737a4.833,4.833,0,0,1-.528.295,12.02,12.02,0,0,0-1.374.908,16.062,16.062,0,0,0-1.8,1.636c-.634.671-1.284,1.448-1.951,2.279-1.329,1.669-2.577,3.15-3.322,4.328a13.72,13.72,0,0,0-.818,1.424,4.739,4.739,0,0,1-.29.536.6.6,0,0,1,.049-.151c.041-.094.094-.237.18-.409a12.952,12.952,0,0,1,.785-1.46,48,48,0,0,1,3.273-4.373c.667-.818,1.325-1.612,1.972-2.279a14.569,14.569,0,0,1,1.849-1.636,9.2,9.2,0,0,1,1.419-.867q.2-.1.409-.184C437.225,407.745,437.278,407.729,437.278,407.737Z" transform="translate(-260.525 -359.466)" fill="#e0e0e0"/>
      <path id="Path_361" data-name="Path 361" d="M442.271,416.765a8.3,8.3,0,0,1-1.121.16,14.79,14.79,0,0,0-2.655.524,7.986,7.986,0,0,0-2.377,1.248,5.858,5.858,0,0,0-.818.753.912.912,0,0,1,.164-.258,4.254,4.254,0,0,1,.585-.6,7.224,7.224,0,0,1,2.4-1.334,11.961,11.961,0,0,1,2.7-.475,5.869,5.869,0,0,1,1.121-.02Z" transform="translate(-265.318 -364.792)" fill="#e0e0e0"/>
      <path id="Path_362" data-name="Path 362" d="M436.054,416.882c-.057-.033.45-.818.839-1.841s.454-1.964.52-1.951a1.739,1.739,0,0,1,0,.6,6.637,6.637,0,0,1-.327,1.411,6.956,6.956,0,0,1-.65,1.3C436.217,416.735,436.078,416.894,436.054,416.882Z" transform="translate(-265.76 -362.631)" fill="#e0e0e0"/>
      <path id="Path_363" data-name="Path 363" d="M440.556,383.44a.882.882,0,0,1-.18.094l-.524.237a6.9,6.9,0,0,0-.818.409c-.307.184-.683.331-1.068.56l-.614.348c-.209.123-.409.266-.642.409-.45.274-.9.609-1.383.953a23.986,23.986,0,0,0-5.318,5.51c-.323.491-.646.953-.9,1.415-.131.225-.27.442-.385.655l-.323.626c-.217.389-.372.765-.528,1.088s-.27.6-.36.818-.164.409-.221.536-.082.184-.09.18a1.036,1.036,0,0,1,.053-.192c.053-.147.115-.327.192-.548a8.589,8.589,0,0,1,.331-.855c.143-.327.295-.708.5-1.1l.319-.63c.11-.221.245-.438.376-.667.254-.466.573-.937.9-1.436a22.828,22.828,0,0,1,5.363-5.547c.487-.344.945-.679,1.4-.945.225-.139.438-.282.655-.409l.618-.34c.409-.225.765-.384,1.088-.54s.605-.274.843-.364l.54-.2A.6.6,0,0,1,440.556,383.44Z" transform="translate(-260.531 -345.11)" fill="#e0e0e0"/>
      <path id="Path_364" data-name="Path 364" d="M440.3,394.6a1.309,1.309,0,0,1,.442-.655,2.786,2.786,0,0,1,1.771-.679,4.86,4.86,0,0,1,1.865.364,2.807,2.807,0,0,1,.708.344,4.17,4.17,0,0,1-.749-.221,5.727,5.727,0,0,0-1.816-.3,2.863,2.863,0,0,0-1.689.6A5.542,5.542,0,0,0,440.3,394.6Z" transform="translate(-268.272 -350.919)" fill="#e0e0e0"/>
      <path id="Path_365" data-name="Path 365" d="M437.38,394.716a6.6,6.6,0,0,0,.5-1.636,6.467,6.467,0,0,0-.115-1.71,1.084,1.084,0,0,1,.209.479,3.358,3.358,0,0,1-.286,2.454C437.535,394.581,437.4,394.729,437.38,394.716Z" transform="translate(-266.547 -349.796)" fill="#e0e0e0"/>
      <path id="Path_366" data-name="Path 366" d="M405.55,440.12a42.315,42.315,0,0,0,4.013,14.89h9.859a42.8,42.8,0,0,0,3.776-14.89Z" transform="translate(-247.738 -378.603)" fill="#e0e0e0"/>
      <path id="Path_367" data-name="Path 367" d="M423.848,459.324c0,.053-3.248.094-7.249.094s-7.249-.041-7.249-.094,3.244-.094,7.249-.094S423.848,459.275,423.848,459.324Z" transform="translate(-249.983 -389.896)" fill="#fafafa"/>
      <path id="Path_368" data-name="Path 368" d="M424.619,463.66c0,.053-3.043.094-6.795.094s-6.795-.041-6.795-.094,3.039-.09,6.795-.09S424.619,463.611,424.619,463.66Z" transform="translate(-250.976 -392.461)" fill="#fafafa"/>
      <path id="Path_369" data-name="Path 369" d="M415.62,448a27.444,27.444,0,0,1,0,4.541A28.682,28.682,0,0,1,415.62,448Z" transform="translate(-253.635 -383.26)" fill="#fafafa"/>
      <path id="Path_370" data-name="Path 370" d="M428.53,448a29.4,29.4,0,0,1,0,4.7A30.73,30.73,0,0,1,428.53,448Z" transform="translate(-261.264 -383.26)" fill="#fafafa"/>
      <path id="Path_371" data-name="Path 371" d="M440.65,447.87a30.586,30.586,0,0,1,0,4.794,31.962,31.962,0,0,1,0-4.794Z" transform="translate(-268.426 -383.183)" fill="#fafafa"/>
      <path id="Path_372" data-name="Path 372" d="M423.371,447.864c0,.049-3.808.09-8.5.09s-8.5-.041-8.5-.09,3.8-.094,8.5-.094S423.371,447.8,423.371,447.864Z" transform="translate(-248.222 -383.124)" fill="#fafafa"/>
      <path id="Path_373" data-name="Path 373" d="M39.274,445.007a3.815,3.815,0,0,1-1.047-4.676,4.072,4.072,0,0,1,2.209-1.554,9.046,9.046,0,0,0,2.426-1.256c1.313-1.117,1.673-2.974,2.544-4.467a5.574,5.574,0,0,1,4.843-2.9c2.262.1,4.148,1.947,5,4.054a18.087,18.087,0,0,1,.9,6.713c0,1.26-.045,2.675-.97,3.522a4.5,4.5,0,0,1-3.273.757l-12.362-.384" transform="translate(-30.417 -372.711)" fill="#f5f5f5"/>
      <path id="Path_374" data-name="Path 374" d="M52.255,383.43H19.77l5.85,34.894a3.9,3.9,0,0,0,2.774,3.109l.115.033c.1.025.188.057.29.074a3.87,3.87,0,0,0,.659.074v.037l.16-.029H44.1a4.14,4.14,0,0,0,4.091-3.489l2.819-24.041.131-.957h0l1.117-9.519Zm-6.136,22.262H42.793l.335-10.129H46.99Zm1.19-10.129H50.5l-1.182,10.129H46.454Zm-9.527,21.354-.2-8.8h4.807l-.29,8.8Zm-5.183-8.8h4.668l.188,8.8H33.286Zm.356,8.8H29.048c-.368-2.377-.855-5.461-1.379-8.8h4.606ZM32.4,405.692l-.785-10.129h5.359l.233,10.129Zm5.122,0-.233-10.129H42.8l-.335,10.129Zm-.29-12.559-.188-9.376h6.136l-.311,9.376Zm-.323,0H31.437l-.728-9.376h6Zm-5.8,0h-5.8c-.2-1.293-.409-2.52-.577-3.624-.605-3.792-.818-5.216-.957-5.752h6.611Zm.188,2.43.785,10.129h-4.79c-.16-1.031-.323-2.07-.487-3.109-.376-2.389-.753-4.782-1.109-7.02Zm-4.332,10.129H23.828l-1.7-10.129h3.236C25.861,398.693,26.409,402.178,26.962,405.692Zm.385,2.426c.475,3.043.945,6.046,1.379,8.8H25.71l-1.473-8.8Zm15.074,8.8.29-8.8h3.207l-.753,8.8Zm.79-23.784.311-9.376h4.5l-.818,9.376Zm-19.742-9.376c.127.675.72,4.369,1.514,9.376H21.709l-1.559-9.376Zm24.544,33.16h-2.52l.749-8.8h2.794Zm2.79-23.784H47.53l.818-9.376h3.567Z" transform="translate(-19.77 -345.104)" fill="#e0e0e0"/>
    </g>
    <g id="freepik--Blackboard--inject-4" transform="translate(28.59 32)">
      <rect id="Rectangle_388" data-name="Rectangle 388" width="163.953" height="94.12" transform="translate(3.428 0.323)" fill="#263238"/>
      <path id="Path_375" data-name="Path 375" d="M213.554,126.75H49V32H213.554Zm-163.949-.618H212.932V32.63H49.605Z" transform="translate(-45.862 -32)" fill="#263238"/>
      <rect id="Rectangle_389" data-name="Rectangle 389" width="157.624" height="88.262" transform="translate(7.073 2.949)" fill="#455a64"/>
      <path id="Path_376" data-name="Path 376" d="M216.112,127.329H57.87V38.45H216.112Zm-157.624-.618H215.494V39.084H58.488Z" transform="translate(-51.104 -35.811)" fill="#263238"/>
      <rect id="Rectangle_390" data-name="Rectangle 390" width="170.101" height="4.23" transform="translate(0.311 90.209)" fill="#263238"/>
      <path id="Path_377" data-name="Path 377" d="M212.053,256.618H41.33V251.77H212.053ZM41.948,256H211.435v-3.612H41.948Z" transform="translate(-41.33 -161.868)" fill="#263238"/>
      <path id="Path_378" data-name="Path 378" d="M118.674,79.61c0,.09-5.478.164-12.227.164S94.22,79.7,94.22,79.61s5.473-.16,12.227-.16S118.674,79.524,118.674,79.61Z" transform="translate(-72.584 -60.039)" fill="#fff"/>
      <path id="Path_379" data-name="Path 379" d="M118.674,85.86c0,.09-5.478.16-12.227.16s-12.227-.07-12.227-.16,5.473-.16,12.227-.16S118.674,85.77,118.674,85.86Z" transform="translate(-72.584 -63.733)" fill="#fff"/>
      <path id="Path_380" data-name="Path 380" d="M102.271,68.5a26.575,26.575,0,0,1-4.091.16,26.575,26.575,0,0,1-4.091-.16,26.283,26.283,0,0,1,4.091-.164A25.689,25.689,0,0,1,102.271,68.5Z" transform="translate(-72.507 -53.474)" fill="#fff"/>
      <path id="Path_381" data-name="Path 381" d="M145.679,178.426c0,.057-12.919.106-28.844.106S88,178.484,88,178.426s12.914-.106,28.848-.106S145.679,178.365,145.679,178.426Z" transform="translate(-68.909 -118.464)" fill="#fff"/>
      <path id="Path_382" data-name="Path 382" d="M144.716,159.965c-.057,0-.106-12.272-.106-27.428s.049-27.437.106-27.437.106,12.272.106,27.437S144.77,159.965,144.716,159.965Z" transform="translate(-102.361 -75.197)" fill="#fff"/>
      <path id="Path_383" data-name="Path 383" d="M137.062,105.831a3.519,3.519,0,0,1-.258.761c-.209.487-.524,1.194-.957,2.09-.867,1.8-2.168,4.377-3.821,7.535s-3.649,6.909-5.944,11.045q-.859,1.546-1.788,3.15c-.315.532-.626,1.076-.961,1.616l-.511.818-.3.409-.151.209-.172.18a7.609,7.609,0,0,1-3.44,2.1,5.5,5.5,0,0,1-2.1.168,5.24,5.24,0,0,1-2.045-.687,11.323,11.323,0,0,1-2.994-2.831,34.208,34.208,0,0,1-2.287-3.215,50.447,50.447,0,0,1-3.448-6.586c-.957-2.164-1.767-4.254-2.516-6.214s-1.419-3.8-2.013-5.477c-1.19-3.363-2.045-6.136-2.606-8.038-.27-.961-.47-1.71-.593-2.221A3.755,3.755,0,0,1,98,99.83a3.441,3.441,0,0,1,.282.753c.164.507.409,1.227.712,2.18.622,1.89,1.546,4.618,2.786,7.956.622,1.673,1.317,3.493,2.086,5.441s1.6,4.025,2.561,6.165a51.082,51.082,0,0,0,3.436,6.492,34.173,34.173,0,0,0,2.254,3.15,10.771,10.771,0,0,0,2.823,2.679,4.627,4.627,0,0,0,3.641.458,6.954,6.954,0,0,0,3.158-1.919l.16-.168.131-.18.266-.36.5-.794c.327-.532.642-1.068.957-1.6q.933-1.6,1.8-3.134c2.319-4.091,4.353-7.821,6.058-10.951s3.064-5.67,3.993-7.433c.458-.875.818-1.559,1.064-2.045A4.261,4.261,0,0,1,137.062,105.831Z" transform="translate(-74.818 -72.083)" fill="#fff"/>
      <path id="Path_384" data-name="Path 384" d="M141.175,165.426a6.243,6.243,0,0,1-2.295,0A6.243,6.243,0,0,1,141.175,165.426Z" transform="translate(-98.975 -110.782)" fill="#fff"/>
      <path id="Path_385" data-name="Path 385" d="M141.175,151a6.243,6.243,0,0,1-2.295,0A6.243,6.243,0,0,1,141.175,151Z" transform="translate(-98.975 -102.255)" fill="#fff"/>
      <path id="Path_386" data-name="Path 386" d="M141.175,136.57a6.243,6.243,0,0,1-2.295,0,6.017,6.017,0,0,1,2.295,0Z" transform="translate(-98.975 -93.728)" fill="#fff"/>
      <path id="Path_387" data-name="Path 387" d="M141.175,122.127a6.243,6.243,0,0,1-2.295,0,6.242,6.242,0,0,1,2.295,0Z" transform="translate(-98.975 -85.187)" fill="#fff"/>
      <path id="Path_388" data-name="Path 388" d="M141.175,216.607a6.243,6.243,0,0,1-2.295,0,6.243,6.243,0,0,1,2.295,0Z" transform="translate(-98.975 -141.018)" fill="#fff"/>
      <path id="Path_389" data-name="Path 389" d="M141.175,202.177a6.242,6.242,0,0,1-2.295,0,6.242,6.242,0,0,1,2.295,0Z" transform="translate(-98.975 -132.491)" fill="#fff"/>
      <path id="Path_390" data-name="Path 390" d="M141.175,187.747a6.243,6.243,0,0,1-2.295,0,6.243,6.243,0,0,1,2.295,0Z" transform="translate(-98.975 -123.964)" fill="#fff"/>
      <path id="Path_391" data-name="Path 391" d="M134.626,179.85a6.243,6.243,0,0,1,0,2.295A6.243,6.243,0,0,1,134.626,179.85Z" transform="translate(-96.398 -119.368)" fill="#fff"/>
      <path id="Path_392" data-name="Path 392" d="M120.2,179.85a6.243,6.243,0,0,1,0,2.295A6.242,6.242,0,0,1,120.2,179.85Z" transform="translate(-87.871 -119.368)" fill="#fff"/>
      <path id="Path_393" data-name="Path 393" d="M105.766,179.85a6.242,6.242,0,0,1,0,2.295A6.243,6.243,0,0,1,105.766,179.85Z" transform="translate(-79.344 -119.368)" fill="#fff"/>
      <path id="Path_394" data-name="Path 394" d="M91.336,179.85a6.243,6.243,0,0,1,0,2.295A6.243,6.243,0,0,1,91.336,179.85Z" transform="translate(-70.817 -119.368)" fill="#fff"/>
      <path id="Path_395" data-name="Path 395" d="M200.246,179.85a6.243,6.243,0,0,1,0,2.295,6.243,6.243,0,0,1,0-2.295Z" transform="translate(-135.175 -119.368)" fill="#fff"/>
      <path id="Path_396" data-name="Path 396" d="M215.136,179.85a6.242,6.242,0,0,1,0,2.295A6.242,6.242,0,0,1,215.136,179.85Z" transform="translate(-143.974 -119.368)" fill="#fff"/>
      <path id="Path_397" data-name="Path 397" d="M185.846,179.85a6.243,6.243,0,0,1,0,2.295A6.241,6.241,0,0,1,185.846,179.85Z" transform="translate(-126.666 -119.368)" fill="#fff"/>
      <path id="Path_398" data-name="Path 398" d="M171.386,179.85a6.243,6.243,0,0,1,0,2.295A6.242,6.242,0,0,1,171.386,179.85Z" transform="translate(-118.121 -119.368)" fill="#fff"/>
      <path id="Path_399" data-name="Path 399" d="M156.956,179.85a6.242,6.242,0,0,1,0,2.295A6.243,6.243,0,0,1,156.956,179.85Z" transform="translate(-109.594 -119.368)" fill="#fff"/>
      <path id="Path_400" data-name="Path 400" d="M144.386,106.514a4.668,4.668,0,0,1-.581-.769c-.335-.491-.79-1.174-1.28-1.935h.18c-.43.794-.818,1.505-1.125,2.013a4.541,4.541,0,0,1-.52.818,3.927,3.927,0,0,1,.409-.875c.262-.528.642-1.252,1.072-2.045l.086-.16.094.151h0c.491.765.925,1.46,1.227,1.972A4.41,4.41,0,0,1,144.386,106.514Z" transform="translate(-100.263 -74.287)" fill="#fff"/>
      <path id="Path_401" data-name="Path 401" d="M224.146,177.856a4.361,4.361,0,0,1,.769-.585c.491-.335,1.174-.79,1.935-1.276h.02v.184c-.79-.434-1.5-.818-2.013-1.129a4.589,4.589,0,0,1-.818-.52,4.182,4.182,0,0,1,.875.389c.528.262,1.248.642,2.045,1.072l.16.086-.151.1h-.02c-.761.491-1.456.924-1.968,1.227A4.316,4.316,0,0,1,224.146,177.856Z" transform="translate(-149.298 -116.225)" fill="#fff"/>
      <path id="Path_402" data-name="Path 402" d="M368.328,120.8v-1.46c0-.949,0-2.328-.02-4.091,0-3.506-.025-8.5-.041-14.493l.082.082H348.3l.094-.094v20.045l-.082-.086,14.5.045h4.123l-4.074.106-14.551.045h-.082V100.67h20.225v.082c0,6.013-.033,11.045-.041,14.547v5.4A.721.721,0,0,1,368.328,120.8Z" transform="translate(-222.685 -72.579)" fill="#fff"/>
      <path id="Path_403" data-name="Path 403" d="M368.422,113.274s.049-.041.151-.11l.462-.295,1.771-1.117,6.525-4.062-.037.061c0-5.228,0-12.154-.02-19.734l.094.1h-.057l-19.742-.025h.033l-6.721,3.788L349.04,92.9l-.483.262-.168.086a1.6,1.6,0,0,1,.16-.1l.47-.282,1.82-1.055,6.692-3.845h.02L377.3,87.94h.151v19.869l-.033.02-6.545,4.009-1.812,1.08-.47.278Z" transform="translate(-222.78 -65.056)" fill="#fff"/>
      <path id="Path_404" data-name="Path 404" d="M406.306,88.127c.025.045-1.955,1.252-4.426,2.7s-4.5,2.573-4.52,2.528,1.955-1.252,4.426-2.7S406.278,88.074,406.306,88.127Z" transform="translate(-251.717 -65.166)" fill="#fff"/>
      <path id="Path_405" data-name="Path 405" d="M349.36,147.833c.029.049-.164.2-.409.356s-.5.237-.524.192.164-.2.43-.356S349.335,147.788,349.36,147.833Z" transform="translate(-222.8 -100.442)" fill="#fff"/>
      <path id="Path_406" data-name="Path 406" d="M353.986,145.172c.025.045-.164.2-.43.356s-.495.233-.52.188.164-.2.409-.356S353.961,145.127,353.986,145.172Z" transform="translate(-225.524 -98.869)" fill="#fff"/>
      <path id="Path_407" data-name="Path 407" d="M358.619,142.5c.025.045-.168.2-.43.356s-.495.237-.524.188.168-.2.43-.352S358.595,142.458,358.619,142.5Z" transform="translate(-228.26 -97.292)" fill="#fff"/>
      <path id="Path_408" data-name="Path 408" d="M363.3,139.833c.029.045-.164.2-.409.356s-.5.237-.524.192.164-.2.43-.356S363.275,139.788,363.3,139.833Z" transform="translate(-231.038 -95.714)" fill="#fff"/>
      <path id="Path_409" data-name="Path 409" d="M367.926,137.17c.025.045-.164.2-.43.352s-.495.237-.52.192.164-.2.409-.356S367.9,137.121,367.926,137.17Z" transform="translate(-233.762 -94.14)" fill="#fff"/>
      <path id="Path_410" data-name="Path 410" d="M370.332,132.49c.053,0,.09.245.09.548s-.049.548-.1.548-.094-.245-.094-.548S370.279,132.49,370.332,132.49Z" transform="translate(-235.686 -91.382)" fill="#fff"/>
      <path id="Path_411" data-name="Path 411" d="M370.378,127.13c.053,0,.094.25.09.552s-.045.544-.1.544-.094-.245-.09-.548S370.325,127.13,370.378,127.13Z" transform="translate(-235.715 -88.215)" fill="#fff"/>
      <path id="Path_412" data-name="Path 412" d="M370.418,121.78c.053,0,.094.245.09.548s-.045.548-.1.548-.094-.25-.09-.552S370.365,121.78,370.418,121.78Z" transform="translate(-235.738 -85.053)" fill="#fff"/>
      <path id="Path_413" data-name="Path 413" d="M370.458,116.42c.053,0,.094.245.09.548s-.045.548-.1.548-.094-.245-.09-.548S370.4,116.42,370.458,116.42Z" transform="translate(-235.762 -81.886)" fill="#fff"/>
      <path id="Path_414" data-name="Path 414" d="M370.5,111.06c.053,0,.094.245.094.548s-.049.548-.1.548-.09-.245-.09-.548S370.449,111.06,370.5,111.06Z" transform="translate(-235.786 -78.719)" fill="#fff"/>
      <path id="Path_415" data-name="Path 415" d="M370.542,105.7c.053,0,.09.25.09.552s-.049.544-.1.544-.094-.245-.094-.548S370.489,105.7,370.542,105.7Z" transform="translate(-235.81 -75.551)" fill="#fff"/>
      <path id="Path_416" data-name="Path 416" d="M370.588,100.35c.053,0,.094.245.09.548s-.045.548-.1.548-.094-.25-.09-.552S370.535,100.35,370.588,100.35Z" transform="translate(-235.839 -72.39)" fill="#fff"/>
      <path id="Path_417" data-name="Path 417" d="M370.628,95c.053,0,.094.245.09.548s-.045.548-.1.548-.094-.245-.09-.548S370.575,95,370.628,95Z" transform="translate(-235.863 -69.228)" fill="#fff"/>
      <path id="Path_418" data-name="Path 418" d="M370.668,89.63c.053,0,.094.245.094.548s-.049.548-.1.548-.094-.245-.09-.548S370.615,89.63,370.668,89.63Z" transform="translate(-235.886 -66.055)" fill="#fff"/>
      <path id="Path_419" data-name="Path 419" d="M416.55,136.234c0-.053.245-.094.548-.094s.548.041.548.094-.246.094-.548.094S416.55,136.287,416.55,136.234Z" transform="translate(-263.057 -93.539)" fill="#fff"/>
      <path id="Path_420" data-name="Path 420" d="M411.19,136.234c0-.053.245-.094.548-.094s.548.041.548.094-.245.094-.548.094S411.19,136.287,411.19,136.234Z" transform="translate(-259.89 -93.539)" fill="#fff"/>
      <path id="Path_421" data-name="Path 421" d="M405.84,136.234c0-.053.245-.094.548-.094s.544.041.544.094-.245.094-.544.094S405.84,136.287,405.84,136.234Z" transform="translate(-256.729 -93.539)" fill="#fff"/>
      <path id="Path_422" data-name="Path 422" d="M400.48,136.234c0-.053.245-.094.548-.094s.548.041.548.094-.245.094-.548.094S400.48,136.287,400.48,136.234Z" transform="translate(-253.561 -93.539)" fill="#fff"/>
      <path id="Path_423" data-name="Path 423" d="M395.12,136.234c0-.053.245-.094.548-.094s.548.041.548.094-.245.094-.548.094S395.12,136.287,395.12,136.234Z" transform="translate(-250.394 -93.539)" fill="#fff"/>
      <path id="Path_424" data-name="Path 424" d="M389.76,136.234c0-.053.245-.094.548-.094s.548.041.548.094-.245.094-.548.094S389.76,136.287,389.76,136.234Z" transform="translate(-247.226 -93.539)" fill="#fff"/>
      <path id="Path_425" data-name="Path 425" d="M384.41,136.234c0-.053.245-.094.544-.094s.548.041.548.094-.245.094-.548.094S384.41,136.287,384.41,136.234Z" transform="translate(-244.065 -93.539)" fill="#fff"/>
      <path id="Path_426" data-name="Path 426" d="M379.05,136.234c0-.053.245-.094.548-.094s.548.041.548.094-.245.094-.548.094S379.05,136.287,379.05,136.234Z" transform="translate(-240.898 -93.539)" fill="#fff"/>
      <path id="Path_427" data-name="Path 427" d="M373.69,136.234c0-.053.245-.094.548-.094s.548.041.548.094-.245.094-.548.094S373.69,136.287,373.69,136.234Z" transform="translate(-237.73 -93.539)" fill="#fff"/>
      <path id="Path_428" data-name="Path 428" d="M370.44,136.233a.106.106,0,0,1,.119-.094.094.094,0,0,1,0,.188.106.106,0,0,1-.119-.094Z" transform="translate(-235.81 -93.538)" fill="#fff"/>
      <path id="Path_429" data-name="Path 429" d="M424.325,112.059a2.544,2.544,0,0,0,.5-.025,1.542,1.542,0,0,0,1.039-.781,2.1,2.1,0,0,0-.057-1.906.589.589,0,0,0-.409-.315.679.679,0,0,0-.511.135,2.4,2.4,0,0,0-.634,1.064,4.944,4.944,0,0,0-.286,1.358h-.184c-.02-1.448-.033-2.716-.033-3.62V106.9a1.766,1.766,0,0,1,.029-.385,1.941,1.941,0,0,1,.037.385c0,.282.029.638.049,1.06.029.9.065,2.172.094,3.624h-.184a4.907,4.907,0,0,1,.29-1.415,4.417,4.417,0,0,1,.274-.618,1.53,1.53,0,0,1,.43-.528.863.863,0,0,1,.659-.168.765.765,0,0,1,.507.409,2.221,2.221,0,0,1,.025,2.045,1.6,1.6,0,0,1-1.145.79,1.137,1.137,0,0,1-.385,0,.368.368,0,0,1-.1-.045Z" transform="translate(-267.31 -76.036)" fill="#fff"/>
      <path id="Path_430" data-name="Path 430" d="M395.669,78.36s0,.025-.045.07a.712.712,0,0,1-.2.143.818.818,0,0,1-.385.082.74.74,0,0,1-.491-.2,1.468,1.468,0,0,1-.331-.56c-.082-.213-.164-.45-.233-.7a8.146,8.146,0,0,1-.278-1.73h.18a6.66,6.66,0,0,1-.065,2.283,2.1,2.1,0,0,1-.712,1.166.875.875,0,0,1-.667.147.818.818,0,0,1-.524-.409,2.25,2.25,0,0,1,1.084-3.048,1.957,1.957,0,0,1,.364-.127.487.487,0,0,1,.135,0,2.873,2.873,0,0,0-.466.209,2.242,2.242,0,0,0-.953.961,2.213,2.213,0,0,0-.237.9,1.87,1.87,0,0,0,.225,1.027.646.646,0,0,0,.409.315.716.716,0,0,0,.528-.127,1.918,1.918,0,0,0,.63-1.06,6.587,6.587,0,0,0,.07-2.221h.18a7.951,7.951,0,0,0,.245,1.694c.061.25.135.483.209.7a1.469,1.469,0,0,0,.282.528.72.72,0,0,0,.777.147A1.713,1.713,0,0,0,395.669,78.36Z" transform="translate(-248.365 -57.682)" fill="#fff"/>
    </g>
    <g id="freepik--Desk--inject-4" transform="translate(32.447 141.587)">
      <rect id="Rectangle_391" data-name="Rectangle 391" width="3.035" height="63.607" transform="translate(117.993 8.783)" fill="#263238"/>
      <rect id="Rectangle_392" data-name="Rectangle 392" width="3.035" height="63.607" transform="translate(73.895 8.783)" fill="#263238"/>
      <rect id="Rectangle_393" data-name="Rectangle 393" width="91.244" height="40.421" transform="translate(32.885 1.722)" fill="#455a64"/>
      <rect id="Rectangle_394" data-name="Rectangle 394" width="127.373" height="6.746" transform="translate(0.307)" fill="#455a64"/>
      <rect id="Rectangle_395" data-name="Rectangle 395" width="27.649" height="38.772" transform="translate(2.197 3.371)" fill="#455a64"/>
      <path id="Path_431" data-name="Path 431" d="M176.943,315.075c0,.086-28.251.155-63.087.155s-63.1-.07-63.1-.155,28.226-.155,63.1-.155S176.943,314.99,176.943,315.075Z" transform="translate(-50.76 -308.772)" fill="#263238"/>
      <rect id="Rectangle_396" data-name="Rectangle 396" width="3.035" height="66.09" transform="translate(29.846 6.304)" fill="#263238"/>
      <rect id="Rectangle_397" data-name="Rectangle 397" width="3.035" height="66.09" transform="translate(2.045 6.304)" fill="#263238"/>
    </g>
    <g id="freepik--Character--inject-4" transform="translate(90.77 42.374)">
      <path id="Path_432" data-name="Path 432" d="M278.7,431.469l1.833,9.818s-9.343,5.15-9.184,7l19.124-2.864L288.246,430Z" transform="translate(-239.433 -277.562)" fill="#407bff"/>
      <g id="Group_539" data-name="Group 539" transform="translate(31.912 152.438)" opacity="0.3">
        <path id="Path_433" data-name="Path 433" d="M278.7,431.469l1.833,9.818s-9.343,5.15-9.184,7l19.124-2.864L288.246,430Z" transform="translate(-271.345 -430)"/>
      </g>
      <path id="Path_434" data-name="Path 434" d="M306.768,453.35a.79.79,0,0,1,.675.818.765.765,0,0,1-.818.675.818.818,0,0,1-.708-.863.781.781,0,0,1,.9-.61" transform="translate(-259.861 -291.36)" fill="#e0e0e0"/>
      <path id="Path_435" data-name="Path 435" d="M290.434,465.4l-.282-1.542-18.232,3.33s-.794.5-.61,1.084Z" transform="translate(-239.396 -297.571)" fill="#263238"/>
      <path id="Path_436" data-name="Path 436" d="M293,457.2c0,.094.487.065.994.3s.818.585.888.536-.139-.569-.757-.839S292.965,457.122,293,457.2Z" transform="translate(-252.227 -293.553)" fill="#263238"/>
      <path id="Path_437" data-name="Path 437" d="M288.41,460.107c0,.094.409.192.794.54s.532.749.626.732.07-.556-.409-.978S288.4,460.034,288.41,460.107Z" transform="translate(-249.516 -295.323)" fill="#263238"/>
      <path id="Path_438" data-name="Path 438" d="M285.072,464.283c.09,0,.147-.479-.168-.953s-.785-.614-.818-.532.282.319.536.712S284.978,464.287,285.072,464.283Z" transform="translate(-246.961 -296.93)" fill="#263238"/>
      <path id="Path_439" data-name="Path 439" d="M292.582,451.13c.053.082.462-.115.994-.155s.97.061,1.006-.029-.409-.36-1.035-.3S292.525,451.064,292.582,451.13Z" transform="translate(-251.979 -289.758)" fill="#263238"/>
      <path id="Path_440" data-name="Path 440" d="M290.071,439.32l.176,9.965s-10.071,3.526-10.227,5.371l19.337.352.36-15.545Z" transform="translate(-244.559 -283.07)" fill="#407bff"/>
      <path id="Path_441" data-name="Path 441" d="M318.3,461.869a.79.79,0,0,1,.532.908.765.765,0,0,1-.9.536.818.818,0,0,1-.556-.969.79.79,0,0,1,1-.45" transform="translate(-266.622 -296.382)" fill="#e0e0e0"/>
      <path id="Path_442" data-name="Path 442" d="M299.368,475.407l-.025-1.567-18.531.245s-.867.36-.781.97Z" transform="translate(-244.562 -303.468)" fill="#263238"/>
      <path id="Path_443" data-name="Path 443" d="M304.259,463.3c0,.094.47.147.929.458s.7.716.79.679-.045-.585-.605-.953S304.239,463.219,304.259,463.3Z" transform="translate(-258.882 -297.196)" fill="#263238"/>
      <path id="Path_444" data-name="Path 444" d="M299.259,465.327c-.02.094.384.262.7.667s.409.818.495.818.164-.536-.237-1.031S299.263,465.237,299.259,465.327Z" transform="translate(-255.927 -298.416)" fill="#263238"/>
      <path id="Path_445" data-name="Path 445" d="M295.306,468.892c.086.025.225-.446,0-.965s-.671-.736-.712-.659.225.36.409.79S295.212,468.884,295.306,468.892Z" transform="translate(-253.169 -299.576)" fill="#263238"/>
      <path id="Path_446" data-name="Path 446" d="M304.766,457.37c.041.086.475-.037,1.006,0s.949.221,1,.139-.344-.409-.97-.47S304.721,457.3,304.766,457.37Z" transform="translate(-259.18 -293.535)" fill="#263238"/>
      <path id="Path_447" data-name="Path 447" d="M302.811,250.17l-.258,9.859-2.913,30.607s.929,14.911,1.518,23.317c.511,7.326-.965,20.008-.965,20.008l-12.3-.323-3.3-42.466-2.045-26.483-4.046-13.5Z" transform="translate(-243.661 -171.296)" fill="#263238"/>
      <path id="Path_448" data-name="Path 448" d="M262.422,252.926l-.736,40.547a16.8,16.8,0,0,0,.982,5.993l10.575,29.453.52,1.943,7.4-1.6L276.04,251.92l-13.643.56Z" transform="translate(-233.723 -172.33)" fill="#263238"/>
      <path id="Path_449" data-name="Path 449" d="M288.793,272.94a.992.992,0,0,0,0,.192v2.733c0,1.882.053,4.606.143,7.969.2,6.729.646,16.023,1.46,26.254s1.73,19.484,2.418,26.181c.348,3.334.63,6.034.818,7.92.1.92.18,1.636.233,2.152.029.233.053.409.07.556a1.177,1.177,0,0,0,.029.188.847.847,0,0,0,0-.192c0-.135-.025-.323-.041-.56-.049-.507-.11-1.227-.2-2.156-.18-1.886-.438-4.59-.757-7.928-.642-6.692-1.55-15.954-2.348-26.181s-1.289-19.513-1.526-26.238c-.11-3.363-.192-6.087-.217-7.969-.02-.929-.037-1.657-.049-2.168a4.4,4.4,0,0,0-.02-.56A1.159,1.159,0,0,0,288.793,272.94Z" transform="translate(-249.74 -184.751)" fill="#455a64"/>
      <path id="Path_450" data-name="Path 450" d="M287.22,259.293a.634.634,0,1,0,.65-.614A.634.634,0,0,0,287.22,259.293Z" transform="translate(-248.813 -176.324)" fill="#455a64"/>
      <path id="Path_451" data-name="Path 451" d="M262.818,261.486a4.031,4.031,0,0,0,.888-.789,9.844,9.844,0,0,0,1.612-2.381,9.731,9.731,0,0,0,.847-2.749,3.889,3.889,0,0,0,.057-1.186c-.037,0-.074.45-.217,1.158a11.832,11.832,0,0,1-.9,2.679,11.644,11.644,0,0,1-1.526,2.373C263.12,261.146,262.789,261.457,262.818,261.486Z" transform="translate(-234.392 -173.784)" fill="#455a64"/>
      <path id="Path_452" data-name="Path 452" d="M315.046,256.35a1.523,1.523,0,0,0,.041.454,6.831,6.831,0,0,0,.315,1.2,7.85,7.85,0,0,0,6,5.081,7.023,7.023,0,0,0,1.227.119,1.669,1.669,0,0,0,.454-.037c0-.045-.646-.02-1.657-.241a8.132,8.132,0,0,1-5.878-4.983C315.173,256.984,315.087,256.342,315.046,256.35Z" transform="translate(-265.255 -174.948)" fill="#455a64"/>
      <path id="Path_453" data-name="Path 453" d="M262.971,253.29c.057,0,.041,3.894-.037,8.7s-.188,8.693-.245,8.693-.045-3.894.033-8.7S262.909,253.286,262.971,253.29Z" transform="translate(-234.296 -173.14)" fill="#455a64"/>
      <path id="Path_454" data-name="Path 454" d="M337.145,258.639a10,10,0,0,1,.029-1.35c.041-.818.09-1.988.119-3.273s.029-2.422.029-3.273a9.117,9.117,0,0,1,.033-1.354,8.516,8.516,0,0,1,.119,1.35c.037.818.061,1.992.033,3.273s-.1,2.43-.18,3.273A7.191,7.191,0,0,1,337.145,258.639Z" transform="translate(-278.309 -170.835)" fill="#455a64"/>
      <path id="Path_455" data-name="Path 455" d="M194.424,116.517l-.818-1.076s-.409-.88-.225-1.276.818-.164.818-.164l3.2,3.6-1.117.92-1.73-1.882" transform="translate(-193.334 -90.79)" fill="#fff"/>
      <path id="Path_456" data-name="Path 456" d="M213.926,130.968l-6.459-5.257s-.376-.982-.99-1.227a2.4,2.4,0,0,1-1.227-1.755l-.99-3.42a7.484,7.484,0,0,0-1.227-2.5l-.88-.164s-.29-1.469-.961-1.636a16.7,16.7,0,0,0-2.745-.09l-1.988.965a1.718,1.718,0,0,0,1.379.847,8.848,8.848,0,0,0,1.784-.229l.524,1.6a4.836,4.836,0,0,1-.049,1.677,1.636,1.636,0,0,1-.483.7,23.627,23.627,0,0,1-1.407-2.045c-.409-.745-1.559-1.669-2-1.227s.458,1.334.581,2.16l.139,1.064s.757,1.313.818,1.542a5.922,5.922,0,0,0,1.174,2.115l2.553,2.189,2.409,2.864c.72.839,7.449,8.349,7.449,8.349l3.358-4.786Z" transform="translate(-194.959 -91.365)" fill="#ffbe9d"/>
      <path id="Path_457" data-name="Path 457" d="M217.584,137.13a19.189,19.189,0,0,0,1.988,1.935,65.925,65.925,0,0,1,5.907,4.995c1.072,1.293,5.428,3.624,5.428,3.624l4.173-8.382,6.443-4.111c1.44-1.444,5.531,1.227,5.531,1.227l-11.965,28.026-8.844-3.305L214.684,144.6l-1.874-4.5Z" transform="translate(-204.843 -103.099)" fill="#e0e0e0"/>
      <path id="Path_458" data-name="Path 458" d="M281.317,117.27l1.7,2.409s10.8,5.449,11.258,6.181-2.839,26.512-2.839,26.512l1.321,15.663-1.575,4.213-30.619,1.718a3.582,3.582,0,0,1-1.739-3c-.065-1.366,1.027-2.782,1.019-3.682-.074-6.349.609-20.928,1.636-26.308a75.481,75.481,0,0,1,4.5-14.195l2.745-1.923.548-3.06Z" transform="translate(-232.033 -92.762)" fill="#e0e0e0"/>
      <g id="Group_540" data-name="Group 540" transform="translate(34.369 64.195)" opacity="0.3">
        <path id="Path_459" data-name="Path 459" d="M303,221.651a3.273,3.273,0,0,0-1.46-.479c-5.69-.99-10.407-5.048-15.991-6.545a7.1,7.1,0,0,0-3.543-.209,5.934,5.934,0,0,0-3.886,4,19.353,19.353,0,0,0-.769,5.907,5.4,5.4,0,0,0,3.907-2.863,3.924,3.924,0,0,1,1.027-1.6,2.643,2.643,0,0,1,1.874-.221l4.328.528a16.824,16.824,0,0,1,3.191.6c1.117.364,2.139.957,3.219,1.424a14.886,14.886,0,0,0,7.494,1.125,1.321,1.321,0,0,0,.859-.319A.965.965,0,0,0,303,221.651Z" transform="translate(-277.35 -214.285)"/>
      </g>
      <g id="Group_541" data-name="Group 541" transform="translate(37.273 31.99)" opacity="0.3">
        <path id="Path_460" data-name="Path 460" d="M286.22,139.622a21.042,21.042,0,0,0-.777,5.118c-.409,5.776-.577,11.065-.974,16.842.074-.16-.074.164,0,0l1.919-.25a110.125,110.125,0,0,1,2.888-25.772A7.141,7.141,0,0,0,286.22,139.622Z" transform="translate(-284.448 -135.56)"/>
      </g>
      <path id="Path_461" data-name="Path 461" d="M276.643,143.8s-2.958,6.369-3.825,9.065-1.464,13.09-1.464,13.09L270.81,179.3l2.675,3.367,2.594-2.229,3.142-36.338Z" transform="translate(-239.116 -108.439)" fill="#407bff"/>
      <path id="Path_462" data-name="Path 462" d="M283.683,180.959c-.057,0,.409-8.132,1.072-18.159s1.227-18.151,1.285-18.151-.409,8.136-1.072,18.163S283.74,180.964,283.683,180.959Z" transform="translate(-246.721 -108.941)" fill="#263238"/>
      <path id="Path_463" data-name="Path 463" d="M329.245,138.27a9.3,9.3,0,0,1,3.98,5.653c1.051,4.046,4.524,19.811,4.852,22.233s-.245,5.727-1.3,6.631-7.437,4.958-10.268,4.958S318,175.9,318,175.9l1.227-6.345,4.782-1.125,3.718-3.641-4.205-9.225S325.187,139.084,329.245,138.27Z" transform="translate(-267.002 -105.171)" fill="#e0e0e0"/>
      <path id="Path_464" data-name="Path 464" d="M348.7,203.7c-.029.025-.282-.335-.818-.794a5.821,5.821,0,0,0-2.381-1.227,5.011,5.011,0,0,0-2.667.086c-.667.2-1.055.409-1.072.372s.082-.078.254-.176a5.385,5.385,0,0,1,.773-.34,4.811,4.811,0,0,1,2.765-.151,5.416,5.416,0,0,1,2.43,1.338,4.571,4.571,0,0,1,.556.634C348.654,203.6,348.708,203.7,348.7,203.7Z" transform="translate(-281.04 -142.441)" fill="#263238"/>
      <path id="Path_465" data-name="Path 465" d="M331.617,221.037c-.033-.025.3-.409.675-1.1a6.431,6.431,0,0,0,.045-5.952c-.36-.708-.691-1.088-.659-1.109s.1.074.245.245a5.46,5.46,0,0,1,.544.794,6.136,6.136,0,0,1-.045,6.1,4.936,4.936,0,0,1-.556.781C331.719,220.963,331.625,221.045,331.617,221.037Z" transform="translate(-275.048 -149.256)" fill="#263238"/>
      <path id="Path_466" data-name="Path 466" d="M285.539,131.568l-2.389,3.109.732,1.914,2.557.3,2.262-3.6-2.189-1.914Z" transform="translate(-246.408 -101.1)" fill="#407bff"/>
      <path id="Path_467" data-name="Path 467" d="M347.368,195.393c0,.041-.385,0-.99.041a5.13,5.13,0,0,0-1.039.2,6.219,6.219,0,0,0-1.186.511,6.5,6.5,0,0,0-1.775,1.538,9.183,9.183,0,0,1-.6.785,2.818,2.818,0,0,1,.479-.88,5.772,5.772,0,0,1,1.788-1.636,5.509,5.509,0,0,1,1.227-.515,4.753,4.753,0,0,1,1.084-.16,3.342,3.342,0,0,1,.736.045A.778.778,0,0,1,347.368,195.393Z" transform="translate(-281.054 -138.854)" fill="#263238"/>
      <path id="Path_468" data-name="Path 468" d="M336.52,139.61c0,.037-.384.176-.965.515a6.9,6.9,0,0,0-3.113,4.058c-.18.65-.209,1.072-.25,1.068a.9.9,0,0,1,0-.3,4.089,4.089,0,0,1,.11-.818,6.3,6.3,0,0,1,3.187-4.152,4.36,4.36,0,0,1,.749-.319A.945.945,0,0,1,336.52,139.61Z" transform="translate(-275.381 -105.963)" fill="#263238"/>
      <path id="Path_469" data-name="Path 469" d="M301,124.3a3.933,3.933,0,0,1-.348.54l-1.019,1.424c-.863,1.2-2.07,2.864-3.416,4.651l-.438.589-.065.09-.09-.074c-1.6-1.329-3.023-2.524-4.042-3.391l-1.174-1.027a3.078,3.078,0,0,1-.409-.409,2.93,2.93,0,0,1,.466.335l1.227.978c1.039.839,2.479,2.013,4.091,3.342h-.155l.438-.589c1.346-1.808,2.573-3.44,3.469-4.614l1.072-1.383A3.679,3.679,0,0,1,301,124.3Z" transform="translate(-250.456 -96.916)" fill="#263238"/>
      <path id="Path_470" data-name="Path 470" d="M326.23,168.86a1.4,1.4,0,0,1,.106.184l.266.536.941,1.992c.79,1.685,1.861,4.021,3.035,6.607.765,1.7,1.485,3.273,2.094,4.643l.029.057-.045.045c-1.068,1.141-2.045,1.992-2.7,2.622l-.757.732a1.8,1.8,0,0,1-.278.254,2.364,2.364,0,0,1,.233-.29c.164-.184.409-.446.724-.773.63-.655,1.6-1.526,2.643-2.671v.1l-2.119-4.631c-1.174-2.585-2.229-4.933-2.978-6.635l-.88-2.021-.229-.552A.7.7,0,0,1,326.23,168.86Z" transform="translate(-271.866 -123.248)" fill="#263238"/>
      <path id="Path_471" data-name="Path 471" d="M336.8,218.374a.993.993,0,0,1-.168.213,1.513,1.513,0,0,1-.229.237c-.1.086-.2.2-.34.295a18.87,18.87,0,0,1-2.4,1.571c-1.051.6-2.328,1.268-3.768,1.964a9.6,9.6,0,0,1-5.068,1.072,6.762,6.762,0,0,1-2.123-.495h.02l-5.064-1.387-.082-.02v-.082c.352-1.739.646-3.191.859-4.234.106-.491.188-.884.254-1.178a2.949,2.949,0,0,1,.106-.409,2.455,2.455,0,0,1-.053.409c-.053.3-.123.7-.2,1.19-.2,1.047-.466,2.5-.785,4.246l-.065-.1,5.073,1.358h0a6.544,6.544,0,0,0,2.045.475,9.523,9.523,0,0,0,5-1c1.444-.683,2.724-1.338,3.78-1.923a21.371,21.371,0,0,0,2.422-1.5,8.992,8.992,0,0,0,.79-.7Z" transform="translate(-266.754 -151.057)" fill="#263238"/>
      <path id="Path_472" data-name="Path 472" d="M265.992,152.48a.564.564,0,0,1-.025.192c-.029.147-.065.323-.106.532-.106.5-.245,1.162-.409,1.964-.344,1.636-.818,3.948-1.182,6.5s-.626,4.88-.753,6.566c-.065.843-.115,1.526-.139,2a5.34,5.34,0,0,1-.041.544.662.662,0,0,1-.029.192.583.583,0,0,1,0-.192v-.544c0-.475.025-1.162.074-2.009.09-1.689.3-4.025.691-6.586s.843-4.852,1.223-6.488c.192-.818.36-1.489.483-1.947l.147-.528a.7.7,0,0,1,.065-.192Z" transform="translate(-234.679 -113.568)" fill="#263238"/>
      <path id="Path_473" data-name="Path 473" d="M285.012,130.18a6.406,6.406,0,0,1-.605.974c-.409.589-.953,1.391-1.579,2.27l-.97,1.338-.258.352.086-.409c.127-.659.241-1.227.327-1.6a2.455,2.455,0,0,1,.168-.605,2.311,2.311,0,0,1-.053.626c-.053.409-.143.953-.254,1.612l-.172-.074c.29-.409.614-.867.949-1.35.63-.875,1.207-1.665,1.636-2.229A5.947,5.947,0,0,1,285.012,130.18Z" transform="translate(-245.493 -100.391)" fill="#263238"/>
      <path id="Path_474" data-name="Path 474" d="M288.136,133.41c.029.045-.9.753-1.878,1.8a12.26,12.26,0,0,1-1.9,1.8,3.17,3.17,0,0,1,.487-.593c.319-.348.753-.818,1.256-1.358a11.864,11.864,0,0,1,1.379-1.248,2.234,2.234,0,0,1,.655-.409Z" transform="translate(-247.123 -102.299)" fill="#263238"/>
      <path id="Path_475" data-name="Path 475" d="M254.325,173.4a4.593,4.593,0,0,1-.065-1.068,18.82,18.82,0,0,1,.192-2.577,19.026,19.026,0,0,1,.536-2.524,4.177,4.177,0,0,1,.364-1.01,7.456,7.456,0,0,1-.217,1.047c-.147.638-.331,1.526-.475,2.52s-.213,1.894-.25,2.549A6.136,6.136,0,0,1,254.325,173.4Z" transform="translate(-229.332 -121.688)" fill="#263238"/>
      <path id="Path_476" data-name="Path 476" d="M256.773,171.928a13.187,13.187,0,0,1-.135-2.8,12.982,12.982,0,0,1,.25-2.79,27.718,27.718,0,0,1-.037,2.794A25.789,25.789,0,0,1,256.773,171.928Z" transform="translate(-230.728 -121.758)" fill="#263238"/>
      <path id="Path_477" data-name="Path 477" d="M223.085,146.73a6.251,6.251,0,0,1-.794.773c-.565.507-1.227,1.113-1.984,1.788s-1.5,1.3-2.045,1.739a5.08,5.08,0,0,1-.892.659,6.227,6.227,0,0,1,.794-.773l1.984-1.784c.781-.7,1.5-1.309,2.045-1.743a5.478,5.478,0,0,1,.892-.659Z" transform="translate(-207.537 -110.17)" fill="#263238"/>
      <path id="Path_478" data-name="Path 478" d="M253.794,193.054c-.241.143-2.009,1.133-2.094,2.045h0l17.95,3.146,16.911-5.752-3.4-2.864s-14.424,1.2-14.178,5.228c0,0-.573-1.293-3.207-1.82S253.794,193.054,253.794,193.054Z" transform="translate(-227.824 -135.521)" fill="#fff"/>
      <path id="Path_479" data-name="Path 479" d="M250.85,198.594l.041.245,2.626,6.365h21.939l8.856-2.9,2.319-6.7-15.676,3.06s-.409,1.955-2.193,2.045c-1.538.09-1.947-1.82-1.947-1.82Z" transform="translate(-227.322 -139.049)" fill="#407bff"/>
      <path id="Path_480" data-name="Path 480" d="M250.85,198.394h1.092l3.187.041,11.663.176h.074v.065a2.937,2.937,0,0,0,.63,1.227,1.518,1.518,0,0,0,1.276.511,2.045,2.045,0,0,0,1.325-.622,3.027,3.027,0,0,0,.732-1.362v-.061h.057l15.708-3.076.18-.033-.057.172c-.389,1.117-.8,2.3-1.227,3.5-.376,1.08-.745,2.148-1.113,3.2v.053h-.049l-8.856,2.9h0l-21.955-.045h-.041V205c-1.53-3.747-2.454-6.009-2.573-6.382h0c-.033-.229-.033-.25-.033-.25a2.074,2.074,0,0,0,.049.245h0c.172.356,1.117,2.606,2.675,6.341l-.053-.037,21.955-.041h-.041l8.852-2.909-.065.065c.364-1.055.736-2.123,1.109-3.2l1.227-3.5.119.139-15.741,3.08.074-.074a3.191,3.191,0,0,1-.785,1.452,2.23,2.23,0,0,1-1.444.671,1.636,1.636,0,0,1-.785-.119,1.8,1.8,0,0,1-.634-.454,3.1,3.1,0,0,1-.663-1.313l.082.065-11.605-.27-3.207-.082-.843-.025Z" transform="translate(-227.322 -138.848)" fill="#263238"/>
      <path id="Path_481" data-name="Path 481" d="M290.03,208.094a11,11,0,0,1-.47-2.409,11.114,11.114,0,0,1-.135-2.454,19.408,19.408,0,0,1,.348,2.426A19.906,19.906,0,0,1,290.03,208.094Z" transform="translate(-250.106 -143.558)" fill="#263238"/>
      <path id="Path_482" data-name="Path 482" d="M300.019,208.169c-.061,0-.061-1.1-.123-2.454a24.3,24.3,0,0,1-.09-2.454A15.542,15.542,0,0,1,300.019,208.169Z" transform="translate(-256.25 -143.576)" fill="#263238"/>
      <g id="Group_542" data-name="Group 542" transform="translate(36.013 61.739)" opacity="0.3">
        <path id="Path_483" data-name="Path 483" d="M282.7,212.04a3.714,3.714,0,0,1-1.227-1.072.716.716,0,0,1,.3-1.023,1.01,1.01,0,0,1,.659.106c.569.229,1.129.483,1.681.749-.29-.409-.581-.969-.274-1.366s.912-.258,1.37-.078c1.047.409,2.07.88,3.142,1.2a7.191,7.191,0,0,0,3.326.3,2.373,2.373,0,0,0,1.166-.491,6.5,6.5,0,0,0,.7-.9,3.224,3.224,0,0,1,1.784-1.15.667.667,0,0,1,.54.037c.262.184.188.581.135.9a3.24,3.24,0,0,0,.884,2.823l-2.634.679Z" transform="translate(-281.37 -208.281)"/>
      </g>
      <path id="Path_484" data-name="Path 484" d="M297.313,211.429a2.455,2.455,0,0,0-.556-1.207c-.442-.442-.712-.556-.769-.9s.364-.671.364-1.035-.63-.749-1.4-.364a2.4,2.4,0,0,0-1.113,1.677c-.057.356.27.99,0,1.334s-1.681.155-1.681.155l-4.578-.315s-2.839-2.622-4.6-1.681l1.149,1.4s-2.045-1.227-2.933-.593l-.135.286,5.175,3.51,3.15,1.137,7.318.871a2.567,2.567,0,0,0,1.284-1.972,4.549,4.549,0,0,0-.589-2.189" transform="translate(-245.173 -146.234)" fill="#ffbe9d"/>
      <path id="Path_485" data-name="Path 485" d="M292.947,215.232a6.5,6.5,0,0,1-1.272-.086,11.578,11.578,0,0,1-1.366-.241,3.732,3.732,0,0,1-.785-.27,5.316,5.316,0,0,1-.757-.475,14.9,14.9,0,0,1-2.225-2.127,5.285,5.285,0,0,1-.761-1.023,12.551,12.551,0,0,1,.871.92,18.516,18.516,0,0,0,2.242,2.045,5.908,5.908,0,0,0,.72.462,4.384,4.384,0,0,0,.745.266c.495.135.957.213,1.342.282A9.315,9.315,0,0,1,292.947,215.232Z" transform="translate(-247.963 -148.155)" fill="#263238"/>
      <path id="Path_486" data-name="Path 486" d="M287.874,144.177a8.558,8.558,0,0,1-2.684-.237A8.558,8.558,0,0,1,287.874,144.177Z" transform="translate(-247.614 -108.509)" fill="#263238"/>
      <path id="Path_487" data-name="Path 487" d="M324.3,75.874a1.227,1.227,0,1,0-.691-2.221,1.391,1.391,0,0,0,.057-1.874A2.454,2.454,0,0,0,321.805,71a4.091,4.091,0,0,0-4.185,3.718l.029-.213a4,4,0,0,0-1.039,3.068c.041.462.241,1.014.7,1.064a2.2,2.2,0,0,1,.466,0,.781.781,0,0,1,.323.266,4.549,4.549,0,0,0,2.373,1.755,1.777,1.777,0,0,0,2.2-1.436,1.166,1.166,0,0,0,1.6.241,2.287,2.287,0,0,0,.875-1.509C325.307,77.134,325.094,76.091,324.3,75.874Z" transform="translate(-266.168 -65.417)" fill="#e0e0e0"/>
      <path id="Path_488" data-name="Path 488" d="M312.581,91.226a6.547,6.547,0,0,1,.3-1.6,3.211,3.211,0,0,0,.094-1.608A1.325,1.325,0,0,0,311.857,87L308.83,97.955c1.366-.278,4.369-2.708,4.279-4.091C313.052,92.952,312.581,92.118,312.581,91.226Z" transform="translate(-261.583 -74.874)" fill="#e0e0e0"/>
      <path id="Path_489" data-name="Path 489" d="M289.285,84.713l-.094-13.43c.233-4.909-2.434-9.155-7.363-9.253h-.454a8.807,8.807,0,0,0-8.464,8.427c-.18,4.267-.323,9-.209,11.262.241,4.721,4.995,5.273,4.995,5.273v2.074l2.017.732Z" transform="translate(-240.209 -60.119)" fill="#ffbe9d"/>
      <path id="Path_490" data-name="Path 490" d="M285,120.218a11,11,0,0,0,6.091-1.988s-1.325,3.457-6.054,3.211Z" transform="translate(-247.502 -93.329)" fill="#eb996e"/>
      <path id="Path_491" data-name="Path 491" d="M276.2,90.593a.671.671,0,0,0,.675.655.642.642,0,0,0,.671-.634.671.671,0,0,0-.675-.655.642.642,0,0,0-.671.634Z" transform="translate(-242.302 -76.623)" fill="#263238"/>
      <path id="Path_492" data-name="Path 492" d="M275.574,85.588c.086.082.585-.315,1.309-.34s1.272.315,1.35.225-.057-.2-.294-.356a1.841,1.841,0,0,0-1.084-.29,1.759,1.759,0,0,0-1.035.38C275.6,85.387,275.533,85.547,275.574,85.588Z" transform="translate(-241.925 -73.589)" fill="#263238"/>
      <path id="Path_493" data-name="Path 493" d="M292.41,91.048a.675.675,0,0,0,.675.655.642.642,0,0,0,.671-.655.675.675,0,0,0-.675-.659.642.642,0,0,0-.671.659Z" transform="translate(-251.88 -76.877)" fill="#263238"/>
      <path id="Path_494" data-name="Path 494" d="M293.436,85.551c.074.094.614-.245,1.338-.192s1.227.45,1.313.368-.033-.2-.25-.385a1.857,1.857,0,0,0-1.047-.409,1.8,1.8,0,0,0-1.072.262C293.485,85.367,293.4,85.51,293.436,85.551Z" transform="translate(-252.481 -73.651)" fill="#263238"/>
      <path id="Path_495" data-name="Path 495" d="M284.8,92.542a4.867,4.867,0,0,0-1.186-.168c-.188,0-.364-.045-.409-.168a.949.949,0,0,1,.1-.556c.16-.454.323-.929.495-1.432a24.544,24.544,0,0,0,1.088-3.739,24.209,24.209,0,0,0-1.387,3.645c-.164.5-.319.982-.47,1.44a1.088,1.088,0,0,0-.07.728.474.474,0,0,0,.315.262,1.338,1.338,0,0,0,.319.033A4.908,4.908,0,0,0,284.8,92.542Z" transform="translate(-246.278 -74.567)" fill="#263238"/>
      <path id="Path_496" data-name="Path 496" d="M292.824,79.049c.082.192.818.07,1.657.143s1.554.274,1.661.094c.045-.09-.082-.27-.364-.45a2.79,2.79,0,0,0-1.227-.38,2.745,2.745,0,0,0-1.284.2C292.942,78.8,292.791,78.955,292.824,79.049Z" transform="translate(-252.122 -69.82)" fill="#e0e0e0"/>
      <path id="Path_497" data-name="Path 497" d="M275.811,81.717c.135.16.63-.029,1.227-.061s1.113.07,1.227-.11c.049-.086-.037-.245-.266-.409a1.775,1.775,0,0,0-1.976.135C275.815,81.468,275.753,81.64,275.811,81.717Z" transform="translate(-242.059 -71.269)" fill="#e0e0e0"/>
      <path id="Path_498" data-name="Path 498" d="M289.532,102.32c-.119,0-.09.785-.745,1.37s-1.493.532-1.5.642.2.147.548.143a1.972,1.972,0,0,0,1.252-.491,1.71,1.71,0,0,0,.573-1.149C289.679,102.508,289.585,102.316,289.532,102.32Z" transform="translate(-248.855 -83.927)" fill="#263238"/>
      <path id="Path_499" data-name="Path 499" d="M292.349,69.03a.732.732,0,0,1-.184-.434.941.941,0,0,1,.168-.34.781.781,0,0,0-.409-1.068,2.082,2.082,0,0,0-.29-2.524.757.757,0,0,1-.274-.38.818.818,0,0,1,.1-.409c.331-.888-.319-1.812-.933-2.532a6.192,6.192,0,0,0-2.6-2.1,4.626,4.626,0,0,1-.781-.266,3.444,3.444,0,0,1-.589-.475,4.754,4.754,0,0,0-4.815-.818,3.386,3.386,0,0,1-.56.2,2.863,2.863,0,0,1-.593.045,6.827,6.827,0,0,0-3.485,1.047,6.546,6.546,0,0,1-1.023.622c-.241.094-.7.074-.912.233a.941.941,0,0,0-.323,1.109c-1.456.667-1.567,1.636-1.444,2.864.049.495.331,1.047.818,1.1a1.227,1.227,0,0,0,.818-.274,5.319,5.319,0,0,0,.99-.851,2.213,2.213,0,0,1,.564-.524,2.328,2.328,0,0,1,.642-.192,4.6,4.6,0,0,0,2.549-1.575c.127-.16.282-.34.487-.323a.687.687,0,0,1,.229.09,2.978,2.978,0,0,0,3.224-.344,4.152,4.152,0,0,0,3.6,2.929.586.586,0,0,1,.52.2.548.548,0,0,1,.02.409,25.831,25.831,0,0,0,.061,7.192c.233,2.045,1.125,3.371,1.951,3.51l1.575-2.765.769-1.358A1.7,1.7,0,0,0,292.349,69.03Z" transform="translate(-240.623 -57.358)" fill="#e0e0e0"/>
      <path id="Path_500" data-name="Path 500" d="M288.411,58.749c0-.02-.2-.045-.475.131a.573.573,0,0,0-.254.54.409.409,0,0,0,.7.278l-.18-.192a1.517,1.517,0,0,0-.319.38,1.415,1.415,0,0,0,.025,1.53.938.938,0,0,0,.495.409,3,3,0,0,1-.331-.495,1.35,1.35,0,0,1,.3-1.636l-.18-.192a.147.147,0,0,1-.168,0,.184.184,0,0,1-.119-.147.409.409,0,0,1,.135-.372C288.239,58.844,288.427,58.786,288.411,58.749Z" transform="translate(-249.08 -58.172)" fill="#fff"/>
      <path id="Path_501" data-name="Path 501" d="M276.245,66.049c0-.025-.139.037-.135.237a.434.434,0,0,0,.135.311.311.311,0,0,0,.487-.049l-.221-.045a.847.847,0,0,0,.581.761.892.892,0,0,0,.462.02l-.16-.123a1.481,1.481,0,0,0,.123.573.7.7,0,0,0,.34.348c.27.119.438,0,.409-.025a.715.715,0,0,1-.618-.908v-.155l-.16.033a.626.626,0,0,1-.323,0,.642.642,0,0,1-.409-.524l-.082-.683-.139.642c0,.033-.094.057-.151,0a.315.315,0,0,1-.127-.18C276.208,66.139,276.261,66.065,276.245,66.049Z" transform="translate(-242.248 -62.359)" fill="#fff"/>
      <path id="Path_502" data-name="Path 502" d="M312.442,92.965c.082-.037,3.211-1.084,3.232,2.148s-3.232,2.589-3.236,2.5S312.442,92.965,312.442,92.965Z" transform="translate(-263.715 -78.286)" fill="#ffbe9d"/>
      <path id="Path_503" data-name="Path 503" d="M314.827,97.846a.862.862,0,0,0,.155.082.569.569,0,0,0,.409,0,1.4,1.4,0,0,0,.638-1.256,1.833,1.833,0,0,0-.164-.818.642.642,0,0,0-.409-.43.29.29,0,0,0-.331.155c-.041.09-.02.155-.037.164s-.07-.057-.045-.188a.356.356,0,0,1,.123-.2.409.409,0,0,1,.311-.086.794.794,0,0,1,.593.5,1.881,1.881,0,0,1,.2.9,1.433,1.433,0,0,1-.818,1.4.622.622,0,0,1-.515-.082C314.836,97.924,314.819,97.854,314.827,97.846Z" transform="translate(-265.126 -79.756)" fill="#eb996e"/>
      <path id="Path_504" data-name="Path 504" d="M319.462,78.395c.041-.033.266.151.507.552a3.968,3.968,0,0,1,.217,3.514c-.192.409-.409.634-.438.61a11.074,11.074,0,0,0,.315-2.369A13.271,13.271,0,0,0,319.462,78.395Z" transform="translate(-267.859 -69.787)" fill="#407bff"/>
      <path id="Path_505" data-name="Path 505" d="M294.995,101.782c-.061,0-.139-.315-.389-.605s-.548-.409-.528-.487.409,0,.691.348S295.052,101.786,294.995,101.782Z" transform="translate(-252.866 -82.948)" fill="#eb996e"/>
      <path id="Path_506" data-name="Path 506" d="M301.918,88.994c.041.037-.2.348-.646.475s-.818,0-.794-.07.352-.025.736-.139S301.89,88.962,301.918,88.994Z" transform="translate(-256.648 -76.051)" fill="#eb996e"/>
      <path id="Path_507" data-name="Path 507" d="M302.68,90.949c-.037.049-.3-.078-.642-.16s-.634-.1-.638-.155.307-.147.691-.053S302.713,90.9,302.68,90.949Z" transform="translate(-257.193 -76.966)" fill="#eb996e"/>
      <path id="Path_508" data-name="Path 508" d="M274.111,91.207s.029,0,0,.053a.117.117,0,0,1-.094.07.516.516,0,0,1-.27-.025c-.188-.057-.311-.164-.29-.217s.18-.041.352,0a2.048,2.048,0,0,1,.2.074l.037.029A.522.522,0,0,0,274.111,91.207Z" transform="translate(-240.679 -77.27)" fill="#eb996e"/>
      <path id="Path_509" data-name="Path 509" d="M305.586,66.557a2.666,2.666,0,0,1-.859.589,5.06,5.06,0,0,1-4.909-.266A2.6,2.6,0,0,1,299,66.2c.02-.029.319.241.875.552a5.471,5.471,0,0,0,4.77.278C305.238,66.762,305.566,66.524,305.586,66.557Z" transform="translate(-255.775 -62.58)" fill="#263238"/>
      <path id="Path_510" data-name="Path 510" d="M307.472,70.328a3.8,3.8,0,0,1-.957.65,3.993,3.993,0,0,1-1.186.45,4.283,4.283,0,0,1-1.563,0,6.586,6.586,0,0,1-2.544-1.162,4.241,4.241,0,0,1-.892-.736,10.578,10.578,0,0,1,.974.614,7.457,7.457,0,0,0,2.5,1.076,4.242,4.242,0,0,0,1.485.029,4.132,4.132,0,0,0,1.158-.409C307.084,70.54,307.456,70.3,307.472,70.328Z" transform="translate(-256.561 -64.551)" fill="#263238"/>
      <path id="Path_511" data-name="Path 511" d="M327.753,86.628a1.923,1.923,0,0,0-.2-.818,1.2,1.2,0,0,0-.663-.552,1.256,1.256,0,0,0-1.051.119l-.164.1v-.192a1.1,1.1,0,0,0-.164-.573,1.69,1.69,0,0,0-1.076-.72,2.97,2.97,0,0,0-1.117,0,10.587,10.587,0,0,1-1.039.229,3.473,3.473,0,0,1,1.006-.376,2.839,2.839,0,0,1,1.186-.065,1.849,1.849,0,0,1,1.227.818,1.3,1.3,0,0,1,.188.687l-.16-.09a1.411,1.411,0,0,1,1.227-.115,1.3,1.3,0,0,1,.724.663,1.006,1.006,0,0,1,.074.884Z" transform="translate(-269.531 -72.952)" fill="#263238"/>
      <g id="Group_543" data-name="Group 543" transform="translate(27.875 41.734)" opacity="0.3">
        <path id="Path_512" data-name="Path 512" d="M261.976,175.178l2.168-15.8A23.767,23.767,0,0,0,261.976,175.178Z" transform="translate(-261.475 -159.38)"/>
      </g>
      <g id="Group_544" data-name="Group 544" transform="translate(60.762 58.025)" opacity="0.3">
        <path id="Path_513" data-name="Path 513" d="M348.354,199.668a5.028,5.028,0,0,0-2.864-.409c-1.387.151-2.953.569-3.62,1.636a5.062,5.062,0,0,1,3.714-.655,8.025,8.025,0,0,1,3.1,2.045c.29.278.736.577,1.051.327a.728.728,0,0,0,.209-.61A2.839,2.839,0,0,0,348.354,199.668Z" transform="translate(-341.87 -199.202)"/>
      </g>
    </g>
    <g id="freepik--Triangle--inject-4" transform="translate(171.941 85.658)">
      <path id="Path_514" data-name="Path 514" d="M391.76,198.882h20.773V163.17Zm8.361-5.482,8.791-14.841V193.4Z" transform="translate(-391.76 -163.17)" fill="#407bff"/>
      <path id="Path_515" data-name="Path 515" d="M396.627,242.08a8.136,8.136,0,0,1,2.414,1.5,4.186,4.186,0,0,1-1.272-.642A4.069,4.069,0,0,1,396.627,242.08Z" transform="translate(-394.635 -209.8)" fill="#263238"/>
      <path id="Path_516" data-name="Path 516" d="M404.062,229.13a4.025,4.025,0,0,1,1.227.638,3.927,3.927,0,0,1,1.1.843,7.691,7.691,0,0,1-2.344-1.481Z" transform="translate(-399.023 -202.147)" fill="#263238"/>
      <path id="Path_517" data-name="Path 517" d="M411.53,216.18a3.948,3.948,0,0,1,1.166.761c.6.475,1.051.9,1.006.957A7.8,7.8,0,0,1,411.53,216.18Z" transform="translate(-403.443 -194.495)" fill="#263238"/>
      <path id="Path_518" data-name="Path 518" d="M419.276,203.46a7.8,7.8,0,0,1,2.172,1.718,3.948,3.948,0,0,1-1.166-.761C419.685,203.943,419.231,203.513,419.276,203.46Z" transform="translate(-408.018 -186.978)" fill="#263238"/>
      <path id="Path_519" data-name="Path 519" d="M426.887,190.16a4.32,4.32,0,0,1,1.227.7,4.168,4.168,0,0,1,1.1.9,4.247,4.247,0,0,1-1.227-.7A4.14,4.14,0,0,1,426.887,190.16Z" transform="translate(-412.516 -179.119)" fill="#263238"/>
      <path id="Path_520" data-name="Path 520" d="M434.907,176.35a3.73,3.73,0,0,1,1.182.63,4.253,4.253,0,0,1,1.043.818,3.731,3.731,0,0,1-1.182-.63A3.651,3.651,0,0,1,434.907,176.35Z" transform="translate(-417.255 -170.958)" fill="#263238"/>
      <path id="Path_521" data-name="Path 521" d="M398.992,237.979c.037-.057.335.061.667.27s.573.409.536.475-.335-.057-.667-.266S398.947,238.057,398.992,237.979Z" transform="translate(-396.031 -207.368)" fill="#263238"/>
      <path id="Path_522" data-name="Path 522" d="M401.345,233.779c.037-.057.335.061.667.266s.569.409.532.479-.331-.061-.663-.266S401.308,233.836,401.345,233.779Z" transform="translate(-397.422 -204.886)" fill="#263238"/>
      <path id="Path_523" data-name="Path 523" d="M406.895,224.329c.037-.057.335.061.667.27s.569.409.536.479-.335-.061-.667-.27S406.858,224.391,406.895,224.329Z" transform="translate(-400.701 -199.302)" fill="#263238"/>
      <path id="Path_524" data-name="Path 524" d="M409.265,220.089c.037-.057.335.061.667.266s.569.409.532.479-.331-.061-.663-.266S409.228,220.146,409.265,220.089Z" transform="translate(-402.102 -196.797)" fill="#263238"/>
      <path id="Path_525" data-name="Path 525" d="M414.555,211.549c.037-.057.335.061.667.27s.569.409.532.479-.331-.061-.667-.27S414.518,211.611,414.555,211.549Z" transform="translate(-405.228 -191.75)" fill="#263238"/>
      <path id="Path_526" data-name="Path 526" d="M416.925,207.5c.037-.057.331.061.663.27s.573.409.536.475-.335-.061-.667-.266S416.888,207.561,416.925,207.5Z" transform="translate(-406.628 -189.357)" fill="#263238"/>
      <path id="Path_527" data-name="Path 527" d="M421.991,198.759c.037-.057.335.061.667.27s.573.409.536.475-.335-.061-.667-.266S421.942,198.821,421.991,198.759Z" transform="translate(-409.621 -184.192)" fill="#263238"/>
      <path id="Path_528" data-name="Path 528" d="M424.735,194.069c.037-.057.335.061.667.266s.569.409.532.479-.331-.061-.663-.266S424.7,194.126,424.735,194.069Z" transform="translate(-411.243 -181.421)" fill="#263238"/>
      <path id="Path_529" data-name="Path 529" d="M429.676,185.627c.037-.061.335.061.667.266s.573.409.536.479-.335-.061-.667-.266S429.643,185.684,429.676,185.627Z" transform="translate(-414.164 -176.431)" fill="#263238"/>
      <path id="Path_530" data-name="Path 530" d="M432.475,180.749c.037-.057.331.061.663.266s.573.409.536.479-.335-.061-.667-.266S432.438,180.806,432.475,180.749Z" transform="translate(-415.817 -173.549)" fill="#263238"/>
    </g>
    <g id="freepik--Floor--inject-4" transform="translate(24.622 213.87)">
      <path id="Path_561" data-name="Path 561" d="M210.289,476.7c0,.061-40,.11-89.325.11s-89.334-.049-89.334-.11,39.987-.106,89.334-.106S210.289,476.639,210.289,476.7Z" transform="translate(-31.63 -476.59)" fill="#263238"/>
    </g>
  </g>
</svg>
