<svg id="freepik--Globe--inject-4" xmlns="http://www.w3.org/2000/svg" width="34.027" height="41.439" viewBox="0 0 34.027 41.439">
  <path id="Path_531" data-name="Path 531" d="M161.057,232.41a3.906,3.906,0,0,0-.061-.536c-.025-.176-.053-.376-.086-.565q.049.282.086.565C161.02,232.034,161.041,232.214,161.057,232.41Z" transform="translate(-127.125 -218.081)" fill="#407bff"/>
  <path id="Path_532" data-name="Path 532" d="M113.516,215.576a8.591,8.591,0,0,1-.3-1.113.728.728,0,0,0-.335-.5,3.406,3.406,0,0,0-.409-.09c-.475-.139-.605-.8-1.055-1a1.57,1.57,0,0,0-.454-.09,2.381,2.381,0,0,1-1.6-.749,3.3,3.3,0,0,0-.372-.45.454.454,0,0,0-.544-.053c.127.254.254.5.376.753a2.046,2.046,0,0,0,.409.63.687.687,0,0,0,.712.147.5.5,0,0,1,.237-.082.258.258,0,0,1,.155.1,1.035,1.035,0,0,1-.1,1.325,3.068,3.068,0,0,1-1.248.732.929.929,0,0,1-.507.1c-.315-.057-.483-.409-.577-.7a6.1,6.1,0,0,0-.728-1.976,2.378,2.378,0,0,1-.38-.552c-.09-.225-.07-.491-.2-.687s-.446-.331-.466-.585a.454.454,0,0,1,.3-.409c.164-.078.344-.1.511-.168.07-.029.143-.078.143-.147s-.147-.147-.184-.245.074-.217.123-.323c.1-.245-.155-.495-.409-.6s-.552-.172-.667-.409a1.353,1.353,0,0,1-.082-.36.794.794,0,0,0-.6-.65.52.52,0,0,0-.605.532,2.045,2.045,0,0,0,.225.454c.07.155.049.389-.11.438-.27.082-.528-.409-.749-.237l.27.933c-.348.176-.769-.143-.92-.507s-.155-.773-.331-1.117-.659-.61-.965-.364c0,.446.581.63.847.99a.605.605,0,0,1-.119.855c-.278.164-.724-.123-.618-.409.037-.106.127-.192.135-.307a.5.5,0,0,0-.217-.344l-.511-.409a1.084,1.084,0,0,0-.364-.225.855.855,0,0,0-.888.491,4.333,4.333,0,0,1-.548.933,1,1,0,0,1-1.411,0,.818.818,0,0,1,.34-1.28c.192-.053.438-.045.54-.217.176-.3-.331-.679-.155-.982.135-.233.491-.127.749-.2s.409-.335.556-.556.385-.442.65-.38a.789.789,0,0,1,.029-.458.282.282,0,0,1,.409-.143.462.462,0,0,0,.254.614,1.444,1.444,0,0,0,.736.053c.25-.033.565-.123.585-.368a.8.8,0,0,1,0-.241c.106-.295.659.11.867-.127.123-.123,0-.344-.18-.385a1.864,1.864,0,0,0-.52.029c-.172,0-.38-.086-.409-.258s.18-.286.2-.454c.033-.282-.45-.356-.618-.127a1.08,1.08,0,0,0-.061.818.859.859,0,0,1-.127.818c-.09.135-.323.065-.409-.078a1.064,1.064,0,0,1-.074-.47.409.409,0,0,0-.241-.385.966.966,0,0,0-.34.037c-.442.053-.753-.511-.61-.929a1.763,1.763,0,0,1,.929-.9.986.986,0,0,1,.92-.143c.131.074.221.2.352.274a1.522,1.522,0,0,0,.757.086,1.792,1.792,0,0,1,1.109.409c.115.106.221.274.131.409s-.372.155-.323.311a.552.552,0,0,0,.691-.442.462.462,0,0,1,.266.372.818.818,0,0,1,1.227.1,1.108,1.108,0,0,0,.225.286c.1.065.282.033.295-.086a.254.254,0,0,0,0-.11c-.061-.172-.127-.34-.188-.507.237-.127.515.07.679.278.593.79,1.019.315,1.857.446.569.086.818.446,1.137.88.982,1.338,2.279,2.434,3.17,3.833.1.147.184.295.266.446l-.045-.11a15.362,15.362,0,0,0-1.3-2.61c-.11-.176-.221-.352-.335-.524l-.221-.315c-.094-.135-.192-.266-.29-.409s-.16-.209-.241-.311l-.172-.213q-.09-.115-.2-.233l-.217-.245-.065-.078-.233-.25-.025-.025-.065-.07c-.061-.07-.131-.139-.2-.2s-.221-.221-.335-.327-.192-.18-.29-.27l-.262-.233-.262-.221c-.106-.09-.217-.176-.331-.266h0c-.307-.245-.626-.475-.953-.691-.082-.057-.16-.11-.241-.16s-.164-.106-.245-.16l-.25-.147-.254-.151c-.065-.041-.135-.078-.2-.11l-.106-.061-.438-.229c-.074-.037-.147-.078-.225-.11s-.192-.094-.286-.135l-.045-.02-.262-.119-.372-.155c-.143-.061-.286-.119-.434-.172s-.319-.119-.483-.168-.327-.11-.491-.16-.331-.1-.5-.143q-.5-.127-1.006-.233h0l-.389-.07h-.025l-.176-.025c-.241-.041-.487-.074-.732-.1h-.09a.643.643,0,0,1-.213-.025l-.491-.037a3.71,3.71,0,0,1-.52-.025h-.54c-.479,0-.953.02-1.419.065a1.3,1.3,0,0,0-.331.029l-.344.041a1.888,1.888,0,0,0-.34.049l-.344.053-.29.053c-.237.045-.475.094-.708.151l-.331.082-.323.09c-.18.049-.356.106-.532.16h0l-.409.143h0l-.409.16H93.2l-.385.155c-.164.065-.319.135-.475.209l-.409.18-.409.209h0c-.131.065-.258.139-.409.209l-.409.229h0l-.36.221-.135.09-.376.25c-.151.1-.3.213-.446.319s-.258.192-.38.29a16.1,16.1,0,0,0-2.029,1.853c-.217.233-.409.475-.618.724a6.214,6.214,0,0,0-.487.646c-.155.237-.274.389-.409.589q.2-.3.409-.589H86a1.947,1.947,0,0,0,.675-.11,3.74,3.74,0,0,0,.5-.38c.442-.311,1.17-.372,1.289-.9a3.9,3.9,0,0,1,.057-.536c.127-.311.548-.36.892-.352.143,0,.315.02.38.143a.356.356,0,0,1,0,.295,2.745,2.745,0,0,1-1.166,1.419c-.442.266-1.019.47-1.141.969.061.168.372.155.409.331s-.168.217-.233.34.127.409.335.409a.928.928,0,0,0,.544-.3,3.424,3.424,0,0,0,1.117-1.489,1.289,1.289,0,0,1,.3-.708.5.5,0,0,1,.757.241c.2-.11.511-.2.618,0a.929.929,0,0,1,.041.237c.07.319.511.466.56.79s-.434.569-.818.63l-1.031.16a.965.965,0,0,0-.409.135.327.327,0,0,0-.127.409,1.044,1.044,0,0,0,.176.18.54.54,0,0,1-.348.875c-.139,0-.274-.045-.409-.049a1.109,1.109,0,0,0-.92.691,2.835,2.835,0,0,1-.667,1c-.524.409-1.424.3-1.681.9a1.456,1.456,0,0,0,0,.773,1.023,1.023,0,0,1-.094.757c-.151.213-.544.258-.655.02a.585.585,0,0,1,0-.335c.061-.372.119-.745.18-1.117a1.1,1.1,0,0,0-.086-.818.744.744,0,0,0-1.051-.033,1.829,1.829,0,0,0-.573,1,4.361,4.361,0,0,1-.286,1h0c-.053.311-.1.626-.131.945s-.057.655-.07.986a1.171,1.171,0,0,0,.131-.123c.16-.164.483-.855.773-.515a.254.254,0,0,1,0,.315c-.09.115-.266.139-.335.262s.033.327.172.409a1.517,1.517,0,0,1,.409.295c.184.266,0,.663.188.933s.487.25.769.278h.094a1.28,1.28,0,0,1,1.1-1.178,3.533,3.533,0,0,1,3.031,1.411c.659.88.974,2.123,1.984,2.565.728.315,1.755.2,2.111.9.315.63-.233,1.338-.319,2.045a7.126,7.126,0,0,0,.135,1.379,1.182,1.182,0,0,1-.528,1.2c-.237.1-.536.09-.724.266-.34.319-.061.974-.409,1.289a1.788,1.788,0,0,1-.43.225c-.761.38-.74,1.489-.389,2.254,0,.029.029.053.041.082a15.954,15.954,0,0,0,3.612,1.579,16.273,16.273,0,0,0,12.174-1.186h0a15.543,15.543,0,0,0,1.424-.847,15.758,15.758,0,0,0,2-1.571,14.773,14.773,0,0,0,1.227-1.26c.27-.307.524-.626.769-.953.127-.168.245-.335.36-.511a14.885,14.885,0,0,0,.961-1.587,15.183,15.183,0,0,0,1.039-2.479,15.627,15.627,0,0,0,.614-2.7c.049-.356.086-.72.11-1.084a.92.92,0,0,1-.646.282,1.035,1.035,0,0,1-.863-.646Z" transform="translate(-81.044 -199.029)" fill="#407bff"/>
  <path id="Path_533" data-name="Path 533" d="M109.992,203.589a3.62,3.62,0,0,0-.736.818c-.245.278-.683.475-.974.245a.675.675,0,0,1-.221-.47,1.227,1.227,0,0,1,.176-.728c.139-.221.348-.409.466-.634a.507.507,0,0,0-.147-.687c-.131-.061-.295-.037-.409-.119-.209-.151-.057-.511.184-.6a1.832,1.832,0,0,1,.761,0,3.629,3.629,0,0,0,2.319-1.043c.544-.409,1.706-.851,2.336-.454a.483.483,0,0,1,.11.749c-.106.078-.25.1-.348.188s-.135.282-.2.409c-.176.372-.683.507-.847.884-.1.229-.057.511-.209.712a.9.9,0,0,1-.54.274l-1.227.282A1.906,1.906,0,0,0,109.992,203.589Z" transform="translate(-95.888 -199.437)" fill="#407bff"/>
  <path id="Path_534" data-name="Path 534" d="M124.8,237.556a4.966,4.966,0,0,0-.589,2.066,3.06,3.06,0,0,1-.859,1.939,1.248,1.248,0,0,1-1.874-.213,5.988,5.988,0,0,1-.172-1.158,10.4,10.4,0,0,0-.7-1.354,3.682,3.682,0,0,1-.176-1.285,9.974,9.974,0,0,0-2.295-6.6,1.587,1.587,0,0,0-.712-.5.916.916,0,0,0-.941.319,3.407,3.407,0,0,1-.36.536.83.83,0,0,1-1.19-.319,2.356,2.356,0,0,1-.164-1.37l.147-1.739a1.444,1.444,0,0,1,.258-.855c.286-.327.818-.344,1.149-.6.458-.34.515-.986.818-1.473s1.194-.7,1.325-.147c.957-2.045,3.068.982,4.324.757a3.646,3.646,0,0,1,1.088-.188c.65.09.986.8,1.207,1.407l1.1,3.035a1.452,1.452,0,0,0,.708.961c.295.115.638.029.937.135.79.286.532,1.514-.1,2.045s-1.526.888-1.824,1.661c-.229.585-.049,1.268-.29,1.845A7.179,7.179,0,0,1,124.8,237.556Z" transform="translate(-99.835 -213.818)" fill="#407bff"/>
  <path id="Path_535" data-name="Path 535" d="M143.674,255.532c-.258.037-.565-.09-.761.078a.818.818,0,0,0-.184.409.867.867,0,0,1-.368.495.552.552,0,0,1-.6,0,.409.409,0,0,1-.086-.552c.065-.074.155-.119.225-.184.344-.319.11-.916.368-1.3.155-.225.409-.454.569-.683s.176-.315.409-.36C144.3,253.221,144.778,255.377,143.674,255.532Z" transform="translate(-115.718 -231.147)" fill="#407bff"/>
  <path id="Path_536" data-name="Path 536" d="M84.978,242.634a11.111,11.111,0,0,1,.11-1.37c0-.319,0-.655-.02-.974a4.527,4.527,0,0,1-.818-.11.245.245,0,0,1-.151-.078.323.323,0,0,1-.033-.168c-.02-.356-.368-.593-.683-.773a2.518,2.518,0,0,0-.495-.241,1,1,0,0,0,0,.11,15.545,15.545,0,0,0,1.023,5.044,14.931,14.931,0,0,0,.982,2.086c.155.286.331.573.511.851.225.348.458.683.708,1.006s.483.618.745.908a15.987,15.987,0,0,0,1.137,1.158,14.435,14.435,0,0,0,1.109.933,25.953,25.953,0,0,0-3.207-6.692A3.742,3.742,0,0,1,84.978,242.634Z" transform="translate(-81.018 -222.577)" fill="#407bff"/>
  <path id="Path_537" data-name="Path 537" d="M82.907,237.11v.286C82.907,237.319,82.9,237.208,82.907,237.11Z" transform="translate(-81.03 -221.508)" fill="#407bff"/>
  <path id="Path_538" data-name="Path 538" d="M100.31,270.09c.135.09.27.18.409.266l.295.176-.295-.176C100.592,270.27,100.445,270.18,100.31,270.09Z" transform="translate(-91.314 -240.997)" fill="#407bff"/>
  <path id="Path_539" data-name="Path 539" d="M82.928,236.2h0a.6.6,0,0,0,0,.086v0A.6.6,0,0,1,82.928,236.2Z" transform="translate(-81.042 -220.97)" fill="#407bff"/>
  <path id="Path_540" data-name="Path 540" d="M82.9,238.38v.233h0A2.217,2.217,0,0,0,82.9,238.38Z" transform="translate(-81.026 -222.258)" fill="#407bff"/>
  <path id="Path_541" data-name="Path 541" d="M85.119,237.068h-.094c-.282-.029-.614-.045-.769-.278s0-.667-.188-.933a1.518,1.518,0,0,0-.409-.295c-.139-.1-.258-.278-.172-.409s.245-.147.335-.262a.254.254,0,0,0,0-.315c-.29-.34-.614.352-.773.515a1.17,1.17,0,0,1-.131.123h0a.6.6,0,0,0,0,.086v1.039a2.519,2.519,0,0,1,.495.241c.315.18.663.409.683.773a.323.323,0,0,0,.033.168.246.246,0,0,0,.151.078,4.527,4.527,0,0,0,.818.11" transform="translate(-81.036 -219.956)" fill="#407bff"/>
  <path id="Path_542" data-name="Path 542" d="M88.1,239.623c0,.319.025.655.02.974A11.111,11.111,0,0,0,88,241.955a3.683,3.683,0,0,0,.92,1.689,25.953,25.953,0,0,1,3.207,6.692h0c.16.127.327.25.495.368s.266.184.409.274.27.18.409.266l.295.176c0-.029-.029-.053-.041-.082-.352-.765-.372-1.874.389-2.254a1.788,1.788,0,0,0,.43-.225c.34-.315.061-.97.409-1.289.188-.176.487-.164.724-.266a1.182,1.182,0,0,0,.528-1.2,7.126,7.126,0,0,1-.135-1.379c.086-.7.634-1.4.319-2.045-.356-.7-1.383-.585-2.111-.9-1.01-.442-1.325-1.685-1.984-2.565a3.573,3.573,0,0,0-3.031-1.411,1.28,1.28,0,0,0-1.1,1.178" transform="translate(-84.04 -221.898)" fill="#407bff"/>
  <path id="Path_543" data-name="Path 543" d="M84.143,216.59a.745.745,0,0,1,1.051.033,1.1,1.1,0,0,1,.086.818c-.061.372-.119.745-.18,1.117a.585.585,0,0,0,0,.335c.11.237.5.192.655-.02a1.023,1.023,0,0,0,.094-.757,1.456,1.456,0,0,1,0-.773c.258-.6,1.158-.507,1.681-.9a2.835,2.835,0,0,0,.667-1,1.109,1.109,0,0,1,.941-.7c.139,0,.274.053.409.049a.54.54,0,0,0,.348-.875,1.045,1.045,0,0,1-.176-.18.327.327,0,0,1,.127-.409.965.965,0,0,1,.409-.135l1.031-.16c.38-.061.867-.254.818-.63s-.491-.47-.56-.79a.929.929,0,0,0-.041-.237c-.106-.209-.409-.123-.618,0a.5.5,0,0,0-.757-.241,1.288,1.288,0,0,0-.3.708,3.424,3.424,0,0,1-1.117,1.489.929.929,0,0,1-.544.3c-.209,0-.409-.213-.335-.409s.25-.2.233-.34-.335-.164-.409-.331c.123-.5.7-.7,1.141-.969a2.745,2.745,0,0,0,1.166-1.419.356.356,0,0,0,0-.295c-.065-.123-.237-.143-.38-.143-.344,0-.765.041-.892.352a3.9,3.9,0,0,0-.057.536c-.119.524-.847.585-1.289.9a3.741,3.741,0,0,1-.5.38,1.948,1.948,0,0,1-.675.11h-.123q-.209.29-.409.589c-.131.2-.254.409-.376.605a15.7,15.7,0,0,0-1.391,3.076c-.127.376-.237.757-.331,1.145s-.176.781-.241,1.182a4.361,4.361,0,0,0,.286-1,1.829,1.829,0,0,1,.556-1.01Z" transform="translate(-81.263 -205.328)" fill="#407bff"/>
  <path id="Path_544" data-name="Path 544" d="M161.4,236.293v.217c0,.352,0,.7-.033,1.047.02-.348.033-.7.033-1.047A1.91,1.91,0,0,0,161.4,236.293Z" transform="translate(-127.396 -220.622)" fill="#407bff"/>
  <path id="Path_545" data-name="Path 545" d="M159,224.24c.074.2.147.409.213.605-.065-.2-.139-.409-.213-.605Z" transform="translate(-125.996 -213.903)" fill="#407bff"/>
  <path id="Path_546" data-name="Path 546" d="M137.127,219.43v-.683a6.251,6.251,0,0,0-.053-.675c-.025-.225-.037-.36-.061-.536s-.053-.376-.086-.565a14.89,14.89,0,0,0-.376-1.636c-.061-.2-.123-.409-.192-.618s-.139-.409-.213-.605h0c-.082-.151-.168-.3-.266-.446-.892-1.4-2.189-2.5-3.17-3.833-.319-.434-.569-.794-1.137-.88-.818-.131-1.264.344-1.857-.446-.164-.209-.442-.409-.679-.278.061.168.127.335.188.507a.254.254,0,0,1,0,.11c0,.119-.192.151-.295.086a1.108,1.108,0,0,1-.225-.286.818.818,0,0,0-1.227-.1.462.462,0,0,0-.266-.372.552.552,0,0,1-.691.442c-.049-.155.229-.18.323-.311s0-.295-.131-.409a1.792,1.792,0,0,0-1.109-.409,1.522,1.522,0,0,1-.757-.086c-.131-.078-.221-.2-.352-.274a.986.986,0,0,0-.92.143,1.763,1.763,0,0,0-.929.9c-.143.409.168.982.61.929a.965.965,0,0,1,.34-.037.409.409,0,0,1,.241.385,1.063,1.063,0,0,0,.074.47c.074.143.307.213.409.078a.859.859,0,0,0,.127-.818,1.08,1.08,0,0,1,.061-.818c.168-.229.65-.155.618.127,0,.168-.209.286-.2.454s.217.262.409.258a1.866,1.866,0,0,1,.52-.029c.168.041.3.262.18.385-.209.237-.761-.168-.867.127-.033.074,0,.16,0,.241,0,.245-.335.335-.585.368a1.444,1.444,0,0,1-.736-.053.462.462,0,0,1-.254-.614.282.282,0,0,0-.409.143.789.789,0,0,0-.029.458c-.266-.061-.5.164-.65.38s-.3.479-.556.556-.614-.029-.749.2c-.176.3.331.683.155.982-.1.172-.348.164-.54.217a.818.818,0,0,0-.34,1.28,1,1,0,0,0,1.411,0,4.333,4.333,0,0,0,.548-.933.855.855,0,0,1,.888-.491,1.084,1.084,0,0,1,.364.225l.511.409c.11.09.229.2.217.344s-.1.2-.135.307c-.106.307.34.593.618.409a.605.605,0,0,0,.119-.855c-.266-.36-.863-.544-.847-.99.307-.245.785,0,.965.364s.184.757.331,1.117.573.683.92.507l-.27-.933c.221-.164.479.319.749.237.16-.049.18-.282.11-.438a2.044,2.044,0,0,1-.225-.454.52.52,0,0,1,.605-.532.794.794,0,0,1,.6.65,1.354,1.354,0,0,0,.082.36c.115.241.409.315.667.409s.511.352.409.6c-.049.106-.164.213-.123.323s.184.139.184.245-.074.119-.143.147c-.168.065-.348.09-.511.168a.454.454,0,0,0-.3.409c.02.254.323.372.466.585s.115.462.2.687a2.377,2.377,0,0,0,.38.552,6.505,6.505,0,0,1,.728,1.976c.094.3.262.642.577.7a.929.929,0,0,0,.507-.1,3.068,3.068,0,0,0,1.248-.732,1.035,1.035,0,0,0,.1-1.325.258.258,0,0,0-.155-.1.5.5,0,0,0-.237.082.687.687,0,0,1-.712-.147,2.045,2.045,0,0,1-.409-.63c-.123-.25-.25-.5-.376-.753a.454.454,0,0,1,.544.053,3.3,3.3,0,0,1,.372.45,2.381,2.381,0,0,0,1.6.749,1.57,1.57,0,0,1,.454.09c.45.2.581.863,1.055,1a3.408,3.408,0,0,1,.409.09.728.728,0,0,1,.335.5,8.591,8.591,0,0,0,.3,1.113,1.035,1.035,0,0,0,.859.675.92.92,0,0,0,.646-.282h0c.02-.348.033-.7.033-1.047A1.213,1.213,0,0,1,137.127,219.43Z" transform="translate(-103.121 -203.759)" fill="#407bff"/>
  <path id="Path_547" data-name="Path 547" d="M143.253,253.41c-.241.045-.286.184-.409.36s-.409.458-.569.683c-.258.38-.025.978-.368,1.3-.07.065-.16.11-.225.184a.409.409,0,0,0,.082.573.552.552,0,0,0,.6,0,.867.867,0,0,0,.368-.495.818.818,0,0,1,.184-.409c.2-.168.5-.041.761-.078C144.774,255.362,144.3,253.206,143.253,253.41Z" transform="translate(-115.714 -231.132)" fill="#407bff"/>
  <g id="Group_545" data-name="Group 545" transform="translate(33.785 13.229)" opacity="0.3">
    <path id="Path_548" data-name="Path 548" d="M161.057,232.41a3.906,3.906,0,0,0-.061-.536c-.025-.176-.053-.376-.086-.565q.049.282.086.565C161.02,232.034,161.041,232.214,161.057,232.41Z" transform="translate(-160.91 -231.31)"/>
  </g>
  <g id="Group_546" data-name="Group 546" transform="translate(12.161 0.323)" opacity="0.3">
    <path id="Path_549" data-name="Path 549" d="M109.992,203.589a3.62,3.62,0,0,0-.736.818c-.245.278-.683.475-.974.245a.675.675,0,0,1-.221-.47,1.227,1.227,0,0,1,.176-.728c.139-.221.348-.409.466-.634a.507.507,0,0,0-.147-.687c-.131-.061-.295-.037-.409-.119-.209-.151-.057-.511.184-.6a1.832,1.832,0,0,1,.761,0,3.629,3.629,0,0,0,2.319-1.043c.544-.409,1.706-.851,2.336-.454a.483.483,0,0,1,.11.749c-.106.078-.25.1-.348.188s-.135.282-.2.409c-.176.372-.683.507-.847.884-.1.229-.057.511-.209.712a.9.9,0,0,1-.54.274l-1.227.282A1.906,1.906,0,0,0,109.992,203.589Z" transform="translate(-108.049 -199.761)"/>
  </g>
  <g id="Group_547" data-name="Group 547" transform="translate(14.894 10.279)" opacity="0.3">
    <path id="Path_550" data-name="Path 550" d="M124.8,237.556a4.966,4.966,0,0,0-.589,2.066,3.06,3.06,0,0,1-.859,1.939,1.248,1.248,0,0,1-1.874-.213,5.988,5.988,0,0,1-.172-1.158,10.4,10.4,0,0,0-.7-1.354,3.682,3.682,0,0,1-.176-1.285,9.974,9.974,0,0,0-2.295-6.6,1.587,1.587,0,0,0-.712-.5.916.916,0,0,0-.941.319,3.407,3.407,0,0,1-.36.536.83.83,0,0,1-1.19-.319,2.356,2.356,0,0,1-.164-1.37l.147-1.739a1.444,1.444,0,0,1,.258-.855c.286-.327.818-.344,1.149-.6.458-.34.515-.986.818-1.473s1.194-.7,1.325-.147c.957-2.045,3.068.982,4.324.757a3.646,3.646,0,0,1,1.088-.188c.65.09.986.8,1.207,1.407l1.1,3.035a1.452,1.452,0,0,0,.708.961c.295.115.638.029.937.135.79.286.532,1.514-.1,2.045s-1.526.888-1.824,1.661c-.229.585-.049,1.268-.29,1.845A7.179,7.179,0,0,1,124.8,237.556Z" transform="translate(-114.729 -224.096)"/>
  </g>
  <g id="Group_548" data-name="Group 548" transform="translate(1.876 15.602)" opacity="0.3">
    <path id="Path_551" data-name="Path 551" d="M82.907,237.11v.286C82.907,237.319,82.9,237.208,82.907,237.11Z" transform="translate(-82.906 -237.11)"/>
  </g>
  <g id="Group_549" data-name="Group 549" transform="translate(8.996 29.093)" opacity="0.3">
    <path id="Path_552" data-name="Path 552" d="M100.31,270.09c.135.09.27.18.409.266l.295.176-.295-.176C100.592,270.27,100.445,270.18,100.31,270.09Z" transform="translate(-100.31 -270.09)"/>
  </g>
  <g id="Group_550" data-name="Group 550" transform="translate(1.884 15.23)" opacity="0.3">
    <path id="Path_553" data-name="Path 553" d="M82.928,236.2h0a.6.6,0,0,0,0,.086v0A.6.6,0,0,1,82.928,236.2Z" transform="translate(-82.926 -236.2)"/>
  </g>
  <g id="Group_551" data-name="Group 551" transform="translate(1.874 16.122)" opacity="0.3">
    <path id="Path_554" data-name="Path 554" d="M82.9,238.38v.233h0A2.217,2.217,0,0,0,82.9,238.38Z" transform="translate(-82.9 -238.38)"/>
  </g>
  <g id="Group_552" data-name="Group 552" transform="translate(1.88 14.515)" opacity="0.3">
    <path id="Path_555" data-name="Path 555" d="M93.03,242.781c.086-.7.634-1.4.319-2.045-.356-.7-1.383-.585-2.111-.9-1.01-.442-1.325-1.685-1.984-2.565a3.573,3.573,0,0,0-3.031-1.411,1.28,1.28,0,0,0-1.1,1.178h-.094c-.282-.029-.614-.045-.769-.278s0-.667-.188-.933a1.432,1.432,0,0,0-.409-.295c-.139-.1-.258-.278-.172-.409s.245-.147.335-.262a.254.254,0,0,0,0-.315c-.29-.34-.614.352-.773.515a1.17,1.17,0,0,1-.131.123h0a.608.608,0,0,0,0,.086v1.039a1,1,0,0,0,0,.11,15.545,15.545,0,0,0,1.023,5.044,14.932,14.932,0,0,0,.982,2.086c.155.286.331.573.511.851.225.344.458.683.708,1.006s.483.618.745.908a16,16,0,0,0,1.137,1.158,14.443,14.443,0,0,0,1.109.933h0c.16.127.327.25.495.368s.266.184.409.274.27.18.409.266l.295.176c0-.029-.029-.053-.041-.082-.352-.765-.372-1.874.389-2.254a1.788,1.788,0,0,0,.43-.225c.34-.315.061-.97.409-1.289.188-.176.487-.164.724-.266a1.182,1.182,0,0,0,.528-1.2A7.126,7.126,0,0,1,93.03,242.781Zm-8.938-5.473a.323.323,0,0,0,.033.168.323.323,0,0,1-.033-.168Z" transform="translate(-82.916 -234.454)"/>
  </g>
  <g id="Group_553" data-name="Group 553" transform="translate(2.037 4.402)" opacity="0.3">
    <path id="Path_556" data-name="Path 556" d="M84.143,216.59a.745.745,0,0,1,1.051.033,1.1,1.1,0,0,1,.086.818c-.061.372-.119.745-.18,1.117a.585.585,0,0,0,0,.335c.11.237.5.192.655-.02a1.023,1.023,0,0,0,.094-.757,1.456,1.456,0,0,1,0-.773c.258-.6,1.158-.507,1.681-.9a2.835,2.835,0,0,0,.667-1,1.109,1.109,0,0,1,.941-.7c.139,0,.274.053.409.049a.54.54,0,0,0,.348-.875,1.045,1.045,0,0,1-.176-.18.327.327,0,0,1,.127-.409.965.965,0,0,1,.409-.135l1.031-.16c.38-.061.867-.254.818-.63s-.491-.47-.56-.79a.929.929,0,0,0-.041-.237c-.106-.209-.409-.123-.618,0a.5.5,0,0,0-.757-.241,1.288,1.288,0,0,0-.3.708,3.424,3.424,0,0,1-1.117,1.489.929.929,0,0,1-.544.3c-.209,0-.409-.213-.335-.409s.25-.2.233-.34-.335-.164-.409-.331c.123-.5.7-.7,1.141-.969a2.745,2.745,0,0,0,1.166-1.419.356.356,0,0,0,0-.295c-.065-.123-.237-.143-.38-.143-.344,0-.765.041-.892.352a3.9,3.9,0,0,0-.057.536c-.119.524-.847.585-1.289.9a3.741,3.741,0,0,1-.5.38,1.948,1.948,0,0,1-.675.11h-.123q-.209.29-.409.589c-.131.2-.254.409-.376.605a15.7,15.7,0,0,0-1.391,3.076c-.127.376-.237.757-.331,1.145s-.176.781-.241,1.182a4.361,4.361,0,0,0,.286-1,1.829,1.829,0,0,1,.556-1.01Z" transform="translate(-83.3 -209.73)"/>
  </g>
  <g id="Group_554" data-name="Group 554" transform="translate(33.974 14.988)" opacity="0.3">
    <path id="Path_557" data-name="Path 557" d="M161.4,236.293v.217c0,.352,0,.7-.033,1.047.02-.348.033-.7.033-1.047A1.91,1.91,0,0,0,161.4,236.293Z" transform="translate(-161.37 -235.61)"/>
  </g>
  <g id="Group_555" data-name="Group 555" transform="translate(33.004 10.337)" opacity="0.3">
    <path id="Path_558" data-name="Path 558" d="M159,224.24c.074.2.147.409.213.605-.065-.2-.139-.409-.213-.605Z" transform="translate(-159 -224.24)"/>
  </g>
  <g id="Group_556" data-name="Group 556" transform="translate(17.169 3.315)" opacity="0.3">
    <path id="Path_559" data-name="Path 559" d="M137.127,219.43v-.683a6.251,6.251,0,0,0-.053-.675c-.025-.225-.037-.36-.061-.536s-.053-.376-.086-.565a14.89,14.89,0,0,0-.376-1.636c-.061-.2-.123-.409-.192-.618s-.139-.409-.213-.605h0c-.082-.151-.168-.3-.266-.446-.892-1.4-2.189-2.5-3.17-3.833-.319-.434-.569-.794-1.137-.88-.818-.131-1.264.344-1.857-.446-.164-.209-.442-.409-.679-.278.061.168.127.335.188.507a.254.254,0,0,1,0,.11c0,.119-.192.151-.295.086a1.108,1.108,0,0,1-.225-.286.818.818,0,0,0-1.227-.1.462.462,0,0,0-.266-.372.552.552,0,0,1-.691.442c-.049-.155.229-.18.323-.311s0-.295-.131-.409a1.792,1.792,0,0,0-1.109-.409,1.522,1.522,0,0,1-.757-.086c-.131-.078-.221-.2-.352-.274a.986.986,0,0,0-.92.143,1.763,1.763,0,0,0-.929.9c-.143.409.168.982.61.929a.965.965,0,0,1,.34-.037.409.409,0,0,1,.241.385,1.063,1.063,0,0,0,.074.47c.074.143.307.213.409.078a.859.859,0,0,0,.127-.818,1.08,1.08,0,0,1,.061-.818c.168-.229.65-.155.618.127,0,.168-.209.286-.2.454s.217.262.409.258a1.866,1.866,0,0,1,.52-.029c.168.041.3.262.18.385-.209.237-.761-.168-.867.127-.033.074,0,.16,0,.241,0,.245-.335.335-.585.368a1.444,1.444,0,0,1-.736-.053.462.462,0,0,1-.254-.614.282.282,0,0,0-.409.143.789.789,0,0,0-.029.458c-.266-.061-.5.164-.65.38s-.3.479-.556.556-.614-.029-.749.2c-.176.3.331.683.155.982-.1.172-.348.164-.54.217a.818.818,0,0,0-.34,1.28,1,1,0,0,0,1.411,0,4.333,4.333,0,0,0,.548-.933.855.855,0,0,1,.888-.491,1.084,1.084,0,0,1,.364.225l.511.409c.11.09.229.2.217.344s-.1.2-.135.307c-.106.307.34.593.618.409a.605.605,0,0,0,.119-.855c-.266-.36-.863-.544-.847-.99.307-.245.785,0,.965.364s.184.757.331,1.117.573.683.92.507l-.27-.933c.221-.164.479.319.749.237.16-.049.18-.282.11-.438a2.044,2.044,0,0,1-.225-.454.52.52,0,0,1,.605-.532.794.794,0,0,1,.6.65,1.354,1.354,0,0,0,.082.36c.115.241.409.315.667.409s.511.352.409.6c-.049.106-.164.213-.123.323s.184.139.184.245-.074.119-.143.147c-.168.065-.348.09-.511.168a.454.454,0,0,0-.3.409c.02.254.323.372.466.585s.115.462.2.687a2.377,2.377,0,0,0,.38.552,6.505,6.505,0,0,1,.728,1.976c.094.3.262.642.577.7a.929.929,0,0,0,.507-.1,3.068,3.068,0,0,0,1.248-.732,1.035,1.035,0,0,0,.1-1.325.258.258,0,0,0-.155-.1.5.5,0,0,0-.237.082.687.687,0,0,1-.712-.147,2.045,2.045,0,0,1-.409-.63c-.123-.25-.25-.5-.376-.753a.454.454,0,0,1,.544.053,3.3,3.3,0,0,1,.372.45,2.381,2.381,0,0,0,1.6.749,1.57,1.57,0,0,1,.454.09c.45.2.581.863,1.055,1a3.408,3.408,0,0,1,.409.09.728.728,0,0,1,.335.5,8.591,8.591,0,0,0,.3,1.113,1.035,1.035,0,0,0,.859.675.92.92,0,0,0,.646-.282h0c.02-.348.033-.7.033-1.047A1.213,1.213,0,0,1,137.127,219.43Z" transform="translate(-120.29 -207.074)"/>
  </g>
  <rect id="Rectangle_398" data-name="Rectangle 398" width="2.066" height="7.265" transform="translate(16.911 32.947)" fill="#263238"/>
  <path id="Path_560" data-name="Path 560" d="M96.262,232.379a17.733,17.733,0,0,1-8.7-33.3l.2-.11,1.2,1.661-.409.3-.953-1.272a17.205,17.205,0,0,0,8.652,32.2,17.589,17.589,0,0,0,10.937-3.815l-.722-.717.36-.368,1.133,1.121-.221.18A18.073,18.073,0,0,1,96.262,232.379Z" transform="translate(-78.32 -198.97)" fill="#263238"/>
  <rect id="Rectangle_399" data-name="Rectangle 399" width="15.893" height="1.227" transform="translate(9.699 40.212)" fill="#263238"/>
</svg>
