<svg xmlns="http://www.w3.org/2000/svg" width="69.915" height="69.915" viewBox="0 0 69.915 69.915">
  <g id="Group_618" data-name="Group 618" transform="translate(-629.227 -494.043)">
    <path id="Path_17" data-name="Path 17" d="M9178.063,0h13.755a28.179,28.179,0,0,1,28.1,28.063V41.818a28.186,28.186,0,0,1-28.1,28.1h-13.755A28.18,28.18,0,0,1,9150,41.818V28.063A28.172,28.172,0,0,1,9178.063,0Z" transform="translate(-8520.773 494.043)" fill="#5098cf" fill-rule="evenodd"/>
    <path id="Path_29" data-name="Path 29" d="M9751.441,638.371l-24.883,9.677a.912.912,0,0,0,.068,1.728l6.324,1.866,2.351,7.5a1.105,1.105,0,0,0,1.831.415l3.248-3.318,6.43,4.7a1.364,1.364,0,0,0,2.107-.795l4.25-20.321A1.282,1.282,0,0,0,9751.441,638.371Zm-3.111,4.493-11.577,10.23a.821.821,0,0,0-.207.38l-.449,3.974c0,.138-.173.138-.242,0l-1.832-5.875a.654.654,0,0,1,.276-.726l13.652-8.467A.309.309,0,0,1,9748.33,642.864Z" transform="translate(-9076.84 -121.234)" fill="#fff" fill-rule="evenodd"/>
  </g>
</svg>
