<svg xmlns="http://www.w3.org/2000/svg" width="69.915" height="69.915" viewBox="0 0 69.915 69.915">
  <g id="Group_615" data-name="Group 615" transform="translate(-313 -494.043)">
    <path id="Path_1" data-name="Path 1" d="M28.063,0H41.818a28.179,28.179,0,0,1,28.1,28.063V41.818a28.187,28.187,0,0,1-28.1,28.1H28.063A28.179,28.179,0,0,1,0,41.818V28.063A28.172,28.172,0,0,1,28.063,0Z" transform="translate(313 494.043)" fill="#612391" fill-rule="evenodd"/>
    <path id="Path_2" data-name="Path 2" d="M30.551,0H36.5A30.62,30.62,0,0,1,67.012,30.551V36.5A30.591,30.591,0,0,1,36.5,67.012H30.551A30.62,30.62,0,0,1,0,36.5V30.551A30.65,30.65,0,0,1,30.551,0Z" transform="translate(313 495.043)" fill="#7030a1" fill-rule="evenodd"/>
    <path id="Path_3" data-name="Path 3" d="M544.455,500.364v-.035c-.829-3.387-4.631-7.016-8.087-7.776h-.035a45.015,45.015,0,0,0-16.934,0h-.035a12.062,12.062,0,0,0-8.087,7.776v.035a33.138,33.138,0,0,0,0,14.273v.035c.795,3.249,4.32,6.7,7.638,7.672v3.767a1.535,1.535,0,0,0,2.627,1.071l3.836-3.974c.829.035,1.659.069,2.488.069a46.514,46.514,0,0,0,8.467-.795l.035-.035c3.456-.76,7.258-4.389,8.087-7.776v-.035A33.138,33.138,0,0,0,544.455,500.364Zm-3.007,13.582a9.1,9.1,0,0,1-5.737,5.461,39.289,39.289,0,0,1-8.986.726c-.069,0-.1.035-.173.069-.415.449-2.8,2.868-2.8,2.868l-2.972,3.076a.346.346,0,0,1-.588-.242v-6.29a.219.219,0,0,0-.173-.207h0a8.963,8.963,0,0,1-5.7-5.461,30.031,30.031,0,0,1,0-12.891,9.045,9.045,0,0,1,5.7-5.461,41.315,41.315,0,0,1,15.69,0,9.182,9.182,0,0,1,5.737,5.461A30.029,30.029,0,0,1,541.449,513.946Z" transform="translate(-179.857 19.293)" fill="#fff" fill-rule="evenodd"/>
    <path id="Path_4" data-name="Path 4" d="M765.637,735.816a6.857,6.857,0,0,1-1-.311,20.251,20.251,0,0,1-11.785-10.679c-.415-.864-.76-1.728-1.106-2.627a2.166,2.166,0,0,1,.657-2.212,5.34,5.34,0,0,1,1.728-1.313,1.171,1.171,0,0,1,1.417.311,17.119,17.119,0,0,1,2.177,3.076,1.449,1.449,0,0,1-.415,1.97c-.138.1-.311.242-.449.346a1.721,1.721,0,0,0-.346.38,1.024,1.024,0,0,0-.069.9,8.063,8.063,0,0,0,4.562,5.046,1.92,1.92,0,0,0,1.175.276c.691-.069.933-.864,1.417-1.279a1.46,1.46,0,0,1,1.659-.069c.518.346,1.037.691,1.555,1.071.484.346.968.691,1.451,1.106a1.183,1.183,0,0,1,.346,1.417,4.762,4.762,0,0,1-2.074,2.281,4.624,4.624,0,0,1-.9.311C765.257,735.713,765.914,735.713,765.637,735.816Z" transform="translate(-412.651 -198.513)" fill="#fff" fill-rule="evenodd"/>
    <path id="Path_5" data-name="Path 5" d="M992.426,690a8.5,8.5,0,0,1,8.4,7.05c.138.726.173,1.452.242,2.143a.513.513,0,0,1-.484.622c-.346,0-.484-.276-.518-.588-.035-.587-.069-1.21-.138-1.8a7.529,7.529,0,0,0-6.048-6.29c-.484-.069-.968-.1-1.417-.138-.311-.035-.691-.069-.76-.415a.488.488,0,0,1,.484-.587h.242C996.642,690.1,992.356,690,992.426,690Z" transform="translate(-644.416 -165.957)" fill="#fff" fill-rule="evenodd"/>
    <path id="Path_6" data-name="Path 6" d="M1020.237,760.908a1.066,1.066,0,0,1-.035.311.474.474,0,0,1-.9.035,1.3,1.3,0,0,1-.035-.38,5.038,5.038,0,0,0-.657-2.557,4.55,4.55,0,0,0-2-1.866,5.051,5.051,0,0,0-1.59-.518c-.242-.035-.484-.035-.726-.069-.276-.069-.449-.242-.415-.518a.427.427,0,0,1,.484-.449,6,6,0,0,1,2.765.726,5.5,5.5,0,0,1,3.041,4.32c0,.069.035.173.035.242,0,.242.035.449.035.726Z" transform="translate(-665.833 -229.848)" fill="#fff" fill-rule="evenodd"/>
    <path id="Path_7" data-name="Path 7" d="M1035.685,824.663a.529.529,0,0,1-.588-.518,4.772,4.772,0,0,0-.1-.691,1.88,1.88,0,0,0-.691-1.071,1.315,1.315,0,0,0-.588-.277c-.242-.069-.518-.069-.76-.138a.448.448,0,0,1-.38-.553.5.5,0,0,1,.518-.415,2.93,2.93,0,0,1,2.972,2.9,1.683,1.683,0,0,1-.035.415.442.442,0,0,1-.346.346C1035.3,824.663,1035.823,824.629,1035.685,824.663Z" transform="translate(-683.874 -293.957)" fill="#fff" fill-rule="evenodd"/>
  </g>
</svg>
