<svg xmlns="http://www.w3.org/2000/svg" width="69.881" height="69.915" viewBox="0 0 69.881 69.915">
  <g id="Group_617" data-name="Group 617" transform="translate(-522.885 -494.043)">
    <path id="Path_19" data-name="Path 19" d="M6101.063,2827h13.755a28.158,28.158,0,0,1,28.063,28.1v13.755a28.128,28.128,0,0,1-28.063,28.063h-13.755A28.127,28.127,0,0,1,6073,2868.852V2855.1A28.157,28.157,0,0,1,6101.063,2827Z" transform="translate(-5550.115 -2332.957)" fill="#17bf39" fill-rule="evenodd"/>
    <path id="Path_20" data-name="Path 20" d="M6103.517,2827h5.979a30.62,30.62,0,0,1,30.517,30.551v5.944a30.62,30.62,0,0,1-30.517,30.551h-5.979A30.62,30.62,0,0,1,6073,2863.5v-5.944A30.62,30.62,0,0,1,6103.517,2827Z" transform="translate(-5550.115 -2331.957)" fill="#1bd741" fill-rule="evenodd"/>
    <path id="Path_26" data-name="Path 26" d="M6635,3357.625l2.281-8.122a16.232,16.232,0,1,1,6.082,5.979Zm8.778-5.115.519.311a13.527,13.527,0,1,0-4.354-4.251l.345.519-1.313,4.666Z" transform="translate(-6092.693 -2812.957)" fill="#fff" fill-rule="evenodd"/>
    <path id="Path_27" data-name="Path 27" d="M6872.423,3575.069l-1.071-.069a1.42,1.42,0,0,0-.9.311,5.012,5.012,0,0,0-1.59,2.419c-.38,1.693.207,3.732,1.728,5.771a17,17,0,0,0,9.228,6.7,4.468,4.468,0,0,0,3.8-.484,3.41,3.41,0,0,0,1.486-2.143l.173-.795a.662.662,0,0,0-.311-.622l-3.56-1.625a.592.592,0,0,0-.691.173l-1.382,1.8a.378.378,0,0,1-.449.138,11.034,11.034,0,0,1-5.944-5.081.434.434,0,0,1,.069-.449l1.313-1.555a.541.541,0,0,0,.1-.553l-1.556-3.594A.478.478,0,0,0,6872.423,3575.069Z" transform="translate(-6318.365 -3053.957)" fill="#fff" fill-rule="evenodd"/>
  </g>
</svg>
