<svg id="Layer_1" data-name="Layer 1" xmlns="http://www.w3.org/2000/svg" viewBox="0 0 235 244.79"><defs><style>.cls-1{fill:#353535;}</style></defs><title>Cardio</title><path class="cls-1" d="M375.05,274.78c-1.14-7.75-2.3-15.76-3.07-24.21-2.79-30.62-8.54-64.09-39.86-79.49a104.63,104.63,0,0,1,12-7.59,7.89,7.89,0,0,0-7.44-13.92c-14.15,7.57-33.1,21.22-43,43.21a7.89,7.89,0,1,0,14.4,6.46,63.71,63.71,0,0,1,9.58-14.9c6.11,15.4,3.18,31.71,0,49-5.22,28.51-11.09,60.6,26.33,90-12.72,2.52-31.73,1.66-58.16-.89-42.73-4.12-91.66-41-95.62-64.52-.84-4.94-.51-10.44-.2-15.77.15-2.29.26-4.47.3-6.47.79-45,37-58,61-66.65,4.47-1.61,8.42-3,11.77-4.53l7.65-.06,2.54,0c-.83,1.12-1.65,2.18-2.49,3.36a7.9,7.9,0,0,0,12.82,9.23c13.33-18.52,24.77-30,37.09-37.29a7.9,7.9,0,0,0-8-13.61c-9.19,5.43-17.82,12.73-26.72,22.65-1.78-.22-5.34-.23-13.93-.11,3.87-11.55,8.48-19.18,17.35-24.89a7.89,7.89,0,1,0-8.54-13.28c-15.76,10.15-21.61,24.78-26,40.39-2.52,1-5.51,2.11-8.85,3.33-2.14.76-4.5,1.62-6.92,2.54a92.13,92.13,0,0,1,20.47-42.39,7.9,7.9,0,0,0-12-10.26,108.77,108.77,0,0,0-14.47,21.8,127.09,127.09,0,0,1-3.27-17.58,7.89,7.89,0,1,0-15.68,1.83,124,124,0,0,0,6.8,29.46,86.17,86.17,0,0,0-15,.05,8,8,0,0,0-.31-1.74,133.56,133.56,0,0,1-7.43-29.8,7.89,7.89,0,1,0-15.63,2.22,149.13,149.13,0,0,0,8,32.33,71.79,71.79,0,0,0-20.1,9.67,62.24,62.24,0,0,0-26.23,41.18c-7.09,42.93,17.88,67.93,29.07,76.76-3.46,12.83-9.95,44.63,2,71.17a7.89,7.89,0,1,0,14.4-6.46c-7.53-16.79-5.86-37.08-3.36-50.55a107.88,107.88,0,0,0,12,13.14c-2.3,14.57.83,30.39,8.82,44.53A7.9,7.9,0,0,0,221,334.26a56.42,56.42,0,0,1-7.33-24.36c20.78,14.73,46.86,25.91,70.77,28.21,15.13,1.46,28.76,2.58,40.71,2.58,19.71,0,34.85-3.06,44.57-12.74,11.48-11.43,8.79-29.85,5.37-53.17M159.82,196a46.66,46.66,0,0,1,19.68-30.8c12-8.34,27.33-11.65,43.7-9.61-.48,2.62-.87,5.26-1.17,7.95a3,3,0,0,0,0,.42c-22.63,11.23-46.77,31-47.47,71.37,0,1.81-.14,3.77-.27,5.82-.15,2.49-.28,5.13-.32,7.84-8.84-10.31-18.35-27.76-14.19-53m173.45,40.13c2.59-14.12,5.2-28.6,3-43.27,12.93,12.23,17.5,31.94,20,59.12.81,8.89,2.07,17.49,3.18,25.07,2.45,16.76,4.51,31.31.25,38.05-36.26-24.87-31.72-50-26.41-79" transform="translate(-143 -101.25)"/></svg>