<svg id="Layer_1" data-name="Layer 1" xmlns="http://www.w3.org/2000/svg" viewBox="0 0 264 336"><title>Certaficat</title><path d="M315.75,88.5c0,13.84,0,27.08,0,40.32,0,19,12.79,31.65,31.81,31.68l39,0a9.81,9.81,0,0,1,1.2.31V404.23c0,13.06-7.15,20.27-20.09,20.27H143.86c-12.94,0-20.11-7.22-20.11-20.25V108.84c0-13.23,7.12-20.34,20.38-20.34H315.75Zm-150,78c0,4.05,0,7.54,0,11,.08,4.68,2.25,6.91,6.89,6.95q11.06.11,22.11,0c4.68,0,6.89-2.24,7-6.87.07-3.59,0-7.18,0-11.11,3.83,0,7.29,0,10.76,0,5-.06,7.18-2.17,7.22-7q.09-11.06,0-22.11c0-4.63-2.28-6.79-7-6.87-3.58,0-7.16,0-11,0,0-3.91,0-7.39,0-10.86-.07-4.91-2.21-7.09-7.1-7.13q-10.86-.08-21.73,0c-4.93,0-7.08,2.19-7.15,7.07,0,3.57,0,7.14,0,10.48a5.07,5.07,0,0,1-.83.35c-3.37,0-6.75,0-10.12.1-4.72.08-7,2.2-7,6.8q-.11,11.24,0,22.48c0,4.41,2.32,6.6,6.77,6.69C158.13,166.56,161.73,166.5,165.75,166.5Zm59.92,126h69c1,0,2,.05,3,0,3.58-.26,6-2.65,6.06-5.91s-2.36-5.75-5.9-6c-.87-.07-1.75,0-2.63,0H156.45a19.93,19.93,0,0,0-3.37.08c-3.23.57-5.21,2.52-5.25,5.84s1.89,5.34,5.1,6a20.26,20.26,0,0,0,3.74.11Zm-11.92-48h57.37a18,18,0,0,0,3.37-.1c3.22-.61,5.18-2.59,5.18-5.91s-2-5.3-5.19-5.9a18.88,18.88,0,0,0-3.37-.09H156.37a18,18,0,0,0-3.37.1c-3.23.6-5.17,2.58-5.17,5.9s2,5.3,5.18,5.9a18,18,0,0,0,3.37.1Zm87.38-36H246.38a16.51,16.51,0,0,0-3.73.15c-3,.71-4.83,2.68-4.83,5.83s1.81,5.13,4.82,5.85a16.51,16.51,0,0,0,3.73.15H355.11a18,18,0,0,0,3.37-.1c3.22-.6,5.19-2.58,5.19-5.9s-1.95-5.3-5.18-5.91a18.88,18.88,0,0,0-3.37-.09Zm2.62,48H252.38a18.88,18.88,0,0,0-3.37.09c-3.23.6-5.18,2.58-5.18,5.9s1.95,5.3,5.18,5.91a17.91,17.91,0,0,0,3.36.1H355.11a18,18,0,0,0,3.37-.1c3.22-.6,5.19-2.59,5.19-5.9s-1.95-5.31-5.18-5.91a18.91,18.91,0,0,0-3.37-.09Zm-96,84h51.37a18,18,0,0,0,3.37-.1c3.22-.6,5.19-2.58,5.19-5.9s-1.95-5.32-5.18-5.9a21.15,21.15,0,0,0-3.74-.1h-102a21.29,21.29,0,0,0-3.75.1c-3.23.58-5.18,2.57-5.18,5.89s1.95,5.3,5.17,5.91a18,18,0,0,0,3.37.1Zm88,27.81c.8,1.45,1.18,2,1.39,2.52,1.6,4.36,4.66,6.06,9.3,5.73,4.35-.3,8.74.07,13.1-.12a15.89,15.89,0,0,0,6.09-1.28c11.2-5.44,22.33-11.05,33.45-16.65,4.31-2.17,5.68-5.29,4-8.66s-5-4.18-9.28-2.07c-9.82,4.88-19.75,9.56-29.38,14.79-5.29,2.87-10.81,2.26-16,1.51-2-.29-3.36-5-5-7.66l-.18-.32c-2.45-4.14-6.47-4.85-10-1.54-3.9,3.68-7.67,7.51-11.39,11.38-2.7,2.82-2.77,6.22-.4,8.68s6,2.52,9-.33C292.2,372.57,293.75,370.59,295.78,368.31ZM190,256.5q-17.25,0-34.49,0c-5,0-7.82,2.22-7.77,6.07s2.79,5.91,7.55,5.91q34.5,0,69,0c4.68,0,7.45-2.34,7.4-6.07s-2.79-5.9-7.56-5.91Q207.11,256.48,190,256.5Zm137.53-12c9.62,0,19.24,0,28.87,0,4.47,0,7.16-2.22,7.28-5.81.12-3.74-2.68-6.16-7.3-6.17q-28.68,0-57.36,0c-4.52,0-7.16,2.18-7.28,5.81s2.66,6.15,7.29,6.17C308.57,244.52,318.07,244.5,327.57,244.5ZM256,316.5c9.37,0,18.74,0,28.12,0,4.77,0,7.51-2.17,7.58-5.89s-2.7-6.09-7.37-6.09q-28.68,0-57.37,0c-4.48,0-7.13,2.24-7.2,5.88s2.69,6.09,7.36,6.1C236.77,316.52,246.39,316.5,256,316.5Zm-60.51-96c7.63,0,15.25,0,22.87,0,4.64,0,7.43-2.4,7.34-6.14s-2.78-5.83-7.24-5.84q-22.69,0-45.37,0c-4.66,0-7.42,2.37-7.33,6.13s2.74,5.83,7.24,5.85C180.52,220.53,188,220.5,195.51,220.5Zm-17.91,96c7.63,0,15.25,0,22.87,0,4.46,0,7.16-2.25,7.25-5.85s-2.69-6.12-7.33-6.13q-22.69,0-45.37,0c-4.5,0-7.15,2.21-7.24,5.84s2.66,6.12,7.33,6.14C162.61,316.52,170.1,316.5,177.6,316.5Zm155.77,0c7.75,0,15.5,0,23.25,0,4.4,0,7.1-2.37,7.1-6s-2.69-6-7.11-6q-22.86,0-45.74,0c-4.43,0-7.09,2.33-7.09,6s2.68,6,7.1,6C318.38,316.53,325.88,316.5,333.37,316.5Zm6.37-24c5.62,0,11.25,0,16.87,0,4.4,0,7.1-2.36,7.11-6s-2.69-6-7.09-6q-16.87,0-33.75,0c-4.44,0-7.09,2.32-7.1,6s2.67,6,7.09,6C328.49,292.54,334.11,292.5,339.74,292.5Zm-42,108c3.87,0,7.75.09,11.62,0s6.35-2.58,6.35-6-2.52-5.91-6.35-5.95q-11.62-.15-23.25,0c-3.84,0-6.34,2.55-6.34,6s2.51,5.86,6.35,6S293.87,400.49,297.75,400.49Zm48-12c-3.87,0-7.75-.08-11.62,0s-6.36,2.51-6.39,5.92,2.48,6,6.3,6q11.63.15,23.25,0c3.83,0,6.36-2.53,6.39-5.92s-2.49-5.9-6.31-6S349.66,388.51,345.79,388.51Z" transform="translate(-123.75 -88.5)"/><path d="M327.94,98l50.27,50.23a22,22,0,0,1-2.45.26c-9.75,0-19.5,0-29.24,0-11-.07-18.69-7.66-18.75-18.58-.07-10.37,0-20.74,0-31.11A4.28,4.28,0,0,1,327.94,98Z" transform="translate(-123.75 -88.5)"/><path d="M177.75,172.5c0-3.62,0-6.84,0-10.05,0-5.92-2-7.92-7.78-7.95H160v-12c3.33,0,6.66,0,10,0,5.65,0,7.71-2.06,7.76-7.6,0-3.34,0-6.68,0-10.2h12c0,3.37,0,6.8,0,10.24,0,5.41,2.08,7.5,7.41,7.55,3.35,0,6.7,0,10.32,0v12c-3.34,0-6.66,0-10,0-5.66,0-7.71,2-7.75,7.6,0,3.33,0,6.67,0,10.4h-12Z" transform="translate(-123.75 -88.5)"/></svg>