<svg id="Layer_1" data-name="Layer 1" xmlns="http://www.w3.org/2000/svg" viewBox="0 0 205.29 269"><defs><style>.cls-1{fill:#353535;}</style></defs><title>Digestif</title><path class="cls-1" d="M281.48,250.82c38.81,0,66.58-27.52,70.8-70.76,0,0,0-6.75,0-7.38-1.14-30.22-22.24-54.44-49-56.35-2.22-.17-7.86,0-8,0-9.46,0-15-1.16-17.46-3.63s-3.53-7.91-3.39-17.52a7.07,7.07,0,0,0-7-7.17h-.1a7.08,7.08,0,0,0-7.08,7c-.15,10.29.66,20.77,7.48,27.66s17.63,7.85,27.95,7.84c0,0,4.92-.14,6.54,0,21.52,1.52,35.16,22.94,35.91,42.74,0,.85,0,6.16,0,6.18-3.49,35.34-25.2,57.28-56.66,57.28H239a13.85,13.85,0,0,0-14.17,14.16v13.26A229.55,229.55,0,0,1,184,258.63c-9.15-2.23-19.6.77-27.2,7.86a29.88,29.88,0,0,0-9.3,27.54c.84,3.62,8.53,35.59,14.53,46.07,6.91,12.07,20.18,16.9,33.2,16.9a54.18,54.18,0,0,0,12.49-1.47c18.23-4.38,30.5-17.27,31.28-33.17v-16c23.68-.26,45.77-2.85,57-5.42.06,1.35,0,2.95,0,4.21v2.42a7.08,7.08,0,0,0,14.16,0v-2.27c.07-6.38.14-13-4.88-16.87-2-1.57-5.59-3.12-11.14-1.64-16.11,4.36-74.43,9.75-109.56,0a7.06,7.06,0,0,0-8.89,5.87,70.23,70.23,0,0,0,0,15.63c1.15,11.17,8.51,18.54,20.2,20.23a14.33,14.33,0,0,0,1.83.13,11.49,11.49,0,0,0,7.62-2.82c3.9-3.37,5.72-9.18,5.72-18.27v-2.13c4.54.38,9.15.63,13.78.77V322c-.54,11.07-10.9,17.45-20.42,19.73-10.64,2.57-24.6.92-30.1-8.69-4.24-7.38-10.86-33-13-41.84a15.85,15.85,0,0,1,5.1-14.38c4.09-3.82,9.64-5.54,14.21-4.46,34.12,8.27,86.55,8.24,116.85-.05,3.58-1,7.07.93,9.39,2.69,5.79,4.42,10,12.37,10,18.91a7.08,7.08,0,1,0,14.16,0c0-10.94-6.26-23.06-15.57-30.17-6.86-5.23-14.58-7-21.71-5.09-14.5,4-34.44,5.89-54.77,5.79V250.82Zm-84.6,56.78a26.57,26.57,0,0,1-.64,6.64c-4.82-1.14-6.11-3.78-6.48-7.37-.16-1.53-.25-3-.29-4.34,2.4.49,4.88.92,7.41,1.31Z" transform="translate(-147 -88)"/><path class="cls-1" d="M203.63,250.81a7.07,7.07,0,0,0,7.08-7.08V229.58a6.7,6.7,0,0,1,7.08-7.08h7.13a42.68,42.68,0,0,0,30.25-12.58A41.77,41.77,0,0,0,267.34,180V165.82c-.09-12.61-6.71-25.9-16.87-33.84-2.94-2.3-4.37-7.42-4.37-15.66V95.08a7.08,7.08,0,1,0-14.16,0v21.24c0,8.21,1,19.92,9.8,26.81,6.79,5.3,11.38,14.46,11.44,22.74v14.2A27.71,27.71,0,0,1,245.12,200a28.57,28.57,0,0,1-20.25,8.39h-7.08a20.77,20.77,0,0,0-21.24,21.24v14.15a7.07,7.07,0,0,0,7.08,7.08" transform="translate(-147 -88)"/></svg>