<svg id="Layer_1" data-name="Layer 1" xmlns="http://www.w3.org/2000/svg" viewBox="0 0 208.93 325.55"><title>Ear</title><path d="M361.63,194.05c-.22,39.38-16.08,71-45.82,96.17-9.34,7.89-18.65,15.82-27.65,24.09s-16.6,18.1-19,30.64c-1.12,5.9-1,12-1.75,18-3.36,27.15-25.82,48.23-53.44,50.28-27.06,2-52.69-16-59.85-42.08-2-7.23,1.06-13.39,7.6-15.32s12.38,1.66,14.63,8.89c5.29,17.06,21.3,27.71,38,25.27,18.05-2.64,30.37-16.89,30.56-35.36.21-19.32,7.27-36,20.47-49.8,9.11-9.49,19.25-18,29.14-26.73,9.27-8.17,18.38-16.43,25.92-26.34,20.84-27.43,25.25-77.45,1-108.51-20.18-25.88-53.83-37.92-85.45-29.59a81.51,81.51,0,0,0-60.24,67.77c-1,7.27-6.57,11.91-13.2,10.93s-10.81-7-9.69-14.17C160,132.66,192.07,99,237,89.84c55.23-11.24,111.5,26.52,121.88,81.93C360.23,179.11,360.73,186.62,361.63,194.05Z" transform="translate(-152.7 -87.85)"/><path d="M221.55,197.63c-1.61,5.56,1.06,8.53,7.49,11.23,19.82,8.3,30.41,29.37,26.57,50.52-3.68,20.24-21.2,35.9-42.09,37.61-1,.08-1.94.11-2.9.1-6.88,0-12.05-4.82-12.2-11.3s4.83-11.49,11.69-11.81c10.93-.51,19.6-7.13,22.34-17a23.61,23.61,0,0,0-21-29.57c-9.2-.66-13-4.71-13-13.85S197.83,195,199,186c4.32-33.63,32.46-55,66.12-50.81,27.5,3.41,50.18,29.68,49.41,57.23-.14,4.92-2.37,8.6-6.87,10.66a10.9,10.9,0,0,1-11.93-1.57c-3.17-2.51-4.26-5.95-4.36-9.93a34.92,34.92,0,0,0-69.81-.07C221.51,193.18,221.55,194.87,221.55,197.63Z" transform="translate(-152.7 -87.85)"/></svg>