<svg xmlns="http://www.w3.org/2000/svg" width="44.917" height="38.5" viewBox="0 0 44.917 38.5">
  <g id="Group_595" data-name="Group 595" transform="translate(-692 -190)">
    <path id="Path_818" data-name="Path 818" d="M735.633,200.267H722.8v-8.983A1.283,1.283,0,0,0,721.517,190H693.283A1.283,1.283,0,0,0,692,191.283v35.933a1.283,1.283,0,0,0,1.283,1.283h28.233a1.283,1.283,0,0,0,1.283-1.283V202.833h11.55v23.1h-5.133a1.283,1.283,0,0,0,0,2.567h6.417a1.283,1.283,0,0,0,1.283-1.283V201.55a1.283,1.283,0,0,0-1.283-1.283m-29.517,25.667h-5.133V216.95h5.133Zm2.567-8.983h5.133v8.983h-5.133Zm11.55,8.983h-3.85V215.667a1.283,1.283,0,0,0-1.283-1.283H699.7a1.283,1.283,0,0,0-1.283,1.283v10.267h-3.85V192.567h25.667Z" transform="translate(0 0)" fill="#262626"/>
    <path id="Path_819" data-name="Path 819" d="M708.983,200.85h-2.567v-2.567a1.283,1.283,0,1,0-2.567,0v2.567h-2.567a1.283,1.283,0,0,0,0,2.567h2.567v2.567a1.283,1.283,0,0,0,2.567,0v-2.567h2.567a1.283,1.283,0,0,0,0-2.567" transform="translate(2.267 1.983)" fill="#262626"/>
  </g>
</svg>
