<svg xmlns="http://www.w3.org/2000/svg" width="32" height="44.308" viewBox="0 0 32 44.308">
  <g id="Group_594" data-name="Group 594" transform="translate(-820 -62)">
    <path id="Path_814" data-name="Path 814" d="M824,73.231V97.846a1.23,1.23,0,0,0,1.231,1.231h19.692a1.23,1.23,0,0,0,1.231-1.231V85.539a1.231,1.231,0,0,0-2.462,0v3.692a7.392,7.392,0,0,0-7.385,7.385h-9.846V74.462h15.59a1.231,1.231,0,1,0,0-2.462H825.231A1.23,1.23,0,0,0,824,73.231m19.692,18.462v4.923h-4.923a4.928,4.928,0,0,1,4.923-4.923" transform="translate(0.923 2.308)" fill="#262626"/>
    <path id="Path_815" data-name="Path 815" d="M850.77,69.371h-9.188l-4.553-6.832,0,0,0,0a1.139,1.139,0,0,0-.229-.226.988.988,0,0,0-.112-.114h0a1.252,1.252,0,0,0-.447-.182,22.345,22.345,0,0,0-.47,0,1.217,1.217,0,0,0-.789.524l0,0,0,0-4.553,6.832h-9.188A1.23,1.23,0,0,0,820,70.6v34.475a1.23,1.23,0,0,0,1.231,1.231H850.77A1.23,1.23,0,0,0,852,105.077V70.6a1.231,1.231,0,0,0-1.231-1.231M836,65.435l2.624,3.936h-5.248Zm13.539,38.41H822.462V71.834h27.077Z" transform="translate(0)" fill="#262626"/>
    <path id="Path_816" data-name="Path 816" d="M829.231,78.462h3.692a1.231,1.231,0,0,0,0-2.462h-3.692a1.231,1.231,0,0,0,0,2.462" transform="translate(1.846 3.231)" fill="#262626"/>
    <path id="Path_817" data-name="Path 817" d="M829.231,82.462h11.077a1.231,1.231,0,0,0,0-2.462H829.231a1.231,1.231,0,0,0,0,2.462" transform="translate(1.846 4.154)" fill="#262626"/>
  </g>
</svg>
