<svg id="Layer_1" data-name="Layer 1" xmlns="http://www.w3.org/2000/svg" viewBox="0 0 288.99 288.91"><title>Hematologie</title><path d="M376.34,390.47c-5.79-4.17-12.13-7.77-17.25-12.64-13.31-12.65-26.08-25.86-39.26-39-3,2.86-5.62,5.34-8.72,8.27-1.89-2.1-3.72-4.12-5.9-6.52l7.8-8.63-7.14-6.41c-14.36,5.24-27.94,11.78-42.26,15.16C195,356.88,125.7,307.35,118,237.33a18.91,18.91,0,0,0-1.09-3.56V211.93c1.22-6,2.29-12.09,3.68-18.09C134,135.9,191.12,95.52,250,102.31c89.79,10.36,137.34,106,91.33,183.6l-2.11,3.61,8.39,7.88,8.49-7.89c1.63,2.45,3.26,4.88,5.35,8l-9.18,6.8c5.91,5.21,10.88,9.23,15.44,13.68q15.17,14.79,30,29.93c14.11,14.35,9.4,34.47-9.59,41.48a6.77,6.77,0,0,0-1.47,1.08ZM237.89,110.6c-61.34.12-112,50.77-111.88,111.89.11,61.86,50.5,112.28,112.22,112.28,61.12,0,112-50.83,112-111.93C350.16,161.19,299.43,110.48,237.89,110.6ZM326.2,332.5Q337.63,343.81,349,355c7.42,7.38,14.64,15,22.27,22.11a14.5,14.5,0,0,0,20.76-.28c5.76-5.72,6.8-14.43,1.18-20.2-15-15.41-30.46-30.35-45.56-45.31Zm8.48-34.11L314,319.46l5.14,4.93,20.77-20.69Z" transform="translate(-116.88 -101.56)"/><path d="M238.46,120.32c56.77.13,102.2,46.12,102,103.23-.2,56.8-46.33,101.64-104.4,101.48-55.09-.15-100.37-46.64-100.26-102.94A102,102,0,0,1,238.46,120.32Zm-.52,195.42c48.71,1.41,92.63-41,93.38-89.42.85-54.1-40.18-96.78-93-96.78a93.1,93.1,0,0,0-93.46,93.73c.28,54.29,46,89.62,81.14,91.15-7.78-8.62-8.46-17-1.86-22.84a13.9,13.9,0,0,1,20,1.66C249.77,300.11,247.64,308.48,237.94,315.74Zm-4.37-6.7c2.13-3.67,4.23-5.69,4.09-7.54-.12-1.55-2.89-4.07-4.41-4s-4.19,2.69-4.21,4.24C229,303.58,231.22,305.48,233.57,309Z" transform="translate(-116.88 -101.56)"/><path d="M180.58,214.13c-10.26-16.65-10-35.14.52-48.85,8.9-11.59,21.08-14.72,38-9.41,6.86-9.68,16.54-15.12,28.56-16.84,21.13-3,41.57,13,41.5,32.8-.06,14.59-12.35,28.61-28.37,31-7.63,1.12-15.56.19-24.25.19L227,219c14.91,16.11,15.73,40.33-2.92,55.82-15.38,12.78-38.35,10.5-51.36-4.6C158.16,253.42,161,232.28,180.58,214.13Zm20.25,59.79A28,28,0,0,0,201,218c-15.58-.07-28.51,12.61-28.38,27.85A28.13,28.13,0,0,0,200.83,273.92ZM281.3,170.67c-2.4-4.59-4-9.85-7.35-13.63-11.49-13.06-34.56-12-45.37,1.69-6.32,8-6.16,18,.41,25.83,5.73,6.83,13.36,9.74,21.95,10.3C266.2,195.85,280,184.54,281.3,170.67Zm-62.09,42.42c1.84-2.51,4-5.13,5.8-7.94,3.05-4.7,3.74-8.74-1.43-13.17a24.1,24.1,0,0,1-8.45-21.86c.84-6.07-2.1-7.26-6.31-7.81a22,22,0,0,0-8.8.63c-18.39,5.4-22.91,31.06-12.15,45.38a4.89,4.89,0,0,0,3.66,1.54c3.1-.15,6.17-.79,9.9-1.33-9.65-7.1-12-16.24-8.43-26.76,1.82-5.42,5.27-9.73,13.66-9.9-1.46,4-3.12,7.25-3.72,10.65-.78,4.4-1.49,9.07-.81,13.4s3.11,8.22,5.12,13.16Z" transform="translate(-116.88 -101.56)"/><path d="M246.11,260.08c1.51-23,18.21-39.4,38.4-36.77,9.59,1.25,16.65,6.64,21.51,14.6,8.91,14.62,9.05,29.66-.06,44.18-12.74,20.32-40.23,20.06-52.28-.68C250,275,248.56,267.23,246.11,260.08Zm57.22-.18c-.11-1.88-.1-3.6-.32-5.29-1.56-11.87-10.75-21.63-21.15-22.55-10.87-.95-20.47,6.53-23.92,19-2.71,9.76-1.41,19.07,4.56,27.39,7.08,9.86,19.31,12.51,28.71,6.06C299.8,278.61,303.31,270,303.33,259.9Z" transform="translate(-116.88 -101.56)"/><path d="M317.25,203.89a14.24,14.24,0,0,1-13.82,14c-7.38.17-13.91-6.26-14-13.78a13.91,13.91,0,0,1,27.82-.21ZM310,203.8c-3.16-2-5.09-4.24-7-4.2-1.49,0-4.38,3.24-4.07,4.28a7.37,7.37,0,0,0,4.75,4.51C305.1,208.65,307,206.11,310,203.8Z" transform="translate(-116.88 -101.56)"/><path d="M200.14,264.35c-11.71-1.67-18.12-8.71-17.82-19.16.28-9.63,7.14-16.4,17.93-17.43v7.74c-2.09,1.42-4.65,2.63-6.5,4.53-4,4.09-3.24,11.26,2.12,13.64S200.93,259.53,200.14,264.35Z" transform="translate(-116.88 -101.56)"/><path d="M233.88,170.5c4,1.34,7.25,3,10.65,3.44a61.22,61.22,0,0,0,14.63.18c3.44-.4,6.7-2.3,10.55-3.72-.24,9.09-6.25,14.16-15.55,14.66C242.54,185.68,235.23,181,233.88,170.5Z" transform="translate(-116.88 -101.56)"/><path d="M278.5,241.24C289.14,243.39,294,250.09,294,260s-4.9,16.47-15.19,18.45c1.55-4.35,2.47-8,4.11-11.31a14.93,14.93,0,0,0,.13-14.06C281.42,249.74,280.33,246.11,278.5,241.24Z" transform="translate(-116.88 -101.56)"/></svg>