<svg id="Layer_1" data-name="Layer 1" xmlns="http://www.w3.org/2000/svg" viewBox="0 0 252 292.65"><defs><style>.cls-1{fill:#353535;}</style></defs><title>Locomoteur</title><path class="cls-1" d="M170.28,169.72c24.38-29.32,42.69-35.14,68-43.18,3.1-1,6.29-2,9.56-3.08a109.19,109.19,0,0,1,15.69-4c9.19-1.73,14.6-3.12,27.56-13.73a8.13,8.13,0,1,0-10.3-12.57c-10.35,8.47-13.25,9-20.26,10.32a125.86,125.86,0,0,0-17.78,4.5c-3.22,1.06-6.34,2-9.39,3-25.86,8.21-48.19,15.3-75.6,48.28-33.24,40-39.58,88.21-44.67,127-3,22.56-5.52,42-12.69,52.46a8.13,8.13,0,1,0,13.4,9.21c9.38-13.63,12.18-34.92,15.41-59.55,4.82-36.69,10.82-82.35,41-118.69" transform="translate(-99 -91.35)"/><path class="cls-1" d="M172.17,302.71a8.15,8.15,0,0,0,7.58-5.19c19.27-49.66,45.08-63.63,76.8-76.72a8.14,8.14,0,1,0-6.21-15c-34.14,14.11-64.18,30.3-85.76,85.88a8.11,8.11,0,0,0,7.59,11.07" transform="translate(-99 -91.35)"/><path class="cls-1" d="M344.27,205.28a8.14,8.14,0,0,0-9.42,6.61c-11.48,65.67-41.19,102-103,125.51-11.24,5.23-28.09,8.5-44.39,11.66-13.92,2.71-28.08,5.5-40.15,9.67,9.69-13.76,25-22.88,28-24.13l1.07-.42c18.23-7.17,51.07-21,66-33.32,20.57-16.92,31-37.09,43.08-68.39,6.88-17.88,12.83-24.83,22.67-36.35,2.61-3.06,5.44-6.38,8.57-10.22,0-.05,0-.1.07-.15s.1-.05.13-.1l24.39-32.52a8.13,8.13,0,0,0-13-9.75l-13,17.29c-.12-7.79,2-16,9-22.93l8.14-8.13a8.13,8.13,0,0,0-11.5-11.49l-32.12,32.11c-6.8,5.5-16,9.36-27.61,14.22-16.88,7.07-37.9,15.86-61.5,34.3-38.81,30.34-52.18,70.73-59.36,92.42L140,292a8.13,8.13,0,0,0,15.44,5.11l.28-.86c6.64-20.06,19-57.42,53.92-84.72,21.88-17.1,41.78-25.42,57.77-32.11,12.34-5.16,23-9.61,31.63-16.62a67.33,67.33,0,0,0,2.74,15.55c-2.17,2.61-4.17,5-6.07,7.17-10.21,12-17.59,20.59-25.48,41.08-11.07,28.7-20.44,47-38.23,61.67-9.65,7.93-32.11,19.13-61.64,30.75l-1.41.56c-8,3.36-41.12,23.74-45.55,55.13,0,.07,0,.13,0,.2a8,8,0,0,0,.11,1.83,8.33,8.33,0,0,0,.14,1.33,33,33,0,0,0,1.45,2.8,1.74,1.74,0,0,0,.1.19c.2.24.48.32.7.53a7.77,7.77,0,0,0,1.82,1.39,8.25,8.25,0,0,0,1.34.48,8.39,8.39,0,0,0,1.25.44,8.79,8.79,0,0,0,1.13.07,8.2,8.2,0,0,0,2.81-.5,10.14,10.14,0,0,0,1.1-.64,6.75,6.75,0,0,0,1.3-.75c10.35-8.65,32.47-12.94,53.86-17.09,17.26-3.35,35.11-6.81,47.61-12.65,66.57-25.32,100.29-66.5,112.75-137.68a8.13,8.13,0,0,0-6.61-9.41" transform="translate(-99 -91.35)"/></svg>