<svg id="Layer_1" data-name="Layer 1" xmlns="http://www.w3.org/2000/svg" viewBox="0 0 367.95 409.6"><title>Neurologique</title><path d="M312,446.4H300.8a6.5,6.5,0,0,0-1.46-.55c-17.07-2.26-30.87-10.33-41.65-23.62-2.57-3.16-4.79-6.6-7.17-9.91-.35.19-.65.25-.77.44-.54.75-1.05,1.54-1.54,2.33C241.89,425.46,233.6,434,222.57,439c-7.15,3.27-15,5-22.57,7.39H188.8a12.89,12.89,0,0,0-1.9-.56c-19.59-2.7-35-12.22-45.86-28.7-1.46-2.22-3.1-2.76-5.53-2.9-32-1.91-55.37-32-52.83-62.22.26-3-.16-5.13-2.26-7.44-15.68-17.27-18.57-44-6.69-63.48,2.4-3.93,2.21-6.65.09-10.67-12.31-23.3-9.43-51.14,10.48-69.56,1.63-1.51,2.24-2.71,1.41-5.09a58.2,58.2,0,0,1,25.22-68.55c2.73-1.62,3.7-3.28,3.59-6.56a48.26,48.26,0,0,1,33.6-47.32,9.19,9.19,0,0,0,4.67-4.19,63,63,0,0,1,22.46-24.37c6.89-4.34,14.54-6.35,22.35-8H208a18.93,18.93,0,0,0,2.27.67A55.29,55.29,0,0,1,244.4,57.26c2.08,2.5,4,5.18,5.47,7.17C255.42,58.8,260.5,53,266.26,48c7.53-6.53,16.94-9.23,26.54-11.18h10.4a2.39,2.39,0,0,0,.69.39c20.58,3.07,34.92,14.56,44.45,32.69a7.61,7.61,0,0,0,4,3.38c21.37,7.07,34.84,26,34,48.22-.1,2.67.7,4,2.93,5.34,24.32,14.55,34.62,42.4,25.93,69.41a4.61,4.61,0,0,0,.89,4c20.4,18.42,23.82,47.95,9.85,72.34-1.46,2.54-1.28,4.33.23,6.81,13.07,21.57,10.45,47.29-6.42,66.21a8.51,8.51,0,0,0-1.73,4.87c-.31,5,.18,10.12-.46,15.09-3.3,25.85-26.76,47.51-52.6,48.72a5.65,5.65,0,0,0-5.12,2.89c-6.55,10.23-15.24,18.28-26.47,22.91C326.49,442.87,319.12,444.33,312,446.4ZM87.68,288.72c.22-.31-.13.1-.38.56a38.64,38.64,0,0,0,7.55,47.21c4.08,3.79,5.65,7.62,4.38,13.06-1.74,7.5-.47,14.84,2.26,21.94,6.22,16.2,22.2,27.94,37.56,26.64,7-.59,10.6,1.88,13.95,7.73,9.36,16.42,24,24.69,42.86,24.41,25.1-.38,46.3-23.37,46.53-49.8a48.11,48.11,0,0,0-46.08-48.42c-6.27-.29-9.91-3.31-9.85-8.14.08-5,4.12-8.13,10.44-7.81a63.41,63.41,0,0,1,42.55,18.61c.79.78,1.66,1.47,3,2.61V189.1c0-12.59-4.15-17.48-16.61-19.59-4.59-.78-7.67-4.39-7.29-8.53s3.85-7.29,8.53-7.32a18.92,18.92,0,0,1,4.75.54c3.5.9,7,2,10.62,3.07,0-20.2.08-40.19,0-60.18-.09-17.92-7.94-31.41-23.63-40.18-16.23-9.08-41-1.42-48.28,15,1.44.35,2.87.67,4.28,1A47,47,0,0,1,196,85.05a7.9,7.9,0,0,1,.76,10.85c-2.73,3.34-7.17,3.79-11.08,1.08-1-.68-1.9-1.45-2.83-2.21-14.66-11.94-35.53-9.33-46.5,6a28.92,28.92,0,0,0-5.7,18.92,14,14,0,0,0,1.66,0c30.34-4.29,61.11,21.64,62,56.51.15,5.42-3.11,9.2-7.76,9.33-4.47.12-7.92-3.33-8.16-8.57a43,43,0,0,0-6.32-21.18c-7.82-12.53-18.75-20.53-33.95-20.46-15.4.06-26.42,8.24-33.86,21.2s-8.05,26.25-1,39.67c1.64,3.13,2.34,6.41,0,9.38A31.55,31.55,0,0,1,98.13,210c-11.95,9.65-17.3,22.11-15.22,37.35,2.75,20,19.57,36.31,39.23,36.7,5,.09,8.29,3.73,8.2,8.07-.1,4.52-3.76,7.9-8.89,7.77-3.31-.08-6.82-.12-9.85-1.25C103.69,295.74,96,292.23,87.68,288.72ZM258.4,156.83c5.21-1.09,10.18-2.56,15.24-3.07a7.81,7.81,0,0,1,8.69,7.48c.22,4.17-2.9,7.59-7.58,8.3-11.8,1.8-16.35,7.08-16.35,19V337.5c1.39-1.3,2.14-2,2.87-2.7a63.35,63.35,0,0,1,42.91-18.71c6-.29,10,2.79,10.16,7.7.15,4.72-3.5,7.94-9.33,8.25-33.84,1.79-55.07,34.1-43.31,65.89,9.76,26.38,37.3,39,63,28.62A44.74,44.74,0,0,0,348.4,405c2.73-5.33,6.28-7.58,12.45-6.87A30.94,30.94,0,0,0,373,396.7c19.32-5.89,32.29-27.17,28.6-47-1-5.43-.14-9.51,4.22-13.12a33.3,33.3,0,0,0,6.36-7.64c8.22-12.7,8.2-30.4,0-41.21l-4.26,2.87c-8.59,5.78-18,9.17-28.41,9.33-5.85.09-9.84-4.18-8.9-9.23.79-4.18,3.8-6.47,9.1-6.74A37.8,37.8,0,0,0,407,270.63c18.2-20.71,13.71-48.66-6.4-62.22-5-3.35-5.71-6.67-3-12.06,8.46-17,5.52-32.53-5.92-46.92a36.81,36.81,0,0,0-53.61-4.7,44.59,44.59,0,0,0-15.6,32.1c-.3,5.29-3.56,8.73-8,8.71-4.66,0-8-3.81-7.89-9.19a73.39,73.39,0,0,1,.82-8.74C310.75,143.8,331,123.36,354.84,120c5-.71,10.23-.1,15.32-.1.29-19.62-16.76-34.78-35.48-32.35-7.43,1-13.51,4.38-19.15,9.12-3.86,3.25-8.56,2.75-11.42-.62s-2.48-8.1,1.18-11.4a38.81,38.81,0,0,1,7.92-6c5.48-2.8,11.26-5,16.88-7.5-6.71-12.17-23.28-20.28-37-17.81-19.4,3.49-34.38,21.12-34.66,41.26-.22,16.39,0,32.79-.06,49.19Z" transform="translate(-66.43 -36.8)"/><path d="M176.84,233.5c-5.7-2.21-11.43-3.76-16.49-6.53-18.48-10.1-28.42-25.91-29.85-46.93-.42-6.17,2.57-10,7.46-10.36s8.07,3.32,8.51,9.47c1.67,23.24,20.23,39.81,43,38.3a37.87,37.87,0,0,0,20.31-7.52c1.28-1,2.52-2,3.86-2.82,4-2.57,8.44-1.92,11,1.53a7.76,7.76,0,0,1-1.24,10.79c-6.88,6.1-14.77,10.59-23.82,12.35-4.29.84-6.41,2.34-7.69,6.77-4.45,15.37-20.73,27-36.8,27-4.79,0-8.45-3.2-8.68-7.6s3.14-7.95,8.37-8.34c10.23-.75,17.53-5.63,21.73-15A5.88,5.88,0,0,0,176.84,233.5Z" transform="translate(-66.43 -36.8)"/><path d="M195.09,404.12c-.6,6.2-3.7,10.16-8.61,10.22-4.72.05-7.83-3.53-8.12-9.46-1-21.2-18.37-40.36-39.52-40.93-5.17-.13-8.61-3.86-8.37-8.31s3.91-7.59,9.1-7.6c21.19-.08,43,15.71,50.73,37.23C192.48,391.34,193.53,397.83,195.09,404.12Z" transform="translate(-66.43 -36.8)"/><path d="M147.34,332.22c-6.86.13-10.57-6.41-7.2-12.24a71.26,71.26,0,0,1,26.22-26.26,72,72,0,0,1,33.8-9.63c6-.25,10,2.75,10.18,7.66.17,4.69-3.41,8-9.28,8.29-20,1.06-35.53,9.9-46.4,26.81C152.81,329.73,150.75,332.3,147.34,332.22Z" transform="translate(-66.43 -36.8)"/><path d="M210.41,119.14a7.94,7.94,0,1,1,7.93-8A8.22,8.22,0,0,1,210.41,119.14Z" transform="translate(-66.43 -36.8)"/><path d="M323.56,232.94c3.9,9.82,10.62,15.11,20.44,16.51.92.14,1.87.09,2.79.22,4.63.66,7.78,4.16,7.53,8.33a8,8,0,0,1-8.73,7.52c-14.95-.76-26.4-7.52-34-20.49a23.89,23.89,0,0,1-3.18-7.7c-.62-3.6-2.64-4.67-5.82-5.24-9.27-1.64-17.29-6-24.47-12-4.07-3.37-4.79-7.94-1.94-11.6,2.71-3.49,7.34-4.17,11.39-1.1,6.71,5.08,13.86,8.75,22.36,9.79,22.21,2.72,43.1-14.69,44.39-37.17,0-.8,0-1.61.1-2.4.51-4.87,4-8.21,8.33-8s7.71,3.77,7.58,8.7c-.47,17.7-7.7,32.13-21.46,43.25C341.6,227.51,333.14,230.93,323.56,232.94Z" transform="translate(-66.43 -36.8)"/><path d="M306.43,403.91a58.6,58.6,0,0,1,50.41-55.61,31,31,0,0,1,5.19-.25c4.67.17,8.07,3.34,8.3,7.59s-3,7.66-7.58,8.3a78.26,78.26,0,0,0-9.45,1.4c-16.56,4.42-29.67,20.84-30.81,38.34-.06.93,0,1.87-.13,2.8-.53,4.69-3.85,7.91-8.05,7.86-4.38-.06-7.67-3.59-7.88-8.44C306.4,405.24,306.43,404.57,306.43,403.91Z" transform="translate(-66.43 -36.8)"/><path d="M300.59,284.06c25,1.53,44.7,12.41,58.55,33.5,3.79,5.78,3.57,10.46-.61,13.36s-8.92,1.37-12.79-4.68a56.07,56.07,0,0,0-23.58-20.87A57.31,57.31,0,0,0,299.41,300c-3.75-.14-6.78-1.47-8.3-5.12C288.66,289.05,293.3,283.77,300.59,284.06Z" transform="translate(-66.43 -36.8)"/><path d="M298.34,111.25a7.94,7.94,0,1,1-7.89-8A8.22,8.22,0,0,1,298.34,111.25Z" transform="translate(-66.43 -36.8)"/></svg>