<svg id="Layer_1" data-name="Layer 1" xmlns="http://www.w3.org/2000/svg" viewBox="0 0 187.24 218.45"><title>Ordonance</title><path d="M265.87,134v1.14q0,30.47,0,60.92a7.89,7.89,0,0,0,2.35,5.91,7.54,7.54,0,0,0,5.41,2.24c3.48,0,7,0,10.45,0h59.71a4.46,4.46,0,0,1,.09.55c0,.21,0,.41,0,.62q0,69.43,0,138.85a9.81,9.81,0,0,1-.29,2.54,7.7,7.7,0,0,1-7.44,5.68H164.92a8.77,8.77,0,0,1-3.14-.47,7.81,7.81,0,0,1-5.13-7.15c0-.24,0-.47,0-.71q0-100.86,0-201.72a9.86,9.86,0,0,1,.3-2.7,7.82,7.82,0,0,1,7.37-5.7H265.87Zm10.3,85.77c-1.43.13-2.86.19-4.27.4a28.19,28.19,0,0,0-16,8.06q-25.9,25.89-51.77,51.81c-7.27,7.33-9.87,16.28-7.76,26.37a28.55,28.55,0,0,0,31.87,22.33,28,28,0,0,0,16.47-8.14q25.9-25.87,51.77-51.81c7.08-7.12,9.68-15.83,7.87-25.68A28.74,28.74,0,0,0,276.17,219.79Zm-33.75-54.47a1.86,1.86,0,0,0-.28-.07H188.33a1.55,1.55,0,0,0-.31,0s0,0-.06.05l-.06,0c-.15,1.85-.08,14.83.09,15.39h54.43ZM188,196.49c-.17.94-.13,15,0,15.5,1.68.15,53.82.08,54.4-.08V196.49Z" transform="translate(-156.64 -134.02)"/><path d="M281.49,188.6V138.52l.07,0s.06,0,.07,0a2.4,2.4,0,0,1,.26.18l56.93,49.8-.05.12a.07.07,0,0,1,0,0l-56.71,0C281.86,188.64,281.71,188.62,281.49,188.6Z" transform="translate(-156.64 -134.02)"/><path d="M265.13,278.14l-18.54-18.53c.14-.15.31-.34.49-.52,6.6-6.6,13.16-13.23,19.8-19.78a13.11,13.11,0,0,1,18.69,18.39c-6.66,6.76-13.4,13.43-20.11,20.14C265.35,278,265.23,278.05,265.13,278.14Z" transform="translate(-156.64 -134.02)"/><path d="M235.34,270.71,254,289.31c-.13.14-.3.34-.48.52l-19.68,19.68a13.14,13.14,0,0,1-22.4-7.3A12.78,12.78,0,0,1,215,291.15c2.77-2.85,5.61-5.63,8.43-8.44l11.35-11.36A7.47,7.47,0,0,0,235.34,270.71Z" transform="translate(-156.64 -134.02)"/></svg>