<svg xmlns="http://www.w3.org/2000/svg" width="38.653" height="29.558" viewBox="0 0 38.653 29.558">
  <path id="Path_811" data-name="Path 811" d="M143.649,321.326c0-.171-.006-.346-.02-.529a1.116,1.116,0,0,0-.074-.322,4.2,4.2,0,0,0-4.45-3.475H133.42a1.137,1.137,0,1,0,0,2.274h5.685a1.976,1.976,0,0,1,2.265,2l0,.078c-.043,1.356-1.014,1.992-3.014,3.178-.318.19-.649.387-.987.595a29.2,29.2,0,0,0-3.74,2.981c-1.035.916-2.839,2.537-3.7,2.793a16.1,16.1,0,0,1,.5-4.6c.574-2.74,1.156-5.573-.506-8.6l-.007-.015c-.02-.037-.032-.074-.053-.111a1.221,1.221,0,0,0-.094-.108,1.04,1.04,0,0,0-.155-.176,1,1,0,0,0-.176-.119,1.028,1.028,0,0,0-.194-.1,1.05,1.05,0,0,0-.231-.047.992.992,0,0,0-.138-.028H115.23c-5.641,0-10.23,5.1-10.23,11.368v9.095a6.5,6.5,0,0,0,2.678,5.507,5.009,5.009,0,0,0,2.745.792,7.25,7.25,0,0,0,3-.717,9.6,9.6,0,0,0,2.682-2.057,8.685,8.685,0,0,0,5.161,1.725,10.522,10.522,0,0,0,5.968-2.037,5.584,5.584,0,0,0,1.462-1.481,13.178,13.178,0,0,1,.193,6.006,1.139,1.139,0,0,0,.895,1.337,1.235,1.235,0,0,0,.222.021,1.139,1.139,0,0,0,1.115-.915,15.6,15.6,0,0,0-1.172-9.677,13.649,13.649,0,0,0,.181-2.8,4.529,4.529,0,0,0,1.326-.5c1.118,2.291,2.918,7.952,1.984,12.525a1.137,1.137,0,0,0,.886,1.341,1.215,1.215,0,0,0,.229.023,1.138,1.138,0,0,0,1.113-.909c1.1-5.4-1.057-11.871-2.328-14.295.589-.479,1.189-1.005,1.8-1.545a27.853,27.853,0,0,1,3.425-2.747c.326-.2.646-.391.954-.573,1.982-1.177,3.866-2.3,4.1-4.686a1.116,1.116,0,0,0,.03-.256c0-.074,0-.149,0-.222m-31.162,19.65a3.775,3.775,0,0,1-3.578.082,4.224,4.224,0,0,1-1.636-3.595v-9.095c0-5.015,3.57-9.095,7.957-9.095h12.93c.953,2.119.537,4.19.041,6.557a16.342,16.342,0,0,0-.482,5.891c-.406.459-2.542.815-3.364.952-.581.1-1.1.184-1.459.28-3.155.838-5.322,3.164-7.231,5.216a12.536,12.536,0,0,1-3.179,2.807M125.96,338.8c-4.129,2.814-7.135,1.344-8.277.543,1.617-1.727,3.449-3.566,5.8-4.189.309-.082.75-.153,1.247-.235a17.475,17.475,0,0,0,3.127-.72c-.073,1.669-.506,3.654-1.9,4.6" transform="translate(-105 -317)" fill="#262626"/>
</svg>
