<svg xmlns="http://www.w3.org/2000/svg" width="44.946" height="40.337" viewBox="0 0 44.946 40.337">
  <path id="Path_793" data-name="Path 793" d="M269.454,322.506a13.6,13.6,0,0,0-6.183-8.212,8.122,8.122,0,0,0-6.178-1.064,4.564,4.564,0,0,0-3.28,4.752c.017,1.325.783,2.694,1.67,4.281.41.733.844,1.522,1.226,2.345a8.243,8.243,0,0,0-6.272,6.618,6.432,6.432,0,0,0,.211,2.867,14.661,14.661,0,0,0-6.351,0,6.416,6.416,0,0,0,.211-2.867,8.242,8.242,0,0,0-6.272-6.618c.383-.823.816-1.612,1.226-2.345.887-1.587,1.653-2.956,1.671-4.283a4.566,4.566,0,0,0-3.281-4.751,8.122,8.122,0,0,0-6.178,1.064,13.607,13.607,0,0,0-6.183,8.212c-1,3.841-.443,8.058,1.429,10.745a6.1,6.1,0,0,0,4.437,2.775c.166.016.331.024.492.024a4.7,4.7,0,0,0,4.315-3.108,8.367,8.367,0,0,0,.7-2.936,19.685,19.685,0,0,1,.561-3.215c.03.006.052.025.083.029a5.9,5.9,0,0,1,4.731,4.837,7.18,7.18,0,0,1-.595,3.215c-.015.046-.031.1-.047.143-3.048,1.434-5.079,3.943-5.079,6.8,0,3.653,2.651,5.483,5.244,6.792.458.23.531.723.522,2.083l0,1.5a1.152,1.152,0,0,0,2.3,0V350.7c.012-1.368.025-3.243-1.787-4.157-2.9-1.464-3.977-2.746-3.977-4.734a4.777,4.777,0,0,1,2.016-3.65,6.708,6.708,0,0,0,.3,2.868,1.153,1.153,0,1,0,2.184-.741,5.783,5.783,0,0,1,.153-3.561,12.1,12.1,0,0,1,7.99,0,5.774,5.774,0,0,1,.153,3.561,1.153,1.153,0,0,0,2.184.741,6.709,6.709,0,0,0,.3-2.868,4.779,4.779,0,0,1,2.015,3.65c0,1.988-1.079,3.271-3.977,4.734-1.817.916-1.8,3.559-1.788,5.306v.332a1.153,1.153,0,0,0,2.306,0v-.348c-.014-1.964.16-3.052.52-3.233,2.593-1.308,5.245-3.138,5.245-6.792,0-2.856-2.032-5.365-5.08-6.8-.016-.047-.032-.1-.047-.143a7.161,7.161,0,0,1-.594-3.215,5.893,5.893,0,0,1,4.731-4.837.688.688,0,0,0,.082-.029,19.436,19.436,0,0,1,.561,3.215,8.377,8.377,0,0,0,.7,2.935,4.7,4.7,0,0,0,4.316,3.109c.161,0,.326-.008.492-.024a6.1,6.1,0,0,0,4.437-2.775c1.872-2.686,2.432-6.9,1.429-10.745m-34.238,3.625a21.865,21.865,0,0,0-.642,3.636,6.168,6.168,0,0,1-.507,2.217c-.872,1.906-2.087,1.784-2.486,1.748a3.931,3.931,0,0,1-2.769-1.8c-1.48-2.123-1.918-5.676-1.09-8.843a11.4,11.4,0,0,1,5.1-6.8,6.684,6.684,0,0,1,3.289-.985,4.249,4.249,0,0,1,1.127.146,2.3,2.3,0,0,1,1.585,2.5,9.152,9.152,0,0,1-1.377,3.189,21.365,21.365,0,0,0-2.233,4.993m30.916,5.8a3.928,3.928,0,0,1-2.769,1.8c-.4.038-1.613.159-2.487-1.749a6.179,6.179,0,0,1-.506-2.216,21.869,21.869,0,0,0-.642-3.636,21.318,21.318,0,0,0-2.233-4.993,9.157,9.157,0,0,1-1.377-3.188,2.3,2.3,0,0,1,1.585-2.5,4.255,4.255,0,0,1,1.127-.146,6.68,6.68,0,0,1,3.289.985,11.4,11.4,0,0,1,5.1,6.8c.829,3.167.391,6.72-1.09,8.843" transform="translate(-225 -313)" fill="#262626"/>
</svg>
