<svg id="Layer_1" data-name="Layer 1" xmlns="http://www.w3.org/2000/svg" viewBox="0 0 239 245.46"><defs><style>.cls-1{fill:#353535;}</style></defs><title>Peau</title><path class="cls-1" d="M363.54,230.62l-65,0c-8.67.56-17.5,6.29-22,14.25-3.56,6.33-3.87,13.26-.87,19a24.33,24.33,0,0,0,3,4.43c2.51,3,5,6.25,7.44,9.72A38.25,38.25,0,0,1,292.53,295c0,.09,0,.14,0,.23a6.26,6.26,0,0,0,.31,1.56A39.33,39.33,0,0,1,280,329.1a44,44,0,0,1-59,0c-14.81-13.59-17.36-35.09-6.07-51.12,2.37-3.37,4.87-6.61,7.63-9.88,4.77-5.77,5.7-13.65,2.48-21.1a27.39,27.39,0,0,0-23-16.34H137.46a6.46,6.46,0,0,0,0,12.92h64.17c5.31.35,9.83,4.56,11.55,8.54.91,2.12,1.55,5.18-.7,7.91-2.79,3.3-5.52,6.84-8.12,10.53a51.28,51.28,0,0,0-8.14,18.38,6.39,6.39,0,0,0-.63-.13H143.92a6.46,6.46,0,1,0,0,12.92H195a52.61,52.61,0,0,0,17.29,36.94,56.92,56.92,0,0,0,76.42,0,52.49,52.49,0,0,0,17.21-36.94h44.7a6.46,6.46,0,0,0,0-12.92H304.67a51.67,51.67,0,0,0-8-18.1c-2.64-3.8-5.38-7.38-8.13-10.65a11.41,11.41,0,0,1-1.42-2.1c-1.23-2.35-.3-4.93.69-6.69,2.34-4.17,7.2-7.41,11.13-7.68h64.59a6.46,6.46,0,0,0,0-12.92" transform="translate(-131 -127.27)"/><path class="cls-1" d="M215,301.68c0,18.48,18.76,32.3,35.53,32.3S286,320.16,286,301.68c0-12.52-5.13-19.19-14.21-29.73-2.34-3.66-28.41-45.86-22.76-82.5,4.53-18.87,14.11-37,34.09-50.35A6.46,6.46,0,1,0,276,128.35,90.37,90.37,0,0,0,242.62,168c-.51.53-5.35,13.28-6.27,19.14-4.55,19.49-4.27,39.15-4,55,.18,12.58.36,25.59-2.86,29.54C219.67,283,215,289.06,215,301.68m24.28-21.63s.42-.53.44-.57c5.32-6.46,5.75-17.24,5.61-31.94a186.5,186.5,0,0,0,16,31.94,6,6,0,0,0,.45.58c9.05,10.5,11.35,14,11.35,21.62,0,9.77-11.2,19.38-22.61,19.38s-22.61-9.61-22.61-19.38c0-7.68,2-10.74,11.36-21.63" transform="translate(-131 -127.27)"/><path class="cls-1" d="M294.49,342.26a63.9,63.9,0,0,1-88.13-.15l-.05-.05a6.46,6.46,0,0,0-8.7,9.54,76.76,76.76,0,0,0,105.78,0,6.45,6.45,0,1,0-8.9-9.34" transform="translate(-131 -127.27)"/></svg>