<svg id="Layer_1" data-name="Layer 1" xmlns="http://www.w3.org/2000/svg" viewBox="0 0 168.28 195.9"><title>Psychology</title><path d="M322.19,242.55c.05,11.13-2.8,21.48-7.5,31.37-3.57,7.52-7.32,14.94-10.89,22.45a37.24,37.24,0,0,0-2.9,25.74c1.73,7,.53,9.13-5.78,12.39q-25,12.94-50.13,25.85c-8.19,4.22-11,3.21-14.74-5a80.81,80.81,0,0,0-5.44-10.08c-3.25-5-7.9-7.71-14-8.58a167.1,167.1,0,0,1-23.46-4.58c-13.65-4-18.16-10.59-18.27-24.76,0-.5.26-1.16,0-1.47-4-5.39-3.89-11.72-4.36-18-.06-.87-1.71-1.76-2.77-2.4-8-4.81-10.29-12.8-5.94-21,1.4-2.64,2.86-5.26,4.34-7.87,5.53-9.77,9.45-19.42,10.36-31.38,1.95-25.52,16.57-43.64,40.71-52.54,25-9.22,49.74-7.78,73.19,5.66C309.42,192.6,320.66,214.78,322.19,242.55Zm-34.51,81c-3-13.55.35-25.53,6.21-37.09,3.3-6.53,6.58-13.08,9.61-19.74,11.46-25.24,4-55.58-18.31-72.07-22.91-16.93-48-18.63-73.71-7.6-17.67,7.58-29.86,27.93-28.06,45.73a25.51,25.51,0,0,1-3.59,16.11c-3.72,6.49-7.26,13.09-10.85,19.65-.76,1.39-1.38,2.84-2.3,4.76,2.28.76,4,1.34,5.66,1.86,6.39,2,8.22,5.89,7.36,12.62-.43,3.42,1.1,7.08,1.73,10.64.5,2.86,1.67,5.83,1.3,8.58-.92,7-.1,9.75,6.46,11.86a90.71,90.71,0,0,0,18.94,4.11c12,1.16,21.8,5.67,28.4,16.07,1.68,2.65,3.22,5.38,5,8.35Z" transform="translate(-153.91 -166.88)"/><path d="M270.15,212.12v21.93c2.3-1.81,3.62-2.9,5-3.92a9.25,9.25,0,0,1,12.66,1,9.67,9.67,0,0,1,.38,12.37c-3.3,3.95-8.11,4.66-12.52,1.79-1.5-1-2.91-2.11-5.36-3.9V263H248.5c1.73,2.51,2.85,4.08,3.91,5.69a9,9,0,0,1-1.19,11.83,9.49,9.49,0,0,1-12.34.64,9,9,0,0,1-2.47-11.63c1-1.86,2.37-3.51,4.33-6.34H219.31V241.43c-2.6,1.66-4.25,2.67-5.85,3.76a8.76,8.76,0,0,1-11.75-1.12,9.43,9.43,0,0,1-.29-12.75,8.68,8.68,0,0,1,11.7-1.68c1.75,1.1,3.53,2.16,6.21,3.8V212.06c6-.36,12-.78,18.1-1a2.79,2.79,0,0,1,2.3,1.27c.2.69-.67,1.66-1,2.54-1.16,3.12-3.28,6.28-3.19,9.37.11,4.1,3.38,6.77,7.58,7.48a8.8,8.8,0,0,0,9.46-4.17,9.29,9.29,0,0,0-.18-10.79,44.25,44.25,0,0,1-2.38-4.59c1.86-.36,3.73-1.06,5.58-1C260.24,211.27,264.86,211.74,270.15,212.12Z" transform="translate(-153.91 -166.88)"/></svg>