<svg id="Layer_1" data-name="Layer 1" xmlns="http://www.w3.org/2000/svg" viewBox="0 0 165 211.2"><defs><style>.cls-1{fill:#353535;}</style></defs><title>Rapport médical</title><path class="cls-1" d="M326.4,144.4H174.6A6.59,6.59,0,0,0,168,151V349a6.59,6.59,0,0,0,6.6,6.6H326.4A6.59,6.59,0,0,0,333,349V151a6.59,6.59,0,0,0-6.6-6.6m-6.6,198H181.2V217H300a6.6,6.6,0,1,0,0-13.2H181.2V157.6H319.8Z" transform="translate(-168 -144.4)"/><path class="cls-1" d="M201,184h39.6a6.6,6.6,0,0,0,0-13.2H201a6.6,6.6,0,1,0,0,13.2" transform="translate(-168 -144.4)"/><path class="cls-1" d="M283.8,298.17c-3.86,5.36-10.62,14.78-14.48,17.24-.16-4.58,2.29-14.31,3.42-18.83,2.58-10.23,3.86-15.38-.71-18.77a7.44,7.44,0,0,0-8.42-.2c-3.05,1.83-6.44,5.16-10.37,9a116.86,116.86,0,0,1-8.94,8.19c-.33-9.12-5.54-11.36-9.94-11.6-10.53-.8-16.65,15.18-20,28.49a6.6,6.6,0,0,0,12.81,3.2,83.61,83.61,0,0,1,4.5-13.14,10.35,10.35,0,0,0,6.5,7.28c6.62,2.58,13.22-2.42,20.11-8.95-2.46,10.78-3.36,19,.31,24.37a10.64,10.64,0,0,0,7.53,4.61,12.11,12.11,0,0,0,1.69.12c9.9,0,18.07-11.36,26.68-23.33,4.36-6.08,11-15.26,14.21-16.37A6.59,6.59,0,1,0,304.47,277c-7.24,2.46-13.46,11.11-20.67,21.14" transform="translate(-168 -144.4)"/><path class="cls-1" d="M247.2,243.4a6.59,6.59,0,0,0-6.6-6.6H201a6.6,6.6,0,1,0,0,13.2h39.6a6.59,6.59,0,0,0,6.6-6.6" transform="translate(-168 -144.4)"/><path class="cls-1" d="M293.4,250H300a6.6,6.6,0,1,0,0-13.2h-6.6a6.6,6.6,0,1,0,0,13.2" transform="translate(-168 -144.4)"/></svg>