<svg xmlns="http://www.w3.org/2000/svg" width="42.632" height="43.998" viewBox="0 0 42.632 43.998">
  <path id="Rapport" d="M181.835,169H148.08V125h21.6c1.634,1.75,3.267,3.506,4.907,5.251.608.646,1.243,1.268,1.9,1.93.733-.745,1.4-1.432,2.086-2.123,1-1,1.97-2.022,3-2.983,1.382-1.281,2.509-1.227,3.815.1.452.455.913.9,1.351,1.366q2,2.092,3.971,4.178v.965a16.845,16.845,0,0,1-1.573,2.25c-2.161,2.246-4.377,4.438-6.607,6.615a2.123,2.123,0,0,0-.695,1.675Q181.864,156.611,181.835,169Zm-26.366-12.723c1.048,0,2.009.015,2.968-.012.259,0,.675-.081.745-.243.755-1.737,1.453-3.506,2.227-5.4h-5.942V148.96c.353-.015.666-.042.98-.042,1.671,0,3.344.017,5.017-.023a1.033,1.033,0,0,0,.816-.428c.836-1.764,1.193-3.782,2.96-5.037l-.149-.193h-9.629V141.5h1.075c3.055,0,6.115-.125,9.16.05,1.727.1,2.337-1.061,3.211-2.113h-1.445V128.63H151.679v36.781h26.584V146.785c-2,2.019-3.842,3.9-5.716,5.743a4.382,4.382,0,0,1-1.339.88c-2.169.922-4.359,1.8-6.542,2.69l.031.193h9.743v1.694H155.469Zm15.26-4.12-6.023-5.982c-.772,1.885-1.577,3.871-2.391,5.853-.658,1.6-.618,1.812.772,2.835a.917.917,0,0,0,.755.069C166.164,154.016,168.473,153.07,170.729,152.155Zm3.223-17.435-3.807-3.491v5.415c1.98.729,2.63-1,3.807-1.924Z" transform="translate(-148.08 -125)" fill="#24a9e2"/>
</svg>
