<svg id="Layer_1" data-name="Layer 1" xmlns="http://www.w3.org/2000/svg" viewBox="0 0 220.92 228"><title>Rapport</title><path d="M323,353H148.08V125H260c8.47,9.07,16.93,18.17,25.43,27.21,3.15,3.35,6.44,6.57,9.84,10,3.8-3.86,7.28-7.42,10.81-11,5.16-5.18,10.21-10.48,15.57-15.46,7.16-6.64,13-6.36,19.77.52,2.34,2.36,4.73,4.67,7,7.08Q358.76,154.19,369,165v5c-2.69,3.92-4.9,8.29-8.15,11.66-11.2,11.64-22.68,23-34.24,34.28a11,11,0,0,0-3.6,8.68Q323.15,288.81,323,353ZM186.37,287.07c5.43,0,10.41.08,15.38-.06,1.34,0,3.5-.42,3.86-1.26,3.91-9,7.53-18.17,11.54-28H186.36v-8.59c1.83-.08,3.45-.22,5.08-.22,8.66,0,17.33.09,26-.12,1.46,0,3.67-1,4.23-2.22,4.33-9.14,6.18-19.6,15.34-26.1l-.77-1h-49.9v-9h5.57c15.83,0,31.69-.65,47.47.26,8.95.51,12.11-5.5,16.64-10.95h-7.49v-56h-81.8v190.6H304.49V237.89c-10.38,10.46-19.91,20.21-29.62,29.76a22.71,22.71,0,0,1-6.94,4.56c-11.24,4.78-22.59,9.32-33.9,13.94l.16,1h50.49v8.78H186.37Zm79.08-21.35-31.21-31c-4,9.77-8.17,20.06-12.39,30.33-3.41,8.3-3.2,9.39,4,14.69a4.75,4.75,0,0,0,3.91.36C241.79,275.36,253.76,270.46,265.45,265.72Zm16.7-90.35-19.73-18.09v28.06C272.68,189.12,276.05,180.18,282.15,175.37Z" transform="translate(-148.08 -125)"/></svg>