<svg id="Layer_1" data-name="Layer 1" xmlns="http://www.w3.org/2000/svg" viewBox="0 0 261 246.09"><defs><style>.cls-1{fill:#353535;}</style></defs><title>Respiratoire</title><path class="cls-1" d="M239.31,137.74h22.38a7.46,7.46,0,0,0,0-14.91H239.31a7.46,7.46,0,0,0,0,14.91" transform="translate(-120 -100.46)"/><path class="cls-1" d="M239.31,160.11h22.38a7.46,7.46,0,0,0,0-14.91H239.31a7.46,7.46,0,0,0,0,14.91" transform="translate(-120 -100.46)"/><path class="cls-1" d="M239.31,115.37h22.38a7.46,7.46,0,0,0,0-14.91H239.31a7.46,7.46,0,0,0,0,14.91" transform="translate(-120 -100.46)"/><path class="cls-1" d="M300.33,168.07c-12.59-2.32-18.5,4.17-22.61,10.85a7.34,7.34,0,0,0-1.12,3.91v58.8c-4.82-3.58-7.45-7.86-7.45-14.4a6.71,6.71,0,0,0-.23-1.1,6.71,6.71,0,0,0,.23-1.1V175a7.46,7.46,0,0,0-7.47-7.46H239.31a7.46,7.46,0,0,0-7.46,7.46v52.2c0,6.54-2.63,10.82-7.45,14.4v-58.8a7.34,7.34,0,0,0-1.12-3.91c-4.12-6.69-10.07-13.17-22.61-10.85C151.41,177.2,120,256.12,120,294.36c0,46.35,21.24,48,53.39,50.43,5.19.4,10.87.83,17.06,1.46l2.17.1,1.27,0c1.06.09,2.11.15,3.14.15a26.24,26.24,0,0,0,18.12-6.72c6-5.43,9.25-13.66,9.25-23.16V259c11.77-5.95,22.37-14.68,22.37-31.73V182.48h7.45V225a6.71,6.71,0,0,0,.23,1.1,6.71,6.71,0,0,0-.23,1.1c0,17.05,10.61,25.78,22.38,31.73v57.7c0,9.5,3.29,17.73,9.25,23.16a26.19,26.19,0,0,0,18,6.72c1,0,2,0,3-.13l1.58-.06,2.19-.1c6.17-.63,11.84-1.06,17-1.46,32.15-2.45,53.39-4.08,53.39-50.43,0-38.24-31.41-117.16-80.67-126.29M205.11,328.8c-2.42,2.2-5.78,3.14-9.8,2.74l-2.17-.1-1.18,0c-6.32-.65-12.12-1.09-17.43-1.49-32.79-2.5-39.62-3-39.62-35.56,0-33.87,28.92-104.29,68.48-111.62a13,13,0,0,1,2.34-.3c1.42,0,2.35.59,3.75,2.6v64.3c-1,.42-1.92.82-3,1.24-13,5.34-27.78,11.41-33.76,26a7.46,7.46,0,0,0,13.81,5.65c3.32-8.14,12.65-12.49,22.92-16.76v51.17c0,5.25-1.55,9.56-4.37,12.14m121.36,1.12c-5.31.4-11.11.84-17,1.46l-1.58.06-2.11.09c-4.13.4-7.43-.53-9.86-2.73-2.82-2.58-4.37-6.89-4.37-12.14V265.49c10.28,4.27,19.6,8.62,22.92,16.76a7.46,7.46,0,1,0,13.81-5.65c-6-14.61-20.73-20.68-33.76-26-1.05-.42-2-.82-3-1.24V185c2.05-2.92,3.1-2.86,6.09-2.3,39.56,7.33,68.48,77.75,68.48,111.62,0,32.53-6.83,33.06-39.62,35.56" transform="translate(-120 -100.46)"/></svg>