<svg id="Layer_1" data-name="Layer 1" xmlns="http://www.w3.org/2000/svg" viewBox="0 0 288.17 187.75"><title>Vision</title><path d="M112.09,142.51c2.81.06,5.62.16,8.43.16h53.89v16.84H129.12V209h-17Z" transform="translate(-112.09 -142.51)"/><path d="M257.57,297.39c-43.27-.85-78.67-17.16-107.29-48.33-3-3.31-5.55-7.08-8.41-10.56-1.18-1.42-1-2.45,0-3.9,10.69-15.21,24.36-27.24,40-37.11a137.37,137.37,0,0,1,53.06-19.92c23.51-3.6,46.59-1.67,69,6.68,27.15,10.14,49.6,26.57,66.66,50.16,1.21,1.66,1.11,2.77,0,4.39-12.27,17.32-28.06,30.68-46.49,40.95a137.3,137.3,0,0,1-53.81,16.89C265.74,297.09,261.22,297.18,257.57,297.39Zm42.56-61.18c-.44-24.22-20.24-43.74-44.08-43.47C231.83,193,212.11,213,212.46,237c.35,24.23,20.5,44,44.35,43.46C281,279.91,300.56,260,300.13,236.21Zm8.2-31.64C320.07,226,320,247.3,307.72,269.2A132.46,132.46,0,0,0,351,236.56C338.79,222.89,324.83,212.05,308.33,204.57ZM161.71,236.63A134.57,134.57,0,0,0,204.77,269c-12.22-21.78-12.2-43-.08-64.69A131.66,131.66,0,0,0,161.71,236.63Z" transform="translate(-112.09 -142.51)"/><path d="M338.05,330.26V313.58h45.47V264.11h16.74v66.15Z" transform="translate(-112.09 -142.51)"/><path d="M256.18,211.31c13.64-.16,25.32,11.46,25.39,25.23.07,13.61-11.17,25-25,25.32-13.56.33-25.28-11.19-25.53-25.09C230.77,223.18,242.34,211.48,256.18,211.31Zm8.49,25.24a8.38,8.38,0,1,0-8.41,8.41A8.53,8.53,0,0,0,264.67,236.55Z" transform="translate(-112.09 -142.51)"/></svg>